G04*
G04 #@! TF.GenerationSoftware,Altium Limited,Altium Designer,21.3.1 (25)*
G04*
G04 Layer_Physical_Order=1*
G04 Layer_Color=255*
%FSLAX25Y25*%
%MOIN*%
G70*
G04*
G04 #@! TF.SameCoordinates,C2895D86-3F53-4CC5-9A74-561D9FEADA75*
G04*
G04*
G04 #@! TF.FilePolarity,Positive*
G04*
G01*
G75*
%ADD12C,0.01000*%
%ADD17C,0.00600*%
%ADD31R,0.03937X0.03347*%
%ADD32R,0.02362X0.03347*%
%ADD46R,0.04331X0.02362*%
%ADD58R,0.03000X0.04000*%
%ADD59R,0.03150X0.05906*%
%ADD60R,0.05709X0.07874*%
%ADD61R,0.07087X0.01181*%
%ADD62R,0.01181X0.07087*%
%ADD63R,0.01968X0.05906*%
%ADD64R,0.07100X0.04700*%
%ADD65R,0.22441X0.07087*%
%ADD66R,0.11024X0.05118*%
%ADD67R,0.13780X0.04331*%
%ADD68R,0.13386X0.05906*%
%ADD69R,0.04331X0.13780*%
%ADD70R,0.05906X0.13386*%
%ADD71C,0.04500*%
%ADD72R,0.03000X0.05000*%
%ADD73R,0.04000X0.03000*%
G04:AMPARAMS|DCode=74|XSize=21.65mil|YSize=49.21mil|CornerRadius=1.95mil|HoleSize=0mil|Usage=FLASHONLY|Rotation=270.000|XOffset=0mil|YOffset=0mil|HoleType=Round|Shape=RoundedRectangle|*
%AMROUNDEDRECTD74*
21,1,0.02165,0.04532,0,0,270.0*
21,1,0.01776,0.04921,0,0,270.0*
1,1,0.00390,-0.02266,-0.00888*
1,1,0.00390,-0.02266,0.00888*
1,1,0.00390,0.02266,0.00888*
1,1,0.00390,0.02266,-0.00888*
%
%ADD74ROUNDEDRECTD74*%
%ADD75R,0.03543X0.03150*%
%ADD76C,0.03937*%
%ADD77R,0.07000X0.03500*%
G04:AMPARAMS|DCode=78|XSize=23.62mil|YSize=78.74mil|CornerRadius=2.01mil|HoleSize=0mil|Usage=FLASHONLY|Rotation=90.000|XOffset=0mil|YOffset=0mil|HoleType=Round|Shape=RoundedRectangle|*
%AMROUNDEDRECTD78*
21,1,0.02362,0.07472,0,0,90.0*
21,1,0.01961,0.07874,0,0,90.0*
1,1,0.00402,0.03736,0.00980*
1,1,0.00402,0.03736,-0.00980*
1,1,0.00402,-0.03736,-0.00980*
1,1,0.00402,-0.03736,0.00980*
%
%ADD78ROUNDEDRECTD78*%
%ADD79R,0.09843X0.06693*%
%ADD80R,0.06299X0.09449*%
%ADD81R,0.02953X0.01181*%
%ADD82C,0.01968*%
%ADD83C,0.06000*%
%ADD84C,0.04000*%
%ADD85C,0.07000*%
%ADD86C,0.05906*%
%ADD87R,0.05906X0.05906*%
%ADD88C,0.02165*%
%ADD89C,0.02165*%
%ADD90C,0.04331*%
%ADD91C,0.02000*%
%ADD92C,0.04300*%
G36*
X275122Y293563D02*
X270622D01*
X272122Y296063D01*
X270622Y298563D01*
X275122D01*
Y293563D01*
D02*
G37*
G36*
X271122Y296063D02*
X269622Y293563D01*
X266622D01*
Y296063D01*
Y298563D01*
X269622D01*
X271122Y296063D01*
D02*
G37*
G36*
X273670Y379516D02*
Y377016D01*
X270670D01*
X269170Y379516D01*
X270670Y382016D01*
X273670D01*
Y379516D01*
D02*
G37*
G36*
X268170D02*
X269670Y377016D01*
X265170D01*
Y382016D01*
X269670D01*
X268170Y379516D01*
D02*
G37*
G36*
X241646Y440158D02*
Y437657D01*
X238646D01*
X237146Y440158D01*
X238646Y442658D01*
X241646D01*
Y440158D01*
D02*
G37*
G36*
X236146D02*
X237646Y437657D01*
X233146D01*
Y442658D01*
X237646D01*
X236146Y440158D01*
D02*
G37*
G36*
X216067Y470079D02*
Y467579D01*
X213067D01*
X211567Y470079D01*
X213067Y472579D01*
X216067D01*
Y470079D01*
D02*
G37*
G36*
X210567D02*
X212067Y467579D01*
X207567D01*
Y472579D01*
X212067D01*
X210567Y470079D01*
D02*
G37*
D12*
X191389Y353764D02*
X191705D01*
X190232Y354921D02*
X191389Y353764D01*
X184843Y354921D02*
X190232D01*
X189426Y358680D02*
X190663Y357443D01*
X211471D02*
X212598Y358571D01*
X190663Y357443D02*
X211471D01*
X359519Y242122D02*
X364279Y237363D01*
X359519Y242122D02*
Y258351D01*
X364279Y230406D02*
X364567Y230118D01*
X364279Y230406D02*
Y237363D01*
X325653Y501128D02*
X325876Y501351D01*
Y506254D02*
X326207Y506585D01*
X325876Y501351D02*
Y506254D01*
X327520Y247370D02*
X333071Y241819D01*
X321521Y258145D02*
X321568Y258192D01*
X327179Y247370D02*
X327520D01*
X321406Y253144D02*
X321521Y253259D01*
Y258145D01*
X321406Y253144D02*
X327179Y247370D01*
X214173Y218110D02*
X216054Y216230D01*
X221177D02*
X222441Y217494D01*
Y221654D01*
X216054Y216230D02*
X221177D01*
X178762Y552406D02*
X183395D01*
X183465Y552336D01*
X321206Y501804D02*
Y506387D01*
Y501804D02*
X322068Y500942D01*
Y500627D02*
Y500942D01*
X321108Y506485D02*
X321206Y506387D01*
X316108Y508158D02*
X320815Y512866D01*
X320866D01*
X346537Y513303D02*
X372835Y539601D01*
Y548268D01*
X375877Y538991D02*
X379052D01*
X363178Y526292D02*
Y526292D01*
X375877Y538991D01*
X350831Y513944D02*
X363178Y526292D01*
X350825Y513944D02*
X351017Y513752D01*
Y506576D02*
Y513752D01*
Y506576D02*
X351108Y506485D01*
X350825Y513944D02*
X350831D01*
X346108Y506485D02*
X346537Y506915D01*
Y513303D01*
X319345Y353302D02*
Y354228D01*
Y354674D02*
Y355972D01*
X316374Y358943D02*
Y365352D01*
X312795Y346752D02*
X319345Y353302D01*
Y354228D02*
X319568Y354451D01*
X316374Y358943D02*
X319345Y355972D01*
Y354674D02*
X319568Y354451D01*
X387319Y511811D02*
Y516307D01*
X383807Y519818D02*
X387319Y516307D01*
X383807Y519818D02*
Y530668D01*
X398582Y545442D02*
Y579226D01*
X383807Y530668D02*
X398582Y545442D01*
X387077Y364636D02*
X391801D01*
X383071Y360630D02*
X387077Y364636D01*
X391801D02*
X393307Y366142D01*
X387440Y394595D02*
X388397Y393638D01*
X390614D01*
X393307Y390945D01*
X373503Y394595D02*
X387440D01*
X370396D02*
X373503D01*
X338414Y394269D02*
X373503D01*
X310062Y365917D02*
X338414Y394269D01*
X334729Y351098D02*
X354519Y370889D01*
X370313D02*
X370396Y370972D01*
X354519Y370889D02*
X370313D01*
X373082Y378847D02*
X387440D01*
X370396D02*
X373082D01*
X334602Y354896D02*
X358384Y378678D01*
X373082D01*
X317080Y285221D02*
Y286357D01*
X250458Y208077D02*
X252598Y205937D01*
X250203Y208077D02*
X250458D01*
X248425Y221654D02*
Y248031D01*
X244197Y217463D02*
Y221551D01*
X245077Y216338D02*
Y216582D01*
X244094Y221654D02*
X244197Y221551D01*
Y217463D02*
X245077Y216582D01*
Y216338D02*
X249827D01*
X251575Y218087D01*
X239841Y216325D02*
X242677Y213490D01*
X250104D02*
X254331Y217717D01*
X242677Y213490D02*
X250104D01*
X239764Y221654D02*
X239841Y221576D01*
Y216325D02*
Y221576D01*
X218110Y221654D02*
Y226772D01*
X224523Y236807D02*
Y292777D01*
X214173Y226457D02*
X224523Y236807D01*
X214173Y218110D02*
Y226457D01*
X226766Y221659D02*
X226772Y221654D01*
X226766Y221659D02*
Y227426D01*
X207115Y242470D02*
X208740Y244094D01*
X262874D02*
X264539Y242429D01*
Y236386D02*
Y242429D01*
X207115Y237049D02*
Y242470D01*
X206967Y213190D02*
X208740Y211417D01*
X206967Y213190D02*
Y218732D01*
X264677Y204311D02*
Y209614D01*
X262874Y211417D02*
X264677Y209614D01*
X212598Y331176D02*
Y358249D01*
Y331176D02*
X232400Y311375D01*
Y311340D02*
Y311375D01*
X212598Y358249D02*
Y361165D01*
X183071Y299974D02*
Y309562D01*
X246298Y305963D02*
Y309562D01*
X178101Y352918D02*
X184808D01*
X220472Y357527D02*
Y362992D01*
X244291Y339173D02*
X250645D01*
X219090Y353462D02*
X223147D01*
X228346Y358661D02*
Y362992D01*
X223147Y353462D02*
X228346Y358661D01*
X221631Y356054D02*
Y356369D01*
X220472Y357527D02*
X221631Y356369D01*
X251259Y338559D02*
X251575D01*
X218504Y354047D02*
X219090Y353462D01*
X214567Y357466D02*
X215181Y356852D01*
X218504Y354047D02*
Y362992D01*
X246214Y309646D02*
X246298Y309562D01*
X215181Y356537D02*
Y356852D01*
X244291Y309646D02*
X246214D01*
X214567Y357466D02*
Y362992D01*
X184808Y352918D02*
X184843Y352953D01*
X250645Y339173D02*
X251259Y338559D01*
X242073Y301758D02*
X248819Y295013D01*
Y293910D02*
Y295013D01*
X238189Y309538D02*
X250787Y296940D01*
X238189Y309538D02*
Y316929D01*
X250787Y294488D02*
Y296940D01*
X174997Y358680D02*
X189426D01*
X193337Y368420D02*
X195996D01*
X196816Y363027D02*
Y367601D01*
X195996Y368420D02*
X196816Y367601D01*
Y363027D02*
X196850Y362992D01*
X202791Y367674D02*
X203536Y368420D01*
X202791Y363027D02*
Y367674D01*
X202388Y371153D02*
Y371654D01*
X200787Y362992D02*
X200819Y363024D01*
X203536Y368420D02*
X205902D01*
X200819Y369584D02*
X202388Y371153D01*
X200819Y363024D02*
Y369584D01*
X202756Y362992D02*
X202791Y363027D01*
X244382Y349106D02*
X248794D01*
X249380Y349692D02*
Y358100D01*
X249083Y361153D02*
X251168Y359069D01*
X247296Y360185D02*
X249380Y358100D01*
X248794Y349106D02*
X249380Y349692D01*
X249335Y347047D02*
X251168Y348880D01*
Y359069D01*
X244291Y349016D02*
X244382Y349106D01*
X244291Y347047D02*
X249335D01*
X249083Y361153D02*
Y385169D01*
X246063Y388189D02*
X249083Y385169D01*
X328037Y348199D02*
X328260Y348422D01*
X334602Y354830D02*
Y354896D01*
X328037Y347328D02*
Y348199D01*
X328260Y348488D02*
X334602Y354830D01*
X318701Y337992D02*
X328037Y347328D01*
X328260Y348422D02*
Y348488D01*
X328232Y344602D02*
X334729Y351098D01*
X342120Y276119D02*
X344615Y273624D01*
X342120Y276119D02*
Y279233D01*
X341735Y279619D02*
X342120Y279233D01*
X320722Y484840D02*
X321108Y485225D01*
X320722Y481723D02*
Y484840D01*
X319089Y480090D02*
X320722Y481723D01*
X345722Y484840D02*
X346108Y485225D01*
X345722Y482047D02*
Y484840D01*
X343874Y480199D02*
X345722Y482047D01*
X343722Y479803D02*
X343874Y479956D01*
X343580Y479803D02*
X343722D01*
X343874Y479956D02*
Y480199D01*
X341108Y485225D02*
X341690Y484643D01*
Y481764D02*
X343428Y480026D01*
Y479956D02*
Y480026D01*
Y479956D02*
X343580Y479803D01*
X341690Y481764D02*
Y484643D01*
X349213Y540162D02*
Y565354D01*
X210913Y499784D02*
Y549537D01*
X310189Y485215D02*
X316020Y479384D01*
X319056D02*
X319089Y479417D01*
X316020Y479384D02*
X319056D01*
X355679Y490504D02*
X357995Y488189D01*
X329713Y490504D02*
X355679D01*
X326108Y486899D02*
X329713Y490504D01*
X370010Y488524D02*
X387053D01*
X370010Y496398D02*
X387053D01*
X370010Y504272D02*
X387053D01*
X390352Y246898D02*
X393070Y249615D01*
X380315Y241349D02*
X385863Y246898D01*
X390352D01*
X393070Y249615D02*
Y278675D01*
X387402Y284344D02*
Y284646D01*
Y284344D02*
X393070Y278675D01*
X380315Y230118D02*
Y241349D01*
X317080Y279964D02*
Y285221D01*
X351734Y258359D02*
X351824Y258269D01*
Y248519D02*
X351914Y248429D01*
X351824Y248519D02*
Y258269D01*
X331713Y252894D02*
X331734Y252916D01*
Y258359D01*
X326780Y279664D02*
Y285139D01*
X326734Y279619D02*
X326780Y279664D01*
Y285139D02*
X326825Y285185D01*
X336735Y279619D02*
X336857Y279741D01*
Y284939D02*
X336979Y285062D01*
X336857Y279741D02*
Y284939D01*
X331736Y279620D02*
Y285101D01*
X331738Y285103D01*
X331734Y279619D02*
X331736Y279620D01*
X321712Y279641D02*
Y285198D01*
X321690Y285221D02*
X321712Y285198D01*
Y279641D02*
X321734Y279619D01*
X316735D02*
X317080Y279964D01*
Y286357D02*
X325571Y294848D01*
X377199D02*
X383858Y288189D01*
X325571Y294848D02*
X377199D01*
X351845Y284921D02*
Y285709D01*
X351734Y279619D02*
X351749Y279633D01*
Y284921D01*
X383858Y288189D02*
X387402Y284646D01*
X383858Y288189D02*
Y309449D01*
X380315Y213032D02*
Y230118D01*
X364567Y213032D02*
Y230118D01*
X356693Y213032D02*
Y230118D01*
X348819Y213032D02*
Y230118D01*
X340945Y213032D02*
Y230118D01*
X333071Y213032D02*
Y230118D01*
X325197Y213032D02*
Y230118D01*
X316973Y253533D02*
Y253641D01*
Y253533D02*
X325197Y245310D01*
Y230118D02*
Y245310D01*
X316854Y253760D02*
X316973Y253641D01*
X333071Y230118D02*
Y241819D01*
X316735Y258359D02*
X316854Y258239D01*
Y253760D02*
Y258239D01*
X346675Y258418D02*
Y263018D01*
Y258418D02*
X346734Y258359D01*
X341694Y263081D02*
X341735Y263041D01*
Y258359D02*
Y263041D01*
X340945Y240737D02*
X346867Y246659D01*
X346734Y258359D02*
X346867Y258226D01*
Y246659D02*
Y258226D01*
X341735Y248472D02*
X343019Y247187D01*
X341735Y248472D02*
Y258359D01*
X343019Y247140D02*
Y247187D01*
X355211Y285709D02*
X355797Y285123D01*
X355473Y288291D02*
X358718Y285047D01*
X344615Y273624D02*
X344628D01*
X347698Y285137D02*
Y285486D01*
X347732D02*
X350538Y288291D01*
X355797Y275466D02*
Y285123D01*
X346734Y284173D02*
X347698Y285137D01*
X351845Y285709D02*
X355211D01*
X346734Y279619D02*
Y284173D01*
X350538Y288291D02*
X355473D01*
X358718Y278387D02*
Y285047D01*
X348819Y230118D02*
X348876Y230175D01*
X347061Y243178D02*
X348876Y241363D01*
X347061Y243178D02*
Y243200D01*
X348876Y230175D02*
Y241363D01*
X340945Y230118D02*
Y240737D01*
X355977Y230834D02*
Y258078D01*
Y230834D02*
X356693Y230118D01*
X326734Y264044D02*
X333731Y271041D01*
X355257D01*
X361369Y277154D01*
X351655Y266247D02*
X356879Y261024D01*
X387402D01*
X336735Y262633D02*
X343000Y268898D01*
X370358D01*
X387402D01*
X326734Y258359D02*
Y264044D01*
X336735Y258359D02*
Y262633D01*
X361369Y277154D02*
X369976D01*
X370358Y276772D01*
Y284646D02*
X387402D01*
X370358Y276772D02*
X387402D01*
X340158Y348425D02*
X350000Y338583D01*
X370276Y331890D02*
X387319D01*
X332677Y344488D02*
X332900Y344265D01*
X352528Y322835D02*
X369094D01*
X370276Y324016D01*
X350000Y338583D02*
X369094D01*
X370276Y316142D02*
X387319D01*
X332900Y342462D02*
Y344265D01*
X340158Y348425D02*
Y349606D01*
X370276Y339764D02*
X387319D01*
X338583Y351181D02*
X340158Y349606D01*
X369094Y338583D02*
X370276Y339764D01*
X332900Y342462D02*
X352528Y322835D01*
X370276Y324016D02*
X387319D01*
X310189Y509535D02*
X341118Y540464D01*
Y548047D02*
X341339Y548268D01*
X341118Y540464D02*
Y548047D01*
X342758Y539576D02*
X348627D01*
X349213Y540162D01*
X380709Y548268D02*
Y565354D01*
X372835Y548268D02*
Y565354D01*
X364961Y548268D02*
Y565354D01*
X357087Y548268D02*
Y565354D01*
X341339Y548268D02*
Y565354D01*
X353290Y533270D02*
X358216D01*
X364961Y540014D01*
X321887Y509529D02*
X345621Y533263D01*
Y533419D01*
X321108Y506485D02*
X321887Y507265D01*
Y509529D01*
X364961Y540014D02*
Y548268D01*
X356319Y547500D02*
X357087Y548268D01*
X356319Y540464D02*
Y547500D01*
X326207Y510352D02*
X356319Y540464D01*
X326207Y506585D02*
Y510352D01*
X336165Y512623D02*
X336223Y512680D01*
X336165Y506543D02*
Y512623D01*
X311976Y492676D02*
X312772Y491881D01*
X311976Y508795D02*
X342758Y539576D01*
X311976Y492676D02*
Y508795D01*
X312772Y491566D02*
Y491881D01*
X310189Y485215D02*
Y509535D01*
X312763Y491566D02*
X312986Y491343D01*
X351108Y479749D02*
Y485225D01*
X312986Y490021D02*
Y491343D01*
Y490021D02*
X316108Y486899D01*
Y485225D02*
Y486899D01*
X380525Y540464D02*
Y548084D01*
X379052Y538991D02*
X380525Y540464D01*
Y548084D02*
X380709Y548268D01*
X325590D02*
Y565354D01*
Y573498D01*
X332540Y580447D01*
X397362D01*
X398582Y579226D01*
X336108Y506485D02*
X336165Y506543D01*
X331405Y481486D02*
X333473Y479417D01*
X331108Y485225D02*
X331405Y484929D01*
Y481486D02*
Y484929D01*
X335771Y484889D02*
X336108Y485225D01*
X333473Y479417D02*
X335771Y481716D01*
Y484889D01*
X351108Y479344D02*
X354987Y475464D01*
X388945D01*
X392777Y479297D01*
Y506353D01*
X387319Y511811D02*
X392777Y506353D01*
X370010Y512146D02*
X387053D01*
X357995Y488189D02*
X370276D01*
X341108Y504812D02*
X345320Y500600D01*
X354517D01*
X357777Y503859D01*
X370198D02*
X370276Y503937D01*
X357777Y503859D02*
X370198D01*
X341108Y504812D02*
Y506485D01*
X331108Y504812D02*
X339857Y496063D01*
X370276D01*
X331108Y504812D02*
Y506485D01*
X326108Y485225D02*
Y486899D01*
X243949Y291894D02*
X245801Y293746D01*
X243949Y280421D02*
Y291894D01*
X166929Y302871D02*
X169406Y300394D01*
X182651D01*
X166929Y302871D02*
Y343701D01*
X171365Y348136D01*
X212205Y378740D02*
X216732D01*
X225000Y372441D02*
Y378740D01*
X224606Y372441D02*
X224632Y372467D01*
X314666Y321100D02*
X316436Y319330D01*
X314652Y317433D02*
X316549Y319330D01*
X310720Y317433D02*
X314652D01*
X310692Y321100D02*
X314666D01*
X316436Y319330D02*
X316549D01*
X310039Y316752D02*
X310720Y317433D01*
X310039Y321752D02*
X310692Y321100D01*
X326378Y334252D02*
X326537Y334411D01*
X330993D01*
X241311Y398819D02*
X241521Y398609D01*
X208661Y398819D02*
X241311D01*
X240736Y395125D02*
X240938D01*
X239011Y396850D02*
X240736Y395125D01*
X207480Y396850D02*
X239011D01*
X203543Y400787D02*
X207480Y396850D01*
X261333Y401507D02*
X262137D01*
X272047Y411417D01*
X261110Y401284D02*
X261333Y401507D01*
X273421Y346756D02*
X273425Y346752D01*
X267770Y346756D02*
X273421D01*
X267766Y346760D02*
X267770Y346756D01*
X265183Y350207D02*
X269363Y354387D01*
X265183Y341869D02*
Y350207D01*
Y341869D02*
X265300Y341752D01*
X267120Y319249D02*
X268166D01*
X268172D01*
X268166D02*
X270669Y321752D01*
X268172Y319249D02*
X270669Y316752D01*
X273425D01*
X270669Y321752D02*
X273425D01*
X264365Y323774D02*
X267342Y326752D01*
X264365Y317531D02*
Y323774D01*
Y317531D02*
X267742Y314154D01*
X194377Y216229D02*
Y221913D01*
Y216229D02*
X194463Y216142D01*
X182014Y361263D02*
Y364756D01*
X181390Y365380D02*
X182014Y364756D01*
X173319Y348136D02*
X178101Y352918D01*
X171365Y348136D02*
X173319D01*
X181971Y371708D02*
Y376046D01*
X181890Y371628D02*
X181971Y371708D01*
X175982Y371630D02*
Y376055D01*
Y371630D02*
X175984Y371628D01*
X202363Y371678D02*
X202388Y371654D01*
X202363Y371678D02*
Y376334D01*
X196801Y371703D02*
Y376212D01*
Y371703D02*
X196850Y371654D01*
X226732Y500572D02*
X226768Y500535D01*
X222800Y500572D02*
X226732D01*
X243949Y280421D02*
X244055Y280315D01*
X244094Y412205D02*
Y440551D01*
X247296Y360185D02*
Y384429D01*
X244094Y412205D02*
X244276Y412024D01*
X224803Y383071D02*
X244712D01*
X244713Y383072D01*
X244276Y387449D02*
X247296Y384429D01*
X244276Y387449D02*
Y412024D01*
X246063Y388189D02*
Y412205D01*
X252287Y383053D02*
X252304Y383071D01*
X256693D01*
X207193Y496063D02*
X210913Y499784D01*
X206693Y496063D02*
X207193D01*
X177953Y456299D02*
X194996D01*
X177953Y464173D02*
X194996D01*
X249028Y460918D02*
X254461D01*
X254823Y461279D01*
X234646Y440779D02*
X242648Y448782D01*
Y460793D01*
X234646Y440158D02*
Y440779D01*
X248031Y466176D02*
Y476953D01*
X242648Y460793D02*
X248031Y466176D01*
X372441Y213032D02*
Y230118D01*
X333465Y548268D02*
Y565354D01*
X240158Y285469D02*
Y294488D01*
X231210Y288160D02*
Y296985D01*
Y288160D02*
X239055Y280315D01*
X233931Y289918D02*
Y294467D01*
X233910Y294488D02*
X233931Y294467D01*
X334602Y354896D02*
Y355212D01*
X333211Y356602D02*
X334602Y355212D01*
X333211Y356602D02*
Y367163D01*
X316309Y365417D02*
X316374Y365352D01*
X310039Y346752D02*
X312795D01*
X310062Y365417D02*
Y365917D01*
Y365417D02*
X310127Y365352D01*
Y359443D02*
Y365352D01*
X310039Y359355D02*
X310127Y359443D01*
X310039Y351752D02*
Y359355D01*
X272538Y352433D02*
X273219Y351752D01*
X272538Y352433D02*
Y360225D01*
X273219Y351752D02*
X273425D01*
X274952Y363139D02*
X275485D01*
X276444Y364098D01*
X272538Y360225D02*
Y360725D01*
X274952Y363139D01*
X272170Y378516D02*
X276444Y374243D01*
Y364098D02*
Y374243D01*
X272170Y378516D02*
Y379516D01*
X266655Y365926D02*
X269363Y363218D01*
Y354387D02*
Y363218D01*
X256693Y385683D02*
X268124D01*
X271170Y380516D02*
X272170Y379516D01*
X271170Y380516D02*
Y382637D01*
X268124Y385683D02*
X271170Y382637D01*
X272538Y371383D02*
X272809Y371654D01*
X272538Y366130D02*
Y371383D01*
X266291Y372036D02*
X266670Y372415D01*
Y379516D01*
X370358Y253150D02*
X387402D01*
X370010Y480650D02*
X387053D01*
X177953Y400787D02*
X194996D01*
X177953Y408661D02*
X199721D01*
X254331Y248425D02*
X267917Y262012D01*
X254331Y217717D02*
Y248425D01*
X248425Y248031D02*
X264342Y263949D01*
X246063Y248425D02*
X262555Y264917D01*
X246063Y241339D02*
Y248425D01*
X231102Y226378D02*
X246063Y241339D01*
X251575Y218087D02*
Y248197D01*
X266130Y262752D01*
X239370Y455118D02*
Y465556D01*
X217597Y433345D02*
X239370Y455118D01*
X215354Y432283D02*
X216301D01*
X217362Y433345D01*
X217597D01*
X234154Y466280D02*
X238647D01*
X239370Y465556D01*
X223228Y456005D02*
X223522Y456299D01*
X214961Y444488D02*
X223228Y452756D01*
Y456005D01*
X328346Y320866D02*
X333071D01*
X318701Y330512D02*
X328346Y320866D01*
X318504Y330512D02*
X318701D01*
X334729Y351098D02*
X352362Y333465D01*
X334729Y351098D02*
X334729D01*
X352362Y333465D02*
X368701D01*
X370276Y331890D01*
X370396Y370972D02*
X387440D01*
X370396Y386720D02*
X387440D01*
X392126Y345669D02*
X393408Y344387D01*
X385433Y311024D02*
X392822D01*
X393408Y311609D01*
Y344387D01*
X387795Y345669D02*
X392126D01*
X383071Y350394D02*
X387795Y345669D01*
X393307Y366142D02*
Y390945D01*
X383071Y350394D02*
Y360630D01*
X383858Y309449D02*
X385433Y311024D01*
X346693Y418504D02*
X362441Y434252D01*
X387402D01*
X370358Y442126D02*
X387402D01*
X370358Y450000D02*
X387402D01*
X370358Y426378D02*
X387402D01*
X366535Y420488D02*
Y424713D01*
X368201Y426378D02*
X370358D01*
X366535Y424713D02*
X368201Y426378D01*
X348134Y402087D02*
X366535Y420488D01*
X341063Y402087D02*
X348134D01*
X336063Y407087D02*
X341063Y402087D01*
X326951Y407087D02*
X336063D01*
X336063Y407087D01*
X306693Y418504D02*
X315534D01*
X326951Y407087D01*
X346378Y418189D02*
X346693Y418504D01*
X346063Y407087D02*
X346378Y407402D01*
Y418189D01*
X346693Y448504D02*
X359256D01*
X365634Y442126D01*
X370358D01*
X341457Y464843D02*
X350791D01*
X365634Y450000D01*
X370358D01*
X336457Y459842D02*
X341457Y464843D01*
X346575Y448622D02*
Y459724D01*
Y448622D02*
X346693Y448504D01*
X346457Y459842D02*
X346575Y459724D01*
X315770Y448504D02*
X327109Y459842D01*
X336457D01*
X306693Y448504D02*
X315770D01*
X194996Y400787D02*
X203543D01*
X199721Y408661D02*
X201386Y406996D01*
Y406095D02*
Y406996D01*
Y406095D02*
X208661Y398819D01*
X276693Y412410D02*
Y418504D01*
X272047Y443858D02*
X276693Y448504D01*
X260630Y396457D02*
X260739D01*
X272047Y411417D02*
Y443858D01*
X260739Y396457D02*
X276693Y412410D01*
X250394Y418872D02*
Y427191D01*
X250000Y433832D02*
X250394Y433439D01*
X250000Y433832D02*
Y438189D01*
X240146Y441157D02*
X243870Y444882D01*
X244094D01*
X240146Y440158D02*
Y441157D01*
X239764Y418872D02*
Y427191D01*
Y433439D02*
X240146Y433820D01*
Y440158D01*
X248031Y466176D02*
X253589D01*
X248006Y476772D02*
Y476953D01*
X249006Y477953D01*
X262992D01*
X213189Y463779D02*
X216142D01*
X194996Y464173D02*
X212598D01*
X213189D01*
X209283Y467488D02*
X212598Y464173D01*
X209067Y470079D02*
X209283Y469862D01*
Y467488D02*
Y469862D01*
X181193Y538098D02*
Y542035D01*
Y538098D02*
X183465Y535827D01*
X180371Y542858D02*
X181193Y542035D01*
X174854Y542858D02*
X180371D01*
X171653Y528398D02*
X177559D01*
X170866Y527611D02*
X171653Y528398D01*
X170866Y523622D02*
Y527611D01*
X355512Y317323D02*
X369094D01*
X328232Y344602D02*
X355512Y317323D01*
X369094D02*
X370276Y316142D01*
X318307Y337992D02*
X318701D01*
X321476Y337845D02*
X328232Y344602D01*
X321476Y335738D02*
Y337845D01*
X318701Y330512D02*
X319776Y331587D01*
Y334038D01*
X321476Y335738D01*
X318307Y330512D02*
X318504D01*
X310039Y331752D02*
X317067D01*
X318307Y330512D01*
X310039Y336752D02*
X317067D01*
X318307Y337992D01*
X258914Y280456D02*
Y283815D01*
X266130Y262752D02*
Y284201D01*
X254362Y295969D02*
X266130Y284201D01*
X267917Y262012D02*
Y284942D01*
X250787Y294488D02*
X262555Y282720D01*
X256150Y296709D02*
X267917Y284942D01*
X252575Y295229D02*
X264342Y283461D01*
X256150Y296709D02*
Y315504D01*
X254362Y295969D02*
Y312173D01*
X258914Y280456D02*
X259055Y280315D01*
X262555Y264917D02*
Y282720D01*
X264342Y263949D02*
Y283461D01*
X252575Y295229D02*
Y311205D01*
X248819Y293910D02*
X258914Y283815D01*
X256693Y392913D02*
X256693Y392913D01*
X256201Y471279D02*
X259055Y468425D01*
X254823Y471279D02*
X256201D01*
X259055Y452756D02*
Y468425D01*
X246063Y439764D02*
X259055Y452756D01*
X254656Y351617D02*
Y353869D01*
Y351617D02*
X255118Y351155D01*
X216535Y372244D02*
X216732Y372441D01*
X216535Y362992D02*
Y372244D01*
X230538Y267546D02*
X231286D01*
X230315Y267323D02*
X230538Y267546D01*
X231286D02*
X239055Y275315D01*
X214173Y262992D02*
Y272119D01*
Y230105D02*
Y262992D01*
X218504Y267323D01*
X220472D01*
X267732Y289173D02*
X273622Y295063D01*
Y296063D01*
X267126Y289173D02*
X267732D01*
X235433Y204331D02*
Y221654D01*
X194463Y210237D02*
Y216142D01*
Y204331D02*
Y210237D01*
X214173Y272119D02*
X220079D01*
X200710Y216142D02*
Y216642D01*
X214173Y230105D01*
X190603Y371153D02*
X191339Y371889D01*
X181390Y365380D02*
X182390Y366380D01*
X231210Y296985D02*
X232283Y298059D01*
Y303543D01*
X218110Y221654D02*
X218110Y221654D01*
Y226772D02*
X226378Y235039D01*
X231102Y221654D02*
Y226378D01*
X244326Y313548D02*
X250232D01*
X252575Y311205D01*
X244326Y315517D02*
X251019D01*
X254362Y312173D01*
X248228Y323425D02*
X256150Y315504D01*
X244291Y323425D02*
X248228D01*
X238189Y316929D02*
X238779Y317520D01*
X244291D01*
Y313583D02*
X244326Y313548D01*
X218504Y298797D02*
X224523Y292777D01*
X218504Y298797D02*
Y303543D01*
X220507Y299572D02*
Y303509D01*
Y299572D02*
X226378Y293701D01*
Y235039D02*
Y293701D01*
X220472Y303543D02*
X220507Y303509D01*
X234910Y297902D02*
X236186Y299178D01*
X238189Y299606D02*
X240158Y297638D01*
X238189Y299606D02*
Y303543D01*
X234910Y295488D02*
Y297902D01*
X236186Y299178D02*
Y303509D01*
X233910Y294488D02*
X234910Y295488D01*
X240158Y294488D02*
Y297638D01*
X244291Y315551D02*
X244326Y315517D01*
X252953Y341142D02*
X267342Y326752D01*
X244291Y341142D02*
X252953D01*
X258268Y340158D02*
X258583D01*
X260178Y341752D01*
X265300D01*
X273425D01*
X267742Y309055D02*
Y314154D01*
X273990Y303150D02*
Y309055D01*
X267742Y296443D02*
X268122Y296063D01*
X267742Y296443D02*
Y303150D01*
X267342Y326752D02*
X273425D01*
X190551Y281496D02*
Y285039D01*
X182651Y300394D02*
X183071Y299974D01*
X181390Y365380D02*
X181890D01*
X175591Y359274D02*
Y364987D01*
X175984Y365380D01*
X174997Y358680D02*
X175591Y359274D01*
X173228Y358268D02*
X174585D01*
X172835Y357874D02*
X173228Y358268D01*
X174585D02*
X174997Y358680D01*
X170079Y359518D02*
X171329Y358268D01*
X170079Y359518D02*
Y365380D01*
X171329Y358268D02*
X172835D01*
X189103Y370153D02*
X189603D01*
X185330Y366380D02*
X189103Y370153D01*
X182390Y366380D02*
X185330D01*
X190603Y371153D02*
Y371654D01*
X189603Y370153D02*
X190603Y371153D01*
X197638Y383071D02*
X208635D01*
Y371654D02*
Y383071D01*
X224803D01*
X191339Y371889D02*
Y376772D01*
X197638Y383071D01*
X224803Y378937D02*
Y383071D01*
X224606Y378740D02*
X224803Y378937D01*
X239370Y372467D02*
X239870D01*
X233465D02*
X239370D01*
X224632D02*
X232965D01*
X196850Y371153D02*
Y371654D01*
X228381Y367883D02*
X232965Y372467D01*
X240870Y364083D02*
Y371467D01*
X198819Y362992D02*
Y369185D01*
X196850Y371153D02*
X198819Y369185D01*
X233016Y500535D02*
X238580D01*
X254947Y345079D02*
X255118Y344908D01*
X244291Y345079D02*
X254947D01*
X240183Y412205D02*
X244094D01*
X239870Y372467D02*
X240870Y371467D01*
X244291Y356890D02*
Y360661D01*
X240870Y364083D02*
X244291Y360661D01*
X232965Y372467D02*
X233465D01*
X228381Y363027D02*
Y367883D01*
X228346Y362992D02*
X228381Y363027D01*
X236186Y303509D02*
X236221Y303543D01*
X205902Y368420D02*
X208635Y371153D01*
Y371654D01*
X190603Y371153D02*
X193337Y368420D01*
X178266Y368504D02*
X181390Y365380D01*
X170079Y371628D02*
X170579D01*
X173702Y368504D01*
X178266D01*
X179690Y315586D02*
X184808D01*
X174405Y320871D02*
Y323784D01*
Y320871D02*
X179690Y315586D01*
X173228Y316142D02*
X175787Y313583D01*
X172047Y316142D02*
X173228D01*
X175787Y313583D02*
X184843D01*
X172047Y326142D02*
X174405Y323784D01*
X184808Y315586D02*
X184843Y315551D01*
X214567Y291732D02*
Y303543D01*
X214173Y291339D02*
X214567Y291732D01*
X218579Y292339D02*
X219579Y291339D01*
X218579Y292339D02*
Y292839D01*
X216535Y294882D02*
X218579Y292839D01*
X216535Y294882D02*
Y303543D01*
X219579Y291339D02*
X220079D01*
X201969Y294488D02*
X204592D01*
X196885Y299572D02*
Y303509D01*
Y299572D02*
X201969Y294488D01*
X194882Y298267D02*
X201862Y291287D01*
X194882Y298267D02*
Y303543D01*
X204592Y294488D02*
X207768Y291313D01*
X196850Y303543D02*
X196885Y303509D01*
X207768Y291313D02*
X208268D01*
X201862Y291287D02*
X202362D01*
X183071Y309562D02*
X183154Y309646D01*
X184843D01*
X200114Y242913D02*
X203543Y246342D01*
Y251575D02*
X205906Y253937D01*
X203543Y246342D02*
Y251575D01*
X205906Y253937D02*
Y275590D01*
X207874Y284672D02*
X208268Y285065D01*
X207874Y277559D02*
Y284672D01*
X205906Y275590D02*
X207874Y277559D01*
X195390Y242913D02*
X200114D01*
X195390Y250787D02*
X200114D01*
X203937Y254610D02*
Y275984D01*
X178347Y250787D02*
X195390D01*
X200114D02*
X203937Y254610D01*
X202362Y285039D02*
X202362Y285039D01*
X202362Y277559D02*
Y285039D01*
Y277559D02*
X203937Y275984D01*
X178347Y235039D02*
X195390D01*
X178347Y242913D02*
X195390D01*
X195972Y284581D02*
X196457Y285065D01*
X195972Y282651D02*
Y284581D01*
X173846Y260525D02*
X195972Y282651D01*
X173846Y239539D02*
X178347Y235039D01*
X173846Y239539D02*
Y260525D01*
X190551Y295233D02*
X192913Y297595D01*
X196457Y291313D02*
Y294052D01*
X192913Y297595D02*
Y303543D01*
Y297595D02*
X196457Y294052D01*
X190551Y291287D02*
Y295233D01*
X246063Y415354D02*
Y439764D01*
Y412205D02*
Y415354D01*
X239370Y403937D02*
Y412231D01*
X239764Y412624D01*
X250394D02*
X250787Y412231D01*
Y403937D02*
Y412231D01*
X239764Y412624D02*
X240183Y412205D01*
X246063D02*
X249974D01*
X250394Y412624D01*
X244094Y440551D02*
X254823Y451279D01*
Y456280D01*
X225681Y459339D02*
X230836D01*
X223622Y457280D02*
X225681Y459339D01*
X218110Y461811D02*
X228307D01*
X232776Y466280D01*
X234154D01*
X232776Y461279D02*
X234154D01*
X230836Y459339D02*
X232776Y461279D01*
X216142Y463779D02*
X218110Y461811D01*
X214567Y470079D02*
X223622D01*
X212205Y456299D02*
X213189D01*
X223522D01*
X205315Y460039D02*
X209199D01*
X209396Y460236D01*
X209449D01*
X212205Y456299D02*
X212205Y456299D01*
X194996Y456299D02*
X212205D01*
X170079Y365380D02*
X170579D01*
X220079Y291339D02*
X220079Y291339D01*
X220079Y278367D02*
X220079Y278367D01*
Y285091D01*
X214173Y278367D02*
Y285091D01*
X214173Y285091D01*
X183071Y290551D02*
Y293727D01*
X172835Y338976D02*
Y342126D01*
X207087Y520944D02*
Y527191D01*
X206693Y520551D02*
X207087Y520944D01*
X206693Y515302D02*
Y520551D01*
X193701Y535827D02*
X197638D01*
X191732Y533858D02*
X193701Y535827D01*
X197638Y537795D02*
X198008D01*
X176378Y508713D02*
Y508975D01*
X179662Y512259D02*
X179921D01*
X182965Y515302D02*
X183465D01*
X176378Y508975D02*
X179662Y512259D01*
X179921D02*
X182965Y515302D01*
X175932Y509029D02*
X175984Y509081D01*
X171653Y546405D02*
X171835D01*
X176378Y522020D02*
X182283Y527926D01*
X176378Y514961D02*
Y522020D01*
X185827Y535827D02*
X185827Y535827D01*
X178346Y533858D02*
X185827D01*
X183465Y535827D02*
X185827D01*
X197728Y533768D02*
X200091D01*
X197638Y533858D02*
X197728Y533768D01*
X171653Y540158D02*
X172153D01*
X177559Y534646D02*
X178346Y533858D01*
X171653Y534646D02*
Y540158D01*
X177559Y534646D02*
Y540158D01*
X171835Y546405D02*
X172835Y547405D01*
X172153Y540158D02*
X174854Y542858D01*
X206325Y532677D02*
X207087Y533439D01*
X200314Y524587D02*
Y531009D01*
X199611Y531712D02*
X200314Y531009D01*
X201181Y532677D02*
X206325D01*
X206693Y502310D02*
Y509055D01*
X197638Y531890D02*
X198524D01*
X198702Y531712D01*
X200091Y533768D02*
X201181Y532677D01*
X198702Y531712D02*
X199611D01*
X198425Y502310D02*
Y509029D01*
X185736Y531799D02*
X185827Y531890D01*
X183941Y531799D02*
X185736D01*
X182283Y530142D02*
X183941Y531799D01*
X190945Y502284D02*
Y509055D01*
X183465Y502310D02*
Y509055D01*
X182283Y527926D02*
Y530142D01*
X198425Y522698D02*
X200314Y524587D01*
X197638Y526901D02*
Y529921D01*
X190945Y520208D02*
X197638Y526901D01*
X198425Y515276D02*
Y522698D01*
X190945Y515302D02*
Y520208D01*
X151701Y167741D02*
X153701Y161741D01*
X149701D02*
X151701Y167741D01*
X149701Y189470D02*
X151701Y183470D01*
X153701Y189470D01*
X151701Y157741D02*
Y167741D01*
Y183470D02*
Y193470D01*
X150701Y183470D02*
X173711D01*
X150701Y167741D02*
X166717D01*
X461729Y611656D02*
X463729Y605656D01*
X459729D02*
X461729Y611656D01*
X459729Y180365D02*
X461729Y174365D01*
X463729Y180365D01*
X461729Y408006D02*
Y611656D01*
Y174365D02*
Y374815D01*
X175479Y611656D02*
X462729D01*
X394293Y174365D02*
X462729D01*
X158637Y152920D02*
X164637Y154920D01*
X158637Y156920D02*
X164637Y154920D01*
X184947D02*
X190947Y156920D01*
X184947Y154920D02*
X190947Y152920D01*
X154637Y154920D02*
X164637D01*
X184947D02*
X194947D01*
X184947Y153920D02*
Y171470D01*
X164637Y153920D02*
Y179554D01*
X415700Y617656D02*
X417700Y611656D01*
X419700Y617656D01*
X417700Y595926D02*
X419700Y589926D01*
X415700D02*
X417700Y595926D01*
Y611656D02*
Y621656D01*
Y585926D02*
Y595926D01*
X391533D02*
X418700D01*
X175479Y611656D02*
X418700D01*
X374296Y628419D02*
X380296Y630419D01*
X374296Y632419D02*
X380296Y630419D01*
X174479D02*
X180479Y632419D01*
X174479Y630419D02*
X180479Y628419D01*
X290883Y630419D02*
X380296D01*
X174479D02*
X260692D01*
X380296Y607163D02*
Y631419D01*
X174479Y612656D02*
Y631419D01*
D17*
X144503Y166508D02*
X138505D01*
X141504Y163509D01*
Y167508D01*
X144503Y169507D02*
X143503D01*
Y170507D01*
X144503D01*
Y169507D01*
X139504Y174505D02*
X138505Y175505D01*
Y177505D01*
X139504Y178504D01*
X143503D01*
X144503Y177505D01*
Y175505D01*
X143503Y174505D01*
X139504D01*
Y180503D02*
X138505Y181503D01*
Y183502D01*
X139504Y184502D01*
X143503D01*
X144503Y183502D01*
Y181503D01*
X143503Y180503D01*
X139504D01*
X465328Y376415D02*
Y378415D01*
Y377415D01*
X459330D01*
X460330Y376415D01*
X465328Y381414D02*
Y383413D01*
Y382414D01*
X459330D01*
X460330Y381414D01*
X465328Y386412D02*
Y388411D01*
Y387412D01*
X459330D01*
X460330Y386412D01*
X465328Y391411D02*
X464329D01*
Y392410D01*
X465328D01*
Y391411D01*
X460330Y396409D02*
X459330Y397409D01*
Y399408D01*
X460330Y400408D01*
X464329D01*
X465328Y399408D01*
Y397409D01*
X464329Y396409D01*
X460330D01*
X459330Y402407D02*
Y406406D01*
X460330D01*
X464329Y402407D01*
X465328D01*
X167194Y146522D02*
X163195D01*
Y143523D01*
X165194Y144523D01*
X166194D01*
X167194Y143523D01*
Y141524D01*
X166194Y140524D01*
X164195D01*
X163195Y141524D01*
X169193Y140524D02*
Y141524D01*
X170193D01*
Y140524D01*
X169193D01*
X174191D02*
X176191D01*
X175191D01*
Y146522D01*
X174191Y145522D01*
X183189Y146522D02*
X181189Y145522D01*
X179190Y143523D01*
Y141524D01*
X180190Y140524D01*
X182189D01*
X183189Y141524D01*
Y142523D01*
X182189Y143523D01*
X179190D01*
X432096Y594694D02*
X426098D01*
X429097Y591695D01*
Y595693D01*
X432096Y597693D02*
X431097D01*
Y598692D01*
X432096D01*
Y597693D01*
X427098Y602691D02*
X426098Y603691D01*
Y605690D01*
X427098Y606690D01*
X431097D01*
X432096Y605690D01*
Y603691D01*
X431097Y602691D01*
X427098D01*
Y608689D02*
X426098Y609689D01*
Y611688D01*
X427098Y612688D01*
X431097D01*
X432096Y611688D01*
Y609689D01*
X431097Y608689D01*
X427098D01*
X266291Y632818D02*
X262292D01*
Y629819D01*
X264292Y630818D01*
X265291D01*
X266291Y629819D01*
Y627819D01*
X265291Y626820D01*
X263292D01*
X262292Y627819D01*
X272289Y626820D02*
X268290D01*
X272289Y630818D01*
Y631818D01*
X271289Y632818D01*
X269290D01*
X268290Y631818D01*
X274288Y626820D02*
Y627819D01*
X275288D01*
Y626820D01*
X274288D01*
X283285D02*
X279287D01*
X283285Y630818D01*
Y631818D01*
X282286Y632818D01*
X280286D01*
X279287Y631818D01*
X285285D02*
X286284Y632818D01*
X288284D01*
X289283Y631818D01*
Y630818D01*
X288284Y629819D01*
X289283Y628819D01*
Y627819D01*
X288284Y626820D01*
X286284D01*
X285285Y627819D01*
Y628819D01*
X286284Y629819D01*
X285285Y630818D01*
Y631818D01*
X286284Y629819D02*
X288284D01*
D31*
X225000Y378740D02*
D03*
X216732D02*
D03*
Y372441D02*
D03*
X225000D02*
D03*
D32*
X220866Y378740D02*
D03*
Y372441D02*
D03*
D46*
X258764Y541891D02*
D03*
Y545632D02*
D03*
Y549372D02*
D03*
X248134D02*
D03*
Y545632D02*
D03*
Y541891D02*
D03*
D58*
X250416Y534627D02*
D03*
X256663D02*
D03*
X244827Y500535D02*
D03*
X238580D02*
D03*
X233016D02*
D03*
X226768D02*
D03*
X266291Y372036D02*
D03*
X272538D02*
D03*
X272538Y360225D02*
D03*
X266291D02*
D03*
X266291Y366130D02*
D03*
X272538D02*
D03*
X208635Y371654D02*
D03*
X202388D02*
D03*
X233910Y294488D02*
D03*
X240158D02*
D03*
X310062Y365417D02*
D03*
X316309D02*
D03*
X256663Y528679D02*
D03*
X250416D02*
D03*
X190603Y371654D02*
D03*
X196850D02*
D03*
X267742Y309055D02*
D03*
X273990D02*
D03*
Y303150D02*
D03*
X267742D02*
D03*
X310127Y359443D02*
D03*
X316374D02*
D03*
X200710Y204331D02*
D03*
X194463D02*
D03*
X200710Y210237D02*
D03*
X194463D02*
D03*
X200710Y216142D02*
D03*
X194463D02*
D03*
X241758Y476772D02*
D03*
X248006D02*
D03*
D59*
X218110Y221654D02*
D03*
X222441D02*
D03*
X226772D02*
D03*
X231102D02*
D03*
X235433D02*
D03*
X239764D02*
D03*
X244094D02*
D03*
X248425D02*
D03*
D60*
X262874Y211417D02*
D03*
X208740D02*
D03*
X262874Y244094D02*
D03*
X208740D02*
D03*
D61*
X244291Y356890D02*
D03*
Y354921D02*
D03*
Y352953D02*
D03*
Y350984D02*
D03*
Y349016D02*
D03*
Y347047D02*
D03*
Y345079D02*
D03*
Y343110D02*
D03*
Y341142D02*
D03*
Y339173D02*
D03*
Y337205D02*
D03*
Y335236D02*
D03*
Y333268D02*
D03*
Y331299D02*
D03*
Y329331D02*
D03*
Y327362D02*
D03*
Y325394D02*
D03*
Y323425D02*
D03*
Y321457D02*
D03*
Y319488D02*
D03*
Y317520D02*
D03*
Y315551D02*
D03*
Y313583D02*
D03*
Y311614D02*
D03*
Y309646D02*
D03*
X184843D02*
D03*
Y311614D02*
D03*
Y313583D02*
D03*
Y315551D02*
D03*
Y317520D02*
D03*
Y319488D02*
D03*
Y321457D02*
D03*
Y323425D02*
D03*
Y325394D02*
D03*
Y327362D02*
D03*
Y329331D02*
D03*
Y331299D02*
D03*
Y333268D02*
D03*
Y335236D02*
D03*
Y337205D02*
D03*
Y339173D02*
D03*
Y341142D02*
D03*
Y343110D02*
D03*
Y345079D02*
D03*
Y347047D02*
D03*
Y349016D02*
D03*
Y350984D02*
D03*
Y352953D02*
D03*
Y354921D02*
D03*
Y356890D02*
D03*
D62*
X238189Y303543D02*
D03*
X236221D02*
D03*
X234252D02*
D03*
X232283D02*
D03*
X230315D02*
D03*
X228346D02*
D03*
X226378D02*
D03*
X224410D02*
D03*
X222441D02*
D03*
X220472D02*
D03*
X218504D02*
D03*
X216535D02*
D03*
X214567D02*
D03*
X212598D02*
D03*
X210630D02*
D03*
X208661D02*
D03*
X206693D02*
D03*
X204724D02*
D03*
X202756D02*
D03*
X200787D02*
D03*
X198819D02*
D03*
X196850D02*
D03*
X194882D02*
D03*
X192913D02*
D03*
X190945D02*
D03*
Y362992D02*
D03*
X192913D02*
D03*
X194882D02*
D03*
X196850D02*
D03*
X198819D02*
D03*
X200787D02*
D03*
X202756D02*
D03*
X204724D02*
D03*
X206693D02*
D03*
X208661D02*
D03*
X210630D02*
D03*
X212598D02*
D03*
X214567D02*
D03*
X216535D02*
D03*
X218504D02*
D03*
X220472D02*
D03*
X222441D02*
D03*
X224410D02*
D03*
X226378D02*
D03*
X228346D02*
D03*
X230315D02*
D03*
X232283D02*
D03*
X234252D02*
D03*
X236221D02*
D03*
X238189D02*
D03*
D63*
X316636Y258359D02*
D03*
X321636D02*
D03*
X326636D02*
D03*
X331636D02*
D03*
X336636D02*
D03*
X341636D02*
D03*
X346636D02*
D03*
X351636D02*
D03*
Y279619D02*
D03*
X346636D02*
D03*
X341636D02*
D03*
X336636D02*
D03*
X331636D02*
D03*
X326636D02*
D03*
X321636D02*
D03*
X316636D02*
D03*
X351206Y485225D02*
D03*
X346206D02*
D03*
X341206D02*
D03*
X336206D02*
D03*
X331206D02*
D03*
X326206D02*
D03*
X321206D02*
D03*
X316206D02*
D03*
Y506485D02*
D03*
X321206D02*
D03*
X326206D02*
D03*
X331206D02*
D03*
X336206D02*
D03*
X341206D02*
D03*
X346206D02*
D03*
X351206D02*
D03*
D64*
X235164Y552517D02*
D03*
Y565733D02*
D03*
X226109Y552516D02*
D03*
Y565733D02*
D03*
D65*
X234515Y510591D02*
D03*
Y532091D02*
D03*
D66*
X253969Y521981D02*
D03*
Y509183D02*
D03*
X223622Y457280D02*
D03*
Y470079D02*
D03*
X267020Y509241D02*
D03*
Y522039D02*
D03*
D67*
X370358Y316142D02*
D03*
Y324016D02*
D03*
Y331890D02*
D03*
Y339764D02*
D03*
X194996Y400787D02*
D03*
Y408661D02*
D03*
X195390Y235039D02*
D03*
Y242913D02*
D03*
Y250787D02*
D03*
Y258661D02*
D03*
X194996Y440551D02*
D03*
Y448425D02*
D03*
Y456299D02*
D03*
Y464173D02*
D03*
X370286Y449322D02*
D03*
Y441448D02*
D03*
Y433574D02*
D03*
Y425700D02*
D03*
X370396Y394595D02*
D03*
Y386720D02*
D03*
Y378847D02*
D03*
Y370972D02*
D03*
X370358Y253150D02*
D03*
Y261024D02*
D03*
Y268898D02*
D03*
Y276772D02*
D03*
Y284646D02*
D03*
X370093Y480650D02*
D03*
Y488524D02*
D03*
Y496398D02*
D03*
Y504272D02*
D03*
Y512146D02*
D03*
D68*
X392996Y351969D02*
D03*
Y303937D02*
D03*
X172358Y420866D02*
D03*
Y388583D02*
D03*
X172752Y270866D02*
D03*
Y222835D02*
D03*
X172358Y476378D02*
D03*
Y428346D02*
D03*
X392924Y413496D02*
D03*
Y461527D02*
D03*
X393034Y358768D02*
D03*
Y406799D02*
D03*
X392996Y296850D02*
D03*
Y240945D02*
D03*
X392730Y524351D02*
D03*
Y468445D02*
D03*
D69*
X325197Y230118D02*
D03*
X372441D02*
D03*
X364567D02*
D03*
X356693D02*
D03*
X380315D02*
D03*
X348819D02*
D03*
X340945D02*
D03*
X333071D02*
D03*
X380709Y548268D02*
D03*
X333465D02*
D03*
X341339D02*
D03*
X349213D02*
D03*
X325590D02*
D03*
X357087D02*
D03*
X364961D02*
D03*
X372835D02*
D03*
D70*
X312992Y207480D02*
D03*
X392520D02*
D03*
X392913Y570905D02*
D03*
X313386D02*
D03*
D71*
X333211Y367163D02*
D03*
X250787Y403937D02*
D03*
X215354Y432283D02*
D03*
X333071Y320866D02*
D03*
X206693Y572047D02*
D03*
X172441Y566535D02*
D03*
X214961Y444488D02*
D03*
X239370Y403937D02*
D03*
D72*
X272170Y379516D02*
D03*
X266670D02*
D03*
X214567Y470079D02*
D03*
X209067D02*
D03*
X234646Y440158D02*
D03*
X240146D02*
D03*
X268122Y296063D02*
D03*
X273622D02*
D03*
D73*
X255118Y344908D02*
D03*
Y351155D02*
D03*
X181890Y371628D02*
D03*
Y365380D02*
D03*
X196457Y285065D02*
D03*
Y291313D02*
D03*
X190551Y291287D02*
D03*
Y285039D02*
D03*
X208268Y291313D02*
D03*
Y285065D02*
D03*
X202362Y291287D02*
D03*
Y285039D02*
D03*
X170079Y371628D02*
D03*
Y365380D02*
D03*
X175984D02*
D03*
Y371628D02*
D03*
X239764Y433439D02*
D03*
Y427191D02*
D03*
X220079Y278367D02*
D03*
Y272119D02*
D03*
X214173Y278367D02*
D03*
Y272119D02*
D03*
X214173Y291339D02*
D03*
Y285091D02*
D03*
X220079Y291339D02*
D03*
Y285091D02*
D03*
X250394Y412624D02*
D03*
Y418872D02*
D03*
X239764Y412624D02*
D03*
Y418872D02*
D03*
X233465Y378714D02*
D03*
Y372467D02*
D03*
X171653Y540158D02*
D03*
Y546405D02*
D03*
X272616Y534761D02*
D03*
Y528514D02*
D03*
X171653Y528398D02*
D03*
Y534646D02*
D03*
X175984Y509081D02*
D03*
Y515328D02*
D03*
X183465Y552336D02*
D03*
Y546089D02*
D03*
X177559Y528398D02*
D03*
Y534646D02*
D03*
Y540158D02*
D03*
Y546405D02*
D03*
X201181Y552336D02*
D03*
Y546089D02*
D03*
X206693Y502310D02*
D03*
Y496063D02*
D03*
Y515302D02*
D03*
Y509055D02*
D03*
X266710Y528514D02*
D03*
Y534761D02*
D03*
X207087Y527191D02*
D03*
Y533439D02*
D03*
X198425Y502310D02*
D03*
Y496063D02*
D03*
X183465Y502310D02*
D03*
Y496063D02*
D03*
X190945Y502284D02*
D03*
Y496037D02*
D03*
Y509055D02*
D03*
Y515302D02*
D03*
X198425Y509029D02*
D03*
Y515276D02*
D03*
X183465Y515302D02*
D03*
Y509055D02*
D03*
X183071Y299974D02*
D03*
Y293727D02*
D03*
X239370Y372467D02*
D03*
X239370Y378714D02*
D03*
X250394Y427191D02*
D03*
Y433439D02*
D03*
D74*
X254823Y456280D02*
D03*
Y461279D02*
D03*
Y466280D02*
D03*
Y471279D02*
D03*
X234154Y456280D02*
D03*
Y461279D02*
D03*
Y466280D02*
D03*
Y471279D02*
D03*
D75*
X326378Y334252D02*
D03*
X318504Y337992D02*
D03*
Y330512D02*
D03*
X205315Y460039D02*
D03*
X213189Y456299D02*
D03*
Y463779D02*
D03*
D76*
X356528Y184576D02*
D03*
X204269Y587675D02*
D03*
X210236Y189764D02*
D03*
X356367Y595170D02*
D03*
D77*
X172835Y358268D02*
D03*
Y341732D02*
D03*
D78*
X310039Y316752D02*
D03*
Y321752D02*
D03*
Y326752D02*
D03*
Y331752D02*
D03*
Y336752D02*
D03*
Y341752D02*
D03*
Y346752D02*
D03*
Y351752D02*
D03*
X273425Y316752D02*
D03*
Y321752D02*
D03*
Y326752D02*
D03*
Y331752D02*
D03*
Y336752D02*
D03*
Y341752D02*
D03*
Y346752D02*
D03*
Y351752D02*
D03*
D79*
X238628Y543038D02*
D03*
X222880D02*
D03*
X187402Y561024D02*
D03*
X203150D02*
D03*
D80*
X191732Y533858D02*
D03*
D81*
X197638Y537795D02*
D03*
Y535827D02*
D03*
Y533858D02*
D03*
Y531890D02*
D03*
Y529921D02*
D03*
X185827D02*
D03*
Y531890D02*
D03*
Y533858D02*
D03*
Y535827D02*
D03*
Y537795D02*
D03*
D82*
X195761Y561037D02*
X203136D01*
X203150Y561024D01*
X201194Y552349D02*
X205066D01*
X205189Y552472D01*
X205242D01*
X201181Y552336D02*
X201194Y552349D01*
X250416Y528679D02*
Y534627D01*
X248134Y537410D02*
X250416Y535127D01*
X248134Y537410D02*
Y541891D01*
X250416Y534627D02*
Y535127D01*
X238628Y543038D02*
X239775Y541891D01*
X248134D01*
X237053Y543038D02*
X238628D01*
X234515Y532091D02*
Y540499D01*
X237053Y543038D01*
X217167Y536507D02*
Y538899D01*
X216715Y536055D02*
X217167Y536507D01*
Y538899D02*
X221305Y543038D01*
X222880D01*
X250203Y208077D02*
X272441Y230315D01*
X246457Y204331D02*
X250203Y208077D01*
X266710Y522349D02*
X267020Y522039D01*
X266710Y522349D02*
Y528514D01*
X273632Y527998D02*
X275094Y526535D01*
Y514362D02*
Y526535D01*
X273632Y527998D02*
Y527998D01*
X273116Y528514D02*
X273632Y527998D01*
X272616Y528514D02*
X273116D01*
X267020Y509241D02*
X269973D01*
X275094Y514362D01*
X243600Y509183D02*
X253969D01*
X235923D02*
X243600D01*
X244751Y508032D01*
X242192Y510591D02*
X243600Y509183D01*
X244751Y500611D02*
Y508032D01*
X234515Y510591D02*
X242192D01*
X244751Y500611D02*
X244827Y500535D01*
X253998Y509212D02*
X260318D01*
X262992Y506537D01*
X253910Y515810D02*
Y521922D01*
X267035Y515921D02*
Y522025D01*
X253910Y521922D02*
X253969Y521981D01*
X267020Y522039D02*
X267035Y522025D01*
X253969Y509183D02*
X253998Y509212D01*
X234515Y510591D02*
X235923Y509183D01*
X258764Y549372D02*
X262918D01*
X266710Y545579D01*
Y534761D02*
Y545579D01*
Y534761D02*
X272616D01*
X258843Y541891D02*
X259040Y541694D01*
X258764Y541891D02*
X258843D01*
X259040Y537504D02*
Y541694D01*
X256663Y535127D02*
X259040Y537504D01*
X256663Y534627D02*
Y535127D01*
Y528679D02*
Y534627D01*
X248134Y545632D02*
Y549372D01*
X213466Y552089D02*
X234737D01*
X244005Y552517D02*
X247149Y549372D01*
X248134D01*
X235164Y552517D02*
X244005D01*
X234737Y552089D02*
X235164Y552517D01*
X210913Y549537D02*
X213466Y552089D01*
X191823Y554947D02*
X201181Y545589D01*
X256693Y356170D02*
X261417Y351445D01*
Y345669D02*
Y351445D01*
X243648Y378714D02*
X243804Y378558D01*
X233465Y378714D02*
X243648D01*
X243804Y378558D02*
X243857D01*
X207699Y546322D02*
X210913Y549537D01*
X201415Y546322D02*
X207699D01*
X201181Y546089D02*
X201415Y546322D01*
X198408Y538102D02*
X201181Y540874D01*
Y545589D01*
X241760Y471253D02*
Y476770D01*
X241758Y476772D02*
X241760Y476770D01*
Y471253D02*
X241761Y471252D01*
X226109Y565733D02*
X226129Y565712D01*
Y560744D02*
Y565712D01*
X235246Y560783D02*
Y560837D01*
X235164Y560919D02*
Y565733D01*
Y560919D02*
X235246Y560837D01*
X254098Y545441D02*
X254289Y545632D01*
X258764D01*
X254044Y545441D02*
X254098D01*
X256693Y385683D02*
Y392913D01*
Y383071D02*
Y385683D01*
Y356170D02*
Y383071D01*
X266100Y360034D02*
X266291Y360225D01*
X263579Y360034D02*
X266100D01*
X263542Y359996D02*
X263579Y360034D01*
X262992Y477953D02*
Y506537D01*
Y450394D02*
Y477953D01*
X180315Y566535D02*
X185827Y561024D01*
X172441Y566535D02*
X180315D01*
X185827Y561024D02*
X187402D01*
X203150D02*
Y568233D01*
X206693Y571776D01*
Y572047D01*
X191732Y533858D02*
Y540551D01*
Y533858D02*
X191732Y533858D01*
X171811Y546247D02*
X183307D01*
X183465Y540551D02*
X185433Y538583D01*
X183465Y540551D02*
Y546089D01*
X183307Y546247D02*
X183465Y546089D01*
X171653Y546405D02*
X171811Y546247D01*
X183465Y496063D02*
X198425D01*
X198425Y496063D01*
X261417Y294882D02*
Y326378D01*
X272441Y230315D02*
Y283858D01*
X261417Y294882D02*
X267126Y289173D01*
X272441Y283858D01*
X256693Y392913D02*
Y444095D01*
X262992Y450394D01*
X235433Y204331D02*
X246457D01*
X200710D02*
X235433D01*
X200710Y210237D02*
Y216142D01*
Y204331D02*
Y210237D01*
X178347Y258661D02*
X195390D01*
X177953Y448425D02*
X194996D01*
X177953Y440551D02*
X194996D01*
X198130Y538102D02*
X198408D01*
X187402Y561024D02*
X188976D01*
X191823Y558177D01*
Y554947D02*
Y558177D01*
X180709Y490551D02*
Y493307D01*
X182449Y495047D01*
X167717Y503543D02*
X180709Y490551D01*
X167717Y503543D02*
Y542968D01*
X171153Y546405D01*
X171653D01*
X180709Y481890D02*
Y490551D01*
X177490Y469483D02*
X180735Y472728D01*
X176213Y469483D02*
X177490D01*
X172968Y466238D02*
X176213Y469483D01*
X180735Y472728D02*
Y481863D01*
X172968Y445535D02*
Y466238D01*
X180709Y481890D02*
X180735Y481863D01*
X172968Y445535D02*
X177953Y440551D01*
D83*
X387402Y331890D02*
D03*
Y339764D02*
D03*
Y324016D02*
D03*
Y316142D02*
D03*
X325197Y213032D02*
D03*
X340945D02*
D03*
X348819D02*
D03*
X356693D02*
D03*
X364567D02*
D03*
X372441D02*
D03*
X380315D02*
D03*
X333071D02*
D03*
X380709Y565354D02*
D03*
X364961D02*
D03*
X357087D02*
D03*
X349213D02*
D03*
X341339D02*
D03*
X333465D02*
D03*
X325590D02*
D03*
X372835D02*
D03*
X177953Y400787D02*
D03*
Y408661D02*
D03*
X178347Y258661D02*
D03*
Y250787D02*
D03*
Y235039D02*
D03*
Y242913D02*
D03*
X177953Y464173D02*
D03*
Y456299D02*
D03*
Y440551D02*
D03*
Y448425D02*
D03*
X387330Y425700D02*
D03*
Y433574D02*
D03*
Y449322D02*
D03*
Y441448D02*
D03*
X387440Y370972D02*
D03*
Y378847D02*
D03*
Y394595D02*
D03*
Y386720D02*
D03*
X276693Y448504D02*
D03*
Y418504D02*
D03*
X306693Y448504D02*
D03*
Y418504D02*
D03*
X326693Y448504D02*
D03*
Y418504D02*
D03*
X346693Y448504D02*
D03*
Y418504D02*
D03*
X387402Y276772D02*
D03*
Y284646D02*
D03*
Y268898D02*
D03*
Y261024D02*
D03*
Y253150D02*
D03*
X387136Y504272D02*
D03*
Y512146D02*
D03*
Y496398D02*
D03*
Y488524D02*
D03*
Y480650D02*
D03*
D84*
X249055Y280315D02*
D03*
Y275315D02*
D03*
X244055D02*
D03*
Y280315D02*
D03*
X239055D02*
D03*
Y275315D02*
D03*
X254055D02*
D03*
Y280315D02*
D03*
X259055D02*
D03*
Y275315D02*
D03*
D85*
X336063Y407087D02*
D03*
X346063D02*
D03*
X336457Y459842D02*
D03*
X346457D02*
D03*
D86*
X172047Y306142D02*
D03*
Y316142D02*
D03*
D87*
Y326142D02*
D03*
D88*
X191705Y353764D02*
D03*
X359519Y258351D02*
D03*
X325653Y501128D02*
D03*
X321406Y253144D02*
D03*
X221177Y216230D02*
D03*
X195761Y561037D02*
D03*
X205242Y552472D02*
D03*
X178762Y552406D02*
D03*
X322068Y500627D02*
D03*
X320866Y512866D02*
D03*
X350828Y513941D02*
D03*
X346760Y513526D02*
D03*
X252598Y205937D02*
D03*
X248407Y226885D02*
D03*
X245077Y216338D02*
D03*
X239841Y216325D02*
D03*
X218128Y226703D02*
D03*
X177978Y352795D02*
D03*
X221631Y356054D02*
D03*
X251575Y338559D02*
D03*
X319089Y479417D02*
D03*
X351914Y248429D02*
D03*
X331713Y252894D02*
D03*
X326825Y285185D02*
D03*
X336979Y285062D02*
D03*
X331738Y285103D02*
D03*
X321690Y285221D02*
D03*
X316972D02*
D03*
X351845Y285709D02*
D03*
X316973Y253641D02*
D03*
X341534Y263177D02*
D03*
X346707Y263081D02*
D03*
X343019Y247140D02*
D03*
X344628Y273624D02*
D03*
X355797Y275466D02*
D03*
X358673Y278477D02*
D03*
X347732Y285486D02*
D03*
X347061Y243200D02*
D03*
X355977Y258078D02*
D03*
X351655Y266247D02*
D03*
X353290Y533270D02*
D03*
X345621Y533419D02*
D03*
X336223Y512680D02*
D03*
X312772Y491566D02*
D03*
X350991Y479417D02*
D03*
X267766Y346760D02*
D03*
X267120Y319249D02*
D03*
X182014Y361263D02*
D03*
X181971Y376046D02*
D03*
X175982Y376055D02*
D03*
X202363Y376334D02*
D03*
X196801Y376212D02*
D03*
X222800Y500572D02*
D03*
X244713Y383072D02*
D03*
X252287Y383053D02*
D03*
X263542Y359996D02*
D03*
X254656Y353869D02*
D03*
X258268Y340158D02*
D03*
X190551Y281496D02*
D03*
X209449Y460236D02*
D03*
X207087Y521260D02*
D03*
X191732Y540551D02*
D03*
X170866Y523622D02*
D03*
X179867Y512259D02*
D03*
D89*
X319568Y354451D02*
D03*
X226766Y227426D02*
D03*
X207115Y237049D02*
D03*
X264539Y236386D02*
D03*
X206967Y218732D02*
D03*
X264677Y204311D02*
D03*
X232400Y311340D02*
D03*
X215181Y356537D02*
D03*
X246298Y305963D02*
D03*
X242073Y301758D02*
D03*
X328260Y348422D02*
D03*
X332677Y344488D02*
D03*
X338583Y351181D02*
D03*
X343651Y479417D02*
D03*
X333473D02*
D03*
X245801Y293746D02*
D03*
X316549Y319330D02*
D03*
X330993Y334411D02*
D03*
X241521Y398609D02*
D03*
X240938Y395125D02*
D03*
X261110Y401284D02*
D03*
X194377Y221913D02*
D03*
X243857Y378558D02*
D03*
X241761Y471252D02*
D03*
X226129Y560744D02*
D03*
X235246Y560783D02*
D03*
X248956Y461047D02*
D03*
X239900Y285413D02*
D03*
X233931Y289918D02*
D03*
X254044Y545441D02*
D03*
X334602Y354896D02*
D03*
X260630Y396457D02*
D03*
X250000Y438189D02*
D03*
X243870Y444882D02*
D03*
X230315Y267323D02*
D03*
X220472D02*
D03*
D90*
X216715Y536055D02*
D03*
X253910Y515810D02*
D03*
X267035Y515921D02*
D03*
D91*
X212205Y378740D02*
D03*
X183071Y290551D02*
D03*
X172835Y338976D02*
D03*
D92*
X261417Y345669D02*
D03*
Y326378D02*
D03*
M02*
