G04*
G04 #@! TF.GenerationSoftware,Altium Limited,Altium Designer,21.3.1 (25)*
G04*
G04 Layer_Color=16711935*
%FSLAX25Y25*%
%MOIN*%
G70*
G04*
G04 #@! TF.SameCoordinates,C2895D86-3F53-4CC5-9A74-561D9FEADA75*
G04*
G04*
G04 #@! TF.FilePolarity,Positive*
G04*
G01*
G75*
%ADD100C,0.06000*%
D100*
X359528Y184576D02*
X359366Y185550D01*
X358895Y186418D01*
X358169Y187087D01*
X357264Y187484D01*
X356280Y187565D01*
X355323Y187323D01*
X354496Y186783D01*
X353890Y186003D01*
X353569Y185069D01*
Y184082D01*
X353890Y183148D01*
X354496Y182368D01*
X355323Y181828D01*
X356280Y181586D01*
X357264Y181667D01*
X358169Y182064D01*
X358895Y182733D01*
X359366Y183601D01*
X359528Y184576D01*
X207269Y587675D02*
X207106Y588649D01*
X206636Y589517D01*
X205909Y590186D01*
X205005Y590583D01*
X204021Y590665D01*
X203063Y590422D01*
X202237Y589882D01*
X201630Y589103D01*
X201309Y588169D01*
Y587181D01*
X201630Y586247D01*
X202237Y585468D01*
X203064Y584928D01*
X204021Y584685D01*
X205005Y584767D01*
X205909Y585163D01*
X206636Y585832D01*
X207106Y586701D01*
X207269Y587675D01*
X213236Y189764D02*
X213074Y190738D01*
X212604Y191606D01*
X211877Y192275D01*
X210973Y192672D01*
X209988Y192754D01*
X209031Y192511D01*
X208204Y191971D01*
X207598Y191192D01*
X207277Y190258D01*
Y189270D01*
X207598Y188336D01*
X208204Y187557D01*
X209031Y187016D01*
X209988Y186774D01*
X210973Y186856D01*
X211877Y187252D01*
X212604Y187921D01*
X213074Y188790D01*
X213236Y189764D01*
X359367Y595170D02*
X359204Y596144D01*
X358734Y597012D01*
X358008Y597681D01*
X357103Y598078D01*
X356119Y598159D01*
X355162Y597917D01*
X354335Y597377D01*
X353728Y596597D01*
X353408Y595663D01*
Y594676D01*
X353728Y593742D01*
X354335Y592962D01*
X355162Y592422D01*
X356119Y592180D01*
X357103Y592261D01*
X358008Y592658D01*
X358734Y593327D01*
X359204Y594196D01*
X359367Y595170D01*
M02*
