G04*
G04 #@! TF.GenerationSoftware,Altium Limited,Altium Designer,21.3.1 (25)*
G04*
G04 Layer_Color=16711935*
%FSLAX25Y25*%
%MOIN*%
G70*
G04*
G04 #@! TF.SameCoordinates,C2895D86-3F53-4CC5-9A74-561D9FEADA75*
G04*
G04*
G04 #@! TF.FilePolarity,Negative*
G04*
G01*
G75*
%ADD20R,0.03800X0.04800*%
%ADD37R,0.04800X0.03800*%
%ADD40C,0.11811*%
%ADD47C,0.20472*%
%ADD48C,0.06800*%
%ADD49C,0.04800*%
%ADD50C,0.07800*%
%ADD51C,0.06706*%
%ADD52R,0.06706X0.06706*%
%ADD53C,0.02965*%
%ADD54C,0.02965*%
%ADD55C,0.05131*%
%ADD56C,0.02800*%
%ADD57C,0.05100*%
%ADD94R,0.05918X0.11824*%
D20*
X322358Y281101D02*
D03*
X316111D02*
D03*
X351704Y484025D02*
D03*
X345457D02*
D03*
D37*
X221930Y205923D02*
D03*
Y212170D02*
D03*
X227972Y205923D02*
D03*
Y212170D02*
D03*
X233947Y205923D02*
D03*
Y212170D02*
D03*
X239955Y205923D02*
D03*
Y212170D02*
D03*
X245960Y205923D02*
D03*
Y212170D02*
D03*
D40*
X356528Y184576D02*
D03*
X204269Y587675D02*
D03*
X210236Y189764D02*
D03*
X356367Y595170D02*
D03*
D47*
X184947Y183470D02*
D03*
X380296Y595926D02*
D03*
X380324Y183470D02*
D03*
X184987Y595926D02*
D03*
D48*
X387402Y331890D02*
D03*
Y339764D02*
D03*
Y324016D02*
D03*
Y316142D02*
D03*
X325197Y213032D02*
D03*
X340945D02*
D03*
X348819D02*
D03*
X356693D02*
D03*
X364567D02*
D03*
X372441D02*
D03*
X380315D02*
D03*
X333071D02*
D03*
X380709Y565354D02*
D03*
X364961D02*
D03*
X357087D02*
D03*
X349213D02*
D03*
X341339D02*
D03*
X333465D02*
D03*
X325590D02*
D03*
X372835D02*
D03*
X177953Y400787D02*
D03*
Y408661D02*
D03*
X178347Y258661D02*
D03*
Y250787D02*
D03*
Y235039D02*
D03*
Y242913D02*
D03*
X177953Y464173D02*
D03*
Y456299D02*
D03*
Y440551D02*
D03*
Y448425D02*
D03*
X387330Y425700D02*
D03*
Y433574D02*
D03*
Y449322D02*
D03*
Y441448D02*
D03*
X387440Y370972D02*
D03*
Y378847D02*
D03*
Y394595D02*
D03*
Y386720D02*
D03*
X276693Y448504D02*
D03*
Y418504D02*
D03*
X306693Y448504D02*
D03*
Y418504D02*
D03*
X326693Y448504D02*
D03*
Y418504D02*
D03*
X346693Y448504D02*
D03*
Y418504D02*
D03*
X387402Y276772D02*
D03*
Y284646D02*
D03*
Y268898D02*
D03*
Y261024D02*
D03*
Y253150D02*
D03*
X387136Y504272D02*
D03*
Y512146D02*
D03*
Y496398D02*
D03*
Y488524D02*
D03*
Y480650D02*
D03*
D49*
X249055Y280315D02*
D03*
Y275315D02*
D03*
X244055D02*
D03*
Y280315D02*
D03*
X239055D02*
D03*
Y275315D02*
D03*
X254055D02*
D03*
Y280315D02*
D03*
X259055D02*
D03*
Y275315D02*
D03*
D50*
X336063Y407087D02*
D03*
X346063D02*
D03*
X336457Y459842D02*
D03*
X346457D02*
D03*
D51*
X172047Y306142D02*
D03*
Y316142D02*
D03*
D52*
Y326142D02*
D03*
D53*
X191705Y353764D02*
D03*
X359519Y258351D02*
D03*
X325653Y501128D02*
D03*
X321406Y253144D02*
D03*
X221177Y216230D02*
D03*
X195761Y561037D02*
D03*
X205242Y552472D02*
D03*
X178762Y552406D02*
D03*
X322068Y500627D02*
D03*
X320866Y512866D02*
D03*
X350828Y513941D02*
D03*
X346760Y513526D02*
D03*
X252598Y205937D02*
D03*
X248407Y226885D02*
D03*
X245077Y216338D02*
D03*
X239841Y216325D02*
D03*
X218128Y226703D02*
D03*
X177978Y352795D02*
D03*
X221631Y356054D02*
D03*
X251575Y338559D02*
D03*
X319089Y479417D02*
D03*
X351914Y248429D02*
D03*
X331713Y252894D02*
D03*
X326825Y285185D02*
D03*
X336979Y285062D02*
D03*
X331738Y285103D02*
D03*
X321690Y285221D02*
D03*
X316972D02*
D03*
X351845Y285709D02*
D03*
X316973Y253641D02*
D03*
X341534Y263177D02*
D03*
X346707Y263081D02*
D03*
X343019Y247140D02*
D03*
X344628Y273624D02*
D03*
X355797Y275466D02*
D03*
X358673Y278477D02*
D03*
X347732Y285486D02*
D03*
X347061Y243200D02*
D03*
X355977Y258078D02*
D03*
X351655Y266247D02*
D03*
X353290Y533270D02*
D03*
X345621Y533419D02*
D03*
X336223Y512680D02*
D03*
X312772Y491566D02*
D03*
X350991Y479417D02*
D03*
X267766Y346760D02*
D03*
X267120Y319249D02*
D03*
X182014Y361263D02*
D03*
X181971Y376046D02*
D03*
X175982Y376055D02*
D03*
X202363Y376334D02*
D03*
X196801Y376212D02*
D03*
X222800Y500572D02*
D03*
X244713Y383072D02*
D03*
X252287Y383053D02*
D03*
X263542Y359996D02*
D03*
X254656Y353869D02*
D03*
X258268Y340158D02*
D03*
X190551Y281496D02*
D03*
X209449Y460236D02*
D03*
X207087Y521260D02*
D03*
X191732Y540551D02*
D03*
X170866Y523622D02*
D03*
X179867Y512259D02*
D03*
D54*
X319568Y354451D02*
D03*
X226766Y227426D02*
D03*
X207115Y237049D02*
D03*
X264539Y236386D02*
D03*
X206967Y218732D02*
D03*
X264677Y204311D02*
D03*
X232400Y311340D02*
D03*
X215181Y356537D02*
D03*
X246298Y305963D02*
D03*
X242073Y301758D02*
D03*
X328260Y348422D02*
D03*
X332677Y344488D02*
D03*
X338583Y351181D02*
D03*
X343651Y479417D02*
D03*
X333473D02*
D03*
X245801Y293746D02*
D03*
X316549Y319330D02*
D03*
X330993Y334411D02*
D03*
X241521Y398609D02*
D03*
X240938Y395125D02*
D03*
X261110Y401284D02*
D03*
X194377Y221913D02*
D03*
X243857Y378558D02*
D03*
X241761Y471252D02*
D03*
X226129Y560744D02*
D03*
X235246Y560783D02*
D03*
X248956Y461047D02*
D03*
X239900Y285413D02*
D03*
X233931Y289918D02*
D03*
X254044Y545441D02*
D03*
X334602Y354896D02*
D03*
X260630Y396457D02*
D03*
X250000Y438189D02*
D03*
X243870Y444882D02*
D03*
X230315Y267323D02*
D03*
X220472D02*
D03*
D55*
X216715Y536055D02*
D03*
X253910Y515810D02*
D03*
X267035Y515921D02*
D03*
D56*
X212205Y378740D02*
D03*
X183071Y290551D02*
D03*
X172835Y338976D02*
D03*
D57*
X261417Y345669D02*
D03*
Y326378D02*
D03*
D94*
X350668Y256194D02*
D03*
X337870D02*
D03*
X356084Y286193D02*
D03*
X343286D02*
D03*
X317382Y504278D02*
D03*
X330180D02*
D03*
X325433Y256585D02*
D03*
X312634D02*
D03*
X342241Y504316D02*
D03*
X355039D02*
D03*
X324952Y483109D02*
D03*
X312154D02*
D03*
M02*
