G04*
G04 #@! TF.GenerationSoftware,Altium Limited,Altium Designer,21.3.1 (25)*
G04*
G04 Layer_Physical_Order=2*
G04 Layer_Color=16711680*
%FSLAX25Y25*%
%MOIN*%
G70*
G04*
G04 #@! TF.SameCoordinates,C2895D86-3F53-4CC5-9A74-561D9FEADA75*
G04*
G04*
G04 #@! TF.FilePolarity,Positive*
G04*
G01*
G75*
%ADD12C,0.01000*%
%ADD58R,0.03000X0.04000*%
%ADD73R,0.04000X0.03000*%
%ADD76C,0.03937*%
%ADD82C,0.01968*%
%ADD83C,0.06000*%
%ADD84C,0.04000*%
%ADD85C,0.07000*%
%ADD86C,0.05906*%
%ADD87R,0.05906X0.05906*%
%ADD88C,0.02165*%
%ADD89C,0.02165*%
%ADD90C,0.04331*%
%ADD91C,0.02000*%
%ADD92C,0.04300*%
%ADD93R,0.05118X0.11024*%
G36*
X400875Y465426D02*
X400489Y465104D01*
X305853D01*
Y581032D01*
X305981Y581086D01*
X400875D01*
Y465426D01*
D02*
G37*
G36*
X400824Y400721D02*
X400688Y199093D01*
X305985D01*
X305873Y199365D01*
Y400830D01*
X400280D01*
X400362Y400912D01*
X400824Y400721D01*
D02*
G37*
G36*
X175221Y601814D02*
X175413Y601352D01*
X173987Y599926D01*
Y595926D01*
Y591926D01*
X180987Y584926D01*
X188987D01*
X195987Y591926D01*
Y595926D01*
Y599926D01*
X194562Y601352D01*
X194753Y601814D01*
X277192Y601814D01*
X277192Y452504D01*
X276166D01*
X275149Y452231D01*
X274237Y451705D01*
X273492Y450960D01*
X272966Y450048D01*
X272693Y449031D01*
Y447977D01*
X272966Y446960D01*
X273492Y446048D01*
X274237Y445303D01*
X275149Y444776D01*
X276166Y444504D01*
X277192D01*
Y422504D01*
X276166D01*
X275149Y422231D01*
X274237Y421705D01*
X273492Y420960D01*
X272966Y420048D01*
X272693Y419031D01*
Y417977D01*
X272966Y416960D01*
X273492Y416048D01*
X274237Y415303D01*
X275149Y414777D01*
X276166Y414504D01*
X277192D01*
X277192Y198645D01*
X165469D01*
X165350Y601460D01*
X165703Y601814D01*
X175221Y601814D01*
D02*
G37*
%LPC*%
G36*
X381235Y569354D02*
X380182D01*
X379165Y569082D01*
X378253Y568555D01*
X377508Y567810D01*
X377048Y567015D01*
X376837Y566964D01*
X376706D01*
X376495Y567015D01*
X376035Y567810D01*
X375291Y568555D01*
X374379Y569082D01*
X373361Y569354D01*
X372308D01*
X371291Y569082D01*
X370379Y568555D01*
X369634Y567810D01*
X369175Y567015D01*
X368963Y566964D01*
X368832D01*
X368621Y567015D01*
X368161Y567810D01*
X367417Y568555D01*
X366505Y569082D01*
X365487Y569354D01*
X364434D01*
X363417Y569082D01*
X362505Y568555D01*
X361760Y567810D01*
X361300Y567015D01*
X361089Y566964D01*
X360958D01*
X360747Y567015D01*
X360287Y567810D01*
X359543Y568555D01*
X358630Y569082D01*
X357613Y569354D01*
X356560D01*
X355543Y569082D01*
X354630Y568555D01*
X353886Y567810D01*
X353426Y567015D01*
X353215Y566964D01*
X353084D01*
X352873Y567015D01*
X352413Y567810D01*
X351669Y568555D01*
X350757Y569082D01*
X349739Y569354D01*
X348686D01*
X347669Y569082D01*
X346757Y568555D01*
X346012Y567810D01*
X345552Y567015D01*
X345341Y566964D01*
X345210D01*
X344999Y567015D01*
X344539Y567810D01*
X343795Y568555D01*
X342882Y569082D01*
X341865Y569354D01*
X340812D01*
X339795Y569082D01*
X338882Y568555D01*
X338138Y567810D01*
X337678Y567015D01*
X337467Y566964D01*
X337336D01*
X337125Y567015D01*
X336665Y567810D01*
X335921Y568555D01*
X335009Y569082D01*
X333991Y569354D01*
X333965D01*
Y565354D01*
Y561354D01*
X333991D01*
X335009Y561627D01*
X335921Y562153D01*
X336665Y562898D01*
X337125Y563694D01*
X337336Y563744D01*
X337467D01*
X337678Y563694D01*
X338138Y562898D01*
X338882Y562153D01*
X339795Y561627D01*
X340812Y561354D01*
X341865D01*
X342882Y561627D01*
X343795Y562153D01*
X344539Y562898D01*
X344999Y563694D01*
X345210Y563744D01*
X345341D01*
X345552Y563694D01*
X346012Y562898D01*
X346757Y562153D01*
X347669Y561627D01*
X348686Y561354D01*
X349739D01*
X350757Y561627D01*
X351669Y562153D01*
X352413Y562898D01*
X352873Y563694D01*
X353084Y563744D01*
X353215D01*
X353426Y563694D01*
X353886Y562898D01*
X354630Y562153D01*
X355543Y561627D01*
X356560Y561354D01*
X357613D01*
X358630Y561627D01*
X359543Y562153D01*
X360287Y562898D01*
X360747Y563694D01*
X360958Y563744D01*
X361089D01*
X361300Y563694D01*
X361760Y562898D01*
X362505Y562153D01*
X363417Y561627D01*
X364434Y561354D01*
X365487D01*
X366505Y561627D01*
X367417Y562153D01*
X368161Y562898D01*
X368621Y563694D01*
X368832Y563744D01*
X368963D01*
X369175Y563694D01*
X369634Y562898D01*
X370379Y562153D01*
X371291Y561627D01*
X372308Y561354D01*
X373361D01*
X374379Y561627D01*
X375291Y562153D01*
X376035Y562898D01*
X376495Y563694D01*
X376706Y563744D01*
X376837D01*
X377048Y563694D01*
X377508Y562898D01*
X378253Y562153D01*
X379165Y561627D01*
X380182Y561354D01*
X381235D01*
X382253Y561627D01*
X383165Y562153D01*
X383910Y562898D01*
X384436Y563810D01*
X384709Y564828D01*
Y565881D01*
X384436Y566898D01*
X383910Y567810D01*
X383165Y568555D01*
X382253Y569082D01*
X381235Y569354D01*
D02*
G37*
G36*
X332965D02*
X332938D01*
X331921Y569082D01*
X331009Y568555D01*
X330264Y567810D01*
X329804Y567015D01*
X329593Y566964D01*
X329462D01*
X329251Y567015D01*
X328791Y567810D01*
X328047Y568555D01*
X327134Y569082D01*
X326117Y569354D01*
X325064D01*
X324047Y569082D01*
X323134Y568555D01*
X322390Y567810D01*
X321863Y566898D01*
X321590Y565881D01*
Y564828D01*
X321863Y563810D01*
X322390Y562898D01*
X323134Y562153D01*
X324047Y561627D01*
X325064Y561354D01*
X326117D01*
X327134Y561627D01*
X328047Y562153D01*
X328791Y562898D01*
X329251Y563694D01*
X329462Y563744D01*
X329593D01*
X329804Y563694D01*
X330264Y562898D01*
X331009Y562153D01*
X331921Y561627D01*
X332938Y561354D01*
X332965D01*
Y565354D01*
Y569354D01*
D02*
G37*
G36*
X346035Y535501D02*
X345207D01*
X344441Y535184D01*
X343856Y534598D01*
X343538Y533833D01*
Y533004D01*
X343856Y532239D01*
X344441Y531653D01*
X345207Y531336D01*
X346035D01*
X346801Y531653D01*
X346963Y531815D01*
X351799D01*
X352110Y531504D01*
X352875Y531187D01*
X353704D01*
X354469Y531504D01*
X355055Y532090D01*
X355372Y532856D01*
Y533684D01*
X355055Y534450D01*
X354469Y535036D01*
X353704Y535353D01*
X352875D01*
X352110Y535036D01*
X351948Y534874D01*
X347112D01*
X346801Y535184D01*
X346035Y535501D01*
D02*
G37*
G36*
X351242Y516024D02*
X350413D01*
X349648Y515707D01*
X349062Y515121D01*
X348975Y514910D01*
X348872Y514864D01*
X348401Y514831D01*
X347940Y515292D01*
X347174Y515609D01*
X346346D01*
X345580Y515292D01*
X344995Y514706D01*
X344677Y513940D01*
Y513112D01*
X344995Y512347D01*
X345008Y512333D01*
Y512198D01*
X343637Y510827D01*
X338682D01*
Y497804D01*
X345800D01*
Y508665D01*
X347619Y510483D01*
X347950Y510980D01*
X348067Y511565D01*
Y511887D01*
X348526Y512347D01*
X348575Y512466D01*
X349075Y512563D01*
X349419Y512236D01*
Y511359D01*
X349536Y510773D01*
X349867Y510277D01*
X351480Y508665D01*
Y497804D01*
X358598D01*
Y510827D01*
X353643D01*
X352478Y511992D01*
Y512646D01*
X352593Y512762D01*
X352910Y513527D01*
Y514356D01*
X352593Y515121D01*
X352008Y515707D01*
X351242Y516024D01*
D02*
G37*
G36*
X333739Y510790D02*
X326621D01*
Y503431D01*
X326205Y503153D01*
X326067Y503210D01*
X325239D01*
X324474Y502893D01*
X323888Y502308D01*
X323425Y502215D01*
X323248Y502392D01*
X322482Y502709D01*
X321654D01*
X321357Y502586D01*
X320941Y502864D01*
Y510790D01*
X313823D01*
Y497766D01*
X320941D01*
Y498389D01*
X321357Y498667D01*
X321654Y498544D01*
X322482D01*
X323248Y498861D01*
X323834Y499447D01*
X324297Y499539D01*
X324474Y499362D01*
X325239Y499045D01*
X326067D01*
X326205Y499102D01*
X326621Y498825D01*
Y497766D01*
X333739D01*
Y510790D01*
D02*
G37*
G36*
X347957Y487025D02*
X345957D01*
Y484525D01*
X347957D01*
Y487025D01*
D02*
G37*
G36*
X344957D02*
X342957D01*
Y484525D01*
X344957D01*
Y487025D01*
D02*
G37*
G36*
X387663Y516146D02*
X386609D01*
X385592Y515874D01*
X384680Y515347D01*
X383935Y514602D01*
X383408Y513690D01*
X383136Y512673D01*
Y511620D01*
X383408Y510602D01*
X383935Y509690D01*
X384680Y508945D01*
X385475Y508486D01*
X385526Y508275D01*
Y508143D01*
X385475Y507932D01*
X384680Y507473D01*
X383935Y506728D01*
X383408Y505816D01*
X383136Y504799D01*
Y503746D01*
X383408Y502728D01*
X383935Y501816D01*
X384680Y501071D01*
X385475Y500612D01*
X385526Y500401D01*
Y500269D01*
X385475Y500058D01*
X384680Y499599D01*
X383935Y498854D01*
X383408Y497942D01*
X383136Y496925D01*
Y495871D01*
X383408Y494854D01*
X383935Y493942D01*
X384680Y493197D01*
X385475Y492738D01*
X385526Y492527D01*
Y492395D01*
X385475Y492184D01*
X384680Y491725D01*
X383935Y490980D01*
X383408Y490068D01*
X383136Y489051D01*
Y487997D01*
X383408Y486980D01*
X383935Y486068D01*
X384680Y485323D01*
X385475Y484864D01*
X385526Y484653D01*
Y484521D01*
X385475Y484310D01*
X384680Y483851D01*
X383935Y483106D01*
X383408Y482194D01*
X383136Y481177D01*
Y481150D01*
X387136D01*
X391136D01*
Y481177D01*
X390863Y482194D01*
X390337Y483106D01*
X389592Y483851D01*
X388796Y484310D01*
X388746Y484521D01*
Y484653D01*
X388796Y484864D01*
X389592Y485323D01*
X390337Y486068D01*
X390863Y486980D01*
X391136Y487997D01*
Y489051D01*
X390863Y490068D01*
X390337Y490980D01*
X389592Y491725D01*
X388796Y492184D01*
X388746Y492395D01*
Y492527D01*
X388796Y492738D01*
X389592Y493197D01*
X390337Y493942D01*
X390863Y494854D01*
X391136Y495871D01*
Y496925D01*
X390863Y497942D01*
X390337Y498854D01*
X389592Y499599D01*
X388796Y500058D01*
X388746Y500269D01*
Y500401D01*
X388796Y500612D01*
X389592Y501071D01*
X390337Y501816D01*
X390863Y502728D01*
X391136Y503746D01*
Y504799D01*
X390863Y505816D01*
X390337Y506728D01*
X389592Y507473D01*
X388796Y507932D01*
X388746Y508143D01*
Y508275D01*
X388796Y508486D01*
X389592Y508945D01*
X390337Y509690D01*
X390863Y510602D01*
X391136Y511620D01*
Y512673D01*
X390863Y513690D01*
X390337Y514602D01*
X389592Y515347D01*
X388680Y515874D01*
X387663Y516146D01*
D02*
G37*
G36*
X328511Y489621D02*
X321393D01*
Y480900D01*
X320552D01*
X320269Y481183D01*
X319503Y481500D01*
X318675D01*
X317909Y481183D01*
X317323Y480597D01*
X317006Y479832D01*
Y479003D01*
X317323Y478238D01*
X317909Y477652D01*
X318675Y477335D01*
X319503D01*
X320269Y477652D01*
X320458Y477841D01*
X321393D01*
Y476597D01*
X328511D01*
Y489621D01*
D02*
G37*
G36*
X347957Y483525D02*
X342957D01*
Y483172D01*
X342927Y483025D01*
Y481433D01*
X342569Y481075D01*
X342238Y480579D01*
X342122Y479993D01*
Y479678D01*
X342238Y479093D01*
X342569Y478597D01*
X343066Y478265D01*
X343651Y478149D01*
X344236Y478265D01*
X344732Y478597D01*
X345064Y479093D01*
X345101Y479281D01*
X345538Y479718D01*
X345870Y480214D01*
X345986Y480799D01*
Y481025D01*
X347957D01*
Y483525D01*
D02*
G37*
G36*
X354204Y487025D02*
X349204D01*
Y481025D01*
X349204Y481025D01*
X349197Y480527D01*
X348909Y479832D01*
Y479003D01*
X349226Y478238D01*
X349812Y477652D01*
X350577Y477335D01*
X351406D01*
X352171Y477652D01*
X352757Y478238D01*
X353074Y479003D01*
Y479832D01*
X353063Y479858D01*
X353117Y479939D01*
X353233Y480525D01*
Y481025D01*
X354204D01*
Y487025D01*
D02*
G37*
G36*
X391136Y480150D02*
X387636D01*
Y476650D01*
X387663D01*
X388680Y476923D01*
X389592Y477449D01*
X390337Y478194D01*
X390863Y479106D01*
X391136Y480124D01*
Y480150D01*
D02*
G37*
G36*
X386636D02*
X383136D01*
Y480124D01*
X383408Y479106D01*
X383935Y478194D01*
X384680Y477449D01*
X385592Y476923D01*
X386609Y476650D01*
X386636D01*
Y480150D01*
D02*
G37*
G36*
X313186Y493648D02*
X312357D01*
X311592Y493331D01*
X311006Y492745D01*
X310689Y491980D01*
Y491151D01*
X310714Y491091D01*
X310625Y490641D01*
Y489621D01*
X308595D01*
Y476597D01*
X315713D01*
Y489621D01*
X314479D01*
X314272Y490121D01*
X314537Y490386D01*
X314854Y491151D01*
Y491980D01*
X314537Y492745D01*
X313951Y493331D01*
X313186Y493648D01*
D02*
G37*
G36*
X387966Y398594D02*
X386913D01*
X385896Y398322D01*
X384984Y397795D01*
X384239Y397051D01*
X383712Y396139D01*
X383440Y395121D01*
Y394068D01*
X383712Y393051D01*
X384239Y392139D01*
X384984Y391394D01*
X385779Y390934D01*
X385830Y390723D01*
Y390592D01*
X385779Y390381D01*
X384984Y389921D01*
X384239Y389177D01*
X383712Y388264D01*
X383440Y387247D01*
Y387221D01*
X387440D01*
X391440D01*
Y387247D01*
X391167Y388264D01*
X390640Y389177D01*
X389896Y389921D01*
X389100Y390381D01*
X389050Y390592D01*
Y390723D01*
X389100Y390934D01*
X389896Y391394D01*
X390640Y392139D01*
X391167Y393051D01*
X391440Y394068D01*
Y395121D01*
X391167Y396139D01*
X390640Y397051D01*
X389896Y397795D01*
X388984Y398322D01*
X387966Y398594D01*
D02*
G37*
G36*
X391440Y386221D02*
X387440D01*
X383440D01*
Y386194D01*
X383712Y385177D01*
X384239Y384264D01*
X384984Y383520D01*
X385779Y383060D01*
X385830Y382849D01*
Y382718D01*
X385779Y382507D01*
X384984Y382047D01*
X384239Y381303D01*
X383712Y380391D01*
X383440Y379373D01*
Y378320D01*
X383712Y377303D01*
X384239Y376391D01*
X384984Y375646D01*
X385779Y375186D01*
X385830Y374975D01*
Y374844D01*
X385779Y374633D01*
X384984Y374173D01*
X384239Y373429D01*
X383712Y372516D01*
X383440Y371499D01*
Y370446D01*
X383712Y369429D01*
X384239Y368516D01*
X384984Y367772D01*
X385896Y367245D01*
X386913Y366972D01*
X387966D01*
X388984Y367245D01*
X389896Y367772D01*
X390640Y368516D01*
X391167Y369429D01*
X391440Y370446D01*
Y371499D01*
X391167Y372516D01*
X390640Y373429D01*
X389896Y374173D01*
X389100Y374633D01*
X389050Y374844D01*
Y374975D01*
X389100Y375186D01*
X389896Y375646D01*
X390640Y376391D01*
X391167Y377303D01*
X391440Y378320D01*
Y379373D01*
X391167Y380391D01*
X390640Y381303D01*
X389896Y382047D01*
X389100Y382507D01*
X389050Y382718D01*
Y382849D01*
X389100Y383060D01*
X389896Y383520D01*
X390640Y384264D01*
X391167Y385177D01*
X391440Y386194D01*
Y386221D01*
D02*
G37*
G36*
X335016Y356979D02*
X334187D01*
X333422Y356662D01*
X332836Y356076D01*
X332519Y355311D01*
Y354482D01*
X332836Y353716D01*
X333422Y353131D01*
X334187Y352814D01*
X334654D01*
X336500Y350968D01*
Y350767D01*
X336817Y350001D01*
X337403Y349415D01*
X338168Y349098D01*
X338997D01*
X339762Y349415D01*
X340348Y350001D01*
X340665Y350767D01*
Y351595D01*
X340348Y352361D01*
X339762Y352947D01*
X338997Y353264D01*
X338530D01*
X336684Y355109D01*
Y355311D01*
X336367Y356076D01*
X335781Y356662D01*
X335016Y356979D01*
D02*
G37*
G36*
X328674Y350504D02*
X327846D01*
X327080Y350187D01*
X326494Y349602D01*
X326177Y348836D01*
Y348007D01*
X326494Y347242D01*
X327080Y346656D01*
X327846Y346339D01*
X328421D01*
X330594Y344166D01*
Y344074D01*
X330911Y343308D01*
X331497Y342723D01*
X332263Y342406D01*
X333091D01*
X333857Y342723D01*
X334443Y343308D01*
X334760Y344074D01*
Y344902D01*
X334443Y345668D01*
X333857Y346254D01*
X333091Y346571D01*
X332516D01*
X330343Y348744D01*
Y348836D01*
X330026Y349602D01*
X329440Y350187D01*
X328674Y350504D01*
D02*
G37*
G36*
X387928Y343764D02*
X386875D01*
X385858Y343491D01*
X384946Y342965D01*
X384201Y342220D01*
X383674Y341308D01*
X383402Y340290D01*
Y339237D01*
X383674Y338220D01*
X384201Y337308D01*
X384946Y336563D01*
X385741Y336104D01*
X385792Y335893D01*
Y335761D01*
X385741Y335550D01*
X384946Y335091D01*
X384201Y334346D01*
X383674Y333434D01*
X383402Y332416D01*
Y331363D01*
X383674Y330346D01*
X384201Y329434D01*
X384946Y328689D01*
X385741Y328230D01*
X385792Y328018D01*
Y327887D01*
X385741Y327676D01*
X384946Y327217D01*
X384201Y326472D01*
X383674Y325560D01*
X383402Y324542D01*
Y323489D01*
X383674Y322472D01*
X384201Y321560D01*
X384946Y320815D01*
X385741Y320356D01*
X385792Y320145D01*
Y320013D01*
X385741Y319802D01*
X384946Y319342D01*
X384201Y318598D01*
X383674Y317686D01*
X383402Y316668D01*
Y315615D01*
X383674Y314598D01*
X384201Y313686D01*
X384946Y312941D01*
X385858Y312414D01*
X386875Y312142D01*
X387928D01*
X388946Y312414D01*
X389858Y312941D01*
X390602Y313686D01*
X391129Y314598D01*
X391402Y315615D01*
Y316668D01*
X391129Y317686D01*
X390602Y318598D01*
X389858Y319342D01*
X389062Y319802D01*
X389011Y320013D01*
Y320145D01*
X389062Y320356D01*
X389858Y320815D01*
X390602Y321560D01*
X391129Y322472D01*
X391402Y323489D01*
Y324542D01*
X391129Y325560D01*
X390602Y326472D01*
X389858Y327217D01*
X389062Y327676D01*
X389011Y327887D01*
Y328018D01*
X389062Y328230D01*
X389858Y328689D01*
X390602Y329434D01*
X391129Y330346D01*
X391402Y331363D01*
Y332416D01*
X391129Y333434D01*
X390602Y334346D01*
X389858Y335091D01*
X389062Y335550D01*
X389011Y335761D01*
Y335893D01*
X389062Y336104D01*
X389858Y336563D01*
X390602Y337308D01*
X391129Y338220D01*
X391402Y339237D01*
Y340290D01*
X391129Y341308D01*
X390602Y342220D01*
X389858Y342965D01*
X388946Y343491D01*
X387928Y343764D01*
D02*
G37*
G36*
X359643Y292705D02*
X352525D01*
Y287969D01*
X352259Y287791D01*
X351431D01*
X350665Y287474D01*
X350079Y286888D01*
X350013Y286728D01*
X349708Y286691D01*
X349461Y286702D01*
X348912Y287251D01*
X348146Y287568D01*
X347318D01*
X347260Y287544D01*
X346845Y287822D01*
Y292705D01*
X339726D01*
Y279682D01*
X346845D01*
Y283149D01*
X347260Y283427D01*
X347318Y283403D01*
X348146D01*
X348912Y283720D01*
X349498Y284306D01*
X349564Y284466D01*
X349869Y284503D01*
X350116Y284492D01*
X350665Y283943D01*
X351431Y283626D01*
X352259D01*
X352525Y283448D01*
Y279682D01*
X356376D01*
X356710Y279182D01*
X356590Y278891D01*
Y278063D01*
X356655Y277907D01*
X356272Y277524D01*
X356211Y277549D01*
X355383D01*
X354618Y277232D01*
X354032Y276646D01*
X353714Y275881D01*
Y275052D01*
X354032Y274287D01*
X354358Y273961D01*
Y263152D01*
X354227Y262706D01*
X349272D01*
X348790Y263188D01*
Y263496D01*
X348473Y264261D01*
X347887Y264847D01*
X347121Y265164D01*
X346293D01*
X345527Y264847D01*
X344942Y264261D01*
X344624Y263496D01*
Y262667D01*
X344942Y261902D01*
X345527Y261316D01*
X346293Y260999D01*
X346654D01*
X347109Y260543D01*
Y249682D01*
X354227D01*
Y256229D01*
X354689Y256420D01*
X354797Y256313D01*
X355563Y255996D01*
X356391D01*
X357157Y256313D01*
X357743Y256898D01*
X357979Y256946D01*
X358340Y256585D01*
X359105Y256268D01*
X359934D01*
X360699Y256585D01*
X361285Y257171D01*
X361602Y257936D01*
Y258765D01*
X361285Y259530D01*
X360826Y259990D01*
Y260810D01*
X360709Y261395D01*
X360378Y261891D01*
X360202Y262067D01*
Y277061D01*
X360438Y277297D01*
X360755Y278063D01*
Y278891D01*
X360438Y279657D01*
X359853Y280242D01*
X359643Y280329D01*
Y292705D01*
D02*
G37*
G36*
X321690Y286750D02*
X321105Y286634D01*
X320608Y286302D01*
X320277Y285806D01*
X320160Y285221D01*
Y284102D01*
X319858D01*
Y281602D01*
X322358D01*
X324858D01*
Y284102D01*
X323219D01*
Y285221D01*
X323103Y285806D01*
X322771Y286302D01*
X322275Y286634D01*
X321690Y286750D01*
D02*
G37*
G36*
X324858Y280602D02*
X322858D01*
Y278101D01*
X324858D01*
Y280602D01*
D02*
G37*
G36*
X321858D02*
X319858D01*
Y278101D01*
X321858D01*
Y280602D01*
D02*
G37*
G36*
X317386Y287303D02*
X316558D01*
X315792Y286986D01*
X315206Y286401D01*
X314889Y285635D01*
Y284806D01*
X315009Y284517D01*
X314731Y284102D01*
X313611D01*
Y278101D01*
X318611D01*
Y283914D01*
X318738Y284041D01*
X319055Y284806D01*
Y285635D01*
X318738Y286401D01*
X318152Y286986D01*
X317386Y287303D01*
D02*
G37*
G36*
X345043Y275707D02*
X344214D01*
X343449Y275390D01*
X342863Y274804D01*
X342546Y274038D01*
Y273210D01*
X342863Y272444D01*
X343449Y271858D01*
X344214Y271541D01*
X344373D01*
X349572Y266342D01*
Y265833D01*
X349889Y265067D01*
X350475Y264481D01*
X351241Y264164D01*
X352069D01*
X352835Y264481D01*
X353421Y265067D01*
X353738Y265833D01*
Y266661D01*
X353421Y267427D01*
X352835Y268013D01*
X352069Y268330D01*
X351910D01*
X346711Y273529D01*
Y274038D01*
X346394Y274804D01*
X345808Y275390D01*
X345043Y275707D01*
D02*
G37*
G36*
X328992Y263097D02*
X321874D01*
Y255262D01*
X321820Y255226D01*
X320991D01*
X320226Y254909D01*
X319640Y254323D01*
X319542Y254088D01*
X319318Y254072D01*
X319022Y254137D01*
X318739Y254820D01*
X318153Y255406D01*
X317388Y255723D01*
X316559D01*
X316194Y255967D01*
Y263097D01*
X309075D01*
Y250073D01*
X316194D01*
Y251314D01*
X316559Y251558D01*
X317388D01*
X318153Y251875D01*
X318739Y252461D01*
X318836Y252696D01*
X319061Y252712D01*
X319357Y252647D01*
X319640Y251964D01*
X320226Y251378D01*
X320991Y251061D01*
X321820D01*
X321874Y251025D01*
Y250073D01*
X328992D01*
Y263097D01*
D02*
G37*
G36*
X387928Y288646D02*
X386875D01*
X385858Y288373D01*
X384946Y287846D01*
X384201Y287102D01*
X383674Y286190D01*
X383402Y285172D01*
Y284119D01*
X383674Y283102D01*
X384201Y282190D01*
X384946Y281445D01*
X385741Y280985D01*
X385792Y280774D01*
Y280643D01*
X385741Y280432D01*
X384946Y279973D01*
X384201Y279228D01*
X383674Y278316D01*
X383402Y277298D01*
Y276245D01*
X383674Y275228D01*
X384201Y274316D01*
X384946Y273571D01*
X385741Y273112D01*
X385792Y272900D01*
Y272769D01*
X385741Y272558D01*
X384946Y272098D01*
X384201Y271354D01*
X383674Y270442D01*
X383402Y269424D01*
Y268371D01*
X383674Y267354D01*
X384201Y266442D01*
X384946Y265697D01*
X385741Y265237D01*
X385792Y265026D01*
Y264895D01*
X385741Y264684D01*
X384946Y264224D01*
X384201Y263480D01*
X383674Y262568D01*
X383402Y261550D01*
Y260497D01*
X383674Y259480D01*
X384201Y258568D01*
X384946Y257823D01*
X385741Y257364D01*
X385792Y257152D01*
Y257021D01*
X385741Y256810D01*
X384946Y256350D01*
X384201Y255606D01*
X383674Y254694D01*
X383402Y253676D01*
Y253650D01*
X387402D01*
X391402D01*
Y253676D01*
X391129Y254694D01*
X390602Y255606D01*
X389858Y256350D01*
X389062Y256810D01*
X389011Y257021D01*
Y257152D01*
X389062Y257364D01*
X389858Y257823D01*
X390602Y258568D01*
X391129Y259480D01*
X391402Y260497D01*
Y261550D01*
X391129Y262568D01*
X390602Y263480D01*
X389858Y264224D01*
X389062Y264684D01*
X389011Y264895D01*
Y265026D01*
X389062Y265237D01*
X389858Y265697D01*
X390602Y266442D01*
X391129Y267354D01*
X391402Y268371D01*
Y269424D01*
X391129Y270442D01*
X390602Y271354D01*
X389858Y272098D01*
X389062Y272558D01*
X389011Y272769D01*
Y272900D01*
X389062Y273112D01*
X389858Y273571D01*
X390602Y274316D01*
X391129Y275228D01*
X391402Y276245D01*
Y277298D01*
X391129Y278316D01*
X390602Y279228D01*
X389858Y279973D01*
X389062Y280432D01*
X389011Y280643D01*
Y280774D01*
X389062Y280985D01*
X389858Y281445D01*
X390602Y282190D01*
X391129Y283102D01*
X391402Y284119D01*
Y285172D01*
X391129Y286190D01*
X390602Y287102D01*
X389858Y287846D01*
X388946Y288373D01*
X387928Y288646D01*
D02*
G37*
G36*
X341948Y265260D02*
X341120D01*
X340354Y264943D01*
X339769Y264357D01*
X339452Y263591D01*
Y262891D01*
X339266Y262706D01*
X334311D01*
Y249682D01*
X341429D01*
Y260543D01*
X342004Y261117D01*
X342714Y261411D01*
X343300Y261997D01*
X343617Y262763D01*
Y263591D01*
X343300Y264357D01*
X342714Y264943D01*
X341948Y265260D01*
D02*
G37*
G36*
X391402Y252650D02*
X387902D01*
Y249150D01*
X387928D01*
X388946Y249422D01*
X389858Y249949D01*
X390602Y250694D01*
X391129Y251606D01*
X391402Y252623D01*
Y252650D01*
D02*
G37*
G36*
X386902D02*
X383402D01*
Y252623D01*
X383674Y251606D01*
X384201Y250694D01*
X384946Y249949D01*
X385858Y249422D01*
X386875Y249150D01*
X386902D01*
Y252650D01*
D02*
G37*
G36*
X343433Y249223D02*
X342605D01*
X341839Y248906D01*
X341254Y248320D01*
X340936Y247554D01*
Y246726D01*
X341254Y245960D01*
X341839Y245374D01*
X342605Y245057D01*
X342990D01*
X344978Y243069D01*
Y242786D01*
X345295Y242021D01*
X345881Y241435D01*
X346646Y241118D01*
X347475D01*
X348240Y241435D01*
X348826Y242021D01*
X349143Y242786D01*
Y243615D01*
X348826Y244380D01*
X348240Y244966D01*
X347475Y245283D01*
X347090D01*
X345102Y247271D01*
Y247554D01*
X344785Y248320D01*
X344199Y248906D01*
X343433Y249223D01*
D02*
G37*
G36*
X371941Y217032D02*
X371914D01*
X370897Y216759D01*
X369985Y216232D01*
X369240Y215488D01*
X368781Y214692D01*
X368570Y214641D01*
X368438D01*
X368227Y214692D01*
X367768Y215488D01*
X367023Y216232D01*
X366111Y216759D01*
X365093Y217032D01*
X364040D01*
X363023Y216759D01*
X362111Y216232D01*
X361366Y215488D01*
X360907Y214692D01*
X360696Y214641D01*
X360564D01*
X360353Y214692D01*
X359894Y215488D01*
X359149Y216232D01*
X358237Y216759D01*
X357220Y217032D01*
X356166D01*
X355149Y216759D01*
X354237Y216232D01*
X353492Y215488D01*
X353033Y214692D01*
X352822Y214641D01*
X352690D01*
X352479Y214692D01*
X352020Y215488D01*
X351275Y216232D01*
X350363Y216759D01*
X349345Y217032D01*
X348292D01*
X347275Y216759D01*
X346363Y216232D01*
X345618Y215488D01*
X345159Y214692D01*
X344948Y214641D01*
X344816D01*
X344605Y214692D01*
X344146Y215488D01*
X343401Y216232D01*
X342489Y216759D01*
X341472Y217032D01*
X340418D01*
X339401Y216759D01*
X338489Y216232D01*
X337744Y215488D01*
X337285Y214692D01*
X337073Y214641D01*
X336942D01*
X336731Y214692D01*
X336272Y215488D01*
X335527Y216232D01*
X334615Y216759D01*
X333597Y217032D01*
X332544D01*
X331527Y216759D01*
X330615Y216232D01*
X329870Y215488D01*
X329411Y214692D01*
X329200Y214641D01*
X329068D01*
X328857Y214692D01*
X328398Y215488D01*
X327653Y216232D01*
X326741Y216759D01*
X325724Y217032D01*
X324670D01*
X323653Y216759D01*
X322741Y216232D01*
X321996Y215488D01*
X321469Y214575D01*
X321197Y213558D01*
Y212505D01*
X321469Y211488D01*
X321996Y210575D01*
X322741Y209831D01*
X323653Y209304D01*
X324670Y209032D01*
X325724D01*
X326741Y209304D01*
X327653Y209831D01*
X328398Y210575D01*
X328857Y211371D01*
X329068Y211422D01*
X329200D01*
X329411Y211371D01*
X329870Y210575D01*
X330615Y209831D01*
X331527Y209304D01*
X332544Y209032D01*
X333597D01*
X334615Y209304D01*
X335527Y209831D01*
X336272Y210575D01*
X336731Y211371D01*
X336942Y211422D01*
X337073D01*
X337285Y211371D01*
X337744Y210575D01*
X338489Y209831D01*
X339401Y209304D01*
X340418Y209032D01*
X341472D01*
X342489Y209304D01*
X343401Y209831D01*
X344146Y210575D01*
X344605Y211371D01*
X344816Y211422D01*
X344948D01*
X345159Y211371D01*
X345618Y210575D01*
X346363Y209831D01*
X347275Y209304D01*
X348292Y209032D01*
X349345D01*
X350363Y209304D01*
X351275Y209831D01*
X352020Y210575D01*
X352479Y211371D01*
X352690Y211422D01*
X352822D01*
X353033Y211371D01*
X353492Y210575D01*
X354237Y209831D01*
X355149Y209304D01*
X356166Y209032D01*
X357220D01*
X358237Y209304D01*
X359149Y209831D01*
X359894Y210575D01*
X360353Y211371D01*
X360564Y211422D01*
X360696D01*
X360907Y211371D01*
X361366Y210575D01*
X362111Y209831D01*
X363023Y209304D01*
X364040Y209032D01*
X365093D01*
X366111Y209304D01*
X367023Y209831D01*
X367768Y210575D01*
X368227Y211371D01*
X368438Y211422D01*
X368570D01*
X368781Y211371D01*
X369240Y210575D01*
X369985Y209831D01*
X370897Y209304D01*
X371914Y209032D01*
X371941D01*
Y213032D01*
Y217032D01*
D02*
G37*
G36*
X380842D02*
X379788D01*
X378771Y216759D01*
X377859Y216232D01*
X377114Y215488D01*
X376655Y214692D01*
X376444Y214641D01*
X376312D01*
X376101Y214692D01*
X375642Y215488D01*
X374897Y216232D01*
X373985Y216759D01*
X372968Y217032D01*
X372941D01*
Y213032D01*
Y209032D01*
X372968D01*
X373985Y209304D01*
X374897Y209831D01*
X375642Y210575D01*
X376101Y211371D01*
X376312Y211422D01*
X376444D01*
X376655Y211371D01*
X377114Y210575D01*
X377859Y209831D01*
X378771Y209304D01*
X379788Y209032D01*
X380842D01*
X381859Y209304D01*
X382771Y209831D01*
X383516Y210575D01*
X384042Y211488D01*
X384315Y212505D01*
Y213558D01*
X384042Y214575D01*
X383516Y215488D01*
X382771Y216232D01*
X381859Y216759D01*
X380842Y217032D01*
D02*
G37*
G36*
X204269Y594709D02*
X202896Y594574D01*
X201577Y594173D01*
X200361Y593523D01*
X199295Y592649D01*
X198420Y591583D01*
X197770Y590367D01*
X197370Y589047D01*
X197235Y587675D01*
X197370Y586303D01*
X197770Y584983D01*
X198420Y583767D01*
X199295Y582701D01*
X200361Y581826D01*
X201577Y581176D01*
X202896Y580776D01*
X204269Y580641D01*
X205641Y580776D01*
X206960Y581176D01*
X208176Y581826D01*
X209242Y582701D01*
X210117Y583767D01*
X210767Y584983D01*
X211167Y586303D01*
X211302Y587675D01*
X211167Y589047D01*
X210767Y590367D01*
X210117Y591583D01*
X209242Y592649D01*
X208176Y593523D01*
X206960Y594173D01*
X205641Y594574D01*
X204269Y594709D01*
D02*
G37*
G36*
X178479Y468173D02*
X177426D01*
X176409Y467901D01*
X175497Y467374D01*
X174752Y466629D01*
X174225Y465717D01*
X173953Y464700D01*
Y463647D01*
X174225Y462629D01*
X174752Y461717D01*
X175497Y460972D01*
X176292Y460513D01*
X176343Y460302D01*
Y460171D01*
X176292Y459959D01*
X175497Y459500D01*
X174752Y458755D01*
X174225Y457843D01*
X173953Y456826D01*
Y455773D01*
X174225Y454755D01*
X174752Y453843D01*
X175497Y453098D01*
X176292Y452639D01*
X176343Y452428D01*
Y452296D01*
X176292Y452085D01*
X175497Y451626D01*
X174752Y450881D01*
X174225Y449969D01*
X173953Y448952D01*
Y448925D01*
X177953D01*
X181953D01*
Y448952D01*
X181680Y449969D01*
X181154Y450881D01*
X180409Y451626D01*
X179613Y452085D01*
X179563Y452296D01*
Y452428D01*
X179613Y452639D01*
X180409Y453098D01*
X181154Y453843D01*
X181680Y454755D01*
X181953Y455773D01*
Y456826D01*
X181680Y457843D01*
X181154Y458755D01*
X180409Y459500D01*
X179613Y459959D01*
X179563Y460171D01*
Y460302D01*
X179613Y460513D01*
X180409Y460972D01*
X181154Y461717D01*
X181680Y462629D01*
X181953Y463647D01*
Y464700D01*
X181680Y465717D01*
X181154Y466629D01*
X180409Y467374D01*
X179497Y467901D01*
X178479Y468173D01*
D02*
G37*
G36*
X181953Y447925D02*
X177953D01*
X173953D01*
Y447899D01*
X174225Y446881D01*
X174752Y445969D01*
X175497Y445224D01*
X176292Y444765D01*
X176343Y444554D01*
Y444422D01*
X176292Y444211D01*
X175497Y443752D01*
X174752Y443007D01*
X174225Y442095D01*
X173953Y441078D01*
Y440025D01*
X174225Y439007D01*
X174752Y438095D01*
X175497Y437350D01*
X176409Y436824D01*
X177426Y436551D01*
X178479D01*
X179497Y436824D01*
X180409Y437350D01*
X181154Y438095D01*
X181680Y439007D01*
X181953Y440025D01*
Y441078D01*
X181680Y442095D01*
X181154Y443007D01*
X180409Y443752D01*
X179613Y444211D01*
X179563Y444422D01*
Y444554D01*
X179613Y444765D01*
X180409Y445224D01*
X181154Y445969D01*
X181680Y446881D01*
X181953Y447899D01*
Y447925D01*
D02*
G37*
G36*
X244284Y446965D02*
X243456D01*
X242690Y446648D01*
X242104Y446062D01*
X241787Y445296D01*
Y444468D01*
X242104Y443702D01*
X242690Y443116D01*
X243456Y442799D01*
X243790D01*
X247937Y438652D01*
X247917Y438603D01*
Y437775D01*
X248234Y437009D01*
X248820Y436423D01*
X249586Y436106D01*
X250414D01*
X251180Y436423D01*
X251766Y437009D01*
X252083Y437775D01*
Y438603D01*
X251766Y439369D01*
X251180Y439955D01*
X250805Y440110D01*
X245953Y444962D01*
Y445296D01*
X245636Y446062D01*
X245050Y446648D01*
X244284Y446965D01*
D02*
G37*
G36*
X261524Y403367D02*
X260696D01*
X259930Y403050D01*
X259344Y402464D01*
X259027Y401698D01*
Y401365D01*
X257801Y400138D01*
X242937D01*
X242701Y400375D01*
X241935Y400692D01*
X241107D01*
X240341Y400375D01*
X239755Y399789D01*
X239438Y399023D01*
Y398195D01*
X239755Y397429D01*
X239818Y397366D01*
X239673Y396805D01*
X239173Y396305D01*
X238856Y395539D01*
Y394711D01*
X239173Y393946D01*
X239759Y393360D01*
X240524Y393042D01*
X241353D01*
X242118Y393360D01*
X242354Y393596D01*
X258983D01*
X259568Y393712D01*
X260065Y394044D01*
X260395Y394374D01*
X261044D01*
X261810Y394691D01*
X262396Y395277D01*
X262713Y396042D01*
Y396871D01*
X262396Y397636D01*
X261810Y398222D01*
X261397Y398393D01*
X261236Y398945D01*
X261433Y399202D01*
X261524D01*
X262290Y399519D01*
X262875Y400105D01*
X263193Y400870D01*
Y401698D01*
X262875Y402464D01*
X262290Y403050D01*
X261524Y403367D01*
D02*
G37*
G36*
X178479Y412661D02*
X177426D01*
X176409Y412389D01*
X175497Y411862D01*
X174752Y411118D01*
X174225Y410205D01*
X173953Y409188D01*
Y408135D01*
X174225Y407118D01*
X174752Y406205D01*
X175497Y405461D01*
X176292Y405001D01*
X176343Y404790D01*
Y404659D01*
X176292Y404448D01*
X175497Y403988D01*
X174752Y403243D01*
X174225Y402331D01*
X173953Y401314D01*
Y400261D01*
X174225Y399243D01*
X174752Y398331D01*
X175497Y397587D01*
X176409Y397060D01*
X177426Y396787D01*
X178479D01*
X179497Y397060D01*
X180409Y397587D01*
X181154Y398331D01*
X181680Y399243D01*
X181953Y400261D01*
Y401314D01*
X181680Y402331D01*
X181154Y403243D01*
X180409Y403988D01*
X179613Y404448D01*
X179563Y404659D01*
Y404790D01*
X179613Y405001D01*
X180409Y405461D01*
X181154Y406205D01*
X181680Y407118D01*
X181953Y408135D01*
Y409188D01*
X181680Y410205D01*
X181154Y411118D01*
X180409Y411862D01*
X179497Y412389D01*
X178479Y412661D01*
D02*
G37*
G36*
X245127Y385155D02*
X244299D01*
X243533Y384838D01*
X242948Y384252D01*
X242630Y383487D01*
Y382658D01*
X242948Y381892D01*
X243533Y381307D01*
X244299Y380990D01*
X245127D01*
X245893Y381307D01*
X246119Y381533D01*
X250861D01*
X251107Y381288D01*
X251872Y380971D01*
X252701D01*
X253466Y381288D01*
X254052Y381873D01*
X254369Y382639D01*
Y383468D01*
X254052Y384233D01*
X253466Y384819D01*
X252701Y385136D01*
X251872D01*
X251107Y384819D01*
X250880Y384592D01*
X246139D01*
X245893Y384838D01*
X245127Y385155D01*
D02*
G37*
G36*
X182428Y363346D02*
X181599D01*
X180834Y363029D01*
X180375Y362569D01*
X179685D01*
X179100Y362453D01*
X178604Y362122D01*
X176896Y360414D01*
X176565Y359917D01*
X176448Y359332D01*
Y354211D01*
X176212Y353975D01*
X175895Y353209D01*
Y352380D01*
X176212Y351615D01*
X176798Y351029D01*
X177563Y350712D01*
X178392D01*
X179157Y351029D01*
X179743Y351615D01*
X180060Y352380D01*
Y353209D01*
X179743Y353975D01*
X179507Y354211D01*
Y358699D01*
X180319Y359511D01*
X180821D01*
X180834Y359497D01*
X181599Y359180D01*
X182428D01*
X183194Y359497D01*
X183779Y360083D01*
X184096Y360849D01*
Y361677D01*
X183779Y362443D01*
X183194Y363029D01*
X182428Y363346D01*
D02*
G37*
G36*
X261832Y348819D02*
X261003D01*
X260202Y348605D01*
X259483Y348190D01*
X258897Y347603D01*
X258482Y346885D01*
X258267Y346084D01*
Y345255D01*
X258482Y344453D01*
X258897Y343735D01*
X259394Y343238D01*
Y342395D01*
X258979Y342117D01*
X258682Y342240D01*
X257854D01*
X257088Y341923D01*
X256502Y341337D01*
X256185Y340572D01*
Y340553D01*
X255720Y340089D01*
X252991D01*
X252754Y340325D01*
X251989Y340642D01*
X251161D01*
X250395Y340325D01*
X249809Y339739D01*
X249492Y338973D01*
Y338145D01*
X249809Y337379D01*
X250395Y336793D01*
X251161Y336476D01*
X251989D01*
X252754Y336793D01*
X252991Y337030D01*
X256354D01*
X256939Y337146D01*
X257435Y337478D01*
X258033Y338075D01*
X258682D01*
X258979Y338198D01*
X259394Y337920D01*
Y328810D01*
X258897Y328312D01*
X258482Y327594D01*
X258267Y326793D01*
Y325963D01*
X258482Y325162D01*
X258897Y324444D01*
X259483Y323857D01*
X260202Y323443D01*
X261003Y323228D01*
X261832D01*
X262633Y323443D01*
X263351Y323857D01*
X263938Y324444D01*
X264353Y325162D01*
X264567Y325963D01*
Y326793D01*
X264353Y327594D01*
X263938Y328312D01*
X263440Y328810D01*
Y343238D01*
X263938Y343735D01*
X264353Y344453D01*
X264567Y345255D01*
Y346084D01*
X264353Y346885D01*
X263938Y347603D01*
X263351Y348190D01*
X262633Y348605D01*
X261832Y348819D01*
D02*
G37*
G36*
X176000Y330095D02*
X168095D01*
Y322189D01*
X176000D01*
Y330095D01*
D02*
G37*
G36*
X172568Y320094D02*
X171527D01*
X170521Y319825D01*
X169620Y319305D01*
X168884Y318569D01*
X168364Y317667D01*
X168095Y316662D01*
Y315621D01*
X168364Y314616D01*
X168884Y313715D01*
X169620Y312979D01*
X170521Y312458D01*
X171527Y312189D01*
X172568D01*
X173573Y312458D01*
X174474Y312979D01*
X175210Y313715D01*
X175731Y314616D01*
X176000Y315621D01*
Y316662D01*
X175731Y317667D01*
X175210Y318569D01*
X174474Y319305D01*
X173573Y319825D01*
X172568Y320094D01*
D02*
G37*
G36*
Y310094D02*
X172547D01*
Y306642D01*
X176000D01*
Y306662D01*
X175731Y307667D01*
X175210Y308569D01*
X174474Y309305D01*
X173573Y309825D01*
X172568Y310094D01*
D02*
G37*
G36*
X171547D02*
X171527D01*
X170521Y309825D01*
X169620Y309305D01*
X168884Y308569D01*
X168364Y307667D01*
X168095Y306662D01*
Y306642D01*
X171547D01*
Y310094D01*
D02*
G37*
G36*
X176000Y305642D02*
X172547D01*
Y302189D01*
X172568D01*
X173573Y302458D01*
X174474Y302979D01*
X175210Y303715D01*
X175731Y304616D01*
X176000Y305621D01*
Y305642D01*
D02*
G37*
G36*
X171547D02*
X168095D01*
Y305621D01*
X168364Y304616D01*
X168884Y303715D01*
X169620Y302979D01*
X170521Y302458D01*
X171527Y302189D01*
X171547D01*
Y305642D01*
D02*
G37*
G36*
X232814Y313423D02*
X231986D01*
X231220Y313106D01*
X230634Y312520D01*
X230317Y311755D01*
Y310926D01*
X230634Y310161D01*
X231220Y309575D01*
X231986Y309258D01*
X232411D01*
X239991Y301678D01*
Y301344D01*
X240308Y300578D01*
X240894Y299993D01*
X241659Y299676D01*
X242488D01*
X243253Y299993D01*
X243772Y300511D01*
X244089Y300451D01*
X244272Y300358D01*
Y295162D01*
X244036Y294926D01*
X243719Y294160D01*
Y293332D01*
X244036Y292566D01*
X244621Y291980D01*
X245387Y291663D01*
X246216D01*
X246981Y291980D01*
X247567Y292566D01*
X247884Y293332D01*
Y294160D01*
X247567Y294926D01*
X247331Y295162D01*
Y304137D01*
X247477Y304198D01*
X248063Y304784D01*
X248380Y305549D01*
Y306378D01*
X248063Y307143D01*
X247477Y307729D01*
X246712Y308046D01*
X245883D01*
X245118Y307729D01*
X244532Y307143D01*
X244215Y306378D01*
Y305549D01*
X244307Y305327D01*
X244272Y305152D01*
Y303158D01*
X244089Y303065D01*
X243772Y303005D01*
X243253Y303524D01*
X242488Y303841D01*
X242154D01*
X234483Y311512D01*
Y311755D01*
X234166Y312520D01*
X233580Y313106D01*
X232814Y313423D01*
D02*
G37*
G36*
X262027Y274815D02*
X259555D01*
Y272343D01*
X260213Y272519D01*
X260897Y272914D01*
X261456Y273473D01*
X261851Y274157D01*
X262027Y274815D01*
D02*
G37*
G36*
X240314Y287495D02*
X239486D01*
X238720Y287178D01*
X238135Y286592D01*
X238041Y286366D01*
X237899Y286271D01*
X234302Y282675D01*
X233970Y282178D01*
X233854Y281593D01*
Y278987D01*
X233970Y278401D01*
X234302Y277905D01*
X236149Y276059D01*
X236055Y275710D01*
Y274920D01*
X236260Y274157D01*
X236654Y273473D01*
X237213Y272914D01*
X237897Y272519D01*
X238660Y272315D01*
X239450D01*
X240213Y272519D01*
X240897Y272914D01*
X241216Y273233D01*
X241555Y273418D01*
X241895Y273233D01*
X242213Y272914D01*
X242897Y272519D01*
X243555Y272343D01*
Y275315D01*
X244555D01*
Y272343D01*
X245213Y272519D01*
X245897Y272914D01*
X246216Y273233D01*
X246555Y273418D01*
X246895Y273233D01*
X247213Y272914D01*
X247897Y272519D01*
X248555Y272343D01*
Y275315D01*
X249555D01*
Y272343D01*
X250213Y272519D01*
X250897Y272914D01*
X251216Y273233D01*
X251555Y273418D01*
X251894Y273233D01*
X252213Y272914D01*
X252897Y272519D01*
X253660Y272315D01*
X254450D01*
X255213Y272519D01*
X255897Y272914D01*
X256216Y273233D01*
X256555Y273418D01*
X256894Y273233D01*
X257213Y272914D01*
X257897Y272519D01*
X258555Y272343D01*
Y275315D01*
X259055D01*
Y275815D01*
X262027D01*
X261851Y276473D01*
X261456Y277157D01*
X261137Y277476D01*
X260951Y277815D01*
X261137Y278154D01*
X261456Y278473D01*
X261851Y279157D01*
X262055Y279920D01*
Y280710D01*
X261851Y281473D01*
X261456Y282157D01*
X260897Y282716D01*
X260213Y283110D01*
X259450Y283315D01*
X258660D01*
X257897Y283110D01*
X257213Y282716D01*
X256894Y282397D01*
X256555Y282211D01*
X256216Y282397D01*
X255897Y282716D01*
X255213Y283110D01*
X254450Y283315D01*
X253660D01*
X252897Y283110D01*
X252213Y282716D01*
X251894Y282397D01*
X251555Y282211D01*
X251216Y282397D01*
X250897Y282716D01*
X250213Y283110D01*
X249450Y283315D01*
X248660D01*
X247897Y283110D01*
X247213Y282716D01*
X246895Y282397D01*
X246555Y282211D01*
X246216Y282397D01*
X245897Y282716D01*
X245213Y283110D01*
X244450Y283315D01*
X243660D01*
X242897Y283110D01*
X242213Y282716D01*
X241895Y282397D01*
X241555Y282211D01*
X241216Y282397D01*
X240897Y282716D01*
X240580Y282899D01*
X240616Y283455D01*
X241080Y283647D01*
X241666Y284233D01*
X241983Y284998D01*
Y285827D01*
X241666Y286592D01*
X241080Y287178D01*
X240314Y287495D01*
D02*
G37*
G36*
X230729Y269406D02*
X229901D01*
X229135Y269089D01*
X228899Y268852D01*
X221888D01*
X221652Y269089D01*
X220887Y269406D01*
X220058D01*
X219293Y269089D01*
X218707Y268503D01*
X218390Y267737D01*
Y266909D01*
X218707Y266143D01*
X219293Y265557D01*
X220058Y265240D01*
X220887D01*
X221652Y265557D01*
X221888Y265793D01*
X228899D01*
X229135Y265557D01*
X229901Y265240D01*
X230729D01*
X231495Y265557D01*
X232081Y266143D01*
X232398Y266909D01*
Y267737D01*
X232081Y268503D01*
X231495Y269089D01*
X230729Y269406D01*
D02*
G37*
G36*
X178873Y262661D02*
X178847D01*
Y259161D01*
X182346D01*
Y259188D01*
X182074Y260205D01*
X181547Y261118D01*
X180803Y261862D01*
X179890Y262389D01*
X178873Y262661D01*
D02*
G37*
G36*
X177847D02*
X177820D01*
X176803Y262389D01*
X175890Y261862D01*
X175146Y261118D01*
X174619Y260205D01*
X174346Y259188D01*
Y259161D01*
X177847D01*
Y262661D01*
D02*
G37*
G36*
X182346Y258161D02*
X178347D01*
X174346D01*
Y258135D01*
X174619Y257118D01*
X175146Y256205D01*
X175890Y255461D01*
X176686Y255001D01*
X176737Y254790D01*
Y254659D01*
X176686Y254448D01*
X175890Y253988D01*
X175146Y253243D01*
X174619Y252331D01*
X174346Y251314D01*
Y250261D01*
X174619Y249243D01*
X175146Y248331D01*
X175890Y247587D01*
X176686Y247127D01*
X176737Y246916D01*
Y246785D01*
X176686Y246574D01*
X175890Y246114D01*
X175146Y245370D01*
X174619Y244457D01*
X174346Y243440D01*
Y242387D01*
X174619Y241370D01*
X175146Y240457D01*
X175890Y239713D01*
X176686Y239253D01*
X176737Y239042D01*
Y238911D01*
X176686Y238700D01*
X175890Y238240D01*
X175146Y237495D01*
X174619Y236583D01*
X174346Y235566D01*
Y234513D01*
X174619Y233495D01*
X175146Y232583D01*
X175890Y231839D01*
X176803Y231312D01*
X177820Y231039D01*
X178873D01*
X179890Y231312D01*
X180803Y231839D01*
X181547Y232583D01*
X182074Y233495D01*
X182346Y234513D01*
Y235566D01*
X182074Y236583D01*
X181547Y237495D01*
X180803Y238240D01*
X180007Y238700D01*
X179956Y238911D01*
Y239042D01*
X180007Y239253D01*
X180803Y239713D01*
X181547Y240457D01*
X182074Y241370D01*
X182346Y242387D01*
Y243440D01*
X182074Y244457D01*
X181547Y245370D01*
X180803Y246114D01*
X180007Y246574D01*
X179956Y246785D01*
Y246916D01*
X180007Y247127D01*
X180803Y247587D01*
X181547Y248331D01*
X182074Y249243D01*
X182346Y250261D01*
Y251314D01*
X182074Y252331D01*
X181547Y253243D01*
X180803Y253988D01*
X180007Y254448D01*
X179956Y254659D01*
Y254790D01*
X180007Y255001D01*
X180803Y255461D01*
X181547Y256205D01*
X182074Y257118D01*
X182346Y258135D01*
Y258161D01*
D02*
G37*
G36*
X248821Y228968D02*
X247993D01*
X247228Y228651D01*
X246642Y228065D01*
X246325Y227300D01*
Y226471D01*
X246642Y225706D01*
X246878Y225469D01*
Y218190D01*
X246378Y217983D01*
X246257Y218104D01*
X245492Y218421D01*
X244663D01*
X243898Y218104D01*
X243312Y217518D01*
X243080Y216958D01*
X242424Y216302D01*
X241924Y216510D01*
Y216739D01*
X241607Y217505D01*
X241021Y218090D01*
X240256Y218408D01*
X239427D01*
X238662Y218090D01*
X238159Y217588D01*
X237793Y217515D01*
X237297Y217183D01*
X234784Y214670D01*
X227135D01*
X224717Y217088D01*
X224221Y217420D01*
X223635Y217536D01*
X222816D01*
X222357Y217996D01*
X221591Y218313D01*
X220763D01*
X220157Y218062D01*
X219657Y218309D01*
Y225287D01*
X219894Y225523D01*
X220211Y226289D01*
Y227117D01*
X219894Y227883D01*
X219308Y228468D01*
X218542Y228786D01*
X217714D01*
X216948Y228468D01*
X216362Y227883D01*
X216045Y227117D01*
Y226289D01*
X216362Y225523D01*
X216599Y225287D01*
Y215472D01*
X216715Y214887D01*
X217046Y214390D01*
X218930Y212507D01*
Y209670D01*
X224929D01*
X224929Y209670D01*
X224972D01*
Y209670D01*
X225430Y209670D01*
X236455D01*
X236947Y209670D01*
Y209670D01*
X236955D01*
Y209670D01*
X242460D01*
X242955Y209670D01*
Y209670D01*
X242960D01*
Y209670D01*
X248960D01*
Y214406D01*
X249489Y214934D01*
X249820Y215431D01*
X249937Y216016D01*
Y225469D01*
X250173Y225706D01*
X250490Y226471D01*
Y227300D01*
X250173Y228065D01*
X249587Y228651D01*
X248821Y228968D01*
D02*
G37*
G36*
X236955Y208423D02*
X236947D01*
Y208423D01*
X224972D01*
Y208423D01*
X224929D01*
Y208423D01*
X218930D01*
Y203423D01*
X224929D01*
Y203423D01*
X224972D01*
Y203423D01*
X236455D01*
X236947Y203423D01*
Y203423D01*
X236955D01*
Y203423D01*
X242460D01*
X242955Y203423D01*
Y203423D01*
X242960D01*
Y203423D01*
X248960D01*
Y204408D01*
X251182D01*
X251419Y204171D01*
X252184Y203854D01*
X253013D01*
X253778Y204171D01*
X254364Y204757D01*
X254681Y205523D01*
Y206351D01*
X254364Y207117D01*
X253778Y207702D01*
X253013Y208019D01*
X252184D01*
X251419Y207702D01*
X251182Y207466D01*
X248960D01*
Y208423D01*
X243455D01*
X242955Y208423D01*
Y208423D01*
X242955Y208423D01*
X237447D01*
X236955Y208423D01*
Y208423D01*
D02*
G37*
%LPD*%
D12*
X359296Y258574D02*
Y260810D01*
X358673Y261433D02*
X359296Y260810D01*
X358673Y261433D02*
Y278477D01*
X359296Y258574D02*
X359519Y258351D01*
X330180Y503187D02*
Y504278D01*
X325653Y501128D02*
X328121D01*
X330180Y503187D01*
X321406Y253144D02*
X323374D01*
X325433Y255203D01*
Y256585D01*
X221400Y216007D02*
X223635D01*
X221177Y216230D02*
X221400Y216007D01*
X223635D02*
X227472Y212170D01*
X319441Y500627D02*
X322068D01*
X317382Y502686D02*
X319441Y500627D01*
X317382Y502686D02*
Y504278D01*
X350828Y513941D02*
X350949Y513820D01*
Y511359D02*
X355039Y507268D01*
X350949Y511359D02*
Y513820D01*
X346537Y513303D02*
X346760Y513526D01*
X346537Y511565D02*
Y513303D01*
X342241Y507268D02*
X346537Y511565D01*
X245974Y205937D02*
X252598D01*
X245960Y205923D02*
X245974Y205937D01*
X246976Y214584D02*
X248407Y216016D01*
X245960Y212170D02*
X245976D01*
X246976Y213170D02*
Y214584D01*
X245976Y212170D02*
X246976Y213170D01*
X248407Y216016D02*
Y226885D01*
X244854Y216115D02*
X245077Y216338D01*
X239955Y212170D02*
X240455D01*
X244400Y216115D01*
X244854D01*
X239618Y216102D02*
X239841Y216325D01*
X233947Y212170D02*
X234447D01*
X238378Y216102D01*
X239618D01*
X227472Y212170D02*
X227972D01*
X221429D02*
X221930D01*
X218128Y215472D02*
X221429Y212170D01*
X218128Y215472D02*
Y226703D01*
X232400Y311340D02*
X232491D01*
X242073Y301758D01*
X246298Y305648D02*
Y305963D01*
X245801Y305152D02*
X246298Y305648D01*
X328502Y348422D02*
X332435Y344488D01*
X332677D01*
X328260Y348422D02*
X328502D01*
X324952Y481429D02*
Y483109D01*
X319136Y479370D02*
X322893D01*
X319089Y479417D02*
X319136Y479370D01*
X322893D02*
X324952Y481429D01*
X351704Y480525D02*
Y484025D01*
X351214Y479956D02*
Y480035D01*
X351704Y480525D01*
X350991Y479749D02*
X351007D01*
X351214Y479956D01*
X321690Y281770D02*
X322358Y281101D01*
X321690Y281770D02*
Y285221D01*
X316111Y281101D02*
X316972Y281962D01*
Y285221D01*
X351845Y285709D02*
X355599D01*
X356084Y286193D01*
X312634Y255700D02*
X314694Y253641D01*
X316973D01*
X312634Y255700D02*
Y256585D01*
X346734Y263081D02*
X350668Y259147D01*
X346707Y263081D02*
X346734D01*
X350668Y256194D02*
Y259147D01*
X337870D02*
X341311Y262588D01*
Y262954D02*
X341534Y263177D01*
X337870Y256194D02*
Y259147D01*
X341311Y262588D02*
Y262954D01*
X347010Y243200D02*
X347061D01*
X343070Y247140D02*
X347010Y243200D01*
X343019Y247140D02*
X343070D01*
X343286Y286193D02*
X343993Y285486D01*
X347732D01*
X355887Y258168D02*
Y275377D01*
X355797Y275466D02*
X355887Y275377D01*
Y258168D02*
X355977Y258078D01*
X344628Y273449D02*
X351655Y266422D01*
X344628Y273449D02*
Y273624D01*
X351655Y266247D02*
Y266422D01*
X345621Y533419D02*
X345695Y533344D01*
X353215D02*
X353290Y533270D01*
X345695Y533344D02*
X353215D01*
X312154Y490641D02*
X312772Y491259D01*
Y491566D01*
X344457Y483025D02*
X345457Y484025D01*
X344457Y480799D02*
Y483025D01*
X343651Y479993D02*
X344457Y480799D01*
X343651Y479678D02*
Y479993D01*
X312154Y483109D02*
Y490641D01*
X355039Y504316D02*
Y507268D01*
X342241Y504316D02*
Y507268D01*
X245801Y293746D02*
Y305152D01*
X258434Y398609D02*
X261110Y401284D01*
X241521Y398609D02*
X258434D01*
X240938Y395125D02*
X258983D01*
X260315Y396457D01*
X181791Y361040D02*
X182014Y361263D01*
X179685Y361040D02*
X181791D01*
X177978Y359332D02*
X179685Y361040D01*
X177978Y352795D02*
Y359332D01*
X252277Y383063D02*
X252287Y383053D01*
X244713Y383072D02*
X244723Y383063D01*
X252277D01*
X235384Y278987D02*
Y281593D01*
Y278987D02*
X239055Y275315D01*
X235384Y281593D02*
X238980Y285190D01*
X239677D02*
X239900Y285413D01*
X238980Y285190D02*
X239677D01*
X334602Y354896D02*
X334735D01*
X338450Y351181D01*
X338583D01*
X260315Y396457D02*
X260630D01*
X243870Y444882D02*
X250000Y438752D01*
Y438189D02*
Y438752D01*
X220472Y267323D02*
X230315D01*
X257952Y340158D02*
X258268D01*
X251575Y338559D02*
X256354D01*
X257952Y340158D01*
D58*
X322358Y281101D02*
D03*
X316111D02*
D03*
X351704Y484025D02*
D03*
X345457D02*
D03*
D73*
X221930Y205923D02*
D03*
Y212170D02*
D03*
X227972Y205923D02*
D03*
Y212170D02*
D03*
X233947Y205923D02*
D03*
Y212170D02*
D03*
X239955Y205923D02*
D03*
Y212170D02*
D03*
X245960Y205923D02*
D03*
Y212170D02*
D03*
D76*
X356528Y184576D02*
D03*
X204269Y587675D02*
D03*
X210236Y189764D02*
D03*
X356367Y595170D02*
D03*
D82*
X239955Y205923D02*
X245960D01*
X233947D02*
X239955D01*
X227972D02*
X233947D01*
X221930D02*
X227972D01*
X261417Y326378D02*
Y345669D01*
D83*
X387402Y331890D02*
D03*
Y339764D02*
D03*
Y324016D02*
D03*
Y316142D02*
D03*
X325197Y213032D02*
D03*
X340945D02*
D03*
X348819D02*
D03*
X356693D02*
D03*
X364567D02*
D03*
X372441D02*
D03*
X380315D02*
D03*
X333071D02*
D03*
X380709Y565354D02*
D03*
X364961D02*
D03*
X357087D02*
D03*
X349213D02*
D03*
X341339D02*
D03*
X333465D02*
D03*
X325590D02*
D03*
X372835D02*
D03*
X177953Y400787D02*
D03*
Y408661D02*
D03*
X178347Y258661D02*
D03*
Y250787D02*
D03*
Y235039D02*
D03*
Y242913D02*
D03*
X177953Y464173D02*
D03*
Y456299D02*
D03*
Y440551D02*
D03*
Y448425D02*
D03*
X387330Y425700D02*
D03*
Y433574D02*
D03*
Y449322D02*
D03*
Y441448D02*
D03*
X387440Y370972D02*
D03*
Y378847D02*
D03*
Y394595D02*
D03*
Y386720D02*
D03*
X276693Y448504D02*
D03*
Y418504D02*
D03*
X306693Y448504D02*
D03*
Y418504D02*
D03*
X326693Y448504D02*
D03*
Y418504D02*
D03*
X346693Y448504D02*
D03*
Y418504D02*
D03*
X387402Y276772D02*
D03*
Y284646D02*
D03*
Y268898D02*
D03*
Y261024D02*
D03*
Y253150D02*
D03*
X387136Y504272D02*
D03*
Y512146D02*
D03*
Y496398D02*
D03*
Y488524D02*
D03*
Y480650D02*
D03*
D84*
X249055Y280315D02*
D03*
Y275315D02*
D03*
X244055D02*
D03*
Y280315D02*
D03*
X239055D02*
D03*
Y275315D02*
D03*
X254055D02*
D03*
Y280315D02*
D03*
X259055D02*
D03*
Y275315D02*
D03*
D85*
X336063Y407087D02*
D03*
X346063D02*
D03*
X336457Y459842D02*
D03*
X346457D02*
D03*
D86*
X172047Y306142D02*
D03*
Y316142D02*
D03*
D87*
Y326142D02*
D03*
D88*
X191705Y353764D02*
D03*
X359519Y258351D02*
D03*
X325653Y501128D02*
D03*
X321406Y253144D02*
D03*
X221177Y216230D02*
D03*
X195761Y561037D02*
D03*
X205242Y552472D02*
D03*
X178762Y552406D02*
D03*
X322068Y500627D02*
D03*
X320866Y512866D02*
D03*
X350828Y513941D02*
D03*
X346760Y513526D02*
D03*
X252598Y205937D02*
D03*
X248407Y226885D02*
D03*
X245077Y216338D02*
D03*
X239841Y216325D02*
D03*
X218128Y226703D02*
D03*
X177978Y352795D02*
D03*
X221631Y356054D02*
D03*
X251575Y338559D02*
D03*
X319089Y479417D02*
D03*
X351914Y248429D02*
D03*
X331713Y252894D02*
D03*
X326825Y285185D02*
D03*
X336979Y285062D02*
D03*
X331738Y285103D02*
D03*
X321690Y285221D02*
D03*
X316972D02*
D03*
X351845Y285709D02*
D03*
X316973Y253641D02*
D03*
X341534Y263177D02*
D03*
X346707Y263081D02*
D03*
X343019Y247140D02*
D03*
X344628Y273624D02*
D03*
X355797Y275466D02*
D03*
X358673Y278477D02*
D03*
X347732Y285486D02*
D03*
X347061Y243200D02*
D03*
X355977Y258078D02*
D03*
X351655Y266247D02*
D03*
X353290Y533270D02*
D03*
X345621Y533419D02*
D03*
X336223Y512680D02*
D03*
X312772Y491566D02*
D03*
X350991Y479417D02*
D03*
X267766Y346760D02*
D03*
X267120Y319249D02*
D03*
X182014Y361263D02*
D03*
X181971Y376046D02*
D03*
X175982Y376055D02*
D03*
X202363Y376334D02*
D03*
X196801Y376212D02*
D03*
X222800Y500572D02*
D03*
X244713Y383072D02*
D03*
X252287Y383053D02*
D03*
X263542Y359996D02*
D03*
X254656Y353869D02*
D03*
X258268Y340158D02*
D03*
X190551Y281496D02*
D03*
X209449Y460236D02*
D03*
X207087Y521260D02*
D03*
X191732Y540551D02*
D03*
X170866Y523622D02*
D03*
X179867Y512259D02*
D03*
D89*
X319568Y354451D02*
D03*
X226766Y227426D02*
D03*
X207115Y237049D02*
D03*
X264539Y236386D02*
D03*
X206967Y218732D02*
D03*
X264677Y204311D02*
D03*
X232400Y311340D02*
D03*
X215181Y356537D02*
D03*
X246298Y305963D02*
D03*
X242073Y301758D02*
D03*
X328260Y348422D02*
D03*
X332677Y344488D02*
D03*
X338583Y351181D02*
D03*
X343651Y479417D02*
D03*
X333473D02*
D03*
X245801Y293746D02*
D03*
X316549Y319330D02*
D03*
X330993Y334411D02*
D03*
X241521Y398609D02*
D03*
X240938Y395125D02*
D03*
X261110Y401284D02*
D03*
X194377Y221913D02*
D03*
X243857Y378558D02*
D03*
X241761Y471252D02*
D03*
X226129Y560744D02*
D03*
X235246Y560783D02*
D03*
X248956Y461047D02*
D03*
X239900Y285413D02*
D03*
X233931Y289918D02*
D03*
X254044Y545441D02*
D03*
X334602Y354896D02*
D03*
X260630Y396457D02*
D03*
X250000Y438189D02*
D03*
X243870Y444882D02*
D03*
X230315Y267323D02*
D03*
X220472D02*
D03*
D90*
X216715Y536055D02*
D03*
X253910Y515810D02*
D03*
X267035Y515921D02*
D03*
D91*
X212205Y378740D02*
D03*
X183071Y290551D02*
D03*
X172835Y338976D02*
D03*
D92*
X261417Y345669D02*
D03*
Y326378D02*
D03*
D93*
X350668Y256194D02*
D03*
X337870D02*
D03*
X356084Y286193D02*
D03*
X343286D02*
D03*
X317382Y504278D02*
D03*
X330180D02*
D03*
X325433Y256585D02*
D03*
X312634D02*
D03*
X342241Y504316D02*
D03*
X355039D02*
D03*
X324952Y483109D02*
D03*
X312154D02*
D03*
M02*
