G04*
G04 #@! TF.GenerationSoftware,Altium Limited,Altium Designer,21.3.1 (25)*
G04*
G04 Layer_Color=16711935*
%FSLAX25Y25*%
%MOIN*%
G70*
G04*
G04 #@! TF.SameCoordinates,C2895D86-3F53-4CC5-9A74-561D9FEADA75*
G04*
G04*
G04 #@! TF.FilePolarity,Positive*
G04*
G01*
G75*
%ADD96C,0.00394*%
%ADD97C,0.00000*%
%ADD98C,0.00100*%
D96*
X240551Y357283D02*
X240287Y358268D01*
X239567Y358988D01*
X238583Y359252D01*
X237598Y358988D01*
X236878Y358268D01*
X236614Y357283D01*
X236878Y356299D01*
X237598Y355579D01*
X238583Y355315D01*
X239567Y355579D01*
X240287Y356299D01*
X240551Y357283D01*
X250787Y457480D02*
X250524Y458465D01*
X249803Y459185D01*
X248819Y459449D01*
X247835Y459185D01*
X247114Y458465D01*
X246850Y457480D01*
X247114Y456496D01*
X247835Y455776D01*
X248819Y455512D01*
X249803Y455776D01*
X250524Y456496D01*
X250787Y457480D01*
X282480Y350984D02*
X282217Y351969D01*
X281496Y352689D01*
X280512Y352953D01*
X279528Y352689D01*
X278807Y351969D01*
X278543Y350984D01*
X278807Y350000D01*
X279528Y349279D01*
X280512Y349016D01*
X281496Y349279D01*
X282217Y350000D01*
X282480Y350984D01*
X262579Y201378D02*
Y258465D01*
X209035Y201378D02*
X262579D01*
X209035Y258465D02*
X262579D01*
X209035Y201378D02*
Y258465D01*
X187008Y305709D02*
Y360827D01*
X242126Y305709D02*
Y360827D01*
X187008Y305709D02*
X242126D01*
X187008Y360827D02*
X242126D01*
X314648Y261312D02*
Y276666D01*
X353624D01*
Y261312D02*
Y276666D01*
X314648Y261312D02*
X353624D01*
X314648Y266312D02*
X319648Y261312D01*
X348195Y503533D02*
X353194Y498532D01*
X314218Y503533D02*
X353194D01*
X314218Y488178D02*
Y503533D01*
Y488178D02*
X353194D01*
Y503533D01*
X252362Y453937D02*
Y473622D01*
X236614Y453937D02*
Y473622D01*
Y453937D02*
X252362D01*
X236614Y473622D02*
X252362D01*
X276969Y313976D02*
X306496D01*
X276969Y354528D02*
X306496D01*
Y313976D02*
Y354528D01*
X276969Y313976D02*
Y354528D01*
X221699Y537290D02*
X239809D01*
X221699Y548786D02*
X239809D01*
Y537290D02*
Y548786D01*
X185827Y536811D02*
X188779Y539764D01*
X185827Y527953D02*
Y539764D01*
Y527953D02*
X197638D01*
Y539764D01*
X185827D02*
X197638D01*
X186221Y566772D02*
X204331D01*
X186221Y555276D02*
X204331D01*
X186221D02*
Y566772D01*
D97*
X227165Y376790D02*
X226317Y376439D01*
X225965Y375590D01*
X226317Y374742D01*
X227165Y374391D01*
D98*
X214567Y370669D02*
Y380512D01*
Y370669D02*
X227165D01*
Y380512D01*
X214567D02*
X227165D01*
M02*
