G04*
G04 #@! TF.GenerationSoftware,Altium Limited,Altium Designer,21.3.1 (25)*
G04*
G04 Layer_Color=32768*
%FSLAX25Y25*%
%MOIN*%
G70*
G04*
G04 #@! TF.SameCoordinates,C2895D86-3F53-4CC5-9A74-561D9FEADA75*
G04*
G04*
G04 #@! TF.FilePolarity,Positive*
G04*
G01*
G75*
%ADD17C,0.00600*%
%ADD96C,0.00394*%
%ADD99C,0.00197*%
G36*
X213764Y381512D02*
D01*
X227969D01*
D01*
X228165D01*
Y369669D01*
X227969D01*
D01*
X213764D01*
D01*
X213567D01*
Y381512D01*
X213764D01*
D02*
G37*
D17*
X227969D01*
X213764Y369669D02*
X227969D01*
X213567Y381512D02*
X213764D01*
X227969D02*
X228165D01*
Y369669D02*
Y381512D01*
X227969Y369669D02*
X228165D01*
X213567D02*
X213764D01*
X213567D02*
Y381512D01*
D96*
X233839Y227756D02*
X237776D01*
X235807Y225787D02*
Y229724D01*
X212598Y333268D02*
X216535D01*
X214567Y331299D02*
Y335236D01*
X242520Y463779D02*
X246457D01*
X244488Y461811D02*
Y465748D01*
X291732Y332283D02*
Y336221D01*
X289764Y334252D02*
X293701D01*
X230754Y541070D02*
Y545007D01*
X228786Y543038D02*
X232723D01*
X195276Y559055D02*
Y562992D01*
X193307Y561024D02*
X197244D01*
D99*
X266220Y200984D02*
Y258858D01*
X205492D02*
X266220D01*
X205492Y200984D02*
Y258858D01*
Y200984D02*
X266220D01*
X180315Y299016D02*
Y367520D01*
X248819Y299016D02*
Y367520D01*
X180315Y299016D02*
X248819D01*
X180315Y367520D02*
X248819D01*
X313664Y254422D02*
Y283556D01*
X354608D01*
Y254422D02*
Y283556D01*
X313664Y254422D02*
X354608D01*
X313234Y510422D02*
X354179D01*
X313234Y481288D02*
Y510422D01*
Y481288D02*
X354179D01*
Y510422D01*
X257677Y453543D02*
Y474016D01*
X231299Y453543D02*
Y474016D01*
Y453543D02*
X257677D01*
X231299Y474016D02*
X257677D01*
X269094Y313189D02*
X314370D01*
X269094Y355315D02*
X314370D01*
Y313189D02*
Y355315D01*
X269094Y313189D02*
Y355315D01*
X183366Y526772D02*
Y540945D01*
Y526772D02*
X200098D01*
Y540945D01*
X183366D02*
X200098D01*
M02*
