G04*
G04 #@! TF.GenerationSoftware,Altium Limited,Altium Designer,21.2.2 (38)*
G04*
G04 Layer_Color=32896*
%FSLAX25Y25*%
%MOIN*%
G70*
G04*
G04 #@! TF.SameCoordinates,2AD91DA3-6C52-4226-ACA0-88A5DAF987E7*
G04*
G04*
G04 #@! TF.FilePolarity,Positive*
G04*
G01*
G75*
%ADD12C,0.01000*%
%ADD14C,0.00800*%
G36*
X258095Y284118D02*
X257898Y283921D01*
Y279921D01*
Y275921D01*
X258095Y275724D01*
Y240142D01*
X233095D01*
Y370142D01*
X258095D01*
Y284118D01*
D02*
G37*
G36*
X228862Y240142D02*
X203862D01*
Y370142D01*
X228862D01*
Y240142D01*
D02*
G37*
G36*
X280905Y375590D02*
X203543D01*
Y474016D01*
X280905D01*
Y375590D01*
D02*
G37*
G36*
X269980Y365638D02*
X270202D01*
X270424Y365624D01*
X270619Y365597D01*
X270813Y365583D01*
X270979Y365569D01*
X271132Y365541D01*
X271271Y365527D01*
X271396Y365499D01*
X271493Y365486D01*
X271576Y365472D01*
X271646Y365458D01*
X271687Y365444D01*
X271715Y365430D01*
X271729D01*
X272034Y365347D01*
X272312Y365250D01*
X272548Y365139D01*
X272756Y365055D01*
X272937Y364958D01*
X273061Y364903D01*
X273131Y364847D01*
X273159Y364833D01*
X273367Y364681D01*
X273547Y364528D01*
X273700Y364361D01*
X273839Y364209D01*
X273936Y364070D01*
X274005Y363959D01*
X274047Y363890D01*
X274061Y363876D01*
Y363862D01*
X274172Y363640D01*
X274241Y363404D01*
X274297Y363182D01*
X274339Y362973D01*
X274366Y362793D01*
X274380Y362640D01*
Y362515D01*
X274352Y362141D01*
X274297Y361794D01*
X274200Y361502D01*
X274102Y361252D01*
X273991Y361044D01*
X273950Y360961D01*
X273894Y360891D01*
X273867Y360836D01*
X273839Y360794D01*
X273811Y360780D01*
Y360767D01*
X273589Y360517D01*
X273325Y360308D01*
X273061Y360128D01*
X272812Y359989D01*
X272576Y359878D01*
X272479Y359823D01*
X272381Y359795D01*
X272312Y359767D01*
X272256Y359739D01*
X272229Y359725D01*
X272215D01*
X272007Y359670D01*
X271798Y359614D01*
X271340Y359531D01*
X270882Y359462D01*
X270452Y359420D01*
X270244Y359406D01*
X270063Y359392D01*
X269897D01*
X269744Y359379D01*
X269633D01*
X269536D01*
X269480D01*
X269467D01*
X268981Y359392D01*
X268523Y359420D01*
X268106Y359462D01*
X267718Y359531D01*
X267357Y359601D01*
X267038Y359684D01*
X266746Y359767D01*
X266496Y359850D01*
X266274Y359934D01*
X266080Y360031D01*
X265913Y360100D01*
X265788Y360170D01*
X265677Y360239D01*
X265608Y360281D01*
X265566Y360308D01*
X265552Y360322D01*
X265386Y360475D01*
X265233Y360642D01*
X265094Y360822D01*
X264983Y361002D01*
X264886Y361183D01*
X264803Y361363D01*
X264747Y361544D01*
X264692Y361710D01*
X264650Y361877D01*
X264622Y362030D01*
X264595Y362168D01*
X264581Y362279D01*
X264567Y362376D01*
Y362515D01*
X264595Y362890D01*
X264650Y363237D01*
X264747Y363529D01*
X264844Y363778D01*
X264942Y363987D01*
X264997Y364056D01*
X265039Y364125D01*
X265067Y364181D01*
X265094Y364223D01*
X265122Y364236D01*
Y364250D01*
X265358Y364500D01*
X265608Y364708D01*
X265885Y364889D01*
X266135Y365028D01*
X266371Y365139D01*
X266469Y365194D01*
X266566Y365222D01*
X266635Y365250D01*
X266691Y365278D01*
X266718Y365291D01*
X266732D01*
X266940Y365361D01*
X267149Y365416D01*
X267593Y365499D01*
X268051Y365569D01*
X268495Y365611D01*
X268689Y365624D01*
X268870Y365638D01*
X269036D01*
X269189Y365652D01*
X269300D01*
X269397D01*
X269453D01*
X269467D01*
X269730D01*
X269980Y365638D01*
D02*
G37*
G36*
Y358171D02*
X270202D01*
X270424Y358157D01*
X270619Y358129D01*
X270813Y358115D01*
X270979Y358102D01*
X271132Y358074D01*
X271271Y358060D01*
X271396Y358032D01*
X271493Y358018D01*
X271576Y358004D01*
X271646Y357991D01*
X271687Y357977D01*
X271715Y357963D01*
X271729D01*
X272034Y357879D01*
X272312Y357782D01*
X272548Y357671D01*
X272756Y357588D01*
X272937Y357491D01*
X273061Y357435D01*
X273131Y357380D01*
X273159Y357366D01*
X273367Y357213D01*
X273547Y357061D01*
X273700Y356894D01*
X273839Y356741D01*
X273936Y356603D01*
X274005Y356491D01*
X274047Y356422D01*
X274061Y356408D01*
Y356394D01*
X274172Y356172D01*
X274241Y355936D01*
X274297Y355714D01*
X274339Y355506D01*
X274366Y355326D01*
X274380Y355173D01*
Y355048D01*
X274352Y354673D01*
X274297Y354326D01*
X274200Y354035D01*
X274102Y353785D01*
X273991Y353577D01*
X273950Y353493D01*
X273894Y353424D01*
X273867Y353368D01*
X273839Y353327D01*
X273811Y353313D01*
Y353299D01*
X273589Y353049D01*
X273325Y352841D01*
X273061Y352661D01*
X272812Y352522D01*
X272576Y352411D01*
X272479Y352355D01*
X272381Y352327D01*
X272312Y352300D01*
X272256Y352272D01*
X272229Y352258D01*
X272215D01*
X272007Y352203D01*
X271798Y352147D01*
X271340Y352064D01*
X270882Y351994D01*
X270452Y351953D01*
X270244Y351939D01*
X270063Y351925D01*
X269897D01*
X269744Y351911D01*
X269633D01*
X269536D01*
X269480D01*
X269467D01*
X268981Y351925D01*
X268523Y351953D01*
X268106Y351994D01*
X267718Y352064D01*
X267357Y352133D01*
X267038Y352216D01*
X266746Y352300D01*
X266496Y352383D01*
X266274Y352466D01*
X266080Y352563D01*
X265913Y352633D01*
X265788Y352702D01*
X265677Y352772D01*
X265608Y352813D01*
X265566Y352841D01*
X265552Y352855D01*
X265386Y353008D01*
X265233Y353174D01*
X265094Y353355D01*
X264983Y353535D01*
X264886Y353715D01*
X264803Y353896D01*
X264747Y354076D01*
X264692Y354243D01*
X264650Y354409D01*
X264622Y354562D01*
X264595Y354701D01*
X264581Y354812D01*
X264567Y354909D01*
Y355048D01*
X264595Y355423D01*
X264650Y355770D01*
X264747Y356061D01*
X264844Y356311D01*
X264942Y356519D01*
X264997Y356589D01*
X265039Y356658D01*
X265067Y356714D01*
X265094Y356755D01*
X265122Y356769D01*
Y356783D01*
X265358Y357033D01*
X265608Y357241D01*
X265885Y357421D01*
X266135Y357560D01*
X266371Y357671D01*
X266469Y357727D01*
X266566Y357754D01*
X266635Y357782D01*
X266691Y357810D01*
X266718Y357824D01*
X266732D01*
X266940Y357893D01*
X267149Y357949D01*
X267593Y358032D01*
X268051Y358102D01*
X268495Y358143D01*
X268689Y358157D01*
X268870Y358171D01*
X269036D01*
X269189Y358185D01*
X269300D01*
X269397D01*
X269453D01*
X269467D01*
X269730D01*
X269980Y358171D01*
D02*
G37*
G36*
X274339Y349954D02*
X267357Y347344D01*
X267065Y347234D01*
X266788Y347136D01*
X266524Y347053D01*
X266288Y346984D01*
X266080Y346914D01*
X265927Y346873D01*
X265872Y346859D01*
X265830Y346845D01*
X265802Y346831D01*
X265788D01*
X266344Y346664D01*
X266607Y346581D01*
X266843Y346498D01*
X267052Y346428D01*
X267135Y346401D01*
X267218Y346387D01*
X267273Y346359D01*
X267315Y346345D01*
X267343Y346331D01*
X267357D01*
X274339Y343833D01*
Y342445D01*
X264734Y346165D01*
Y347497D01*
X274339Y351245D01*
Y349954D01*
D02*
G37*
G36*
X270036Y338045D02*
X270521Y337989D01*
X270743Y337948D01*
X270966Y337892D01*
X271160Y337837D01*
X271340Y337795D01*
X271507Y337740D01*
X271660Y337684D01*
X271784Y337642D01*
X271896Y337587D01*
X271979Y337559D01*
X272034Y337531D01*
X272076Y337504D01*
X272090D01*
X272492Y337281D01*
X272853Y337018D01*
X273159Y336740D01*
X273409Y336490D01*
X273603Y336254D01*
X273686Y336143D01*
X273756Y336060D01*
X273797Y335977D01*
X273839Y335921D01*
X273853Y335894D01*
X273867Y335880D01*
X273978Y335671D01*
X274075Y335463D01*
X274241Y335061D01*
X274352Y334644D01*
X274422Y334283D01*
X274449Y334117D01*
X274477Y333950D01*
X274491Y333825D01*
Y333700D01*
X274505Y333603D01*
Y333478D01*
X274491Y333104D01*
X274449Y332757D01*
X274380Y332423D01*
X274297Y332104D01*
X274186Y331813D01*
X274075Y331535D01*
X273950Y331285D01*
X273825Y331063D01*
X273700Y330855D01*
X273575Y330675D01*
X273464Y330522D01*
X273353Y330397D01*
X273270Y330300D01*
X273200Y330217D01*
X273159Y330175D01*
X273145Y330161D01*
X272881Y329939D01*
X272604Y329745D01*
X272298Y329564D01*
X271993Y329425D01*
X271673Y329300D01*
X271368Y329189D01*
X271063Y329106D01*
X270771Y329051D01*
X270494Y328995D01*
X270230Y328954D01*
X269994Y328926D01*
X269800Y328898D01*
X269633D01*
X269508Y328884D01*
X269425D01*
X269411D01*
X269397D01*
X268925Y328912D01*
X268495Y328967D01*
X268079Y329051D01*
X267898Y329106D01*
X267718Y329162D01*
X267565Y329203D01*
X267426Y329259D01*
X267301Y329300D01*
X267190Y329342D01*
X267107Y329370D01*
X267052Y329398D01*
X267010Y329425D01*
X266996D01*
X266593Y329661D01*
X266246Y329911D01*
X265941Y330189D01*
X265691Y330453D01*
X265483Y330689D01*
X265400Y330786D01*
X265344Y330869D01*
X265289Y330952D01*
X265247Y331008D01*
X265233Y331035D01*
X265219Y331049D01*
X265108Y331258D01*
X265011Y331466D01*
X264844Y331882D01*
X264734Y332285D01*
X264650Y332660D01*
X264622Y332840D01*
X264609Y332993D01*
X264581Y333131D01*
Y333256D01*
X264567Y333340D01*
Y333478D01*
X264595Y333936D01*
X264664Y334367D01*
X264747Y334769D01*
X264803Y334950D01*
X264858Y335116D01*
X264914Y335269D01*
X264969Y335408D01*
X265011Y335519D01*
X265053Y335616D01*
X265094Y335699D01*
X265122Y335769D01*
X265150Y335796D01*
Y335810D01*
X265400Y336199D01*
X265677Y336532D01*
X265969Y336810D01*
X266246Y337046D01*
X266510Y337240D01*
X266607Y337309D01*
X266704Y337365D01*
X266788Y337420D01*
X266843Y337448D01*
X266885Y337476D01*
X266899D01*
X267121Y337587D01*
X267343Y337670D01*
X267787Y337823D01*
X268231Y337934D01*
X268634Y338003D01*
X268814Y338017D01*
X268981Y338045D01*
X269133Y338059D01*
X269258D01*
X269369Y338073D01*
X269439D01*
X269494D01*
X269508D01*
X270036Y338045D01*
D02*
G37*
G36*
X267704Y327510D02*
X267968Y327468D01*
X268203Y327399D01*
X268398Y327330D01*
X268564Y327246D01*
X268689Y327191D01*
X268759Y327135D01*
X268787Y327121D01*
X268995Y326955D01*
X269189Y326761D01*
X269356Y326552D01*
X269508Y326344D01*
X269619Y326164D01*
X269703Y326011D01*
X269730Y325955D01*
X269758Y325914D01*
X269772Y325886D01*
Y325872D01*
X269827Y325761D01*
X269869Y325622D01*
X269925Y325470D01*
X269980Y325303D01*
X270077Y324956D01*
X270174Y324595D01*
X270216Y324429D01*
X270258Y324276D01*
X270299Y324123D01*
X270327Y323998D01*
X270355Y323901D01*
X270369Y323818D01*
X270383Y323762D01*
Y323748D01*
X270452Y323471D01*
X270508Y323221D01*
X270577Y322999D01*
X270633Y322805D01*
X270702Y322624D01*
X270757Y322471D01*
X270813Y322333D01*
X270855Y322208D01*
X270910Y322111D01*
X270952Y322027D01*
X270979Y321972D01*
X271021Y321916D01*
X271063Y321847D01*
X271077Y321833D01*
X271216Y321708D01*
X271354Y321625D01*
X271493Y321555D01*
X271632Y321514D01*
X271743Y321486D01*
X271840Y321472D01*
X271896D01*
X271923D01*
X272145Y321500D01*
X272340Y321555D01*
X272506Y321639D01*
X272659Y321736D01*
X272770Y321819D01*
X272867Y321902D01*
X272923Y321958D01*
X272937Y321986D01*
X273006Y322097D01*
X273075Y322208D01*
X273186Y322471D01*
X273256Y322749D01*
X273311Y323027D01*
X273339Y323277D01*
X273353Y323388D01*
X273367Y323471D01*
Y323665D01*
X273353Y324054D01*
X273297Y324401D01*
X273214Y324678D01*
X273131Y324914D01*
X273048Y325095D01*
X272964Y325234D01*
X272909Y325303D01*
X272895Y325331D01*
X272701Y325525D01*
X272492Y325678D01*
X272270Y325803D01*
X272048Y325886D01*
X271840Y325942D01*
X271687Y325983D01*
X271618Y325997D01*
X271576Y326011D01*
X271549D01*
X271535D01*
X271632Y327232D01*
X271937Y327205D01*
X272215Y327135D01*
X272479Y327066D01*
X272701Y326969D01*
X272881Y326885D01*
X273020Y326816D01*
X273061Y326788D01*
X273103Y326761D01*
X273117Y326747D01*
X273131D01*
X273367Y326566D01*
X273575Y326372D01*
X273756Y326164D01*
X273894Y325955D01*
X274019Y325775D01*
X274089Y325636D01*
X274116Y325581D01*
X274144Y325539D01*
X274158Y325511D01*
Y325497D01*
X274269Y325192D01*
X274352Y324859D01*
X274422Y324553D01*
X274463Y324262D01*
X274491Y323998D01*
Y323901D01*
X274505Y323804D01*
Y323624D01*
X274491Y323263D01*
X274449Y322943D01*
X274394Y322638D01*
X274339Y322374D01*
X274283Y322166D01*
X274255Y322069D01*
X274227Y322000D01*
X274200Y321944D01*
X274186Y321902D01*
X274172Y321875D01*
Y321861D01*
X274033Y321583D01*
X273880Y321333D01*
X273714Y321125D01*
X273561Y320959D01*
X273422Y320834D01*
X273311Y320737D01*
X273228Y320667D01*
X273214Y320653D01*
X273200D01*
X272964Y320514D01*
X272728Y320417D01*
X272492Y320348D01*
X272284Y320306D01*
X272104Y320279D01*
X271965Y320251D01*
X271909D01*
X271868D01*
X271854D01*
X271840D01*
X271604Y320265D01*
X271382Y320306D01*
X271174Y320362D01*
X270993Y320417D01*
X270855Y320473D01*
X270743Y320528D01*
X270674Y320570D01*
X270646Y320584D01*
X270452Y320723D01*
X270272Y320889D01*
X270119Y321056D01*
X269994Y321222D01*
X269883Y321361D01*
X269814Y321486D01*
X269758Y321569D01*
X269744Y321583D01*
Y321597D01*
X269689Y321708D01*
X269633Y321833D01*
X269536Y322111D01*
X269439Y322430D01*
X269342Y322735D01*
X269258Y323013D01*
X269231Y323138D01*
X269203Y323249D01*
X269175Y323332D01*
X269161Y323401D01*
X269147Y323443D01*
Y323457D01*
X269092Y323693D01*
X269036Y323915D01*
X268981Y324109D01*
X268939Y324276D01*
X268898Y324443D01*
X268856Y324581D01*
X268828Y324706D01*
X268787Y324803D01*
X268759Y324901D01*
X268745Y324970D01*
X268703Y325081D01*
X268689Y325150D01*
X268675Y325164D01*
X268592Y325373D01*
X268495Y325553D01*
X268398Y325706D01*
X268315Y325817D01*
X268231Y325914D01*
X268176Y325969D01*
X268134Y326011D01*
X268120Y326025D01*
X267995Y326122D01*
X267857Y326191D01*
X267718Y326233D01*
X267607Y326275D01*
X267496Y326289D01*
X267412Y326302D01*
X267343D01*
X267329D01*
X267162Y326289D01*
X267010Y326261D01*
X266871Y326219D01*
X266760Y326164D01*
X266649Y326108D01*
X266580Y326066D01*
X266524Y326039D01*
X266510Y326025D01*
X266371Y325914D01*
X266260Y325775D01*
X266163Y325636D01*
X266066Y325511D01*
X266010Y325386D01*
X265955Y325289D01*
X265927Y325220D01*
X265913Y325192D01*
X265844Y324984D01*
X265788Y324762D01*
X265761Y324540D01*
X265733Y324345D01*
X265719Y324179D01*
X265705Y324040D01*
Y323915D01*
X265719Y323610D01*
X265747Y323332D01*
X265788Y323082D01*
X265844Y322860D01*
X265899Y322680D01*
X265941Y322541D01*
X265955Y322499D01*
X265969Y322458D01*
X265983Y322444D01*
Y322430D01*
X266094Y322208D01*
X266219Y322000D01*
X266344Y321847D01*
X266469Y321708D01*
X266566Y321597D01*
X266663Y321528D01*
X266718Y321486D01*
X266732Y321472D01*
X266913Y321375D01*
X267107Y321278D01*
X267315Y321222D01*
X267496Y321167D01*
X267676Y321125D01*
X267801Y321097D01*
X267857D01*
X267898Y321084D01*
X267912D01*
X267926D01*
X267815Y319890D01*
X267468Y319918D01*
X267135Y319973D01*
X266843Y320056D01*
X266580Y320154D01*
X266371Y320251D01*
X266288Y320292D01*
X266219Y320320D01*
X266163Y320362D01*
X266122Y320376D01*
X266094Y320403D01*
X266080D01*
X265816Y320612D01*
X265580Y320834D01*
X265386Y321070D01*
X265219Y321292D01*
X265094Y321486D01*
X265011Y321653D01*
X264983Y321708D01*
X264956Y321750D01*
X264942Y321778D01*
Y321791D01*
X264817Y322138D01*
X264720Y322499D01*
X264664Y322860D01*
X264609Y323207D01*
X264595Y323374D01*
X264581Y323513D01*
Y323638D01*
X264567Y323748D01*
Y323971D01*
X264581Y324345D01*
X264622Y324692D01*
X264692Y325012D01*
X264761Y325275D01*
X264817Y325497D01*
X264858Y325594D01*
X264886Y325678D01*
X264914Y325733D01*
X264928Y325775D01*
X264942Y325803D01*
Y325817D01*
X265094Y326108D01*
X265261Y326358D01*
X265441Y326580D01*
X265608Y326761D01*
X265747Y326899D01*
X265872Y326996D01*
X265955Y327066D01*
X265969Y327080D01*
X265983D01*
X266246Y327232D01*
X266496Y327343D01*
X266732Y327413D01*
X266954Y327468D01*
X267149Y327496D01*
X267301Y327524D01*
X267357D01*
X267399D01*
X267412D01*
X267426D01*
X267704Y327510D01*
D02*
G37*
G36*
X274339Y316795D02*
X264734D01*
Y318072D01*
X274339D01*
Y316795D01*
D02*
G37*
G36*
X268092Y313741D02*
X267870Y313685D01*
X267662Y313616D01*
X267468Y313547D01*
X267287Y313477D01*
X267121Y313394D01*
X266982Y313311D01*
X266843Y313214D01*
X266718Y313130D01*
X266607Y313061D01*
X266524Y312978D01*
X266441Y312908D01*
X266371Y312853D01*
X266330Y312797D01*
X266288Y312755D01*
X266274Y312742D01*
X266260Y312728D01*
X266149Y312589D01*
X266066Y312436D01*
X265913Y312131D01*
X265802Y311840D01*
X265733Y311548D01*
X265677Y311298D01*
X265664Y311201D01*
Y311104D01*
X265650Y311021D01*
Y310923D01*
X265664Y310604D01*
X265719Y310299D01*
X265788Y310021D01*
X265872Y309771D01*
X265955Y309577D01*
X265997Y309494D01*
X266024Y309424D01*
X266052Y309369D01*
X266080Y309327D01*
X266094Y309299D01*
Y309286D01*
X266288Y309022D01*
X266496Y308800D01*
X266732Y308605D01*
X266954Y308453D01*
X267149Y308328D01*
X267315Y308244D01*
X267385Y308217D01*
X267426Y308189D01*
X267454Y308175D01*
X267468D01*
X267829Y308064D01*
X268190Y307981D01*
X268550Y307911D01*
X268884Y307870D01*
X269036Y307856D01*
X269175Y307842D01*
X269300D01*
X269397Y307828D01*
X269480D01*
X269550D01*
X269591D01*
X269605D01*
X269966Y307842D01*
X270299Y307870D01*
X270605Y307925D01*
X270882Y307981D01*
X271118Y308022D01*
X271216Y308050D01*
X271299Y308078D01*
X271368Y308092D01*
X271410Y308106D01*
X271438Y308120D01*
X271451D01*
X271771Y308258D01*
X272062Y308411D01*
X272298Y308578D01*
X272506Y308758D01*
X272673Y308911D01*
X272784Y309036D01*
X272853Y309133D01*
X272881Y309147D01*
Y309161D01*
X273061Y309452D01*
X273200Y309771D01*
X273297Y310077D01*
X273353Y310368D01*
X273395Y310632D01*
X273409Y310743D01*
Y310840D01*
X273422Y310910D01*
Y311021D01*
X273409Y311368D01*
X273353Y311687D01*
X273270Y311950D01*
X273186Y312187D01*
X273089Y312367D01*
X273020Y312506D01*
X272964Y312589D01*
X272937Y312617D01*
X272728Y312839D01*
X272492Y313047D01*
X272243Y313214D01*
X271993Y313352D01*
X271771Y313463D01*
X271660Y313505D01*
X271576Y313533D01*
X271507Y313561D01*
X271451Y313588D01*
X271424Y313602D01*
X271410D01*
X271701Y314851D01*
X271951Y314768D01*
X272173Y314685D01*
X272381Y314574D01*
X272590Y314477D01*
X272770Y314366D01*
X272937Y314241D01*
X273103Y314130D01*
X273242Y314019D01*
X273353Y313908D01*
X273464Y313810D01*
X273561Y313713D01*
X273631Y313644D01*
X273700Y313575D01*
X273742Y313519D01*
X273756Y313491D01*
X273769Y313477D01*
X273894Y313283D01*
X274019Y313089D01*
X274116Y312894D01*
X274200Y312686D01*
X274325Y312270D01*
X274408Y311895D01*
X274449Y311715D01*
X274463Y311562D01*
X274477Y311409D01*
X274491Y311284D01*
X274505Y311187D01*
Y311048D01*
X274477Y310590D01*
X274408Y310146D01*
X274325Y309757D01*
X274269Y309577D01*
X274214Y309411D01*
X274158Y309258D01*
X274102Y309119D01*
X274061Y309008D01*
X274019Y308897D01*
X273978Y308827D01*
X273950Y308772D01*
X273936Y308730D01*
X273922Y308717D01*
X273686Y308342D01*
X273409Y308022D01*
X273131Y307745D01*
X272853Y307509D01*
X272604Y307329D01*
X272492Y307259D01*
X272395Y307204D01*
X272326Y307148D01*
X272270Y307120D01*
X272229Y307106D01*
X272215Y307092D01*
X271784Y306898D01*
X271340Y306759D01*
X270896Y306662D01*
X270494Y306593D01*
X270313Y306565D01*
X270133Y306551D01*
X269994Y306537D01*
X269855D01*
X269758Y306523D01*
X269675D01*
X269619D01*
X269605D01*
X269106Y306551D01*
X268620Y306607D01*
X268190Y306676D01*
X267981Y306732D01*
X267801Y306773D01*
X267634Y306815D01*
X267482Y306870D01*
X267343Y306912D01*
X267232Y306940D01*
X267149Y306981D01*
X267079Y306995D01*
X267038Y307023D01*
X267024D01*
X266607Y307231D01*
X266232Y307467D01*
X265913Y307717D01*
X265788Y307842D01*
X265664Y307953D01*
X265552Y308064D01*
X265455Y308175D01*
X265372Y308272D01*
X265316Y308356D01*
X265261Y308411D01*
X265219Y308467D01*
X265205Y308494D01*
X265192Y308508D01*
X265080Y308703D01*
X264983Y308897D01*
X264831Y309313D01*
X264720Y309730D01*
X264650Y310132D01*
X264622Y310327D01*
X264595Y310493D01*
X264581Y310646D01*
Y310771D01*
X264567Y310882D01*
Y311034D01*
X264581Y311312D01*
X264609Y311576D01*
X264636Y311826D01*
X264692Y312062D01*
X264761Y312284D01*
X264831Y312492D01*
X264900Y312686D01*
X264983Y312867D01*
X265053Y313019D01*
X265122Y313172D01*
X265192Y313283D01*
X265261Y313394D01*
X265316Y313463D01*
X265344Y313533D01*
X265372Y313561D01*
X265386Y313575D01*
X265552Y313769D01*
X265719Y313935D01*
X265913Y314088D01*
X266108Y314241D01*
X266496Y314491D01*
X266885Y314685D01*
X267065Y314768D01*
X267232Y314838D01*
X267385Y314893D01*
X267510Y314935D01*
X267620Y314976D01*
X267704Y315004D01*
X267759Y315018D01*
X267773D01*
X268092Y313741D01*
D02*
G37*
G36*
X274339Y303123D02*
X267648Y300819D01*
X267287Y300694D01*
X266982Y300597D01*
X266718Y300500D01*
X266496Y300430D01*
X266330Y300375D01*
X266205Y300333D01*
X266135Y300319D01*
X266108Y300305D01*
X266302Y300250D01*
X266524Y300180D01*
X266760Y300097D01*
X266996Y300028D01*
X267204Y299958D01*
X267371Y299903D01*
X267440Y299875D01*
X267482Y299861D01*
X267510Y299847D01*
X267523D01*
X274339Y297571D01*
Y295669D01*
X264734D01*
Y296891D01*
X272909D01*
X264734Y299667D01*
Y300805D01*
X272770Y303609D01*
X264734D01*
Y304830D01*
X274339D01*
Y303123D01*
D02*
G37*
G36*
X252917Y231274D02*
X244477D01*
X252917Y225980D01*
Y223926D01*
X241071D01*
Y225980D01*
X249474D01*
X241071Y231256D01*
Y233310D01*
X252917D01*
Y231274D01*
D02*
G37*
G36*
Y220797D02*
X240053Y216133D01*
Y217688D01*
X252917Y222352D01*
Y220797D01*
D02*
G37*
G36*
X249826Y215504D02*
X250178Y215430D01*
X250493Y215356D01*
X250770Y215245D01*
X250992Y215152D01*
X251159Y215059D01*
X251270Y214985D01*
X251307Y214967D01*
X251603Y214745D01*
X251881Y214486D01*
X252103Y214245D01*
X252288Y213986D01*
X252436Y213764D01*
X252529Y213597D01*
X252566Y213523D01*
X252603Y213468D01*
X252621Y213449D01*
Y213431D01*
X252769Y213060D01*
X252880Y212690D01*
X252973Y212320D01*
X253028Y211968D01*
X253065Y211672D01*
Y211543D01*
X253084Y211432D01*
Y211228D01*
X253065Y210895D01*
X253047Y210561D01*
X252991Y210265D01*
X252936Y209969D01*
X252862Y209710D01*
X252788Y209469D01*
X252695Y209229D01*
X252621Y209025D01*
X252529Y208840D01*
X252436Y208674D01*
X252362Y208544D01*
X252288Y208414D01*
X252232Y208340D01*
X252177Y208266D01*
X252158Y208229D01*
X252140Y208211D01*
X251955Y208007D01*
X251770Y207822D01*
X251585Y207674D01*
X251381Y207544D01*
X251177Y207433D01*
X250992Y207322D01*
X250622Y207193D01*
X250289Y207100D01*
X250141Y207082D01*
X250030Y207063D01*
X249919Y207045D01*
X249845D01*
X249808D01*
X249789D01*
X249493Y207063D01*
X249197Y207119D01*
X248938Y207193D01*
X248678Y207304D01*
X248438Y207415D01*
X248216Y207563D01*
X248031Y207693D01*
X247846Y207859D01*
X247679Y208007D01*
X247531Y208155D01*
X247420Y208285D01*
X247309Y208396D01*
X247235Y208507D01*
X247179Y208581D01*
X247142Y208636D01*
X247124Y208655D01*
X246938Y209007D01*
X246754Y209377D01*
X246587Y209747D01*
X246457Y210117D01*
X246328Y210432D01*
X246272Y210580D01*
X246235Y210691D01*
X246198Y210802D01*
X246180Y210876D01*
X246161Y210913D01*
Y210932D01*
X246087Y211191D01*
X245994Y211432D01*
X245920Y211654D01*
X245847Y211857D01*
X245772Y212024D01*
X245698Y212190D01*
X245569Y212468D01*
X245476Y212672D01*
X245384Y212801D01*
X245328Y212894D01*
X245310Y212912D01*
X245143Y213097D01*
X244939Y213227D01*
X244736Y213338D01*
X244551Y213393D01*
X244384Y213431D01*
X244236Y213468D01*
X244144D01*
X244107D01*
X243847Y213449D01*
X243625Y213375D01*
X243440Y213301D01*
X243274Y213190D01*
X243144Y213097D01*
X243033Y213005D01*
X242977Y212931D01*
X242959Y212912D01*
X242811Y212690D01*
X242718Y212431D01*
X242644Y212172D01*
X242589Y211913D01*
X242552Y211672D01*
X242533Y211487D01*
Y211302D01*
X242552Y210858D01*
X242626Y210488D01*
X242700Y210154D01*
X242811Y209877D01*
X242903Y209673D01*
X242996Y209525D01*
X243052Y209432D01*
X243070Y209395D01*
X243292Y209173D01*
X243551Y209007D01*
X243810Y208896D01*
X244070Y208822D01*
X244292Y208766D01*
X244477Y208748D01*
X244551Y208729D01*
X244606D01*
X244625D01*
X244643D01*
Y206674D01*
X244236Y206693D01*
X243866Y206767D01*
X243533Y206859D01*
X243255Y206971D01*
X243014Y207082D01*
X242829Y207174D01*
X242718Y207248D01*
X242700Y207267D01*
X242681D01*
X242385Y207507D01*
X242126Y207785D01*
X241904Y208063D01*
X241719Y208340D01*
X241571Y208581D01*
X241460Y208766D01*
X241423Y208840D01*
X241386Y208896D01*
X241367Y208933D01*
Y208951D01*
X241219Y209358D01*
X241108Y209766D01*
X241015Y210173D01*
X240960Y210525D01*
X240923Y210839D01*
Y210969D01*
X240904Y211080D01*
Y211302D01*
X240923Y211654D01*
X240941Y211987D01*
X240978Y212301D01*
X241034Y212598D01*
X241108Y212875D01*
X241182Y213134D01*
X241256Y213356D01*
X241349Y213560D01*
X241423Y213745D01*
X241497Y213912D01*
X241571Y214060D01*
X241645Y214171D01*
X241700Y214264D01*
X241737Y214319D01*
X241774Y214356D01*
Y214375D01*
X241941Y214578D01*
X242126Y214745D01*
X242311Y214911D01*
X242515Y215041D01*
X242700Y215152D01*
X242903Y215245D01*
X243274Y215374D01*
X243607Y215467D01*
X243755Y215485D01*
X243884Y215504D01*
X243977Y215522D01*
X244070D01*
X244107D01*
X244125D01*
X244458Y215504D01*
X244754Y215467D01*
X245032Y215393D01*
X245254Y215337D01*
X245458Y215263D01*
X245587Y215189D01*
X245680Y215152D01*
X245717Y215134D01*
X245957Y214967D01*
X246198Y214782D01*
X246402Y214578D01*
X246568Y214375D01*
X246716Y214190D01*
X246828Y214041D01*
X246901Y213930D01*
X246920Y213912D01*
Y213893D01*
X247105Y213560D01*
X247290Y213190D01*
X247438Y212820D01*
X247586Y212468D01*
X247697Y212153D01*
X247734Y212024D01*
X247772Y211894D01*
X247809Y211802D01*
X247827Y211728D01*
X247846Y211691D01*
Y211672D01*
X248012Y211191D01*
X248160Y210784D01*
X248308Y210451D01*
X248438Y210173D01*
X248549Y209951D01*
X248623Y209803D01*
X248678Y209729D01*
X248697Y209692D01*
X248864Y209488D01*
X249049Y209358D01*
X249234Y209247D01*
X249419Y209173D01*
X249567Y209136D01*
X249678Y209118D01*
X249752Y209099D01*
X249789D01*
X250067Y209118D01*
X250307Y209192D01*
X250511Y209284D01*
X250678Y209377D01*
X250826Y209488D01*
X250918Y209562D01*
X250974Y209636D01*
X250992Y209654D01*
X251140Y209877D01*
X251251Y210136D01*
X251325Y210395D01*
X251381Y210654D01*
X251418Y210876D01*
X251436Y211061D01*
Y211228D01*
X251418Y211617D01*
X251362Y211931D01*
X251270Y212227D01*
X251177Y212450D01*
X251066Y212635D01*
X250992Y212764D01*
X250918Y212857D01*
X250900Y212875D01*
X250696Y213079D01*
X250455Y213227D01*
X250215Y213319D01*
X249993Y213393D01*
X249771Y213431D01*
X249604Y213468D01*
X249493D01*
X249474D01*
X249456D01*
Y215522D01*
X249826Y215504D01*
D02*
G37*
G36*
X212645Y235550D02*
X212811Y235513D01*
X212941Y235476D01*
X213052Y235420D01*
X213145Y235346D01*
X213219Y235309D01*
X213256Y235272D01*
X213274Y235254D01*
X213385Y235143D01*
X213459Y234995D01*
X213515Y234865D01*
X213552Y234736D01*
X213570Y234606D01*
X213589Y234513D01*
Y234421D01*
X213570Y234217D01*
X213533Y234051D01*
X213496Y233903D01*
X213441Y233792D01*
X213367Y233699D01*
X213330Y233625D01*
X213293Y233588D01*
X213274Y233569D01*
X213145Y233477D01*
X213015Y233403D01*
X212885Y233347D01*
X212756Y233310D01*
X212645Y233292D01*
X212552Y233273D01*
X212497D01*
X212478D01*
X212312Y233292D01*
X212164Y233329D01*
X212034Y233366D01*
X211923Y233421D01*
X211830Y233477D01*
X211775Y233532D01*
X211738Y233551D01*
X211719Y233569D01*
X211627Y233699D01*
X211553Y233829D01*
X211497Y233977D01*
X211460Y234106D01*
X211442Y234236D01*
X211423Y234328D01*
Y234421D01*
X211442Y234606D01*
X211479Y234773D01*
X211516Y234921D01*
X211571Y235032D01*
X211627Y235124D01*
X211682Y235198D01*
X211701Y235235D01*
X211719Y235254D01*
X211830Y235365D01*
X211960Y235439D01*
X212090Y235494D01*
X212219Y235531D01*
X212312Y235550D01*
X212404Y235568D01*
X212460D01*
X212478D01*
X212645Y235550D01*
D02*
G37*
G36*
X220419Y231718D02*
X220456Y231496D01*
X220475Y231404D01*
Y231256D01*
X220456Y231015D01*
X220419Y230812D01*
X220363Y230589D01*
X220289Y230404D01*
X220104Y230071D01*
X219901Y229775D01*
X219697Y229553D01*
X219512Y229386D01*
X219438Y229331D01*
X219383Y229294D01*
X219345Y229257D01*
X219327D01*
X220308Y229220D01*
Y227332D01*
X211516D01*
Y229312D01*
X217513D01*
X217698Y229405D01*
X217865Y229516D01*
X217994Y229645D01*
X218124Y229793D01*
X218235Y229942D01*
X218309Y230090D01*
X218439Y230386D01*
X218513Y230682D01*
X218531Y230793D01*
X218550Y230904D01*
X218568Y230996D01*
Y231126D01*
X218550Y231441D01*
Y231570D01*
X218531Y231700D01*
X218513Y231792D01*
Y231867D01*
X218494Y231922D01*
Y231941D01*
X220345D01*
X220419Y231718D01*
D02*
G37*
G36*
X211923Y225481D02*
X212238Y225407D01*
X212552Y225332D01*
X212848Y225295D01*
X213126Y225277D01*
X213330Y225258D01*
X213422D01*
X213478D01*
X213515D01*
X213533D01*
X217513D01*
X217772Y225240D01*
X218013Y225221D01*
X218457Y225110D01*
X218827Y224944D01*
X219142Y224777D01*
X219383Y224611D01*
X219549Y224463D01*
X219660Y224352D01*
X219697Y224333D01*
Y224314D01*
X219956Y223944D01*
X220141Y223555D01*
X220289Y223130D01*
X220382Y222741D01*
X220438Y222389D01*
X220456Y222241D01*
Y222112D01*
X220475Y222001D01*
Y221853D01*
X220456Y221482D01*
X220419Y221131D01*
X220363Y220816D01*
X220289Y220538D01*
X220216Y220316D01*
X220160Y220150D01*
X220123Y220039D01*
X220104Y220020D01*
Y220002D01*
X219956Y219706D01*
X219808Y219465D01*
X219642Y219243D01*
X219475Y219058D01*
X219345Y218910D01*
X219234Y218798D01*
X219160Y218724D01*
X219123Y218706D01*
X218883Y218539D01*
X218642Y218428D01*
X218420Y218336D01*
X218216Y218280D01*
X218031Y218243D01*
X217902Y218225D01*
X217809D01*
X217772D01*
Y220205D01*
X217957Y220224D01*
X218124Y220279D01*
X218272Y220335D01*
X218402Y220427D01*
X218494Y220501D01*
X218568Y220557D01*
X218605Y220612D01*
X218624Y220631D01*
X218735Y220816D01*
X218827Y221001D01*
X218883Y221186D01*
X218938Y221353D01*
X218957Y221501D01*
X218975Y221631D01*
Y221742D01*
X218957Y222019D01*
X218901Y222260D01*
X218846Y222445D01*
X218772Y222611D01*
X218679Y222741D01*
X218624Y222834D01*
X218568Y222889D01*
X218550Y222908D01*
X218383Y223037D01*
X218216Y223130D01*
X218031Y223204D01*
X217846Y223241D01*
X217698Y223278D01*
X217568Y223296D01*
X217495D01*
X217458D01*
X216884D01*
Y221723D01*
X216847Y221390D01*
X216810Y221075D01*
X216773Y220779D01*
X216717Y220520D01*
X216643Y220279D01*
X216569Y220057D01*
X216513Y219853D01*
X216439Y219668D01*
X216365Y219520D01*
X216310Y219372D01*
X216236Y219280D01*
X216199Y219187D01*
X216162Y219132D01*
X216125Y219095D01*
Y219076D01*
X215977Y218891D01*
X215810Y218743D01*
X215644Y218595D01*
X215458Y218484D01*
X215107Y218299D01*
X214755Y218169D01*
X214440Y218095D01*
X214311Y218077D01*
X214200Y218058D01*
X214089Y218040D01*
X214015D01*
X213978D01*
X213959D01*
X213755Y218058D01*
X213552Y218077D01*
X213200Y218169D01*
X212885Y218299D01*
X212608Y218465D01*
X212386Y218613D01*
X212219Y218743D01*
X212127Y218835D01*
X212108Y218872D01*
X212090D01*
X211849Y219206D01*
X211664Y219576D01*
X211534Y219928D01*
X211442Y220279D01*
X211386Y220575D01*
X211368Y220705D01*
Y220816D01*
X211349Y220909D01*
Y221038D01*
X211368Y221297D01*
X211386Y221538D01*
X211497Y221982D01*
X211664Y222371D01*
X211849Y222704D01*
X212016Y222982D01*
X212108Y223093D01*
X212182Y223185D01*
X212238Y223259D01*
X212293Y223315D01*
X212312Y223333D01*
X212330Y223352D01*
X212127Y223389D01*
X211960Y223426D01*
X211812Y223463D01*
X211701Y223500D01*
X211627Y223537D01*
X211571Y223555D01*
X211534Y223574D01*
X211516D01*
Y225592D01*
X211645D01*
X211923Y225481D01*
D02*
G37*
G36*
X223362Y214911D02*
X214089Y211913D01*
X223362Y208933D01*
Y206674D01*
X211516Y210932D01*
Y212912D01*
X223362Y217188D01*
Y214911D01*
D02*
G37*
%LPC*%
G36*
X235749Y466413D02*
X228186D01*
Y461867D01*
X235749D01*
Y462796D01*
X231432D01*
X233673Y464993D01*
Y466206D01*
X231629Y464096D01*
X228186Y466413D01*
X235749D01*
D02*
G37*
G36*
Y460446D02*
X234294D01*
X234689D01*
Y459517D01*
X235749D01*
Y460446D01*
D02*
G37*
G36*
X233673D02*
X228186D01*
Y459517D01*
X234294D01*
X233673D01*
Y460446D01*
D02*
G37*
G36*
X254306Y455374D02*
X251563D01*
X253246D01*
Y454314D01*
X254306D01*
Y455374D01*
D02*
G37*
G36*
X249880D02*
X248819D01*
Y454314D01*
X249880D01*
Y455374D01*
D02*
G37*
G36*
X233793Y458369D02*
X228065D01*
Y453319D01*
D01*
Y455101D01*
X228076Y455035D01*
Y454959D01*
X228087Y454871D01*
X228120Y454675D01*
X228175Y454456D01*
X228251Y454216D01*
X228361Y453997D01*
X228503Y453800D01*
X228524Y453778D01*
X228579Y453724D01*
X228678Y453647D01*
X228809Y453560D01*
X228973Y453472D01*
X229158Y453396D01*
X229388Y453341D01*
X229497Y453330D01*
X229628Y453319D01*
X229694D01*
X229771Y453330D01*
X229869Y453341D01*
X229989Y453363D01*
X230109Y453396D01*
X230241Y453440D01*
X230361Y453494D01*
X230372Y453505D01*
X230415Y453527D01*
X230481Y453571D01*
X230557Y453625D01*
X230645Y453691D01*
X230732Y453778D01*
X230820Y453866D01*
X230896Y453975D01*
X230907Y453986D01*
X230929Y454030D01*
X230973Y454084D01*
X231017Y454172D01*
X231060Y454270D01*
X231115Y454390D01*
X231159Y454511D01*
X231202Y454653D01*
Y454664D01*
X231213Y454707D01*
X231235Y454773D01*
X231246Y454860D01*
X231268Y454970D01*
X231290Y455112D01*
X231323Y455276D01*
X231345Y455473D01*
Y455483D01*
X231355Y455527D01*
Y455582D01*
X231366Y455658D01*
X231377Y455746D01*
X231399Y455855D01*
X231410Y455975D01*
X231432Y456107D01*
X231487Y456369D01*
X231541Y456653D01*
X231607Y456904D01*
X231640Y457025D01*
X231672Y457134D01*
X231683D01*
X231705D01*
X231771Y457145D01*
X231847D01*
X231891D01*
X231913D01*
X231924D01*
X231935D01*
X232000D01*
X232110Y457134D01*
X232230Y457112D01*
X232361Y457079D01*
X232492Y457025D01*
X232612Y456959D01*
X232711Y456872D01*
X232722Y456861D01*
X232765Y456806D01*
X232809Y456719D01*
X232875Y456609D01*
X232929Y456456D01*
X232984Y456281D01*
X233017Y456063D01*
X233028Y455811D01*
Y455702D01*
X233017Y455593D01*
X232995Y455440D01*
X232973Y455287D01*
X232929Y455123D01*
X232875Y454970D01*
X232798Y454839D01*
X232787Y454828D01*
X232754Y454784D01*
X232700Y454729D01*
X232612Y454664D01*
X232503Y454598D01*
X232361Y454522D01*
X232186Y454456D01*
X231989Y454390D01*
X232110Y453483D01*
X232120D01*
X232131Y453494D01*
X232164D01*
X232208Y453505D01*
X232306Y453538D01*
X232448Y453582D01*
X232591Y453636D01*
X232744Y453702D01*
X232896Y453789D01*
X233039Y453888D01*
X233050Y453899D01*
X233093Y453942D01*
X233159Y454008D01*
X233246Y454095D01*
X233334Y454216D01*
X233421Y454358D01*
X233520Y454522D01*
X233596Y454707D01*
Y454718D01*
X233607Y454729D01*
X233618Y454762D01*
X233629Y454806D01*
X233662Y454915D01*
X233694Y455068D01*
X233727Y455243D01*
X233760Y455462D01*
X233782Y455691D01*
X233793Y455954D01*
Y456074D01*
X233782Y456194D01*
X233771Y456358D01*
X233749Y456544D01*
X233716Y456730D01*
X233673Y456915D01*
X233618Y457090D01*
X233607Y457112D01*
X233585Y457167D01*
X233552Y457243D01*
X233509Y457342D01*
X233443Y457451D01*
X233378Y457560D01*
X233290Y457659D01*
X233203Y457746D01*
X233192Y457757D01*
X233159Y457779D01*
X233104Y457812D01*
X233039Y457855D01*
X232940Y457910D01*
X232842Y457954D01*
X232722Y457997D01*
X232580Y458030D01*
X232569D01*
X232536Y458041D01*
X232470Y458052D01*
X232383Y458063D01*
X232263D01*
X232120Y458074D01*
X231935Y458085D01*
X231727D01*
X230481D01*
X230470D01*
X230426D01*
X230361D01*
X230273D01*
X230175D01*
X230055D01*
X229792Y458096D01*
X229519D01*
X229246Y458107D01*
X229126Y458118D01*
X229016D01*
X228918Y458129D01*
X228841Y458140D01*
X228831D01*
X228787Y458150D01*
X228721Y458161D01*
X228634Y458194D01*
X228536Y458216D01*
X228426Y458260D01*
X228306Y458314D01*
X228186Y458369D01*
Y457396D01*
X228197Y457385D01*
X228240Y457374D01*
X228295Y457352D01*
X228382Y457320D01*
X228481Y457287D01*
X228601Y457265D01*
X228732Y457243D01*
X228874Y457221D01*
Y457210D01*
X228852Y457199D01*
X228798Y457134D01*
X228721Y457036D01*
X228623Y456904D01*
X228524Y456741D01*
X228415Y456576D01*
X228317Y456402D01*
X228240Y456216D01*
X228229Y456194D01*
X228219Y456128D01*
X228186Y456030D01*
X228153Y455910D01*
X228120Y455757D01*
X228098Y455582D01*
X228076Y455385D01*
X228065Y455188D01*
Y458369D01*
X233793D01*
D02*
G37*
G36*
X244957Y455145D02*
X237273D01*
X237393D01*
Y454281D01*
X238082D01*
X238071Y454270D01*
X238049Y454259D01*
X238005Y454227D01*
X237951Y454183D01*
X237896Y454128D01*
X237830Y454063D01*
X237754Y453986D01*
X237677Y453888D01*
X237601Y453789D01*
X237524Y453680D01*
X237459Y453549D01*
X237404Y453407D01*
X237349Y453265D01*
X237306Y453101D01*
X237284Y452926D01*
X237273Y452740D01*
Y452674D01*
X237284Y452631D01*
X237295Y452500D01*
X237317Y452347D01*
X237360Y452161D01*
X237426Y451953D01*
X237513Y451746D01*
X237634Y451538D01*
Y451527D01*
X237655Y451516D01*
X237699Y451450D01*
X237787Y451352D01*
X237896Y451232D01*
X238038Y451090D01*
X238213Y450948D01*
X238410Y450806D01*
X238639Y450685D01*
X238650D01*
X238672Y450674D01*
X238705Y450663D01*
X238749Y450641D01*
X238814Y450620D01*
X238891Y450587D01*
X238967Y450565D01*
X239065Y450543D01*
X239284Y450489D01*
X239535Y450434D01*
X239820Y450401D01*
X240126Y450390D01*
X240268D01*
X240333Y450401D01*
X240421D01*
X240617Y450423D01*
X240847Y450456D01*
X241098Y450510D01*
X241361Y450576D01*
X241612Y450663D01*
X241623D01*
X241645Y450674D01*
X241678Y450696D01*
X241721Y450718D01*
X241842Y450784D01*
X241995Y450871D01*
X242159Y450980D01*
X242323Y451123D01*
X242497Y451286D01*
X242640Y451483D01*
Y451494D01*
X242651Y451505D01*
X242672Y451538D01*
X242694Y451581D01*
X242749Y451691D01*
X242825Y451844D01*
X242891Y452019D01*
X242946Y452226D01*
X242989Y452456D01*
X243000Y452696D01*
Y452784D01*
X242989Y452871D01*
X242978Y452991D01*
X242946Y453134D01*
X242913Y453287D01*
X242858Y453440D01*
X242782Y453582D01*
X242771Y453604D01*
X242749Y453647D01*
X242694Y453713D01*
X242640Y453800D01*
X242563Y453910D01*
X242465Y454008D01*
X242366Y454117D01*
X242246Y454216D01*
X244957D01*
Y450718D01*
Y455145D01*
D02*
G37*
G36*
Y449297D02*
X237393D01*
Y448368D01*
X244957D01*
Y449297D01*
D02*
G37*
G36*
X254306Y453265D02*
D01*
X248732Y451177D01*
X248721D01*
X248688Y451166D01*
X248644Y451144D01*
X248590Y451123D01*
X248513Y451090D01*
X248426Y451057D01*
X248240Y450980D01*
X248032Y450904D01*
X247825Y450816D01*
X247639Y450729D01*
X247562Y450685D01*
X247486Y450653D01*
X247464Y450641D01*
X247409Y450609D01*
X247333Y450554D01*
X247235Y450489D01*
X247125Y450401D01*
X247016Y450303D01*
X246907Y450204D01*
X246819Y450084D01*
X246808Y450073D01*
X246786Y450029D01*
X246754Y449964D01*
X246710Y449865D01*
X246666Y449756D01*
X246633Y449625D01*
X246611Y449483D01*
X246601Y449319D01*
Y449275D01*
X246611Y449221D01*
Y449144D01*
X246633Y449057D01*
X246655Y448958D01*
X246677Y448849D01*
X246721Y448729D01*
X247584Y448630D01*
Y448641D01*
X247573Y448685D01*
X247562Y448740D01*
X247541Y448805D01*
X247508Y448980D01*
X247497Y449155D01*
Y449210D01*
X247508Y449264D01*
Y449330D01*
X247541Y449494D01*
X247573Y449570D01*
X247606Y449647D01*
Y449658D01*
X247628Y449680D01*
X247650Y449713D01*
X247683Y449756D01*
X247770Y449855D01*
X247890Y449942D01*
X247901D01*
X247923Y449964D01*
X247967Y449986D01*
X248032Y450008D01*
X248120Y450051D01*
X248251Y450095D01*
X248404Y450161D01*
X248590Y450226D01*
X248601D01*
X248644Y450248D01*
X248721Y450270D01*
X248819Y450314D01*
X254306Y448237D01*
Y453265D01*
D02*
G37*
G36*
X233793Y452205D02*
X228186D01*
Y447756D01*
X233793D01*
X233673D01*
Y448587D01*
X232886D01*
X232896Y448598D01*
X232929Y448620D01*
X232973Y448652D01*
X233028Y448696D01*
X233093Y448762D01*
X233170Y448838D01*
X233257Y448925D01*
X233345Y449035D01*
X233421Y449144D01*
X233509Y449275D01*
X233585Y449417D01*
X233651Y449570D01*
X233705Y449745D01*
X233749Y449920D01*
X233782Y450117D01*
X233793Y450325D01*
Y450423D01*
Y450412D01*
X233782Y450499D01*
X233771Y450620D01*
X233749Y450762D01*
X233716Y450915D01*
X233673Y451079D01*
X233607Y451232D01*
X233596Y451254D01*
X233574Y451297D01*
X233541Y451374D01*
X233487Y451461D01*
X233421Y451571D01*
X233334Y451669D01*
X233246Y451767D01*
X233137Y451855D01*
X233126Y451866D01*
X233082Y451888D01*
X233028Y451920D01*
X232951Y451975D01*
X232842Y452019D01*
X232733Y452062D01*
X232601Y452117D01*
X232459Y452150D01*
X232448D01*
X232405Y452161D01*
X232339Y452172D01*
X232252Y452183D01*
X232120D01*
X231967Y452194D01*
X231782Y452205D01*
X233793D01*
D02*
G37*
G36*
X228186Y446958D02*
D01*
Y446936D01*
X228175Y446892D01*
X228164Y446816D01*
X228153Y446718D01*
X228131Y446608D01*
X228120Y446488D01*
X228109Y446248D01*
Y446958D01*
X228186D01*
X228109D01*
Y444280D01*
D01*
Y446160D01*
X228120Y446073D01*
X228131Y445963D01*
X228142Y445832D01*
X228175Y445701D01*
X228208Y445581D01*
X228262Y445461D01*
X228273Y445450D01*
X228295Y445417D01*
X228328Y445373D01*
X228382Y445308D01*
X228437Y445253D01*
X228514Y445188D01*
X228590Y445122D01*
X228689Y445078D01*
X228699D01*
X228743Y445056D01*
X228820Y445045D01*
X228929Y445023D01*
X229071Y445002D01*
X229158Y444991D01*
X229257D01*
X229377Y444980D01*
X229497Y444969D01*
X229628D01*
X229782D01*
X232951D01*
Y444280D01*
X228109D01*
X235585D01*
X233673D01*
Y444969D01*
X235028D01*
X235585Y445898D01*
X233673D01*
Y446838D01*
X232951D01*
Y445898D01*
X229727D01*
X229705D01*
X229661D01*
X229596D01*
X229519Y445909D01*
X229344Y445920D01*
X229268Y445931D01*
X229213Y445942D01*
X229191Y445953D01*
X229148Y445985D01*
X229093Y446029D01*
X229038Y446106D01*
X229027Y446127D01*
X229006Y446182D01*
X228984Y446280D01*
X228973Y446422D01*
Y446532D01*
X228984Y446587D01*
Y446663D01*
X228994Y446750D01*
X229006Y446838D01*
X228186Y446958D01*
D02*
G37*
G36*
X256383Y447515D02*
D01*
Y444772D01*
X256372Y444849D01*
Y444936D01*
X256350Y445133D01*
X256328Y445351D01*
X256285Y445581D01*
X256230Y445811D01*
X256153Y446018D01*
Y446029D01*
X256142Y446040D01*
X256110Y446106D01*
X256055Y446204D01*
X255978Y446313D01*
X255880Y446444D01*
X255760Y446587D01*
X255607Y446718D01*
X255443Y446838D01*
X255421Y446849D01*
X255356Y446882D01*
X255268Y446936D01*
X255137Y446991D01*
X254984Y447046D01*
X254820Y447100D01*
X254634Y447133D01*
X254448Y447144D01*
X254427D01*
X254372D01*
X254273Y447133D01*
X254153Y447111D01*
X254011Y447078D01*
X253858Y447024D01*
X253705Y446958D01*
X253541Y446871D01*
X253519Y446860D01*
X253476Y446827D01*
X253388Y446761D01*
X253301Y446674D01*
X253191Y446565D01*
X253071Y446433D01*
X252962Y446270D01*
X252853Y446084D01*
Y446095D01*
X252842Y446116D01*
X252831Y446149D01*
X252809Y446193D01*
X252765Y446324D01*
X252689Y446477D01*
X252590Y446641D01*
X252470Y446827D01*
X252328Y446991D01*
X252153Y447144D01*
X252131Y447155D01*
X252066Y447199D01*
X251967Y447264D01*
X251836Y447330D01*
X251661Y447395D01*
X251475Y447461D01*
X251257Y447505D01*
X251016Y447515D01*
X256383D01*
X248819D01*
X250929D01*
X250820Y447505D01*
X250688Y447483D01*
X250535Y447461D01*
X250371Y447417D01*
X250197Y447363D01*
X250022Y447286D01*
X250000Y447275D01*
X249945Y447242D01*
X249869Y447199D01*
X249759Y447133D01*
X249650Y447046D01*
X249530Y446958D01*
X249410Y446849D01*
X249311Y446729D01*
X249300Y446718D01*
X249268Y446674D01*
X249224Y446597D01*
X249180Y446499D01*
X249114Y446379D01*
X249049Y446237D01*
X248994Y446084D01*
X248940Y445898D01*
Y445876D01*
X248918Y445811D01*
X248907Y445701D01*
X248885Y445559D01*
X248863Y445384D01*
X248841Y445177D01*
X248830Y444947D01*
X248819Y444685D01*
Y441799D01*
X256383D01*
Y447515D01*
D02*
G37*
G36*
X243000Y447253D02*
X240005D01*
X239896Y447242D01*
Y443144D01*
X239885D01*
X239852D01*
X239809Y443154D01*
X239743D01*
X239667Y443165D01*
X239579Y443187D01*
X239382Y443220D01*
X239164Y443286D01*
X238923Y443373D01*
X238705Y443493D01*
X238508Y443646D01*
Y443657D01*
X238486Y443668D01*
X238432Y443734D01*
X238355Y443832D01*
X238279Y443963D01*
X238191Y444138D01*
X238115Y444335D01*
X238060Y444554D01*
X238049Y444674D01*
X238038Y444805D01*
Y444892D01*
X238049Y444991D01*
X238071Y445111D01*
X238104Y445242D01*
X238147Y445395D01*
X238213Y445537D01*
X238300Y445679D01*
X238311Y445690D01*
X238355Y445745D01*
X238421Y445811D01*
X238508Y445887D01*
X238628Y445974D01*
X238781Y446073D01*
X238956Y446171D01*
X239164Y446259D01*
X239044Y447220D01*
X239033D01*
X239011Y447210D01*
X238967Y447199D01*
X238901Y447177D01*
X238836Y447144D01*
X238749Y447111D01*
X238563Y447024D01*
X238355Y446914D01*
X238136Y446761D01*
X237929Y446587D01*
X237732Y446368D01*
Y446357D01*
X237710Y446335D01*
X237688Y446302D01*
X237655Y446259D01*
X237623Y446193D01*
X237590Y446127D01*
X237546Y446040D01*
X237502Y445942D01*
X237459Y445832D01*
X237415Y445723D01*
X237349Y445450D01*
X237295Y445144D01*
X237273Y444805D01*
Y444685D01*
X237284Y444608D01*
X237295Y444510D01*
X237317Y444390D01*
X237338Y444258D01*
X237360Y444116D01*
X237448Y443810D01*
X237513Y443646D01*
X237579Y443493D01*
X237666Y443329D01*
X237765Y443176D01*
X237874Y443034D01*
X238005Y442892D01*
X238016Y442881D01*
X238038Y442859D01*
X238082Y442827D01*
X238147Y442783D01*
X238224Y442728D01*
X238311Y442674D01*
X238421Y442608D01*
X238541Y442542D01*
X238683Y442477D01*
X238836Y442411D01*
X239011Y442357D01*
X239197Y442302D01*
X239393Y442258D01*
X239612Y442225D01*
X239842Y442204D01*
X240082Y442193D01*
X240213D01*
X240312Y442204D01*
X240432Y442214D01*
X240563Y442225D01*
X240716Y442247D01*
X240869Y442280D01*
X241219Y442368D01*
X241393Y442422D01*
X241579Y442488D01*
X241754Y442575D01*
X241918Y442674D01*
X242082Y442783D01*
X242235Y442903D01*
X242246Y442914D01*
X242268Y442936D01*
X242301Y442980D01*
X242355Y443034D01*
X242410Y443100D01*
X242476Y443187D01*
X242552Y443286D01*
X242618Y443406D01*
X242694Y443526D01*
X242760Y443668D01*
X242825Y443821D01*
X242880Y443985D01*
X242935Y444160D01*
X242968Y444346D01*
X242989Y444543D01*
X243000Y444750D01*
Y444860D01*
X242989Y444936D01*
X242978Y445023D01*
X242956Y445133D01*
X242935Y445253D01*
X242902Y445395D01*
X242869Y445526D01*
X242814Y445679D01*
X242760Y445821D01*
X242683Y445974D01*
X242596Y446127D01*
X242497Y446280D01*
X242377Y446422D01*
X242246Y446554D01*
X242235Y446565D01*
X242213Y446587D01*
X242170Y446619D01*
X242104Y446663D01*
X242027Y446718D01*
X241940Y446772D01*
X241831Y446838D01*
X241700Y446904D01*
X241558Y446969D01*
X241405Y447035D01*
X241230Y447089D01*
X241044Y447144D01*
X240836Y447188D01*
X240617Y447220D01*
X240388Y447242D01*
X240137Y447253D01*
X243000D01*
D02*
G37*
G36*
X235585Y444018D02*
Y442958D01*
X233673D01*
Y443898D01*
X232951D01*
Y442958D01*
X229727D01*
X229705D01*
X229661D01*
X229596D01*
X229519Y442969D01*
X229344Y442980D01*
X229268Y442990D01*
X229213Y443002D01*
X229191Y443012D01*
X229148Y443045D01*
X229093Y443089D01*
X229038Y443165D01*
X229027Y443187D01*
X229006Y443242D01*
X228984Y443340D01*
X228973Y443482D01*
Y443592D01*
X228984Y443646D01*
Y443723D01*
X228994Y443810D01*
X229006Y443898D01*
X228186Y444018D01*
D01*
Y443996D01*
X228175Y443952D01*
X228164Y443876D01*
X228153Y443778D01*
X228131Y443668D01*
X228120Y443548D01*
X228109Y443307D01*
Y443373D01*
Y443220D01*
X228120Y443133D01*
X228131Y443023D01*
X228142Y442892D01*
X228175Y442761D01*
X228208Y442641D01*
X228262Y442521D01*
X228273Y442510D01*
X228295Y442477D01*
X228328Y442433D01*
X228382Y442368D01*
X228437Y442313D01*
X228514Y442247D01*
X228590Y442182D01*
X228689Y442138D01*
X228699D01*
X228743Y442116D01*
X228820Y442105D01*
X228929Y442083D01*
X229071Y442062D01*
X229158Y442051D01*
X229257D01*
X229377Y442040D01*
X229497Y442029D01*
X229628D01*
X229782D01*
X232951D01*
Y441340D01*
X228109D01*
X235585D01*
Y444018D01*
D02*
G37*
G36*
X244957Y441089D02*
X243501D01*
X243897D01*
Y440160D01*
X244957D01*
Y441089D01*
D02*
G37*
G36*
X242880D02*
X237393D01*
Y440160D01*
X243501D01*
X242880D01*
Y441089D01*
D02*
G37*
G36*
X244989Y439821D02*
D01*
X244181Y439679D01*
Y439668D01*
X244192Y439635D01*
X244202Y439580D01*
X244214Y439504D01*
Y439416D01*
X244224Y439329D01*
X244235Y439132D01*
Y439067D01*
X244224Y438990D01*
X244214Y438903D01*
X244192Y438804D01*
X244159Y438706D01*
X244115Y438619D01*
X244050Y438542D01*
X244039Y438531D01*
X244017Y438520D01*
X243973Y438487D01*
X243897Y438455D01*
X243809Y438422D01*
X243700Y438400D01*
X243558Y438378D01*
X243383Y438367D01*
X242880D01*
Y439427D01*
X242159D01*
Y438367D01*
X237393D01*
Y439821D01*
D01*
Y436618D01*
Y437438D01*
X242159D01*
Y436618D01*
X237393D01*
X245088D01*
X242880D01*
Y437438D01*
X243459D01*
X243470D01*
X243481D01*
X243547D01*
X243645Y437449D01*
X243765D01*
X243897Y437460D01*
X244039Y437482D01*
X244170Y437504D01*
X244279Y437536D01*
X244290Y437547D01*
X244345Y437558D01*
X244410Y437591D01*
X244487Y437646D01*
X244574Y437711D01*
X244672Y437788D01*
X244771Y437886D01*
X244858Y438006D01*
X244869Y438017D01*
X244891Y438072D01*
X244935Y438148D01*
X244979Y438258D01*
X245011Y438389D01*
X245055Y438553D01*
X245077Y438739D01*
X245088Y438957D01*
Y439110D01*
X245077Y439209D01*
X245066Y439340D01*
X245044Y439493D01*
X245022Y439646D01*
X244989Y439821D01*
D02*
G37*
G36*
X233793Y440728D02*
X228065D01*
Y435678D01*
D01*
Y437460D01*
X228076Y437394D01*
Y437318D01*
X228087Y437230D01*
X228120Y437034D01*
X228175Y436815D01*
X228251Y436575D01*
X228361Y436356D01*
X228503Y436159D01*
X228524Y436137D01*
X228579Y436083D01*
X228678Y436006D01*
X228809Y435919D01*
X228973Y435831D01*
X229158Y435755D01*
X229388Y435700D01*
X229497Y435689D01*
X229628Y435678D01*
X229694D01*
X229771Y435689D01*
X229869Y435700D01*
X229989Y435722D01*
X230109Y435755D01*
X230241Y435799D01*
X230361Y435853D01*
X230372Y435864D01*
X230415Y435886D01*
X230481Y435930D01*
X230557Y435984D01*
X230645Y436050D01*
X230732Y436137D01*
X230820Y436225D01*
X230896Y436334D01*
X230907Y436345D01*
X230929Y436389D01*
X230973Y436444D01*
X231017Y436531D01*
X231060Y436629D01*
X231115Y436750D01*
X231159Y436870D01*
X231202Y437012D01*
Y437023D01*
X231213Y437067D01*
X231235Y437132D01*
X231246Y437219D01*
X231268Y437329D01*
X231290Y437471D01*
X231323Y437635D01*
X231345Y437832D01*
Y437843D01*
X231355Y437886D01*
Y437941D01*
X231366Y438017D01*
X231377Y438105D01*
X231399Y438214D01*
X231410Y438334D01*
X231432Y438465D01*
X231487Y438728D01*
X231541Y439012D01*
X231607Y439263D01*
X231640Y439384D01*
X231672Y439493D01*
X231683D01*
X231705D01*
X231771Y439504D01*
X231847D01*
X231891D01*
X231913D01*
X231924D01*
X231935D01*
X232000D01*
X232110Y439493D01*
X232230Y439471D01*
X232361Y439438D01*
X232492Y439384D01*
X232612Y439318D01*
X232711Y439231D01*
X232722Y439220D01*
X232765Y439165D01*
X232809Y439078D01*
X232875Y438968D01*
X232929Y438815D01*
X232984Y438640D01*
X233017Y438422D01*
X233028Y438170D01*
Y438061D01*
X233017Y437952D01*
X232995Y437799D01*
X232973Y437646D01*
X232929Y437482D01*
X232875Y437329D01*
X232798Y437198D01*
X232787Y437187D01*
X232754Y437143D01*
X232700Y437088D01*
X232612Y437023D01*
X232503Y436957D01*
X232361Y436881D01*
X232186Y436815D01*
X231989Y436750D01*
X232110Y435842D01*
X232120D01*
X232131Y435853D01*
X232164D01*
X232208Y435864D01*
X232306Y435897D01*
X232448Y435941D01*
X232591Y435995D01*
X232744Y436061D01*
X232896Y436148D01*
X233039Y436247D01*
X233050Y436258D01*
X233093Y436301D01*
X233159Y436367D01*
X233246Y436454D01*
X233334Y436575D01*
X233421Y436717D01*
X233520Y436881D01*
X233596Y437067D01*
Y437077D01*
X233607Y437088D01*
X233618Y437121D01*
X233629Y437165D01*
X233662Y437274D01*
X233694Y437427D01*
X233727Y437602D01*
X233760Y437821D01*
X233782Y438050D01*
X233793Y438312D01*
Y438433D01*
X233782Y438553D01*
X233771Y438717D01*
X233749Y438903D01*
X233716Y439088D01*
X233673Y439274D01*
X233618Y439449D01*
X233607Y439471D01*
X233585Y439526D01*
X233552Y439602D01*
X233509Y439701D01*
X233443Y439810D01*
X233378Y439919D01*
X233290Y440018D01*
X233203Y440105D01*
X233192Y440116D01*
X233159Y440138D01*
X233104Y440171D01*
X233039Y440214D01*
X232940Y440269D01*
X232842Y440313D01*
X232722Y440356D01*
X232580Y440389D01*
X232569D01*
X232536Y440400D01*
X232470Y440411D01*
X232383Y440422D01*
X232263D01*
X232120Y440433D01*
X231935Y440444D01*
X231727D01*
X230481D01*
X230470D01*
X230426D01*
X230361D01*
X230273D01*
X230175D01*
X230055D01*
X229792Y440455D01*
X229519D01*
X229246Y440466D01*
X229126Y440477D01*
X229016D01*
X228918Y440488D01*
X228841Y440498D01*
X228831D01*
X228787Y440509D01*
X228721Y440520D01*
X228634Y440553D01*
X228536Y440575D01*
X228426Y440619D01*
X228306Y440673D01*
X228186Y440728D01*
Y439755D01*
X228197Y439744D01*
X228240Y439733D01*
X228295Y439712D01*
X228382Y439679D01*
X228481Y439646D01*
X228601Y439624D01*
X228732Y439602D01*
X228874Y439580D01*
Y439569D01*
X228852Y439559D01*
X228798Y439493D01*
X228721Y439395D01*
X228623Y439263D01*
X228524Y439099D01*
X228415Y438936D01*
X228317Y438761D01*
X228240Y438575D01*
X228229Y438553D01*
X228219Y438487D01*
X228186Y438389D01*
X228153Y438269D01*
X228120Y438116D01*
X228098Y437941D01*
X228076Y437744D01*
X228065Y437547D01*
Y440728D01*
X233793D01*
D02*
G37*
G36*
X237393Y436422D02*
D01*
Y436400D01*
X237382Y436356D01*
X237371Y436279D01*
X237360Y436181D01*
X237338Y436072D01*
X237328Y435952D01*
X237317Y435711D01*
Y436422D01*
D01*
Y433744D01*
D01*
Y435624D01*
X237328Y435536D01*
X237338Y435427D01*
X237349Y435296D01*
X237382Y435165D01*
X237415Y435044D01*
X237470Y434924D01*
X237481Y434913D01*
X237502Y434880D01*
X237535Y434837D01*
X237590Y434771D01*
X237645Y434717D01*
X237721Y434651D01*
X237798Y434585D01*
X237896Y434542D01*
X237907D01*
X237951Y434520D01*
X238027Y434509D01*
X238136Y434487D01*
X238279Y434465D01*
X238366Y434454D01*
X238464D01*
X238584Y434443D01*
X238705Y434432D01*
X238836D01*
X238989D01*
X242159D01*
Y433744D01*
X237317D01*
X244793D01*
X242880D01*
Y434432D01*
X244235D01*
X244793Y435361D01*
X242880D01*
Y436301D01*
X242159D01*
Y435361D01*
X238934D01*
X238912D01*
X238869D01*
X238803D01*
X238727Y435372D01*
X238552Y435383D01*
X238475Y435394D01*
X238421Y435405D01*
X238399Y435416D01*
X238355Y435449D01*
X238300Y435493D01*
X238246Y435569D01*
X238235Y435591D01*
X238213Y435646D01*
X238191Y435744D01*
X238180Y435886D01*
Y435995D01*
X238191Y436050D01*
Y436127D01*
X238202Y436214D01*
X238213Y436301D01*
X237393Y436422D01*
D02*
G37*
G36*
X256383Y437307D02*
X248699D01*
X248819D01*
Y436444D01*
X249508D01*
X249497Y436433D01*
X249475Y436422D01*
X249431Y436389D01*
X249377Y436345D01*
X249322Y436290D01*
X249257Y436225D01*
X249180Y436148D01*
X249103Y436050D01*
X249027Y435952D01*
X248951Y435842D01*
X248885Y435711D01*
X248830Y435569D01*
X248776Y435427D01*
X248732Y435263D01*
X248710Y435088D01*
X248699Y434902D01*
Y432552D01*
D01*
Y434837D01*
X248710Y434793D01*
X248721Y434662D01*
X248743Y434509D01*
X248787Y434323D01*
X248852Y434115D01*
X248940Y433908D01*
X249060Y433700D01*
Y433689D01*
X249082Y433678D01*
X249125Y433613D01*
X249213Y433514D01*
X249322Y433394D01*
X249464Y433252D01*
X249639Y433110D01*
X249836Y432968D01*
X250065Y432847D01*
X250076D01*
X250098Y432837D01*
X250131Y432826D01*
X250175Y432804D01*
X250240Y432782D01*
X250317Y432749D01*
X250393Y432727D01*
X250492Y432705D01*
X250710Y432651D01*
X250962Y432596D01*
X251246Y432563D01*
X251552Y432552D01*
X251694D01*
X251760Y432563D01*
X251847D01*
X252044Y432585D01*
X252273Y432618D01*
X252525Y432673D01*
X252787Y432738D01*
X253038Y432826D01*
X253049D01*
X253071Y432837D01*
X253104Y432858D01*
X253148Y432880D01*
X253268Y432946D01*
X253421Y433033D01*
X253585Y433143D01*
X253749Y433285D01*
X253924Y433449D01*
X254066Y433645D01*
Y433656D01*
X254077Y433667D01*
X254099Y433700D01*
X254120Y433744D01*
X254175Y433853D01*
X254252Y434006D01*
X254317Y434181D01*
X254372Y434389D01*
X254415Y434618D01*
X254427Y434859D01*
Y434946D01*
X254415Y435034D01*
X254405Y435154D01*
X254372Y435296D01*
X254339Y435449D01*
X254284Y435602D01*
X254208Y435744D01*
X254197Y435766D01*
X254175Y435810D01*
X254120Y435875D01*
X254066Y435962D01*
X253989Y436072D01*
X253891Y436170D01*
X253793Y436279D01*
X253672Y436378D01*
X256383D01*
Y437307D01*
D02*
G37*
G36*
X243000Y433132D02*
Y430836D01*
X242989Y430957D01*
X242978Y431121D01*
X242956Y431306D01*
X242924Y431492D01*
X242880Y431678D01*
X242825Y431853D01*
X242814Y431875D01*
X242793Y431929D01*
X242760Y432006D01*
X242716Y432104D01*
X242651Y432214D01*
X242585Y432323D01*
X242497Y432421D01*
X242410Y432509D01*
X242399Y432520D01*
X242366Y432541D01*
X242312Y432574D01*
X242246Y432618D01*
X242148Y432673D01*
X242049Y432716D01*
X241929Y432760D01*
X241787Y432793D01*
X241776D01*
X241743Y432804D01*
X241678Y432815D01*
X241590Y432826D01*
X241470D01*
X241328Y432837D01*
X241142Y432847D01*
X240934D01*
X239688D01*
X239678D01*
X239634D01*
X239568D01*
X239481D01*
X239382D01*
X239262D01*
X239000Y432858D01*
X238727D01*
X238453Y432869D01*
X238333Y432880D01*
X238224D01*
X238125Y432891D01*
X238049Y432902D01*
X238038D01*
X237994Y432913D01*
X237929Y432924D01*
X237841Y432957D01*
X237743Y432979D01*
X237634Y433022D01*
X237513Y433077D01*
X237393Y433132D01*
Y432159D01*
X237404Y432148D01*
X237448Y432137D01*
X237502Y432115D01*
X237590Y432082D01*
X237688Y432050D01*
X237808Y432028D01*
X237940Y432006D01*
X238082Y431984D01*
Y431973D01*
X238060Y431962D01*
X238005Y431897D01*
X237929Y431798D01*
X237830Y431667D01*
X237732Y431503D01*
X237623Y431339D01*
X237524Y431164D01*
X237448Y430978D01*
X237437Y430957D01*
X237426Y430891D01*
X237393Y430793D01*
X237360Y430672D01*
X237328Y430519D01*
X237306Y430344D01*
X237284Y430148D01*
X237273Y429951D01*
Y429864D01*
X237284Y429798D01*
Y429721D01*
X237295Y429634D01*
X237328Y429437D01*
X237382Y429219D01*
X237459Y428978D01*
X237568Y428760D01*
X237710Y428563D01*
X237732Y428541D01*
X237787Y428486D01*
X237885Y428410D01*
X238016Y428323D01*
X238180Y428235D01*
X238366Y428159D01*
X238595Y428104D01*
X238705Y428093D01*
X238836Y428082D01*
X238901D01*
X238978Y428093D01*
X239076Y428104D01*
X239197Y428126D01*
X239317Y428159D01*
X239448Y428202D01*
X239568Y428257D01*
X239579Y428268D01*
X239623Y428290D01*
X239688Y428333D01*
X239765Y428388D01*
X239852Y428454D01*
X239940Y428541D01*
X240027Y428628D01*
X240104Y428738D01*
X240115Y428749D01*
X240137Y428792D01*
X240180Y428847D01*
X240224Y428935D01*
X240268Y429033D01*
X240322Y429153D01*
X240366Y429273D01*
X240410Y429416D01*
Y429426D01*
X240421Y429470D01*
X240443Y429536D01*
X240454Y429623D01*
X240475Y429732D01*
X240497Y429875D01*
X240530Y430038D01*
X240552Y430235D01*
Y430246D01*
X240563Y430290D01*
Y430344D01*
X240574Y430421D01*
X240585Y430509D01*
X240607Y430618D01*
X240617Y430738D01*
X240639Y430869D01*
X240694Y431132D01*
X240749Y431416D01*
X240814Y431667D01*
X240847Y431787D01*
X240880Y431897D01*
X240891D01*
X240913D01*
X240978Y431908D01*
X241055D01*
X241098D01*
X241120D01*
X241131D01*
X241142D01*
X241208D01*
X241317Y431897D01*
X241437Y431875D01*
X241568Y431842D01*
X241700Y431787D01*
X241820Y431722D01*
X241918Y431634D01*
X241929Y431623D01*
X241973Y431569D01*
X242017Y431481D01*
X242082Y431372D01*
X242137Y431219D01*
X242191Y431044D01*
X242224Y430825D01*
X242235Y430574D01*
Y430465D01*
X242224Y430356D01*
X242202Y430202D01*
X242180Y430049D01*
X242137Y429885D01*
X242082Y429732D01*
X242006Y429601D01*
X241995Y429590D01*
X241962Y429547D01*
X241907Y429492D01*
X241820Y429426D01*
X241710Y429361D01*
X241568Y429284D01*
X241393Y429219D01*
X241197Y429153D01*
X241317Y428246D01*
X241328D01*
X241339Y428257D01*
X241372D01*
X241415Y428268D01*
X241514Y428301D01*
X241656Y428344D01*
X241798Y428399D01*
X241951Y428465D01*
X242104Y428552D01*
X242246Y428650D01*
X242257Y428661D01*
X242301Y428705D01*
X242366Y428771D01*
X242454Y428858D01*
X242541Y428978D01*
X242629Y429120D01*
X242727Y429284D01*
X242804Y429470D01*
Y429481D01*
X242814Y429492D01*
X242825Y429525D01*
X242836Y429568D01*
X242869Y429678D01*
X242902Y429831D01*
X242935Y430006D01*
X242968Y430224D01*
X242989Y430454D01*
X243000Y430716D01*
Y428082D01*
D01*
Y433132D01*
D02*
G37*
G36*
X235749Y434837D02*
X228186D01*
Y429066D01*
X235749D01*
Y432170D01*
X235738Y432334D01*
X235727Y432520D01*
X235717Y432716D01*
X235695Y432902D01*
X235673Y433066D01*
Y433088D01*
X235651Y433165D01*
X235629Y433263D01*
X235596Y433394D01*
X235542Y433536D01*
X235476Y433689D01*
X235400Y433853D01*
X235312Y433995D01*
X235301Y434017D01*
X235268Y434061D01*
X235203Y434126D01*
X235126Y434214D01*
X235028Y434312D01*
X234897Y434410D01*
X234755Y434520D01*
X234591Y434607D01*
X234569Y434618D01*
X234514Y434640D01*
X234416Y434684D01*
X234285Y434727D01*
X234132Y434760D01*
X233957Y434804D01*
X233760Y434826D01*
X233552Y434837D01*
X235749D01*
D02*
G37*
G36*
X254427Y431765D02*
X251432D01*
X251322Y431754D01*
Y427656D01*
X251311D01*
X251279D01*
X251235Y427667D01*
X251169D01*
X251093Y427678D01*
X251005Y427700D01*
X250809Y427732D01*
X250590Y427798D01*
X250350Y427885D01*
X250131Y428006D01*
X249934Y428159D01*
Y428169D01*
X249912Y428180D01*
X249858Y428246D01*
X249781Y428344D01*
X249705Y428476D01*
X249617Y428650D01*
X249541Y428847D01*
X249486Y429066D01*
X249475Y429186D01*
X249464Y429317D01*
Y429404D01*
X249475Y429503D01*
X249497Y429623D01*
X249530Y429754D01*
X249573Y429907D01*
X249639Y430049D01*
X249727Y430192D01*
X249738Y430202D01*
X249781Y430257D01*
X249847Y430323D01*
X249934Y430399D01*
X250055Y430487D01*
X250207Y430585D01*
X250382Y430683D01*
X250590Y430771D01*
X250470Y431733D01*
X250459D01*
X250437Y431722D01*
X250393Y431711D01*
X250328Y431689D01*
X250262Y431656D01*
X250175Y431623D01*
X249989Y431536D01*
X249781Y431427D01*
X249563Y431274D01*
X249355Y431099D01*
X249158Y430880D01*
Y430869D01*
X249136Y430847D01*
X249114Y430815D01*
X249082Y430771D01*
X249049Y430705D01*
X249016Y430640D01*
X248972Y430552D01*
X248929Y430454D01*
X248885Y430344D01*
X248841Y430235D01*
X248776Y429962D01*
X248721Y429656D01*
X248699Y429317D01*
Y429416D01*
Y429197D01*
X248710Y429120D01*
X248721Y429022D01*
X248743Y428902D01*
X248765Y428771D01*
X248787Y428628D01*
X248874Y428323D01*
X248940Y428159D01*
X249005Y428006D01*
X249093Y427842D01*
X249191Y427689D01*
X249300Y427546D01*
X249431Y427404D01*
X249442Y427393D01*
X249464Y427372D01*
X249508Y427339D01*
X249573Y427295D01*
X249650Y427240D01*
X249738Y427186D01*
X249847Y427120D01*
X249967Y427055D01*
X250109Y426989D01*
X250262Y426923D01*
X250437Y426869D01*
X250623Y426814D01*
X250820Y426770D01*
X251038Y426738D01*
X251268Y426716D01*
X251508Y426705D01*
X251639D01*
X251738Y426716D01*
X251858Y426727D01*
X251989Y426738D01*
X252142Y426759D01*
X252295Y426792D01*
X252645Y426880D01*
X252820Y426934D01*
X253006Y427000D01*
X253180Y427087D01*
X253344Y427186D01*
X253508Y427295D01*
X253661Y427415D01*
X253672Y427426D01*
X253694Y427448D01*
X253727Y427492D01*
X253782Y427546D01*
X253836Y427612D01*
X253902Y427700D01*
X253978Y427798D01*
X254044Y427918D01*
X254120Y428038D01*
X254186Y428180D01*
X254252Y428333D01*
X254306Y428497D01*
X254361Y428672D01*
X254394Y428858D01*
X254415Y429055D01*
X254427Y429262D01*
Y429372D01*
X254415Y429448D01*
X254405Y429536D01*
X254383Y429645D01*
X254361Y429765D01*
X254328Y429907D01*
X254295Y430038D01*
X254241Y430192D01*
X254186Y430334D01*
X254110Y430487D01*
X254022Y430640D01*
X253924Y430793D01*
X253803Y430935D01*
X253672Y431066D01*
X253661Y431077D01*
X253640Y431099D01*
X253596Y431132D01*
X253530Y431175D01*
X253454Y431230D01*
X253366Y431285D01*
X253257Y431350D01*
X253126Y431416D01*
X252984Y431481D01*
X252831Y431547D01*
X252656Y431601D01*
X252470Y431656D01*
X252262Y431700D01*
X252044Y431733D01*
X251814Y431754D01*
X251563Y431765D01*
X254427D01*
D02*
G37*
G36*
Y428738D02*
Y426705D01*
D01*
Y428738D01*
D02*
G37*
G36*
Y425590D02*
D01*
Y423798D01*
X254415Y423885D01*
X254405Y424005D01*
X254383Y424147D01*
X254350Y424300D01*
X254306Y424464D01*
X254241Y424617D01*
X254230Y424639D01*
X254208Y424683D01*
X254175Y424759D01*
X254120Y424847D01*
X254055Y424956D01*
X253967Y425054D01*
X253880Y425153D01*
X253771Y425240D01*
X253760Y425251D01*
X253716Y425273D01*
X253661Y425306D01*
X253585Y425360D01*
X253476Y425404D01*
X253366Y425448D01*
X253235Y425502D01*
X253093Y425535D01*
X253082D01*
X253038Y425546D01*
X252973Y425557D01*
X252885Y425568D01*
X252754D01*
X252601Y425579D01*
X252415Y425590D01*
X254427D01*
X248819D01*
Y424661D01*
X252142D01*
X252153D01*
X252164D01*
X252240D01*
X252339D01*
X252459Y424650D01*
X252601Y424639D01*
X252743Y424617D01*
X252874Y424584D01*
X252995Y424552D01*
X253006D01*
X253038Y424530D01*
X253093Y424497D01*
X253159Y424464D01*
X253224Y424409D01*
X253301Y424344D01*
X253377Y424257D01*
X253443Y424158D01*
X253454Y424147D01*
X253476Y424114D01*
X253497Y424049D01*
X253530Y423972D01*
X253563Y423885D01*
X253596Y423776D01*
X253607Y423644D01*
X253618Y423513D01*
Y423459D01*
X253607Y423415D01*
X253596Y423306D01*
X253574Y423164D01*
X253519Y423010D01*
X253454Y422836D01*
X253366Y422661D01*
X253235Y422497D01*
X253213Y422475D01*
X253159Y422431D01*
X253115Y422398D01*
X253060Y422366D01*
X252995Y422322D01*
X252918Y422289D01*
X252831Y422245D01*
X252721Y422202D01*
X252601Y422169D01*
X252470Y422136D01*
X252328Y422114D01*
X252175Y422092D01*
X251989Y422071D01*
X251803D01*
X248819D01*
Y421141D01*
X254427D01*
Y425590D01*
D02*
G37*
G36*
X244957Y426847D02*
X237393D01*
Y425841D01*
X240956D01*
Y421928D01*
X237393D01*
Y420923D01*
X244957D01*
Y426847D01*
D02*
G37*
G36*
X254427Y419732D02*
D01*
Y417371D01*
X254415Y417436D01*
X254405Y417513D01*
X254383Y417611D01*
X254361Y417720D01*
X254328Y417841D01*
X254284Y417961D01*
X254230Y418092D01*
X254164Y418223D01*
X254088Y418365D01*
X254000Y418496D01*
X253891Y418628D01*
X253771Y418759D01*
X253629Y418879D01*
X254306D01*
Y419732D01*
X249355D01*
X249257Y419721D01*
X249136D01*
X249005Y419710D01*
X248863Y419699D01*
X248568Y419666D01*
X248262Y419622D01*
X248120Y419589D01*
X247989Y419557D01*
X247868Y419513D01*
X247759Y419469D01*
X247748D01*
X247737Y419458D01*
X247672Y419415D01*
X247573Y419360D01*
X247453Y419272D01*
X247322Y419152D01*
X247180Y419010D01*
X247038Y418835D01*
X246918Y418639D01*
Y418628D01*
X246907Y418617D01*
X246885Y418584D01*
X246874Y418540D01*
X246841Y418485D01*
X246819Y418420D01*
X246764Y418256D01*
X246699Y418059D01*
X246655Y417819D01*
X246611Y417546D01*
X246601Y417251D01*
Y417152D01*
X246611Y417086D01*
Y416999D01*
X246622Y416912D01*
X246633Y416802D01*
X246655Y416682D01*
X246710Y416431D01*
X246786Y416168D01*
X246896Y415906D01*
X247049Y415665D01*
X247060Y415655D01*
X247071Y415644D01*
X247136Y415567D01*
X247235Y415480D01*
X247377Y415370D01*
X247562Y415261D01*
X247792Y415163D01*
X247923Y415130D01*
X248065Y415108D01*
X248207Y415086D01*
X248371D01*
X248251Y415993D01*
X248229D01*
X248185Y416004D01*
X248109Y416026D01*
X248011Y416048D01*
X247912Y416092D01*
X247814Y416147D01*
X247715Y416212D01*
X247639Y416299D01*
X247628Y416321D01*
X247595Y416365D01*
X247551Y416442D01*
X247508Y416551D01*
X247453Y416682D01*
X247409Y416846D01*
X247377Y417043D01*
X247366Y417250D01*
Y417360D01*
X247377Y417469D01*
X247398Y417622D01*
X247431Y417775D01*
X247475Y417939D01*
X247541Y418103D01*
X247628Y418245D01*
X247639Y418256D01*
X247672Y418300D01*
X247737Y418365D01*
X247814Y418442D01*
X247923Y418518D01*
X248043Y418595D01*
X248185Y418671D01*
X248349Y418726D01*
X248360D01*
X248404Y418737D01*
X248492Y418748D01*
X248601Y418759D01*
X248677Y418770D01*
X248765D01*
X248863Y418781D01*
X248972D01*
X249093D01*
X249235Y418791D01*
X249377D01*
X249541D01*
X249530Y418781D01*
X249508Y418759D01*
X249475Y418726D01*
X249431Y418682D01*
X249377Y418628D01*
X249311Y418551D01*
X249246Y418464D01*
X249180Y418376D01*
X249049Y418147D01*
X248929Y417895D01*
X248885Y417753D01*
X248852Y417600D01*
X248830Y417436D01*
X248819Y417272D01*
Y417218D01*
X248830Y417163D01*
Y417086D01*
X248841Y416988D01*
X248863Y416879D01*
X248885Y416758D01*
X248918Y416627D01*
X248961Y416485D01*
X249016Y416343D01*
X249082Y416201D01*
X249158Y416048D01*
X249257Y415906D01*
X249366Y415764D01*
X249486Y415633D01*
X249628Y415513D01*
X249639Y415502D01*
X249661Y415491D01*
X249716Y415458D01*
X249770Y415414D01*
X249858Y415370D01*
X249945Y415316D01*
X250055Y415261D01*
X250186Y415206D01*
X250317Y415152D01*
X250470Y415097D01*
X250623Y415042D01*
X250798Y414999D01*
X251169Y414922D01*
X251377Y414911D01*
X251585Y414900D01*
X254427D01*
Y419732D01*
D02*
G37*
G36*
X232120Y424628D02*
X228186D01*
Y417185D01*
X233793D01*
X233673D01*
Y418015D01*
X232886D01*
X232908Y418026D01*
X232951Y418059D01*
X233028Y418125D01*
X233115Y418201D01*
X233224Y418300D01*
X233334Y418420D01*
X233443Y418551D01*
X233541Y418704D01*
X233552Y418726D01*
X233585Y418781D01*
X233618Y418868D01*
X233673Y418988D01*
X233716Y419130D01*
X233749Y419294D01*
X233782Y419480D01*
X233793Y419677D01*
Y419775D01*
X233782Y419895D01*
X233760Y420027D01*
X233727Y420190D01*
X233683Y420355D01*
X233618Y420518D01*
X233530Y420672D01*
X233520Y420693D01*
X233487Y420737D01*
X233432Y420803D01*
X233345Y420890D01*
X233246Y420977D01*
X233126Y421076D01*
X232984Y421163D01*
X232820Y421229D01*
X232831Y421240D01*
X232864Y421262D01*
X232908Y421294D01*
X232973Y421349D01*
X233050Y421415D01*
X233126Y421491D01*
X233213Y421579D01*
X233312Y421688D01*
X233399Y421808D01*
X233487Y421928D01*
X233563Y422071D01*
X233640Y422224D01*
X233705Y422388D01*
X233749Y422562D01*
X233782Y422737D01*
X233793Y422934D01*
Y423010D01*
X233782Y423065D01*
Y423142D01*
X233771Y423218D01*
X233738Y423404D01*
X233683Y423601D01*
X233596Y423808D01*
X233487Y424016D01*
X233334Y424191D01*
X233312Y424213D01*
X233246Y424257D01*
X233148Y424333D01*
X233071Y424366D01*
X232995Y424409D01*
X232896Y424453D01*
X232798Y424486D01*
X232689Y424530D01*
X232558Y424563D01*
X232427Y424584D01*
X232274Y424606D01*
X232120Y424628D01*
D02*
G37*
G36*
X256383Y413840D02*
X254927D01*
X255323D01*
Y412911D01*
X256383D01*
Y413840D01*
D02*
G37*
G36*
X254306D02*
X248819D01*
Y412911D01*
X254927D01*
X254306D01*
Y413840D01*
D02*
G37*
G36*
X243000Y416398D02*
X237393D01*
Y411949D01*
X243000D01*
X242880D01*
Y412780D01*
X242093D01*
X242104Y412791D01*
X242137Y412813D01*
X242180Y412846D01*
X242235Y412889D01*
X242301Y412955D01*
X242377Y413031D01*
X242465Y413119D01*
X242552Y413228D01*
X242629Y413337D01*
X242716Y413469D01*
X242793Y413611D01*
X242858Y413764D01*
X242913Y413939D01*
X242956Y414114D01*
X242989Y414310D01*
X243000Y414518D01*
Y414605D01*
X242989Y414693D01*
X242978Y414813D01*
X242956Y414955D01*
X242924Y415108D01*
X242880Y415272D01*
X242814Y415425D01*
X242804Y415447D01*
X242782Y415491D01*
X242749Y415567D01*
X242694Y415655D01*
X242629Y415764D01*
X242541Y415862D01*
X242454Y415961D01*
X242344Y416048D01*
X242334Y416059D01*
X242290Y416081D01*
X242235Y416114D01*
X242159Y416168D01*
X242049Y416212D01*
X241940Y416256D01*
X241809Y416310D01*
X241667Y416343D01*
X241656D01*
X241612Y416354D01*
X241547Y416365D01*
X241459Y416376D01*
X241328D01*
X241175Y416387D01*
X240989Y416398D01*
X243000D01*
D02*
G37*
G36*
X233793Y416048D02*
X228065D01*
Y410998D01*
Y412780D01*
X228076Y412714D01*
Y412638D01*
X228087Y412550D01*
X228120Y412354D01*
X228175Y412135D01*
X228251Y411895D01*
X228361Y411676D01*
X228503Y411479D01*
X228524Y411457D01*
X228579Y411403D01*
X228678Y411326D01*
X228809Y411239D01*
X228973Y411151D01*
X229158Y411075D01*
X229388Y411020D01*
X229497Y411009D01*
X229628Y410998D01*
X229694D01*
X229771Y411009D01*
X229869Y411020D01*
X229989Y411042D01*
X230109Y411075D01*
X230241Y411119D01*
X230361Y411173D01*
X230372Y411184D01*
X230415Y411206D01*
X230481Y411250D01*
X230557Y411305D01*
X230645Y411370D01*
X230732Y411457D01*
X230820Y411545D01*
X230896Y411654D01*
X230907Y411665D01*
X230929Y411709D01*
X230973Y411763D01*
X231017Y411851D01*
X231060Y411949D01*
X231115Y412070D01*
X231159Y412190D01*
X231202Y412332D01*
Y412343D01*
X231213Y412387D01*
X231235Y412452D01*
X231246Y412539D01*
X231268Y412649D01*
X231290Y412791D01*
X231323Y412955D01*
X231345Y413152D01*
Y413163D01*
X231355Y413206D01*
Y413261D01*
X231366Y413337D01*
X231377Y413425D01*
X231399Y413534D01*
X231410Y413654D01*
X231432Y413786D01*
X231487Y414048D01*
X231541Y414332D01*
X231607Y414583D01*
X231640Y414704D01*
X231672Y414813D01*
X231683D01*
X231705D01*
X231771Y414824D01*
X231847D01*
X231891D01*
X231913D01*
X231924D01*
X231935D01*
X232000D01*
X232110Y414813D01*
X232230Y414791D01*
X232361Y414758D01*
X232492Y414704D01*
X232612Y414638D01*
X232711Y414551D01*
X232722Y414540D01*
X232765Y414485D01*
X232809Y414398D01*
X232875Y414288D01*
X232929Y414135D01*
X232984Y413961D01*
X233017Y413742D01*
X233028Y413490D01*
Y413381D01*
X233017Y413272D01*
X232995Y413119D01*
X232973Y412966D01*
X232929Y412802D01*
X232875Y412649D01*
X232798Y412518D01*
X232787Y412507D01*
X232754Y412463D01*
X232700Y412408D01*
X232612Y412343D01*
X232503Y412277D01*
X232361Y412201D01*
X232186Y412135D01*
X231989Y412070D01*
X232110Y411162D01*
X232120D01*
X232131Y411173D01*
X232164D01*
X232208Y411184D01*
X232306Y411217D01*
X232448Y411261D01*
X232591Y411315D01*
X232744Y411381D01*
X232896Y411468D01*
X233039Y411567D01*
X233050Y411578D01*
X233093Y411621D01*
X233159Y411687D01*
X233246Y411774D01*
X233334Y411895D01*
X233421Y412037D01*
X233520Y412201D01*
X233596Y412387D01*
Y412397D01*
X233607Y412408D01*
X233618Y412441D01*
X233629Y412485D01*
X233662Y412594D01*
X233694Y412747D01*
X233727Y412922D01*
X233760Y413141D01*
X233782Y413370D01*
X233793Y413632D01*
Y413753D01*
X233782Y413873D01*
X233771Y414037D01*
X233749Y414223D01*
X233716Y414409D01*
X233673Y414594D01*
X233618Y414769D01*
X233607Y414791D01*
X233585Y414846D01*
X233552Y414922D01*
X233509Y415021D01*
X233443Y415130D01*
X233378Y415239D01*
X233290Y415338D01*
X233203Y415425D01*
X233192Y415436D01*
X233159Y415458D01*
X233104Y415491D01*
X233039Y415534D01*
X232940Y415589D01*
X232842Y415633D01*
X232722Y415676D01*
X232580Y415709D01*
X232569D01*
X232536Y415720D01*
X232470Y415731D01*
X232383Y415742D01*
X232263D01*
X232120Y415753D01*
X231935Y415764D01*
X231727D01*
X230481D01*
X230470D01*
X230426D01*
X230361D01*
X230273D01*
X230175D01*
X230055D01*
X229792Y415775D01*
X229519D01*
X229246Y415786D01*
X229126Y415797D01*
X229016D01*
X228918Y415808D01*
X228841Y415819D01*
X228831D01*
X228787Y415830D01*
X228721Y415840D01*
X228634Y415873D01*
X228536Y415895D01*
X228426Y415939D01*
X228306Y415993D01*
X228186Y416048D01*
Y415075D01*
X228197Y415064D01*
X228240Y415053D01*
X228295Y415032D01*
X228382Y414999D01*
X228481Y414966D01*
X228601Y414944D01*
X228732Y414922D01*
X228874Y414900D01*
Y414889D01*
X228852Y414879D01*
X228798Y414813D01*
X228721Y414715D01*
X228623Y414583D01*
X228524Y414420D01*
X228415Y414256D01*
X228317Y414081D01*
X228240Y413895D01*
X228229Y413873D01*
X228219Y413807D01*
X228186Y413709D01*
X228153Y413589D01*
X228120Y413436D01*
X228098Y413261D01*
X228076Y413064D01*
X228065Y412867D01*
Y416048D01*
X233793D01*
D02*
G37*
G36*
X254427Y411807D02*
X248699D01*
X250350D01*
X250262Y411796D01*
X250142Y411774D01*
X250011Y411742D01*
X249869Y411687D01*
X249705Y411621D01*
X249552Y411534D01*
X249530Y411523D01*
X249486Y411479D01*
X249410Y411425D01*
X249322Y411337D01*
X249224Y411217D01*
X249114Y411086D01*
X249016Y410933D01*
X248918Y410747D01*
Y410736D01*
X248907Y410725D01*
X248885Y410660D01*
X248852Y410550D01*
X248808Y410408D01*
X248765Y410233D01*
X248732Y410037D01*
X248710Y409829D01*
X248699Y409588D01*
Y407249D01*
Y409490D01*
X248710Y409414D01*
Y409326D01*
X248721Y409217D01*
X248732Y409107D01*
X248754Y408987D01*
X248808Y408725D01*
X248885Y408452D01*
X248994Y408189D01*
X249060Y408069D01*
X249136Y407960D01*
X249147Y407949D01*
X249158Y407938D01*
X249224Y407872D01*
X249322Y407774D01*
X249475Y407665D01*
X249661Y407545D01*
X249880Y407424D01*
X250153Y407326D01*
X250459Y407249D01*
D01*
X250601Y408168D01*
X250590D01*
X250579D01*
X250514Y408189D01*
X250404Y408211D01*
X250284Y408255D01*
X250153Y408310D01*
X250011Y408375D01*
X249869Y408474D01*
X249748Y408594D01*
X249738Y408616D01*
X249705Y408659D01*
X249661Y408747D01*
X249606Y408856D01*
X249552Y408998D01*
X249508Y409162D01*
X249475Y409359D01*
X249464Y409588D01*
Y409698D01*
X249475Y409807D01*
X249497Y409949D01*
X249530Y410102D01*
X249573Y410266D01*
X249628Y410408D01*
X249716Y410539D01*
X249727Y410550D01*
X249759Y410594D01*
X249814Y410638D01*
X249890Y410703D01*
X249978Y410758D01*
X250087Y410813D01*
X250197Y410845D01*
X250328Y410856D01*
X250339D01*
X250382D01*
X250437Y410845D01*
X250514Y410823D01*
X250590Y410791D01*
X250666Y410736D01*
X250754Y410671D01*
X250820Y410572D01*
X250831Y410561D01*
X250841Y410528D01*
X250874Y410474D01*
X250907Y410386D01*
X250951Y410255D01*
X250984Y410179D01*
X251005Y410091D01*
X251038Y409993D01*
X251071Y409884D01*
X251104Y409763D01*
X251136Y409621D01*
Y409610D01*
X251148Y409578D01*
X251158Y409523D01*
X251180Y409457D01*
X251202Y409370D01*
X251235Y409271D01*
X251290Y409064D01*
X251366Y408823D01*
X251432Y408594D01*
X251508Y408375D01*
X251552Y408277D01*
X251585Y408200D01*
X251596Y408179D01*
X251618Y408135D01*
X251661Y408069D01*
X251716Y407982D01*
X251792Y407883D01*
X251880Y407785D01*
X251978Y407687D01*
X252098Y407599D01*
X252109Y407588D01*
X252153Y407566D01*
X252229Y407534D01*
X252317Y407501D01*
X252426Y407468D01*
X252557Y407435D01*
X252689Y407413D01*
X252842Y407402D01*
X252864D01*
X252907D01*
X252973Y407413D01*
X253071Y407424D01*
X253169Y407446D01*
X253290Y407468D01*
X253399Y407512D01*
X253519Y407566D01*
X253530Y407577D01*
X253574Y407599D01*
X253629Y407632D01*
X253705Y407687D01*
X253782Y407752D01*
X253880Y407829D01*
X253967Y407916D01*
X254044Y408026D01*
X254055Y408036D01*
X254066Y408069D01*
X254099Y408113D01*
X254131Y408179D01*
X254175Y408266D01*
X254219Y408364D01*
X254262Y408485D01*
X254306Y408616D01*
X254317Y408638D01*
X254328Y408681D01*
X254350Y408758D01*
X254372Y408856D01*
X254394Y408976D01*
X254405Y409107D01*
X254427Y409261D01*
Y407534D01*
Y409523D01*
X254415Y409643D01*
X254405Y409807D01*
X254383Y409982D01*
X254339Y410168D01*
X254295Y410364D01*
X254230Y410550D01*
Y410561D01*
X254219Y410572D01*
X254197Y410627D01*
X254153Y410714D01*
X254099Y410823D01*
X254022Y410944D01*
X253935Y411064D01*
X253836Y411173D01*
X253727Y411272D01*
X253716Y411283D01*
X253672Y411305D01*
X253596Y411348D01*
X253508Y411403D01*
X253377Y411457D01*
X253235Y411512D01*
X253071Y411556D01*
X252885Y411600D01*
X252765Y410692D01*
X252787D01*
X252831Y410681D01*
X252907Y410660D01*
X253006Y410627D01*
X253104Y410572D01*
X253213Y410507D01*
X253323Y410430D01*
X253421Y410321D01*
X253432Y410310D01*
X253454Y410266D01*
X253497Y410201D01*
X253541Y410102D01*
X253585Y409993D01*
X253629Y409851D01*
X253650Y409676D01*
X253661Y409490D01*
Y409381D01*
X253650Y409271D01*
X253640Y409129D01*
X253607Y408987D01*
X253574Y408834D01*
X253519Y408692D01*
X253443Y408572D01*
X253432Y408561D01*
X253410Y408528D01*
X253366Y408485D01*
X253301Y408441D01*
X253235Y408386D01*
X253148Y408342D01*
X253049Y408310D01*
X252951Y408299D01*
X252940D01*
X252918D01*
X252885Y408310D01*
X252842D01*
X252732Y408342D01*
X252623Y408408D01*
X252612Y408419D01*
X252601Y408430D01*
X252568Y408452D01*
X252536Y408495D01*
X252503Y408539D01*
X252459Y408605D01*
X252426Y408681D01*
X252382Y408769D01*
Y408780D01*
X252372Y408802D01*
X252361Y408845D01*
X252328Y408922D01*
X252295Y409031D01*
X252262Y409173D01*
X252229Y409261D01*
X252208Y409359D01*
X252175Y409468D01*
X252142Y409588D01*
Y409599D01*
X252131Y409632D01*
X252120Y409687D01*
X252098Y409752D01*
X252077Y409829D01*
X252055Y409927D01*
X251989Y410135D01*
X251923Y410364D01*
X251847Y410594D01*
X251770Y410802D01*
X251738Y410889D01*
X251705Y410966D01*
X251694Y410988D01*
X251672Y411031D01*
X251639Y411097D01*
X251585Y411195D01*
X251519Y411294D01*
X251432Y411392D01*
X251333Y411490D01*
X251224Y411578D01*
X251213Y411589D01*
X251169Y411611D01*
X251104Y411654D01*
X251005Y411698D01*
X250885Y411731D01*
X250754Y411774D01*
X250601Y411796D01*
X250426Y411807D01*
X254427D01*
D02*
G37*
G36*
X233673Y410528D02*
X228186Y408802D01*
Y403009D01*
Y404670D01*
X233673Y403009D01*
Y403981D01*
X230503Y404856D01*
X229322Y405162D01*
X229333D01*
X229355Y405173D01*
X229410Y405184D01*
X229443Y405195D01*
X229497Y405205D01*
X229563Y405216D01*
X229639Y405238D01*
X229727Y405260D01*
X229836Y405293D01*
X229956Y405326D01*
X230099Y405359D01*
X230262Y405402D01*
X230448Y405446D01*
X233673Y406320D01*
Y406145D01*
Y406320D01*
Y407271D01*
X230481Y408091D01*
X229432Y408364D01*
X230492Y408681D01*
X233673Y409621D01*
Y407413D01*
Y409621D01*
Y410528D01*
D02*
G37*
G36*
X244957Y410518D02*
X237393D01*
Y406069D01*
X244957D01*
Y406998D01*
X242246D01*
X242257Y407009D01*
X242279Y407031D01*
X242312Y407064D01*
X242366Y407118D01*
X242421Y407173D01*
X242487Y407249D01*
X242552Y407348D01*
X242629Y407446D01*
X242694Y407555D01*
X242760Y407676D01*
X242880Y407960D01*
X242935Y408113D01*
X242968Y408277D01*
X242989Y408452D01*
X243000Y408627D01*
Y408725D01*
X242989Y408845D01*
X242968Y408987D01*
X242946Y409151D01*
X242902Y409326D01*
X242836Y409501D01*
X242760Y409676D01*
X242749Y409698D01*
X242716Y409752D01*
X242661Y409829D01*
X242585Y409927D01*
X242487Y410026D01*
X242377Y410135D01*
X242246Y410233D01*
X242093Y410321D01*
X242071Y410332D01*
X242017Y410354D01*
X241918Y410386D01*
X241776Y410419D01*
X241601Y410452D01*
X241393Y410485D01*
X241142Y410507D01*
X240858Y410518D01*
X244957D01*
D02*
G37*
G36*
X254427Y406484D02*
X251432D01*
X251322Y406473D01*
Y402375D01*
X251311D01*
X251279D01*
X251235Y402386D01*
X251169D01*
X251093Y402396D01*
X251005Y402418D01*
X250809Y402451D01*
X250590Y402517D01*
X250350Y402604D01*
X250131Y402724D01*
X249934Y402877D01*
Y402888D01*
X249912Y402899D01*
X249858Y402965D01*
X249781Y403063D01*
X249705Y403194D01*
X249617Y403369D01*
X249541Y403566D01*
X249486Y403785D01*
X249475Y403905D01*
X249464Y404036D01*
Y404123D01*
X249475Y404222D01*
X249497Y404342D01*
X249530Y404473D01*
X249573Y404626D01*
X249639Y404768D01*
X249727Y404910D01*
X249738Y404921D01*
X249781Y404976D01*
X249847Y405042D01*
X249934Y405118D01*
X250055Y405205D01*
X250207Y405304D01*
X250382Y405402D01*
X250590Y405490D01*
X250470Y406452D01*
X250459D01*
X250437Y406441D01*
X250393Y406430D01*
X250328Y406408D01*
X250262Y406375D01*
X250175Y406342D01*
X249989Y406255D01*
X249781Y406145D01*
X249563Y405993D01*
X249355Y405818D01*
X249158Y405599D01*
Y405588D01*
X249136Y405566D01*
X249114Y405533D01*
X249082Y405490D01*
X249049Y405424D01*
X249016Y405359D01*
X248972Y405271D01*
X248929Y405173D01*
X248885Y405063D01*
X248841Y404954D01*
X248776Y404681D01*
X248721Y404375D01*
X248699Y404036D01*
Y404287D01*
Y404036D01*
D01*
Y403916D01*
X248710Y403839D01*
X248721Y403741D01*
X248743Y403621D01*
X248765Y403489D01*
X248787Y403347D01*
X248874Y403041D01*
X248940Y402877D01*
X249005Y402724D01*
X249093Y402561D01*
X249191Y402407D01*
X249300Y402265D01*
X249431Y402123D01*
X249442Y402112D01*
X249464Y402091D01*
X249508Y402058D01*
X249573Y402014D01*
X249650Y401959D01*
X249738Y401905D01*
X249847Y401839D01*
X249967Y401774D01*
X250109Y401708D01*
X250262Y401642D01*
X250437Y401588D01*
X250623Y401533D01*
X250820Y401489D01*
X251038Y401456D01*
X251268Y401435D01*
X251508Y401424D01*
X251639D01*
X251738Y401435D01*
X251858Y401446D01*
X251989Y401456D01*
X252142Y401478D01*
X252295Y401511D01*
X252645Y401599D01*
X252820Y401653D01*
X253006Y401719D01*
X253180Y401806D01*
X253344Y401905D01*
X253508Y402014D01*
X253661Y402134D01*
X253672Y402145D01*
X253694Y402167D01*
X253727Y402211D01*
X253782Y402265D01*
X253836Y402331D01*
X253902Y402418D01*
X253978Y402517D01*
X254044Y402637D01*
X254120Y402757D01*
X254186Y402899D01*
X254252Y403052D01*
X254306Y403216D01*
X254361Y403391D01*
X254394Y403577D01*
X254415Y403774D01*
X254427Y403981D01*
Y403446D01*
Y403981D01*
Y404091D01*
X254415Y404167D01*
X254405Y404255D01*
X254383Y404364D01*
X254361Y404484D01*
X254328Y404626D01*
X254295Y404757D01*
X254241Y404910D01*
X254186Y405053D01*
X254110Y405205D01*
X254022Y405359D01*
X253924Y405512D01*
X253803Y405654D01*
X253672Y405785D01*
X253661Y405796D01*
X253640Y405818D01*
X253596Y405850D01*
X253530Y405894D01*
X253454Y405949D01*
X253366Y406003D01*
X253257Y406069D01*
X253126Y406135D01*
X252984Y406200D01*
X252831Y406266D01*
X252656Y406320D01*
X252470Y406375D01*
X252262Y406419D01*
X252044Y406452D01*
X251814Y406473D01*
X251563Y406484D01*
X254427D01*
D02*
G37*
G36*
Y403446D02*
Y401424D01*
D01*
Y403446D01*
D02*
G37*
G36*
X243000Y404976D02*
X237273D01*
X240038D01*
X239951Y404965D01*
X239842Y404954D01*
X239732D01*
X239612Y404932D01*
X239339Y404900D01*
X239065Y404834D01*
X238792Y404757D01*
X238541Y404648D01*
X238530D01*
X238519Y404637D01*
X238486Y404615D01*
X238442Y404593D01*
X238333Y404517D01*
X238202Y404419D01*
X238049Y404287D01*
X237896Y404123D01*
X237743Y403938D01*
X237601Y403719D01*
Y403708D01*
X237590Y403697D01*
X237568Y403664D01*
X237546Y403610D01*
X237524Y403555D01*
X237502Y403489D01*
X237437Y403326D01*
X237382Y403140D01*
X237328Y402910D01*
X237284Y402670D01*
X237273Y402407D01*
Y402298D01*
X237284Y402211D01*
X237295Y402112D01*
X237317Y402003D01*
X237338Y401872D01*
X237360Y401741D01*
X237448Y401446D01*
X237513Y401282D01*
X237579Y401129D01*
X237666Y400976D01*
X237765Y400823D01*
X237874Y400680D01*
X238005Y400538D01*
X238016Y400527D01*
X238038Y400506D01*
X238082Y400473D01*
X238147Y400429D01*
X238224Y400375D01*
X238311Y400320D01*
X238421Y400254D01*
X238552Y400189D01*
X238694Y400123D01*
X238858Y400058D01*
X239033Y400003D01*
X239218Y399948D01*
X239426Y399904D01*
X239645Y399872D01*
X239885Y399850D01*
X240137Y399839D01*
X243000D01*
Y402517D01*
X242989Y402593D01*
X242978Y402692D01*
X242956Y402801D01*
X242935Y402921D01*
X242913Y403063D01*
X242814Y403358D01*
X242760Y403511D01*
X242683Y403664D01*
X242607Y403817D01*
X242497Y403970D01*
X242388Y404112D01*
X242257Y404255D01*
X242246Y404265D01*
X242224Y404287D01*
X242180Y404320D01*
X242126Y404364D01*
X242049Y404419D01*
X241951Y404484D01*
X241842Y404550D01*
X241721Y404615D01*
X241590Y404681D01*
X241426Y404746D01*
X241262Y404812D01*
X241077Y404867D01*
X240880Y404910D01*
X240672Y404943D01*
X240454Y404965D01*
X240213Y404976D01*
X243000D01*
D02*
G37*
G36*
X235749Y402254D02*
Y398735D01*
X233039D01*
X233050Y398746D01*
X233071Y398768D01*
X233104Y398800D01*
X233159Y398855D01*
X233213Y398910D01*
X233279Y398986D01*
X233345Y399085D01*
X233421Y399183D01*
X233487Y399292D01*
X233552Y399413D01*
X233673Y399697D01*
X233727Y399850D01*
X233760Y400014D01*
X233782Y400189D01*
X233793Y400363D01*
Y400462D01*
X233782Y400582D01*
X233760Y400724D01*
X233738Y400888D01*
X233694Y401063D01*
X233629Y401238D01*
X233552Y401413D01*
X233541Y401435D01*
X233509Y401489D01*
X233454Y401566D01*
X233378Y401664D01*
X233279Y401763D01*
X233170Y401872D01*
X233039Y401970D01*
X232886Y402058D01*
X232864Y402069D01*
X232809Y402091D01*
X232711Y402123D01*
X232569Y402156D01*
X232394Y402189D01*
X232186Y402222D01*
X231935Y402244D01*
X231650Y402254D01*
X235749D01*
X228186D01*
Y400243D01*
Y401325D01*
X231662D01*
X231672D01*
X231694D01*
X231727D01*
X231771D01*
X231891Y401314D01*
X232044Y401293D01*
X232208Y401249D01*
X232372Y401194D01*
X232536Y401118D01*
X232667Y401019D01*
X232678Y401008D01*
X232722Y400965D01*
X232776Y400899D01*
X232831Y400801D01*
X232896Y400680D01*
X232940Y400538D01*
X232984Y400363D01*
X232995Y400167D01*
Y400101D01*
X232984Y400025D01*
X232973Y399915D01*
X232940Y399806D01*
X232908Y399675D01*
X232853Y399544D01*
X232776Y399402D01*
X232765Y399391D01*
X232733Y399347D01*
X232689Y399282D01*
X232623Y399205D01*
X232536Y399117D01*
X232437Y399030D01*
X232317Y398954D01*
X232186Y398888D01*
X232164Y398877D01*
X232120Y398866D01*
X232033Y398844D01*
X231924Y398812D01*
X231782Y398779D01*
X231607Y398757D01*
X231410Y398746D01*
X231181Y398735D01*
X228186D01*
D01*
Y397806D01*
X235749D01*
Y402254D01*
D02*
G37*
G36*
X256383Y400484D02*
Y397139D01*
X256372Y397336D01*
X256361Y397554D01*
X256339Y397773D01*
X256306Y397992D01*
X256274Y398178D01*
Y398188D01*
X256263Y398210D01*
Y398243D01*
X256241Y398287D01*
X256208Y398407D01*
X256153Y398560D01*
X256077Y398735D01*
X255978Y398921D01*
X255869Y399107D01*
X255727Y399282D01*
X255716Y399292D01*
X255705Y399303D01*
X255673Y399336D01*
X255640Y399380D01*
X255530Y399489D01*
X255377Y399620D01*
X255192Y399762D01*
X254973Y399915D01*
X254722Y400058D01*
X254437Y400178D01*
X254427D01*
X254405Y400189D01*
X254361Y400211D01*
X254295Y400221D01*
X254219Y400254D01*
X254131Y400276D01*
X254033Y400298D01*
X253913Y400331D01*
X253793Y400363D01*
X253650Y400385D01*
X253344Y400440D01*
X253006Y400473D01*
X252634Y400484D01*
X252492D01*
X252415Y400473D01*
X252328D01*
X252120Y400462D01*
X251880Y400429D01*
X251628Y400396D01*
X251366Y400342D01*
X251104Y400276D01*
X251093D01*
X251071Y400265D01*
X251038Y400254D01*
X250994Y400243D01*
X250874Y400200D01*
X250721Y400134D01*
X250546Y400068D01*
X250371Y399981D01*
X250186Y399872D01*
X250011Y399762D01*
X249989Y399751D01*
X249934Y399708D01*
X249858Y399642D01*
X249759Y399555D01*
X249650Y399456D01*
X249541Y399336D01*
X249420Y399216D01*
X249322Y399074D01*
X249311Y399052D01*
X249278Y399008D01*
X249235Y398932D01*
X249180Y398822D01*
X249114Y398691D01*
X249060Y398538D01*
X248994Y398363D01*
X248940Y398167D01*
Y398145D01*
X248929Y398112D01*
X248918Y398079D01*
X248907Y397970D01*
X248885Y397817D01*
X248863Y397642D01*
X248841Y397434D01*
X248830Y397205D01*
X248819Y396953D01*
Y394232D01*
X256383D01*
Y400484D01*
D02*
G37*
G36*
X244957Y398669D02*
X237262D01*
X239645D01*
X239557Y398658D01*
X239470D01*
X239262Y398637D01*
X239022Y398615D01*
X238770Y398571D01*
X238541Y398505D01*
X238322Y398429D01*
X238311D01*
X238300Y398418D01*
X238235Y398385D01*
X238147Y398330D01*
X238027Y398254D01*
X237907Y398145D01*
X237776Y398025D01*
X237645Y397871D01*
X237535Y397697D01*
X237524Y397675D01*
X237491Y397609D01*
X237448Y397511D01*
X237404Y397369D01*
X237349Y397194D01*
X237306Y396997D01*
X237273Y396778D01*
X237262Y396538D01*
Y396440D01*
X237273Y396374D01*
X237284Y396287D01*
X237295Y396199D01*
X237338Y395970D01*
X237404Y395729D01*
X237502Y395478D01*
X237568Y395347D01*
X237645Y395226D01*
X237732Y395117D01*
X237830Y395008D01*
X237841Y394997D01*
X237852Y394986D01*
X237896Y394964D01*
X237940Y394931D01*
X237994Y394888D01*
X238071Y394844D01*
X238158Y394800D01*
X238257Y394745D01*
X238366Y394702D01*
X238497Y394658D01*
X238628Y394614D01*
X238781Y394571D01*
X238945Y394549D01*
X239131Y394516D01*
X239317Y394505D01*
X238674D01*
X239525D01*
X239656Y395412D01*
X239645D01*
X239623D01*
X239579D01*
X239514Y395423D01*
X239448Y395434D01*
X239371D01*
X239186Y395467D01*
X238989Y395500D01*
X238792Y395565D01*
X238617Y395631D01*
X238541Y395675D01*
X238475Y395729D01*
X238464Y395740D01*
X238432Y395784D01*
X238377Y395849D01*
X238322Y395937D01*
X238257Y396057D01*
X238213Y396188D01*
X238169Y396352D01*
X238158Y396527D01*
Y396593D01*
X238169Y396658D01*
X238180Y396757D01*
X238202Y396855D01*
X238224Y396964D01*
X238267Y397074D01*
X238322Y397183D01*
X238333Y397194D01*
X238355Y397227D01*
X238399Y397270D01*
X238442Y397336D01*
X238519Y397391D01*
X238595Y397456D01*
X238683Y397511D01*
X238792Y397554D01*
X238803D01*
X238847Y397576D01*
X238923Y397587D01*
X239022Y397609D01*
X239153Y397631D01*
X239317Y397642D01*
X239514Y397664D01*
X239743D01*
X244957D01*
Y395369D01*
Y398669D01*
D02*
G37*
G36*
X233793Y396702D02*
X228065D01*
Y392144D01*
Y394385D01*
X228076Y394308D01*
Y394221D01*
X228087Y394112D01*
X228098Y394002D01*
X228120Y393882D01*
X228175Y393620D01*
X228251Y393347D01*
X228361Y393084D01*
X228426Y392964D01*
X228503Y392855D01*
X228514Y392844D01*
X228524Y392833D01*
X228590Y392767D01*
X228689Y392669D01*
X228841Y392560D01*
X229027Y392439D01*
X229246Y392319D01*
X229519Y392221D01*
X229825Y392144D01*
D01*
X229967Y393062D01*
X229956D01*
X229945D01*
X229880Y393084D01*
X229771Y393106D01*
X229650Y393150D01*
X229519Y393204D01*
X229377Y393270D01*
X229235Y393368D01*
X229115Y393489D01*
X229104Y393510D01*
X229071Y393554D01*
X229027Y393642D01*
X228973Y393751D01*
X228918Y393893D01*
X228874Y394057D01*
X228841Y394254D01*
X228831Y394483D01*
Y394592D01*
X228841Y394702D01*
X228863Y394844D01*
X228896Y394997D01*
X228940Y395161D01*
X228994Y395303D01*
X229082Y395434D01*
X229093Y395445D01*
X229126Y395489D01*
X229180Y395532D01*
X229257Y395598D01*
X229344Y395653D01*
X229454Y395707D01*
X229563Y395740D01*
X229694Y395751D01*
X229705D01*
X229749D01*
X229803Y395740D01*
X229880Y395718D01*
X229956Y395686D01*
X230033Y395631D01*
X230120Y395565D01*
X230186Y395467D01*
X230197Y395456D01*
X230208Y395423D01*
X230241Y395369D01*
X230273Y395281D01*
X230317Y395150D01*
X230350Y395073D01*
X230372Y394986D01*
X230404Y394888D01*
X230437Y394778D01*
X230470Y394658D01*
X230503Y394516D01*
Y394505D01*
X230514Y394472D01*
X230525Y394418D01*
X230547Y394352D01*
X230569Y394265D01*
X230601Y394166D01*
X230656Y393959D01*
X230732Y393718D01*
X230798Y393489D01*
X230874Y393270D01*
X230918Y393172D01*
X230951Y393095D01*
X230962Y393073D01*
X230984Y393029D01*
X231028Y392964D01*
X231082Y392877D01*
X231159Y392778D01*
X231246Y392680D01*
X231345Y392581D01*
X231465Y392494D01*
X231476Y392483D01*
X231519Y392461D01*
X231596Y392428D01*
X231683Y392396D01*
X231793Y392363D01*
X231924Y392330D01*
X232055Y392308D01*
X232208Y392297D01*
X232230D01*
X232274D01*
X232339Y392308D01*
X232437Y392319D01*
X232536Y392341D01*
X232656Y392363D01*
X232765Y392407D01*
X232886Y392461D01*
X232896Y392472D01*
X232940Y392494D01*
X232995Y392527D01*
X233071Y392581D01*
X233148Y392647D01*
X233246Y392723D01*
X233334Y392811D01*
X233410Y392920D01*
X233421Y392931D01*
X233432Y392964D01*
X233465Y393008D01*
X233498Y393073D01*
X233541Y393161D01*
X233585Y393259D01*
X233629Y393379D01*
X233673Y393510D01*
X233683Y393532D01*
X233694Y393576D01*
X233716Y393653D01*
X233738Y393751D01*
X233760Y393871D01*
X233771Y394002D01*
X233793Y394155D01*
Y392647D01*
Y394418D01*
X233782Y394538D01*
X233771Y394702D01*
X233749Y394877D01*
X233705Y395062D01*
X233662Y395259D01*
X233596Y395445D01*
Y395456D01*
X233585Y395467D01*
X233563Y395521D01*
X233520Y395609D01*
X233465Y395718D01*
X233388Y395838D01*
X233301Y395959D01*
X233203Y396068D01*
X233093Y396166D01*
X233082Y396177D01*
X233039Y396199D01*
X232962Y396243D01*
X232875Y396298D01*
X232744Y396352D01*
X232601Y396407D01*
X232437Y396451D01*
X232252Y396494D01*
X232131Y395587D01*
X232153D01*
X232197Y395576D01*
X232274Y395554D01*
X232372Y395521D01*
X232470Y395467D01*
X232580Y395401D01*
X232689Y395325D01*
X232787Y395216D01*
X232798Y395205D01*
X232820Y395161D01*
X232864Y395095D01*
X232908Y394997D01*
X232951Y394888D01*
X232995Y394745D01*
X233017Y394571D01*
X233028Y394385D01*
Y394275D01*
X233017Y394166D01*
X233006Y394024D01*
X232973Y393882D01*
X232940Y393729D01*
X232886Y393587D01*
X232809Y393467D01*
X232798Y393456D01*
X232776Y393423D01*
X232733Y393379D01*
X232667Y393336D01*
X232601Y393281D01*
X232514Y393237D01*
X232416Y393204D01*
X232317Y393193D01*
X232306D01*
X232284D01*
X232252Y393204D01*
X232208D01*
X232099Y393237D01*
X231989Y393303D01*
X231978Y393314D01*
X231967Y393325D01*
X231935Y393347D01*
X231902Y393390D01*
X231869Y393434D01*
X231825Y393499D01*
X231793Y393576D01*
X231749Y393663D01*
Y393674D01*
X231738Y393696D01*
X231727Y393740D01*
X231694Y393816D01*
X231662Y393926D01*
X231629Y394068D01*
X231596Y394155D01*
X231574Y394254D01*
X231541Y394363D01*
X231508Y394483D01*
Y394494D01*
X231498Y394527D01*
X231487Y394582D01*
X231465Y394647D01*
X231443Y394724D01*
X231421Y394822D01*
X231355Y395030D01*
X231290Y395259D01*
X231213Y395489D01*
X231137Y395696D01*
X231104Y395784D01*
X231071Y395860D01*
X231060Y395882D01*
X231038Y395926D01*
X231006Y395991D01*
X230951Y396090D01*
X230885Y396188D01*
X230798Y396287D01*
X230700Y396385D01*
X230590Y396472D01*
X230579Y396483D01*
X230536Y396505D01*
X230470Y396549D01*
X230372Y396593D01*
X230252Y396625D01*
X230120Y396669D01*
X229967Y396691D01*
X229792Y396702D01*
X233793D01*
D02*
G37*
G36*
X235749Y391095D02*
X234294D01*
X234689D01*
Y390166D01*
X235749D01*
Y391095D01*
D02*
G37*
G36*
X233673D02*
X228186D01*
Y390166D01*
X234294D01*
X233673D01*
Y391095D01*
D02*
G37*
G36*
X235749Y388909D02*
X228186D01*
Y383192D01*
X235749D01*
Y386165D01*
X235738Y386242D01*
Y386329D01*
X235717Y386526D01*
X235695Y386745D01*
X235651Y386974D01*
X235596Y387204D01*
X235520Y387411D01*
Y387422D01*
X235509Y387433D01*
X235476Y387499D01*
X235421Y387597D01*
X235345Y387707D01*
X235246Y387838D01*
X235126Y387980D01*
X234973Y388111D01*
X234809Y388231D01*
X234787Y388242D01*
X234722Y388275D01*
X234634Y388330D01*
X234503Y388384D01*
X234350Y388439D01*
X234186Y388494D01*
X234000Y388526D01*
X233815Y388537D01*
X233793D01*
X233738D01*
X233640Y388526D01*
X233520Y388505D01*
X233378Y388472D01*
X233224Y388417D01*
X233071Y388351D01*
X232908Y388264D01*
X232886Y388253D01*
X232842Y388220D01*
X232754Y388155D01*
X232667Y388067D01*
X232558Y387958D01*
X232437Y387827D01*
X232328Y387663D01*
X232219Y387477D01*
Y387488D01*
X232208Y387510D01*
X232197Y387543D01*
X232175Y387586D01*
X232131Y387718D01*
X232055Y387871D01*
X231957Y388035D01*
X231836Y388220D01*
X231694Y388384D01*
X231519Y388537D01*
X231498Y388548D01*
X231432Y388592D01*
X231334Y388657D01*
X231202Y388723D01*
X231028Y388789D01*
X230842Y388854D01*
X230623Y388898D01*
X230383Y388909D01*
X235749D01*
D02*
G37*
%LPD*%
G36*
X230984Y463441D02*
X230361Y462796D01*
X228186D01*
Y465266D01*
X230984Y463441D01*
D02*
G37*
G36*
X230940Y457134D02*
X230929Y457123D01*
X230918Y457090D01*
X230907Y457047D01*
X230885Y456992D01*
X230864Y456926D01*
X230842Y456850D01*
X230820Y456762D01*
X230787Y456664D01*
X230765Y456544D01*
X230732Y456424D01*
X230700Y456281D01*
X230667Y456128D01*
X230634Y455975D01*
X230612Y455800D01*
X230579Y455615D01*
Y455593D01*
X230569Y455527D01*
X230547Y455418D01*
X230525Y455298D01*
X230503Y455167D01*
X230470Y455035D01*
X230437Y454915D01*
X230394Y454806D01*
Y454795D01*
X230372Y454762D01*
X230350Y454718D01*
X230317Y454675D01*
X230230Y454543D01*
X230099Y454434D01*
X230087D01*
X230066Y454412D01*
X230022Y454401D01*
X229967Y454380D01*
X229902Y454358D01*
X229836Y454336D01*
X229749Y454325D01*
X229661Y454314D01*
X229650D01*
X229596D01*
X229530Y454325D01*
X229443Y454347D01*
X229344Y454380D01*
X229246Y454434D01*
X229137Y454500D01*
X229038Y454587D01*
X229027Y454598D01*
X229006Y454642D01*
X228962Y454707D01*
X228918Y454795D01*
X228874Y454915D01*
X228831Y455057D01*
X228809Y455221D01*
X228798Y455418D01*
Y455505D01*
X228809Y455615D01*
X228831Y455735D01*
X228852Y455888D01*
X228896Y456041D01*
X228951Y456205D01*
X229027Y456369D01*
X229038Y456391D01*
X229071Y456434D01*
X229126Y456511D01*
X229202Y456598D01*
X229290Y456697D01*
X229399Y456806D01*
X229530Y456893D01*
X229672Y456981D01*
X229683Y456992D01*
X229727Y457003D01*
X229803Y457025D01*
X229902Y457057D01*
X230033Y457090D01*
X230186Y457112D01*
X230372Y457123D01*
X230590Y457134D01*
X230940Y457145D01*
Y457134D01*
D02*
G37*
G36*
X240235Y454292D02*
X240322D01*
X240432Y454281D01*
X240552Y454270D01*
X240683Y454248D01*
X240945Y454194D01*
X241219Y454117D01*
X241481Y454008D01*
X241590Y453942D01*
X241700Y453866D01*
X241710D01*
X241721Y453844D01*
X241787Y453789D01*
X241874Y453691D01*
X241973Y453571D01*
X242071Y453418D01*
X242148Y453232D01*
X242213Y453024D01*
X242224Y452915D01*
X242235Y452795D01*
Y452740D01*
X242224Y452696D01*
X242213Y452576D01*
X242170Y452434D01*
X242115Y452270D01*
X242017Y452095D01*
X241896Y451920D01*
X241809Y451833D01*
X241721Y451756D01*
X241710D01*
X241700Y451734D01*
X241667Y451724D01*
X241623Y451691D01*
X241568Y451658D01*
X241503Y451625D01*
X241426Y451592D01*
X241339Y451549D01*
X241230Y451505D01*
X241109Y451472D01*
X240978Y451439D01*
X240836Y451407D01*
X240683Y451385D01*
X240508Y451363D01*
X240322Y451341D01*
X240126D01*
X240115D01*
X240082D01*
X240027D01*
X239951Y451352D01*
X239863D01*
X239765Y451363D01*
X239535Y451396D01*
X239284Y451450D01*
X239022Y451527D01*
X238770Y451636D01*
X238661Y451702D01*
X238552Y451778D01*
Y451789D01*
X238530Y451800D01*
X238475Y451855D01*
X238388Y451953D01*
X238300Y452073D01*
X238202Y452226D01*
X238115Y452412D01*
X238060Y452609D01*
X238049Y452718D01*
X238038Y452828D01*
Y452882D01*
X238049Y452926D01*
X238060Y453046D01*
X238104Y453188D01*
X238158Y453352D01*
X238246Y453527D01*
X238366Y453702D01*
X238442Y453789D01*
X238530Y453866D01*
X238541D01*
X238552Y453888D01*
X238584Y453910D01*
X238628Y453932D01*
X238683Y453964D01*
X238738Y454008D01*
X238825Y454041D01*
X238912Y454084D01*
X239011Y454128D01*
X239120Y454161D01*
X239251Y454205D01*
X239382Y454238D01*
X239535Y454259D01*
X239688Y454281D01*
X239863Y454303D01*
X240049D01*
X240060D01*
X240104D01*
X240158D01*
X240235Y454292D01*
D02*
G37*
G36*
X254306Y449221D02*
X251126Y450368D01*
X251115D01*
X251104Y450379D01*
X251071Y450390D01*
X251016Y450401D01*
X250962Y450423D01*
X250896Y450445D01*
X250743Y450499D01*
X250557Y450565D01*
X250339Y450631D01*
X250109Y450696D01*
X249858Y450762D01*
X249869D01*
X249890Y450773D01*
X249923Y450784D01*
X249967Y450795D01*
X250022Y450806D01*
X250087Y450827D01*
X250251Y450871D01*
X250437Y450926D01*
X250656Y451002D01*
X250874Y451068D01*
X251104Y451155D01*
X254306Y452336D01*
Y449221D01*
D02*
G37*
G36*
X231825Y451264D02*
X231967Y451254D01*
X232110Y451232D01*
X232241Y451199D01*
X232361Y451166D01*
X232372D01*
X232405Y451144D01*
X232459Y451112D01*
X232525Y451079D01*
X232591Y451024D01*
X232667Y450958D01*
X232744Y450871D01*
X232809Y450773D01*
X232820Y450762D01*
X232842Y450729D01*
X232864Y450663D01*
X232896Y450587D01*
X232929Y450499D01*
X232962Y450390D01*
X232973Y450259D01*
X232984Y450128D01*
Y450073D01*
X232973Y450029D01*
X232962Y449920D01*
X232940Y449778D01*
X232886Y449625D01*
X232820Y449450D01*
X232733Y449275D01*
X232601Y449111D01*
X232580Y449089D01*
X232525Y449046D01*
X232481Y449013D01*
X232427Y448980D01*
X232361Y448936D01*
X232284Y448904D01*
X232197Y448860D01*
X232088Y448816D01*
X231967Y448783D01*
X231836Y448751D01*
X231694Y448729D01*
X231541Y448707D01*
X231355Y448685D01*
X231170D01*
X228186D01*
Y451275D01*
X231508D01*
X231519D01*
X231530D01*
X231607D01*
X231705D01*
X231825Y451264D01*
D02*
G37*
G36*
X254459Y446149D02*
X254547Y446138D01*
X254656Y446116D01*
X254765Y446084D01*
X254875Y446040D01*
X254984Y445974D01*
X254995Y445963D01*
X255028Y445942D01*
X255082Y445898D01*
X255137Y445843D01*
X255203Y445767D01*
X255268Y445679D01*
X255334Y445570D01*
X255377Y445450D01*
Y445439D01*
X255399Y445384D01*
X255410Y445308D01*
X255432Y445188D01*
X255454Y445023D01*
X255465Y444838D01*
X255487Y444597D01*
Y442805D01*
X253213D01*
Y444663D01*
X253224Y444805D01*
X253235Y444958D01*
X253246Y445111D01*
X253268Y445264D01*
X253290Y445384D01*
X253301Y445406D01*
X253312Y445450D01*
X253344Y445515D01*
X253388Y445603D01*
X253432Y445690D01*
X253497Y445789D01*
X253585Y445887D01*
X253672Y445963D01*
X253683Y445974D01*
X253716Y445996D01*
X253782Y446029D01*
X253858Y446062D01*
X253945Y446095D01*
X254055Y446127D01*
X254186Y446149D01*
X254328Y446160D01*
X254350D01*
X254394D01*
X254459Y446149D01*
D02*
G37*
G36*
X251169Y446477D02*
X251268Y446455D01*
X251377Y446433D01*
X251497Y446390D01*
X251618Y446335D01*
X251738Y446259D01*
X251749Y446248D01*
X251792Y446215D01*
X251847Y446171D01*
X251913Y446106D01*
X251989Y446018D01*
X252066Y445909D01*
X252131Y445789D01*
X252186Y445646D01*
X252197Y445625D01*
X252208Y445581D01*
X252229Y445483D01*
X252251Y445362D01*
X252273Y445209D01*
X252295Y445023D01*
X252317Y444794D01*
Y442805D01*
X249716D01*
Y444958D01*
X249727Y445188D01*
X249738Y445286D01*
X249748Y445373D01*
Y445384D01*
X249759Y445428D01*
X249770Y445494D01*
X249792Y445570D01*
X249858Y445756D01*
X249945Y445942D01*
X249956Y445953D01*
X249978Y445985D01*
X250011Y446029D01*
X250055Y446084D01*
X250120Y446138D01*
X250186Y446215D01*
X250273Y446270D01*
X250371Y446335D01*
X250382Y446346D01*
X250415Y446357D01*
X250481Y446379D01*
X250557Y446412D01*
X250645Y446444D01*
X250754Y446466D01*
X250885Y446477D01*
X251016Y446488D01*
X251038D01*
X251082D01*
X251169Y446477D01*
D02*
G37*
G36*
X240727Y446259D02*
X240771D01*
X240902Y446237D01*
X241044Y446204D01*
X241219Y446149D01*
X241383Y446095D01*
X241547Y446007D01*
X241689Y445909D01*
X241700D01*
X241710Y445887D01*
X241776Y445832D01*
X241863Y445734D01*
X241962Y445603D01*
X242060Y445439D01*
X242148Y445242D01*
X242213Y445013D01*
X242224Y444892D01*
X242235Y444761D01*
Y444696D01*
X242224Y444652D01*
X242213Y444532D01*
X242180Y444390D01*
X242126Y444215D01*
X242049Y444029D01*
X241940Y443854D01*
X241798Y443679D01*
X241776Y443657D01*
X241721Y443613D01*
X241623Y443537D01*
X241492Y443461D01*
X241339Y443373D01*
X241142Y443297D01*
X240913Y443231D01*
X240661Y443198D01*
Y446270D01*
X240672D01*
X240694D01*
X240727Y446259D01*
D02*
G37*
G36*
X235585Y441340D02*
X233673D01*
Y442029D01*
X235028D01*
X235585Y442958D01*
Y441340D01*
D02*
G37*
G36*
X230940Y439493D02*
X230929Y439482D01*
X230918Y439449D01*
X230907Y439405D01*
X230885Y439351D01*
X230864Y439285D01*
X230842Y439209D01*
X230820Y439121D01*
X230787Y439023D01*
X230765Y438903D01*
X230732Y438783D01*
X230700Y438640D01*
X230667Y438487D01*
X230634Y438334D01*
X230612Y438160D01*
X230579Y437974D01*
Y437952D01*
X230569Y437886D01*
X230547Y437777D01*
X230525Y437657D01*
X230503Y437526D01*
X230470Y437394D01*
X230437Y437274D01*
X230394Y437165D01*
Y437154D01*
X230372Y437121D01*
X230350Y437077D01*
X230317Y437034D01*
X230230Y436903D01*
X230099Y436793D01*
X230087D01*
X230066Y436771D01*
X230022Y436760D01*
X229967Y436739D01*
X229902Y436717D01*
X229836Y436695D01*
X229749Y436684D01*
X229661Y436673D01*
X229650D01*
X229596D01*
X229530Y436684D01*
X229443Y436706D01*
X229344Y436739D01*
X229246Y436793D01*
X229137Y436859D01*
X229038Y436946D01*
X229027Y436957D01*
X229006Y437001D01*
X228962Y437067D01*
X228918Y437154D01*
X228874Y437274D01*
X228831Y437416D01*
X228809Y437580D01*
X228798Y437777D01*
Y437864D01*
X228809Y437974D01*
X228831Y438094D01*
X228852Y438247D01*
X228896Y438400D01*
X228951Y438564D01*
X229027Y438728D01*
X229038Y438750D01*
X229071Y438793D01*
X229126Y438870D01*
X229202Y438957D01*
X229290Y439056D01*
X229399Y439165D01*
X229530Y439253D01*
X229672Y439340D01*
X229683Y439351D01*
X229727Y439362D01*
X229803Y439384D01*
X229902Y439416D01*
X230033Y439449D01*
X230186Y439471D01*
X230372Y439482D01*
X230590Y439493D01*
X230940Y439504D01*
Y439493D01*
D02*
G37*
G36*
X251661Y436454D02*
X251749D01*
X251858Y436444D01*
X251978Y436433D01*
X252109Y436411D01*
X252372Y436356D01*
X252645Y436279D01*
X252907Y436170D01*
X253016Y436105D01*
X253126Y436028D01*
X253137D01*
X253148Y436006D01*
X253213Y435952D01*
X253301Y435853D01*
X253399Y435733D01*
X253497Y435580D01*
X253574Y435394D01*
X253640Y435186D01*
X253650Y435077D01*
X253661Y434957D01*
Y434902D01*
X253650Y434859D01*
X253640Y434738D01*
X253596Y434596D01*
X253541Y434432D01*
X253443Y434258D01*
X253323Y434083D01*
X253235Y433995D01*
X253148Y433919D01*
X253137D01*
X253126Y433897D01*
X253093Y433886D01*
X253049Y433853D01*
X252995Y433820D01*
X252929Y433787D01*
X252853Y433755D01*
X252765Y433711D01*
X252656Y433667D01*
X252536Y433635D01*
X252404Y433602D01*
X252262Y433569D01*
X252109Y433547D01*
X251934Y433525D01*
X251749Y433503D01*
X251552D01*
X251541D01*
X251508D01*
X251453D01*
X251377Y433514D01*
X251290D01*
X251191Y433525D01*
X250962Y433558D01*
X250710Y433613D01*
X250448Y433689D01*
X250197Y433798D01*
X250087Y433864D01*
X249978Y433941D01*
Y433951D01*
X249956Y433962D01*
X249901Y434017D01*
X249814Y434115D01*
X249727Y434236D01*
X249628Y434389D01*
X249541Y434574D01*
X249486Y434771D01*
X249475Y434880D01*
X249464Y434990D01*
Y435044D01*
X249475Y435088D01*
X249486Y435208D01*
X249530Y435351D01*
X249585Y435514D01*
X249672Y435689D01*
X249792Y435864D01*
X249869Y435952D01*
X249956Y436028D01*
X249967D01*
X249978Y436050D01*
X250011Y436072D01*
X250055Y436094D01*
X250109Y436127D01*
X250164Y436170D01*
X250251Y436203D01*
X250339Y436247D01*
X250437Y436290D01*
X250546Y436323D01*
X250677Y436367D01*
X250809Y436400D01*
X250962Y436422D01*
X251115Y436444D01*
X251290Y436465D01*
X251475D01*
X251486D01*
X251530D01*
X251585D01*
X251661Y436454D01*
D02*
G37*
G36*
X240147Y431897D02*
X240137Y431886D01*
X240126Y431853D01*
X240115Y431809D01*
X240093Y431754D01*
X240071Y431689D01*
X240049Y431612D01*
X240027Y431525D01*
X239995Y431427D01*
X239973Y431306D01*
X239940Y431186D01*
X239907Y431044D01*
X239874Y430891D01*
X239842Y430738D01*
X239820Y430563D01*
X239787Y430377D01*
Y430356D01*
X239776Y430290D01*
X239754Y430181D01*
X239732Y430060D01*
X239710Y429929D01*
X239678Y429798D01*
X239645Y429678D01*
X239601Y429568D01*
Y429558D01*
X239579Y429525D01*
X239557Y429481D01*
X239525Y429437D01*
X239437Y429306D01*
X239306Y429197D01*
X239295D01*
X239273Y429175D01*
X239229Y429164D01*
X239175Y429142D01*
X239109Y429120D01*
X239044Y429099D01*
X238956Y429088D01*
X238869Y429077D01*
X238858D01*
X238803D01*
X238738Y429088D01*
X238650Y429109D01*
X238552Y429142D01*
X238453Y429197D01*
X238344Y429262D01*
X238246Y429350D01*
X238235Y429361D01*
X238213Y429404D01*
X238169Y429470D01*
X238125Y429558D01*
X238082Y429678D01*
X238038Y429820D01*
X238016Y429984D01*
X238005Y430181D01*
Y430268D01*
X238016Y430377D01*
X238038Y430498D01*
X238060Y430651D01*
X238104Y430804D01*
X238158Y430968D01*
X238235Y431132D01*
X238246Y431153D01*
X238279Y431197D01*
X238333Y431274D01*
X238410Y431361D01*
X238497Y431459D01*
X238606Y431569D01*
X238738Y431656D01*
X238880Y431744D01*
X238891Y431754D01*
X238934Y431765D01*
X239011Y431787D01*
X239109Y431820D01*
X239240Y431853D01*
X239393Y431875D01*
X239579Y431886D01*
X239798Y431897D01*
X240147Y431908D01*
Y431897D01*
D02*
G37*
G36*
X233694Y433798D02*
X233804Y433777D01*
X233924Y433755D01*
X234066Y433711D01*
X234197Y433645D01*
X234328Y433569D01*
X234339Y433558D01*
X234383Y433525D01*
X234438Y433470D01*
X234514Y433405D01*
X234591Y433307D01*
X234656Y433197D01*
X234722Y433077D01*
X234776Y432935D01*
Y432924D01*
X234787Y432880D01*
X234798Y432815D01*
X234820Y432727D01*
X234831Y432596D01*
X234842Y432432D01*
X234853Y432235D01*
Y430071D01*
X232153D01*
Y432104D01*
X232164Y432181D01*
Y432257D01*
X232175Y432345D01*
X232197Y432552D01*
X232241Y432782D01*
X232306Y433011D01*
X232394Y433219D01*
X232448Y433318D01*
X232514Y433394D01*
X232536Y433416D01*
X232580Y433460D01*
X232667Y433525D01*
X232776Y433602D01*
X232918Y433678D01*
X233093Y433744D01*
X233290Y433787D01*
X233520Y433809D01*
X233530D01*
X233541D01*
X233596D01*
X233694Y433798D01*
D02*
G37*
G36*
X233388Y434826D02*
X233312Y434815D01*
X233213Y434804D01*
X233104Y434782D01*
X232984Y434760D01*
X232733Y434684D01*
X232601Y434640D01*
X232459Y434574D01*
X232317Y434498D01*
X232186Y434421D01*
X232055Y434323D01*
X231924Y434214D01*
X231913Y434203D01*
X231891Y434181D01*
X231858Y434148D01*
X231825Y434094D01*
X231771Y434028D01*
X231716Y433941D01*
X231650Y433831D01*
X231596Y433711D01*
X231530Y433569D01*
X231465Y433405D01*
X231410Y433230D01*
X231366Y433022D01*
X231323Y432804D01*
X231290Y432563D01*
X231268Y432290D01*
X231257Y432006D01*
Y430071D01*
X228186D01*
Y434837D01*
X233465D01*
X233388Y434826D01*
D02*
G37*
G36*
X252153Y430771D02*
X252197D01*
X252328Y430749D01*
X252470Y430716D01*
X252645Y430661D01*
X252809Y430607D01*
X252973Y430519D01*
X253115Y430421D01*
X253126D01*
X253137Y430399D01*
X253202Y430344D01*
X253290Y430246D01*
X253388Y430115D01*
X253486Y429951D01*
X253574Y429754D01*
X253640Y429525D01*
X253650Y429404D01*
X253661Y429273D01*
Y429208D01*
X253650Y429164D01*
X253640Y429044D01*
X253607Y428902D01*
X253552Y428727D01*
X253476Y428541D01*
X253366Y428366D01*
X253224Y428191D01*
X253202Y428169D01*
X253148Y428126D01*
X253049Y428049D01*
X252918Y427973D01*
X252765Y427885D01*
X252568Y427809D01*
X252339Y427743D01*
X252087Y427710D01*
Y430782D01*
X252098D01*
X252120D01*
X252153Y430771D01*
D02*
G37*
G36*
X254427Y421141D02*
X254306D01*
Y421972D01*
X253519D01*
X253530Y421983D01*
X253563Y422005D01*
X253607Y422038D01*
X253661Y422081D01*
X253727Y422147D01*
X253803Y422224D01*
X253891Y422311D01*
X253978Y422420D01*
X254055Y422530D01*
X254142Y422661D01*
X254219Y422803D01*
X254284Y422956D01*
X254339Y423131D01*
X254383Y423306D01*
X254415Y423502D01*
X254427Y423710D01*
Y421141D01*
D02*
G37*
G36*
X244957Y421928D02*
X241853D01*
Y425841D01*
X244957D01*
Y421928D01*
D02*
G37*
G36*
X251781Y418857D02*
X251869D01*
X251967Y418846D01*
X252186Y418813D01*
X252437Y418759D01*
X252689Y418682D01*
X252940Y418573D01*
X253049Y418496D01*
X253148Y418420D01*
X253159D01*
X253169Y418398D01*
X253224Y418343D01*
X253312Y418245D01*
X253410Y418114D01*
X253497Y417961D01*
X253585Y417775D01*
X253640Y417567D01*
X253661Y417458D01*
Y417283D01*
X253650Y417240D01*
X253640Y417119D01*
X253596Y416977D01*
X253541Y416802D01*
X253443Y416627D01*
X253323Y416453D01*
X253235Y416365D01*
X253148Y416278D01*
X253137D01*
X253126Y416256D01*
X253093Y416234D01*
X253049Y416212D01*
X253006Y416179D01*
X252940Y416147D01*
X252864Y416103D01*
X252776Y416070D01*
X252678Y416026D01*
X252557Y415982D01*
X252437Y415950D01*
X252306Y415917D01*
X252153Y415895D01*
X252000Y415873D01*
X251836Y415851D01*
X251650D01*
X251639D01*
X251606D01*
X251552D01*
X251475Y415862D01*
X251388D01*
X251279Y415873D01*
X251049Y415906D01*
X250787Y415961D01*
X250535Y416026D01*
X250284Y416136D01*
X250175Y416201D01*
X250076Y416278D01*
X250055Y416299D01*
X250000Y416354D01*
X249923Y416442D01*
X249836Y416573D01*
X249738Y416726D01*
X249661Y416912D01*
X249606Y417119D01*
X249595Y417229D01*
X249585Y417349D01*
Y417414D01*
X249595Y417458D01*
X249606Y417578D01*
X249650Y417731D01*
X249705Y417895D01*
X249792Y418081D01*
X249912Y418256D01*
X249989Y418343D01*
X250076Y418431D01*
X250087D01*
X250098Y418453D01*
X250131Y418474D01*
X250175Y418496D01*
X250218Y418529D01*
X250284Y418573D01*
X250360Y418606D01*
X250459Y418649D01*
X250557Y418693D01*
X250666Y418726D01*
X250798Y418770D01*
X250940Y418802D01*
X251082Y418824D01*
X251246Y418846D01*
X251432Y418868D01*
X251618D01*
X251628D01*
X251661D01*
X251716D01*
X251781Y418857D01*
D02*
G37*
G36*
X254427Y414900D02*
X251716D01*
X251792Y414911D01*
X251869D01*
X252066Y414933D01*
X252284Y414966D01*
X252525Y415021D01*
X252776Y415086D01*
X253027Y415185D01*
X253038D01*
X253060Y415196D01*
X253093Y415217D01*
X253137Y415239D01*
X253257Y415305D01*
X253410Y415392D01*
X253574Y415513D01*
X253738Y415655D01*
X253913Y415819D01*
X254055Y416004D01*
Y416015D01*
X254066Y416026D01*
X254088Y416059D01*
X254110Y416103D01*
X254175Y416212D01*
X254241Y416365D01*
X254306Y416551D01*
X254372Y416770D01*
X254415Y417010D01*
X254427Y417272D01*
Y414900D01*
D02*
G37*
G36*
X231935Y423688D02*
X232066Y423677D01*
X232197Y423666D01*
X232328Y423644D01*
X232427Y423612D01*
X232437D01*
X232470Y423590D01*
X232514Y423568D01*
X232569Y423535D01*
X232634Y423491D01*
X232700Y423437D01*
X232765Y423371D01*
X232831Y423284D01*
X232842Y423273D01*
X232853Y423240D01*
X232875Y423196D01*
X232908Y423120D01*
X232940Y423043D01*
X232962Y422945D01*
X232973Y422847D01*
X232984Y422726D01*
Y422672D01*
X232973Y422628D01*
X232962Y422519D01*
X232940Y422388D01*
X232886Y422234D01*
X232820Y422071D01*
X232722Y421907D01*
X232591Y421754D01*
X232569Y421743D01*
X232514Y421699D01*
X232427Y421633D01*
X232295Y421568D01*
X232120Y421491D01*
X231913Y421437D01*
X231662Y421393D01*
X231366Y421371D01*
X228186D01*
Y423699D01*
X231629D01*
X231640D01*
X231650D01*
X231716D01*
X231815D01*
X231935Y423688D01*
D02*
G37*
G36*
X231957Y420431D02*
X232088Y420409D01*
X232241Y420387D01*
X232394Y420344D01*
X232536Y420289D01*
X232667Y420212D01*
X232678Y420201D01*
X232722Y420169D01*
X232765Y420114D01*
X232831Y420038D01*
X232886Y419939D01*
X232940Y419808D01*
X232973Y419655D01*
X232984Y419469D01*
Y419404D01*
X232973Y419327D01*
X232962Y419240D01*
X232929Y419130D01*
X232896Y418999D01*
X232842Y418879D01*
X232776Y418748D01*
X232765Y418737D01*
X232733Y418693D01*
X232689Y418639D01*
X232623Y418562D01*
X232536Y418485D01*
X232427Y418409D01*
X232306Y418332D01*
X232164Y418267D01*
X232142Y418256D01*
X232088Y418245D01*
X232000Y418223D01*
X231880Y418190D01*
X231716Y418158D01*
X231519Y418136D01*
X231290Y418125D01*
X231028Y418114D01*
X228186D01*
Y420442D01*
X231738D01*
X231749D01*
X231771D01*
X231793D01*
X231836D01*
X231957Y420431D01*
D02*
G37*
G36*
X241033Y415458D02*
X241175Y415447D01*
X241317Y415425D01*
X241448Y415392D01*
X241568Y415359D01*
X241579D01*
X241612Y415338D01*
X241667Y415305D01*
X241732Y415272D01*
X241798Y415217D01*
X241874Y415152D01*
X241951Y415064D01*
X242017Y414966D01*
X242027Y414955D01*
X242049Y414922D01*
X242071Y414857D01*
X242104Y414780D01*
X242137Y414693D01*
X242170Y414583D01*
X242180Y414452D01*
X242191Y414321D01*
Y414266D01*
X242180Y414223D01*
X242170Y414114D01*
X242148Y413971D01*
X242093Y413818D01*
X242027Y413644D01*
X241940Y413469D01*
X241809Y413305D01*
X241787Y413283D01*
X241732Y413239D01*
X241689Y413206D01*
X241634Y413173D01*
X241568Y413130D01*
X241492Y413097D01*
X241405Y413053D01*
X241295Y413010D01*
X241175Y412977D01*
X241044Y412944D01*
X240902Y412922D01*
X240749Y412900D01*
X240563Y412878D01*
X240377D01*
X237393D01*
Y415469D01*
X240716D01*
X240727D01*
X240738D01*
X240814D01*
X240913D01*
X241033Y415458D01*
D02*
G37*
G36*
X230940Y414813D02*
X230929Y414802D01*
X230918Y414769D01*
X230907Y414726D01*
X230885Y414671D01*
X230864Y414605D01*
X230842Y414529D01*
X230820Y414441D01*
X230787Y414343D01*
X230765Y414223D01*
X230732Y414103D01*
X230700Y413961D01*
X230667Y413807D01*
X230634Y413654D01*
X230612Y413480D01*
X230579Y413294D01*
Y413272D01*
X230569Y413206D01*
X230547Y413097D01*
X230525Y412977D01*
X230503Y412846D01*
X230470Y412714D01*
X230437Y412594D01*
X230394Y412485D01*
Y412474D01*
X230372Y412441D01*
X230350Y412397D01*
X230317Y412354D01*
X230230Y412223D01*
X230099Y412113D01*
X230087D01*
X230066Y412091D01*
X230022Y412080D01*
X229967Y412059D01*
X229902Y412037D01*
X229836Y412015D01*
X229749Y412004D01*
X229661Y411993D01*
X229650D01*
X229596D01*
X229530Y412004D01*
X229443Y412026D01*
X229344Y412059D01*
X229246Y412113D01*
X229137Y412179D01*
X229038Y412266D01*
X229027Y412277D01*
X229006Y412321D01*
X228962Y412387D01*
X228918Y412474D01*
X228874Y412594D01*
X228831Y412736D01*
X228809Y412900D01*
X228798Y413097D01*
Y413184D01*
X228809Y413294D01*
X228831Y413414D01*
X228852Y413567D01*
X228896Y413720D01*
X228951Y413884D01*
X229027Y414048D01*
X229038Y414070D01*
X229071Y414114D01*
X229126Y414190D01*
X229202Y414277D01*
X229290Y414376D01*
X229399Y414485D01*
X229530Y414572D01*
X229672Y414660D01*
X229683Y414671D01*
X229727Y414682D01*
X229803Y414704D01*
X229902Y414737D01*
X230033Y414769D01*
X230186Y414791D01*
X230372Y414802D01*
X230590Y414813D01*
X230940Y414824D01*
Y414813D01*
D02*
G37*
G36*
X231465Y406976D02*
X232405Y406758D01*
X228186Y405654D01*
Y407851D01*
X231465Y406976D01*
D02*
G37*
G36*
X241098Y409578D02*
X241251Y409556D01*
X241415Y409512D01*
X241579Y409457D01*
X241743Y409381D01*
X241874Y409282D01*
X241885Y409271D01*
X241929Y409228D01*
X241984Y409162D01*
X242038Y409064D01*
X242104Y408944D01*
X242148Y408802D01*
X242191Y408627D01*
X242202Y408430D01*
Y408364D01*
X242191Y408288D01*
X242180Y408179D01*
X242148Y408069D01*
X242115Y407938D01*
X242060Y407807D01*
X241984Y407665D01*
X241973Y407654D01*
X241940Y407610D01*
X241896Y407545D01*
X241831Y407468D01*
X241743Y407381D01*
X241645Y407293D01*
X241525Y407217D01*
X241393Y407151D01*
X241372Y407140D01*
X241328Y407129D01*
X241241Y407107D01*
X241131Y407074D01*
X240989Y407042D01*
X240814Y407020D01*
X240617Y407009D01*
X240388Y406998D01*
X237393D01*
Y409588D01*
X240869D01*
X240880D01*
X240902D01*
X240934D01*
X240978D01*
X241098Y409578D01*
D02*
G37*
G36*
X252153Y405490D02*
X252197D01*
X252328Y405468D01*
X252470Y405435D01*
X252645Y405380D01*
X252809Y405326D01*
X252973Y405238D01*
X253115Y405140D01*
X253126D01*
X253137Y405118D01*
X253202Y405063D01*
X253290Y404965D01*
X253388Y404834D01*
X253486Y404670D01*
X253574Y404473D01*
X253640Y404244D01*
X253650Y404123D01*
X253661Y403992D01*
Y403927D01*
X253650Y403883D01*
X253640Y403763D01*
X253607Y403621D01*
X253552Y403446D01*
X253476Y403260D01*
X253366Y403085D01*
X253224Y402910D01*
X253202Y402888D01*
X253148Y402845D01*
X253049Y402768D01*
X252918Y402692D01*
X252765Y402604D01*
X252568Y402528D01*
X252339Y402462D01*
X252087Y402429D01*
Y405501D01*
X252098D01*
X252120D01*
X252153Y405490D01*
D02*
G37*
G36*
X240333Y404014D02*
X240421D01*
X240519Y404003D01*
X240749Y403970D01*
X240989Y403916D01*
X241251Y403828D01*
X241492Y403708D01*
X241612Y403643D01*
X241710Y403555D01*
X241721D01*
X241732Y403533D01*
X241798Y403468D01*
X241874Y403369D01*
X241973Y403238D01*
X242071Y403074D01*
X242159Y402877D01*
X242213Y402659D01*
X242224Y402539D01*
X242235Y402407D01*
Y402342D01*
X242224Y402287D01*
X242213Y402167D01*
X242170Y402003D01*
X242104Y401817D01*
X242017Y401620D01*
X241885Y401435D01*
X241798Y401336D01*
X241710Y401249D01*
X241700D01*
X241689Y401227D01*
X241656Y401205D01*
X241612Y401172D01*
X241558Y401140D01*
X241492Y401107D01*
X241405Y401063D01*
X241317Y401019D01*
X241208Y400976D01*
X241098Y400932D01*
X240967Y400899D01*
X240825Y400866D01*
X240672Y400834D01*
X240508Y400812D01*
X240322Y400801D01*
X240137Y400790D01*
X240126D01*
X240093D01*
X240038D01*
X239962Y400801D01*
X239874D01*
X239776Y400812D01*
X239546Y400844D01*
X239284Y400899D01*
X239022Y400986D01*
X238770Y401096D01*
X238661Y401172D01*
X238552Y401249D01*
Y401260D01*
X238530Y401271D01*
X238475Y401336D01*
X238388Y401435D01*
X238300Y401566D01*
X238202Y401730D01*
X238115Y401927D01*
X238060Y402156D01*
X238049Y402276D01*
X238038Y402407D01*
Y402473D01*
X238049Y402528D01*
X238071Y402648D01*
X238104Y402812D01*
X238169Y402987D01*
X238257Y403184D01*
X238388Y403369D01*
X238475Y403468D01*
X238563Y403555D01*
X238574Y403566D01*
X238584Y403577D01*
X238617Y403599D01*
X238661Y403632D01*
X238716Y403664D01*
X238781Y403708D01*
X238869Y403752D01*
X238956Y403796D01*
X239065Y403839D01*
X239186Y403872D01*
X239317Y403916D01*
X239459Y403949D01*
X239623Y403981D01*
X239787Y404003D01*
X239973Y404025D01*
X240169D01*
X240180D01*
X240213D01*
X240268D01*
X240333Y404014D01*
D02*
G37*
G36*
X243000Y399839D02*
X240202D01*
X240279Y399850D01*
X240388D01*
X240508Y399861D01*
X240661Y399883D01*
X240814Y399904D01*
X240989Y399948D01*
X241164Y399992D01*
X241350Y400047D01*
X241547Y400112D01*
X241732Y400200D01*
X241907Y400287D01*
X242082Y400407D01*
X242246Y400527D01*
X242388Y400680D01*
X242399Y400691D01*
X242410Y400713D01*
X242443Y400757D01*
X242487Y400812D01*
X242530Y400877D01*
X242585Y400965D01*
X242640Y401052D01*
X242694Y401161D01*
X242749Y401282D01*
X242804Y401413D01*
X242902Y401708D01*
X242978Y402047D01*
X242989Y402222D01*
X243000Y402407D01*
Y399839D01*
D02*
G37*
G36*
X252853Y399445D02*
X252951D01*
X253060Y399434D01*
X253191Y399424D01*
X253323Y399413D01*
X253618Y399358D01*
X253924Y399292D01*
X254208Y399194D01*
X254350Y399128D01*
X254470Y399063D01*
X254481D01*
X254503Y399041D01*
X254536Y399019D01*
X254579Y398997D01*
X254689Y398910D01*
X254820Y398800D01*
X254962Y398658D01*
X255104Y398495D01*
X255224Y398309D01*
X255323Y398112D01*
X255334Y398090D01*
X255345Y398035D01*
X255377Y397937D01*
X255410Y397795D01*
X255432Y397620D01*
X255465Y397401D01*
X255476Y397270D01*
Y397128D01*
X255487Y396986D01*
Y395237D01*
X249716D01*
Y397030D01*
X249727Y397106D01*
X249738Y397270D01*
X249748Y397456D01*
X249770Y397653D01*
X249803Y397850D01*
X249847Y398014D01*
X249858Y398035D01*
X249869Y398090D01*
X249901Y398167D01*
X249945Y398265D01*
X250011Y398374D01*
X250076Y398484D01*
X250153Y398593D01*
X250240Y398702D01*
X250262Y398713D01*
X250306Y398757D01*
X250382Y398822D01*
X250492Y398899D01*
X250634Y398986D01*
X250798Y399085D01*
X250984Y399172D01*
X251191Y399249D01*
X251202D01*
X251224Y399260D01*
X251257Y399271D01*
X251301Y399282D01*
X251355Y399292D01*
X251432Y399314D01*
X251508Y399336D01*
X251596Y399358D01*
X251814Y399391D01*
X252066Y399424D01*
X252350Y399445D01*
X252656Y399456D01*
X252667D01*
X252710D01*
X252765D01*
X252853Y399445D01*
D02*
G37*
G36*
X229628Y396691D02*
X229508Y396669D01*
X229377Y396636D01*
X229235Y396582D01*
X229071Y396516D01*
X228918Y396429D01*
X228896Y396418D01*
X228852Y396374D01*
X228776Y396319D01*
X228689Y396232D01*
X228590Y396112D01*
X228481Y395981D01*
X228382Y395828D01*
X228284Y395642D01*
Y395631D01*
X228273Y395620D01*
X228251Y395554D01*
X228219Y395445D01*
X228175Y395303D01*
X228131Y395128D01*
X228098Y394931D01*
X228076Y394724D01*
X228065Y394483D01*
Y396702D01*
X229716D01*
X229628Y396691D01*
D02*
G37*
G36*
X230186Y388898D02*
X230055Y388876D01*
X229902Y388854D01*
X229738Y388810D01*
X229563Y388756D01*
X229388Y388679D01*
X229366Y388668D01*
X229311Y388636D01*
X229235Y388592D01*
X229126Y388526D01*
X229016Y388439D01*
X228896Y388351D01*
X228776Y388242D01*
X228678Y388122D01*
X228667Y388111D01*
X228634Y388067D01*
X228590Y387991D01*
X228546Y387892D01*
X228481Y387772D01*
X228415Y387630D01*
X228361Y387477D01*
X228306Y387291D01*
Y387269D01*
X228284Y387204D01*
X228273Y387094D01*
X228251Y386952D01*
X228229Y386777D01*
X228208Y386570D01*
X228197Y386340D01*
X228186Y386078D01*
Y388909D01*
X230295D01*
X230186Y388898D01*
D02*
G37*
G36*
X233826Y387543D02*
X233913Y387532D01*
X234022Y387510D01*
X234132Y387477D01*
X234241Y387433D01*
X234350Y387368D01*
X234361Y387357D01*
X234394Y387335D01*
X234449Y387291D01*
X234503Y387237D01*
X234569Y387160D01*
X234634Y387073D01*
X234700Y386963D01*
X234744Y386843D01*
Y386832D01*
X234766Y386777D01*
X234776Y386701D01*
X234798Y386581D01*
X234820Y386417D01*
X234831Y386231D01*
X234853Y385991D01*
Y384198D01*
X232580D01*
Y386056D01*
X232591Y386198D01*
X232601Y386351D01*
X232612Y386504D01*
X232634Y386657D01*
X232656Y386777D01*
X232667Y386799D01*
X232678Y386843D01*
X232711Y386909D01*
X232754Y386996D01*
X232798Y387084D01*
X232864Y387182D01*
X232951Y387280D01*
X233039Y387357D01*
X233050Y387368D01*
X233082Y387390D01*
X233148Y387422D01*
X233224Y387455D01*
X233312Y387488D01*
X233421Y387521D01*
X233552Y387543D01*
X233694Y387554D01*
X233716D01*
X233760D01*
X233826Y387543D01*
D02*
G37*
G36*
X230536Y387871D02*
X230634Y387849D01*
X230743Y387827D01*
X230864Y387783D01*
X230984Y387729D01*
X231104Y387652D01*
X231115Y387641D01*
X231159Y387608D01*
X231213Y387564D01*
X231279Y387499D01*
X231355Y387411D01*
X231432Y387302D01*
X231498Y387182D01*
X231552Y387040D01*
X231563Y387018D01*
X231574Y386974D01*
X231596Y386876D01*
X231618Y386756D01*
X231640Y386603D01*
X231662Y386417D01*
X231683Y386187D01*
Y384198D01*
X229082D01*
Y386351D01*
X229093Y386581D01*
X229104Y386679D01*
X229115Y386767D01*
Y386777D01*
X229126Y386821D01*
X229137Y386887D01*
X229158Y386963D01*
X229224Y387149D01*
X229311Y387335D01*
X229322Y387346D01*
X229344Y387379D01*
X229377Y387422D01*
X229421Y387477D01*
X229486Y387532D01*
X229552Y387608D01*
X229639Y387663D01*
X229738Y387729D01*
X229749Y387739D01*
X229782Y387750D01*
X229847Y387772D01*
X229924Y387805D01*
X230011Y387838D01*
X230120Y387860D01*
X230252Y387871D01*
X230383Y387881D01*
X230404D01*
X230448D01*
X230536Y387871D01*
D02*
G37*
%LPC*%
G36*
X269689Y364445D02*
X269564D01*
X269494D01*
X269480D01*
X269467D01*
X269036D01*
X268648Y364417D01*
X268301Y364389D01*
X267968Y364361D01*
X267690Y364320D01*
X267426Y364264D01*
X267204Y364209D01*
X266996Y364167D01*
X266829Y364111D01*
X266691Y364056D01*
X266566Y364014D01*
X266469Y363959D01*
X266399Y363931D01*
X266357Y363903D01*
X266330Y363876D01*
X266316D01*
X266177Y363765D01*
X266066Y363653D01*
X265955Y363543D01*
X265872Y363431D01*
X265733Y363195D01*
X265636Y362987D01*
X265580Y362793D01*
X265552Y362654D01*
X265539Y362599D01*
Y362515D01*
X265552Y362363D01*
X265566Y362224D01*
X265664Y361960D01*
X265788Y361724D01*
X265927Y361516D01*
X266066Y361363D01*
X266191Y361238D01*
X266288Y361169D01*
X266302Y361141D01*
X266316D01*
X266482Y361044D01*
X266677Y360961D01*
X266899Y360877D01*
X267135Y360822D01*
X267385Y360767D01*
X267648Y360725D01*
X268190Y360655D01*
X268439Y360628D01*
X268675Y360614D01*
X268898Y360600D01*
X269078D01*
X269245Y360586D01*
X269369D01*
X269439D01*
X269467D01*
X269897Y360600D01*
X270286Y360614D01*
X270646Y360642D01*
X270979Y360683D01*
X271271Y360725D01*
X271535Y360780D01*
X271771Y360836D01*
X271979Y360891D01*
X272159Y360947D01*
X272312Y360988D01*
X272437Y361044D01*
X272548Y361086D01*
X272617Y361127D01*
X272673Y361155D01*
X272701Y361183D01*
X272714D01*
X272839Y361280D01*
X272951Y361377D01*
X273034Y361488D01*
X273117Y361599D01*
X273242Y361821D01*
X273325Y362030D01*
X273367Y362210D01*
X273395Y362363D01*
X273409Y362418D01*
Y362502D01*
X273395Y362654D01*
X273381Y362807D01*
X273339Y362946D01*
X273284Y363071D01*
X273159Y363306D01*
X273020Y363515D01*
X272867Y363667D01*
X272742Y363792D01*
X272687Y363834D01*
X272645Y363862D01*
X272631Y363890D01*
X272617D01*
X272451Y363987D01*
X272256Y364070D01*
X272034Y364153D01*
X271798Y364209D01*
X271549Y364264D01*
X271285Y364306D01*
X270757Y364375D01*
X270494Y364403D01*
X270258Y364417D01*
X270036Y364431D01*
X269855D01*
X269689Y364445D01*
D02*
G37*
G36*
Y356977D02*
X269564D01*
X269494D01*
X269480D01*
X269467D01*
X269036D01*
X268648Y356949D01*
X268301Y356922D01*
X267968Y356894D01*
X267690Y356852D01*
X267426Y356797D01*
X267204Y356741D01*
X266996Y356700D01*
X266829Y356644D01*
X266691Y356589D01*
X266566Y356547D01*
X266469Y356491D01*
X266399Y356464D01*
X266357Y356436D01*
X266330Y356408D01*
X266316D01*
X266177Y356297D01*
X266066Y356186D01*
X265955Y356075D01*
X265872Y355964D01*
X265733Y355728D01*
X265636Y355520D01*
X265580Y355326D01*
X265552Y355187D01*
X265539Y355131D01*
Y355048D01*
X265552Y354895D01*
X265566Y354756D01*
X265664Y354493D01*
X265788Y354257D01*
X265927Y354048D01*
X266066Y353896D01*
X266191Y353771D01*
X266288Y353701D01*
X266302Y353674D01*
X266316D01*
X266482Y353577D01*
X266677Y353493D01*
X266899Y353410D01*
X267135Y353355D01*
X267385Y353299D01*
X267648Y353257D01*
X268190Y353188D01*
X268439Y353160D01*
X268675Y353146D01*
X268898Y353133D01*
X269078D01*
X269245Y353119D01*
X269369D01*
X269439D01*
X269467D01*
X269897Y353133D01*
X270286Y353146D01*
X270646Y353174D01*
X270979Y353216D01*
X271271Y353257D01*
X271535Y353313D01*
X271771Y353368D01*
X271979Y353424D01*
X272159Y353480D01*
X272312Y353521D01*
X272437Y353577D01*
X272548Y353618D01*
X272617Y353660D01*
X272673Y353688D01*
X272701Y353715D01*
X272714D01*
X272839Y353813D01*
X272951Y353910D01*
X273034Y354021D01*
X273117Y354132D01*
X273242Y354354D01*
X273325Y354562D01*
X273367Y354743D01*
X273395Y354895D01*
X273409Y354951D01*
Y355034D01*
X273395Y355187D01*
X273381Y355339D01*
X273339Y355478D01*
X273284Y355603D01*
X273159Y355839D01*
X273020Y356047D01*
X272867Y356200D01*
X272742Y356325D01*
X272687Y356366D01*
X272645Y356394D01*
X272631Y356422D01*
X272617D01*
X272451Y356519D01*
X272256Y356603D01*
X272034Y356686D01*
X271798Y356741D01*
X271549Y356797D01*
X271285Y356838D01*
X270757Y356908D01*
X270494Y356936D01*
X270258Y356949D01*
X270036Y356963D01*
X269855D01*
X269689Y356977D01*
D02*
G37*
G36*
X269716Y336768D02*
X269633D01*
X269578D01*
X269536D01*
X269522D01*
X269189Y336754D01*
X268870Y336726D01*
X268564Y336685D01*
X268287Y336629D01*
X268037Y336546D01*
X267801Y336476D01*
X267579Y336393D01*
X267385Y336310D01*
X267218Y336213D01*
X267065Y336129D01*
X266940Y336060D01*
X266843Y335991D01*
X266760Y335921D01*
X266691Y335880D01*
X266663Y335852D01*
X266649Y335838D01*
X266469Y335658D01*
X266316Y335463D01*
X266191Y335269D01*
X266066Y335075D01*
X265969Y334880D01*
X265899Y334672D01*
X265830Y334492D01*
X265774Y334297D01*
X265733Y334131D01*
X265705Y333964D01*
X265677Y333825D01*
X265664Y333700D01*
Y333603D01*
X265650Y333534D01*
Y333465D01*
X265664Y333201D01*
X265691Y332951D01*
X265747Y332729D01*
X265802Y332507D01*
X265885Y332299D01*
X265969Y332104D01*
X266052Y331924D01*
X266149Y331757D01*
X266246Y331618D01*
X266330Y331494D01*
X266413Y331382D01*
X266496Y331285D01*
X266552Y331216D01*
X266607Y331160D01*
X266635Y331133D01*
X266649Y331119D01*
X266843Y330952D01*
X267052Y330813D01*
X267273Y330689D01*
X267496Y330577D01*
X267732Y330494D01*
X267954Y330411D01*
X268398Y330300D01*
X268592Y330272D01*
X268787Y330244D01*
X268953Y330217D01*
X269092Y330203D01*
X269217Y330189D01*
X269314D01*
X269369D01*
X269383D01*
X269772Y330203D01*
X270133Y330230D01*
X270480Y330272D01*
X270785Y330342D01*
X271063Y330411D01*
X271313Y330494D01*
X271549Y330591D01*
X271743Y330675D01*
X271923Y330772D01*
X272076Y330855D01*
X272201Y330938D01*
X272298Y331008D01*
X272381Y331077D01*
X272437Y331119D01*
X272465Y331147D01*
X272479Y331160D01*
X272645Y331341D01*
X272784Y331535D01*
X272909Y331730D01*
X273020Y331938D01*
X273103Y332132D01*
X273186Y332326D01*
X273297Y332687D01*
X273325Y332854D01*
X273353Y333007D01*
X273381Y333131D01*
X273395Y333256D01*
X273409Y333353D01*
Y333478D01*
X273395Y333825D01*
X273339Y334158D01*
X273256Y334450D01*
X273172Y334700D01*
X273075Y334908D01*
X273034Y334991D01*
X273006Y335061D01*
X272964Y335130D01*
X272951Y335172D01*
X272923Y335186D01*
Y335199D01*
X272728Y335463D01*
X272506Y335699D01*
X272284Y335907D01*
X272062Y336074D01*
X271868Y336199D01*
X271701Y336296D01*
X271646Y336324D01*
X271604Y336351D01*
X271576Y336365D01*
X271562D01*
X271229Y336504D01*
X270868Y336601D01*
X270535Y336671D01*
X270216Y336712D01*
X270063Y336740D01*
X269938Y336754D01*
X269814D01*
X269716Y336768D01*
D02*
G37*
G36*
X215644Y223296D02*
X213978D01*
X213811Y223185D01*
X213663Y223056D01*
X213533Y222926D01*
X213422Y222797D01*
X213330Y222686D01*
X213274Y222593D01*
X213237Y222519D01*
X213219Y222500D01*
X213126Y222315D01*
X213052Y222112D01*
X213015Y221927D01*
X212978Y221760D01*
X212960Y221631D01*
X212941Y221501D01*
Y221408D01*
X212960Y221186D01*
X212997Y220983D01*
X213052Y220816D01*
X213108Y220668D01*
X213163Y220538D01*
X213219Y220464D01*
X213256Y220409D01*
X213274Y220390D01*
X213404Y220261D01*
X213552Y220168D01*
X213700Y220113D01*
X213848Y220076D01*
X213978Y220039D01*
X214089Y220020D01*
X214163D01*
X214181D01*
X214422Y220039D01*
X214644Y220113D01*
X214829Y220205D01*
X214977Y220298D01*
X215088Y220409D01*
X215181Y220483D01*
X215236Y220557D01*
X215255Y220575D01*
X215384Y220797D01*
X215477Y221075D01*
X215551Y221334D01*
X215588Y221612D01*
X215625Y221853D01*
X215644Y222038D01*
Y223296D01*
D02*
G37*
%LPD*%
D12*
X212598Y480315D02*
X282677D01*
X212598Y557874D02*
X282677D01*
X212598Y480315D02*
Y557874D01*
X282677Y480315D02*
Y557874D01*
X351110Y480959D02*
X355109D01*
Y482959D01*
X354442Y483625D01*
X353110D01*
X352443Y482959D01*
Y480959D01*
Y482292D02*
X351110Y483625D01*
Y487624D02*
Y484958D01*
X353776Y487624D01*
X354442D01*
X355109Y486957D01*
Y485624D01*
X354442Y484958D01*
Y488957D02*
X355109Y489623D01*
Y490956D01*
X354442Y491622D01*
X353776D01*
X353110Y490956D01*
Y490290D01*
Y490956D01*
X352443Y491622D01*
X351777D01*
X351110Y490956D01*
Y489623D01*
X351777Y488957D01*
X350444Y492955D02*
Y495621D01*
X355109Y496954D02*
X351110D01*
Y498953D01*
X351777Y499620D01*
X352443D01*
X353110Y498953D01*
Y496954D01*
Y498953D01*
X353776Y499620D01*
X354442D01*
X355109Y498953D01*
Y496954D01*
X349530Y248685D02*
X353529D01*
Y250685D01*
X352862Y251351D01*
X351529D01*
X350863Y250685D01*
Y248685D01*
Y250018D02*
X349530Y251351D01*
Y255350D02*
Y252684D01*
X352196Y255350D01*
X352862D01*
X353529Y254683D01*
Y253350D01*
X352862Y252684D01*
Y256683D02*
X353529Y257349D01*
Y258682D01*
X352862Y259349D01*
X352196D01*
X351529Y258682D01*
Y258016D01*
Y258682D01*
X350863Y259349D01*
X350196D01*
X349530Y258682D01*
Y257349D01*
X350196Y256683D01*
X348864Y260681D02*
Y263347D01*
X349530Y264680D02*
X352196D01*
X353529Y266013D01*
X352196Y267346D01*
X349530D01*
X351529D01*
Y264680D01*
X317152Y503728D02*
X313153D01*
Y501729D01*
X313820Y501062D01*
X315153D01*
X315819Y501729D01*
Y503728D01*
Y502395D02*
X317152Y501062D01*
Y497064D02*
Y499729D01*
X314486Y497064D01*
X313820D01*
X313153Y497730D01*
Y499063D01*
X313820Y499729D01*
Y495731D02*
X313153Y495064D01*
Y493731D01*
X313820Y493065D01*
X316486D01*
X317152Y493731D01*
Y495064D01*
X316486Y495731D01*
X313820D01*
X317818Y491732D02*
Y489066D01*
X313153Y487733D02*
X317152D01*
Y485734D01*
X316486Y485068D01*
X315819D01*
X315153Y485734D01*
Y487733D01*
Y485734D01*
X314486Y485068D01*
X313820D01*
X313153Y485734D01*
Y487733D01*
X315003Y273034D02*
X311004D01*
Y271035D01*
X311671Y270369D01*
X313004D01*
X313670Y271035D01*
Y273034D01*
Y271701D02*
X315003Y270369D01*
Y266370D02*
Y269036D01*
X312337Y266370D01*
X311671D01*
X311004Y267036D01*
Y268369D01*
X311671Y269036D01*
Y265037D02*
X311004Y264370D01*
Y263038D01*
X311671Y262371D01*
X314337D01*
X315003Y263038D01*
Y264370D01*
X314337Y265037D01*
X311671D01*
X315670Y261038D02*
Y258372D01*
X315003Y257039D02*
X312337D01*
X311004Y255707D01*
X312337Y254374D01*
X315003D01*
X313004D01*
Y257039D01*
X317342Y529372D02*
X313343D01*
Y527372D01*
X314009Y526706D01*
X315342D01*
X316009Y527372D01*
Y529372D01*
Y528039D02*
X317342Y526706D01*
Y525373D02*
Y524040D01*
Y524707D01*
X313343D01*
X314009Y525373D01*
X316675Y522041D02*
X317342Y521374D01*
Y520041D01*
X316675Y519375D01*
X314009D01*
X313343Y520041D01*
Y521374D01*
X314009Y522041D01*
X314676D01*
X315342Y521374D01*
Y519375D01*
X318008Y518042D02*
Y515376D01*
X313343Y514043D02*
X317342D01*
Y512044D01*
X316675Y511377D01*
X316009D01*
X315342Y512044D01*
Y514043D01*
Y512044D01*
X314676Y511377D01*
X314009D01*
X313343Y512044D01*
Y514043D01*
X315130Y298488D02*
X311131D01*
Y296489D01*
X311797Y295823D01*
X313130D01*
X313797Y296489D01*
Y298488D01*
Y297155D02*
X315130Y295823D01*
Y294490D02*
Y293157D01*
Y293823D01*
X311131D01*
X311797Y294490D01*
X314463Y291157D02*
X315130Y290491D01*
Y289158D01*
X314463Y288492D01*
X311797D01*
X311131Y289158D01*
Y290491D01*
X311797Y291157D01*
X312464D01*
X313130Y290491D01*
Y288492D01*
X315796Y287159D02*
Y284493D01*
X315130Y283160D02*
X312464D01*
X311131Y281827D01*
X312464Y280494D01*
X315130D01*
X313130D01*
Y283160D01*
X352066Y283482D02*
X352566Y282982D01*
Y281982D01*
X352066Y281482D01*
X350067D01*
X349567Y281982D01*
Y282982D01*
X350067Y283482D01*
X349567Y286480D02*
Y284481D01*
X351567Y286480D01*
X352066D01*
X352566Y285981D01*
Y284981D01*
X352066Y284481D01*
Y287480D02*
X352566Y287980D01*
Y288980D01*
X352066Y289480D01*
X350067D01*
X349567Y288980D01*
Y287980D01*
X350067Y287480D01*
X352066D01*
X349067Y290479D02*
Y292479D01*
X349567Y293478D02*
X351567D01*
X352566Y294478D01*
X351567Y295478D01*
X349567D01*
X351067D01*
Y293478D01*
X352446Y514871D02*
X352946Y514371D01*
Y513371D01*
X352446Y512871D01*
X350446D01*
X349946Y513371D01*
Y514371D01*
X350446Y514871D01*
X349946Y517870D02*
Y515870D01*
X351946Y517870D01*
X352446D01*
X352946Y517370D01*
Y516370D01*
X352446Y515870D01*
Y518869D02*
X352946Y519369D01*
Y520369D01*
X352446Y520869D01*
X350446D01*
X349946Y520369D01*
Y519369D01*
X350446Y518869D01*
X352446D01*
X349447Y521868D02*
Y523868D01*
X352946Y524867D02*
X349946D01*
Y526367D01*
X350446Y526867D01*
X350946D01*
X351446Y526367D01*
Y524867D01*
Y526367D01*
X351946Y526867D01*
X352446D01*
X352946Y526367D01*
Y524867D01*
D14*
X317952Y253788D02*
X330952D01*
X317952Y273788D02*
X330952D01*
Y253788D02*
Y260788D01*
Y266788D02*
Y273788D01*
X317952Y253788D02*
Y260788D01*
Y266788D02*
Y273788D01*
X334176Y248942D02*
X347176D01*
X334176Y268942D02*
X347176D01*
Y248942D02*
Y255942D01*
Y261942D02*
Y268942D01*
X334176Y248942D02*
Y255942D01*
Y261942D02*
Y268942D01*
X317894Y299031D02*
X330894D01*
X317894Y279031D02*
X330894D01*
X317894Y292031D02*
Y299031D01*
Y279031D02*
Y286031D01*
X330894Y292031D02*
Y299031D01*
Y279031D02*
Y286031D01*
X340604Y295148D02*
X346604D01*
X340604Y283148D02*
X346604D01*
X340604Y290148D02*
Y295148D01*
Y283148D02*
Y288148D01*
X346604Y290148D02*
Y295148D01*
Y283148D02*
Y288148D01*
X319091Y484488D02*
X332090D01*
X319091Y504488D02*
X332090D01*
Y484488D02*
Y491488D01*
Y497488D02*
Y504488D01*
X319091Y484488D02*
Y491488D01*
Y497488D02*
Y504488D01*
X347882Y513685D02*
Y518685D01*
Y520685D02*
Y525685D01*
X341882Y513685D02*
Y518685D01*
Y520685D02*
Y525685D01*
Y513685D02*
X347882D01*
X341882Y525685D02*
X347882D01*
X319484Y530079D02*
X332484D01*
X319484Y510079D02*
X332484D01*
X319484Y523079D02*
Y530079D01*
Y510079D02*
Y517079D01*
X332484Y523079D02*
Y530079D01*
Y510079D02*
Y517079D01*
X335626Y479864D02*
X348626D01*
X335626Y499864D02*
X348626D01*
Y479864D02*
Y486864D01*
Y492864D02*
Y499864D01*
X335626Y479864D02*
Y486864D01*
Y492864D02*
Y499864D01*
M02*
