G04*
G04 #@! TF.GenerationSoftware,Altium Limited,Altium Designer,21.3.1 (25)*
G04*
G04 Layer_Color=32896*
%FSLAX25Y25*%
%MOIN*%
G70*
G04*
G04 #@! TF.SameCoordinates,C2895D86-3F53-4CC5-9A74-561D9FEADA75*
G04*
G04*
G04 #@! TF.FilePolarity,Positive*
G04*
G01*
G75*
%ADD12C,0.01000*%
%ADD13C,0.00800*%
G36*
X228722Y260693D02*
X203722D01*
Y390693D01*
X228722D01*
Y260693D01*
D02*
G37*
G36*
X257955D02*
X232955D01*
Y390693D01*
X257955D01*
Y260693D01*
D02*
G37*
G36*
X280101Y422749D02*
X245797D01*
Y422749D01*
X236458D01*
D01*
X202740D01*
Y521174D01*
X236458D01*
D01*
X245797D01*
Y521175D01*
X280101D01*
Y422749D01*
D02*
G37*
G36*
X269980Y365638D02*
X270202D01*
X270424Y365624D01*
X270619Y365597D01*
X270813Y365583D01*
X270979Y365569D01*
X271132Y365541D01*
X271271Y365527D01*
X271396Y365499D01*
X271493Y365486D01*
X271576Y365472D01*
X271646Y365458D01*
X271687Y365444D01*
X271715Y365430D01*
X271729D01*
X272034Y365347D01*
X272312Y365250D01*
X272548Y365139D01*
X272756Y365055D01*
X272937Y364958D01*
X273061Y364903D01*
X273131Y364847D01*
X273159Y364833D01*
X273367Y364681D01*
X273547Y364528D01*
X273700Y364361D01*
X273839Y364209D01*
X273936Y364070D01*
X274005Y363959D01*
X274047Y363890D01*
X274061Y363876D01*
Y363862D01*
X274172Y363640D01*
X274241Y363404D01*
X274297Y363182D01*
X274339Y362973D01*
X274366Y362793D01*
X274380Y362640D01*
Y362515D01*
X274352Y362141D01*
X274297Y361794D01*
X274200Y361502D01*
X274102Y361252D01*
X273991Y361044D01*
X273950Y360961D01*
X273894Y360891D01*
X273867Y360836D01*
X273839Y360794D01*
X273811Y360780D01*
Y360767D01*
X273589Y360517D01*
X273325Y360308D01*
X273061Y360128D01*
X272812Y359989D01*
X272576Y359878D01*
X272479Y359823D01*
X272381Y359795D01*
X272312Y359767D01*
X272256Y359739D01*
X272229Y359725D01*
X272215D01*
X272007Y359670D01*
X271798Y359614D01*
X271340Y359531D01*
X270882Y359462D01*
X270452Y359420D01*
X270244Y359406D01*
X270063Y359392D01*
X269897D01*
X269744Y359379D01*
X269633D01*
X269536D01*
X269480D01*
X269467D01*
X268981Y359392D01*
X268523Y359420D01*
X268106Y359462D01*
X267718Y359531D01*
X267357Y359601D01*
X267038Y359684D01*
X266746Y359767D01*
X266496Y359850D01*
X266274Y359934D01*
X266080Y360031D01*
X265913Y360100D01*
X265788Y360170D01*
X265677Y360239D01*
X265608Y360281D01*
X265566Y360308D01*
X265552Y360322D01*
X265386Y360475D01*
X265233Y360642D01*
X265094Y360822D01*
X264983Y361002D01*
X264886Y361183D01*
X264803Y361363D01*
X264747Y361544D01*
X264692Y361710D01*
X264650Y361877D01*
X264622Y362030D01*
X264595Y362168D01*
X264581Y362279D01*
X264567Y362376D01*
Y362515D01*
X264595Y362890D01*
X264650Y363237D01*
X264747Y363529D01*
X264844Y363778D01*
X264942Y363987D01*
X264997Y364056D01*
X265039Y364125D01*
X265067Y364181D01*
X265094Y364223D01*
X265122Y364236D01*
Y364250D01*
X265358Y364500D01*
X265608Y364708D01*
X265885Y364889D01*
X266135Y365028D01*
X266371Y365139D01*
X266469Y365194D01*
X266566Y365222D01*
X266635Y365250D01*
X266691Y365278D01*
X266718Y365291D01*
X266732D01*
X266940Y365361D01*
X267149Y365416D01*
X267593Y365499D01*
X268051Y365569D01*
X268495Y365611D01*
X268689Y365624D01*
X268870Y365638D01*
X269036D01*
X269189Y365652D01*
X269300D01*
X269397D01*
X269453D01*
X269467D01*
X269730D01*
X269980Y365638D01*
D02*
G37*
G36*
Y358171D02*
X270202D01*
X270424Y358157D01*
X270619Y358129D01*
X270813Y358115D01*
X270979Y358102D01*
X271132Y358074D01*
X271271Y358060D01*
X271396Y358032D01*
X271493Y358018D01*
X271576Y358004D01*
X271646Y357991D01*
X271687Y357977D01*
X271715Y357963D01*
X271729D01*
X272034Y357879D01*
X272312Y357782D01*
X272548Y357671D01*
X272756Y357588D01*
X272937Y357491D01*
X273061Y357435D01*
X273131Y357380D01*
X273159Y357366D01*
X273367Y357213D01*
X273547Y357061D01*
X273700Y356894D01*
X273839Y356741D01*
X273936Y356603D01*
X274005Y356491D01*
X274047Y356422D01*
X274061Y356408D01*
Y356394D01*
X274172Y356172D01*
X274241Y355936D01*
X274297Y355714D01*
X274339Y355506D01*
X274366Y355326D01*
X274380Y355173D01*
Y355048D01*
X274352Y354673D01*
X274297Y354326D01*
X274200Y354035D01*
X274102Y353785D01*
X273991Y353577D01*
X273950Y353493D01*
X273894Y353424D01*
X273867Y353368D01*
X273839Y353327D01*
X273811Y353313D01*
Y353299D01*
X273589Y353049D01*
X273325Y352841D01*
X273061Y352661D01*
X272812Y352522D01*
X272576Y352411D01*
X272479Y352355D01*
X272381Y352327D01*
X272312Y352300D01*
X272256Y352272D01*
X272229Y352258D01*
X272215D01*
X272007Y352203D01*
X271798Y352147D01*
X271340Y352064D01*
X270882Y351994D01*
X270452Y351953D01*
X270244Y351939D01*
X270063Y351925D01*
X269897D01*
X269744Y351911D01*
X269633D01*
X269536D01*
X269480D01*
X269467D01*
X268981Y351925D01*
X268523Y351953D01*
X268106Y351994D01*
X267718Y352064D01*
X267357Y352133D01*
X267038Y352216D01*
X266746Y352300D01*
X266496Y352383D01*
X266274Y352466D01*
X266080Y352563D01*
X265913Y352633D01*
X265788Y352702D01*
X265677Y352772D01*
X265608Y352813D01*
X265566Y352841D01*
X265552Y352855D01*
X265386Y353008D01*
X265233Y353174D01*
X265094Y353355D01*
X264983Y353535D01*
X264886Y353715D01*
X264803Y353896D01*
X264747Y354076D01*
X264692Y354243D01*
X264650Y354409D01*
X264622Y354562D01*
X264595Y354701D01*
X264581Y354812D01*
X264567Y354909D01*
Y355048D01*
X264595Y355423D01*
X264650Y355770D01*
X264747Y356061D01*
X264844Y356311D01*
X264942Y356519D01*
X264997Y356589D01*
X265039Y356658D01*
X265067Y356714D01*
X265094Y356755D01*
X265122Y356769D01*
Y356783D01*
X265358Y357033D01*
X265608Y357241D01*
X265885Y357421D01*
X266135Y357560D01*
X266371Y357671D01*
X266469Y357727D01*
X266566Y357754D01*
X266635Y357782D01*
X266691Y357810D01*
X266718Y357824D01*
X266732D01*
X266940Y357893D01*
X267149Y357949D01*
X267593Y358032D01*
X268051Y358102D01*
X268495Y358143D01*
X268689Y358157D01*
X268870Y358171D01*
X269036D01*
X269189Y358185D01*
X269300D01*
X269397D01*
X269453D01*
X269467D01*
X269730D01*
X269980Y358171D01*
D02*
G37*
G36*
X274339Y349954D02*
X267357Y347344D01*
X267065Y347234D01*
X266788Y347136D01*
X266524Y347053D01*
X266288Y346984D01*
X266080Y346914D01*
X265927Y346873D01*
X265872Y346859D01*
X265830Y346845D01*
X265802Y346831D01*
X265788D01*
X266344Y346664D01*
X266607Y346581D01*
X266843Y346498D01*
X267052Y346428D01*
X267135Y346401D01*
X267218Y346387D01*
X267273Y346359D01*
X267315Y346345D01*
X267343Y346331D01*
X267357D01*
X274339Y343833D01*
Y342445D01*
X264734Y346165D01*
Y347497D01*
X274339Y351245D01*
Y349954D01*
D02*
G37*
G36*
X270036Y338045D02*
X270521Y337989D01*
X270743Y337948D01*
X270966Y337892D01*
X271160Y337837D01*
X271340Y337795D01*
X271507Y337740D01*
X271660Y337684D01*
X271784Y337642D01*
X271896Y337587D01*
X271979Y337559D01*
X272034Y337531D01*
X272076Y337504D01*
X272090D01*
X272492Y337281D01*
X272853Y337018D01*
X273159Y336740D01*
X273409Y336490D01*
X273603Y336254D01*
X273686Y336143D01*
X273756Y336060D01*
X273797Y335977D01*
X273839Y335921D01*
X273853Y335894D01*
X273867Y335880D01*
X273978Y335671D01*
X274075Y335463D01*
X274241Y335061D01*
X274352Y334644D01*
X274422Y334283D01*
X274449Y334117D01*
X274477Y333950D01*
X274491Y333825D01*
Y333700D01*
X274505Y333603D01*
Y333478D01*
X274491Y333104D01*
X274449Y332757D01*
X274380Y332423D01*
X274297Y332104D01*
X274186Y331813D01*
X274075Y331535D01*
X273950Y331285D01*
X273825Y331063D01*
X273700Y330855D01*
X273575Y330675D01*
X273464Y330522D01*
X273353Y330397D01*
X273270Y330300D01*
X273200Y330217D01*
X273159Y330175D01*
X273145Y330161D01*
X272881Y329939D01*
X272604Y329745D01*
X272298Y329564D01*
X271993Y329425D01*
X271673Y329300D01*
X271368Y329189D01*
X271063Y329106D01*
X270771Y329051D01*
X270494Y328995D01*
X270230Y328954D01*
X269994Y328926D01*
X269800Y328898D01*
X269633D01*
X269508Y328884D01*
X269425D01*
X269411D01*
X269397D01*
X268925Y328912D01*
X268495Y328967D01*
X268079Y329051D01*
X267898Y329106D01*
X267718Y329162D01*
X267565Y329203D01*
X267426Y329259D01*
X267301Y329300D01*
X267190Y329342D01*
X267107Y329370D01*
X267052Y329398D01*
X267010Y329425D01*
X266996D01*
X266593Y329661D01*
X266246Y329911D01*
X265941Y330189D01*
X265691Y330453D01*
X265483Y330689D01*
X265400Y330786D01*
X265344Y330869D01*
X265289Y330952D01*
X265247Y331008D01*
X265233Y331035D01*
X265219Y331049D01*
X265108Y331258D01*
X265011Y331466D01*
X264844Y331882D01*
X264734Y332285D01*
X264650Y332660D01*
X264622Y332840D01*
X264609Y332993D01*
X264581Y333131D01*
Y333256D01*
X264567Y333340D01*
Y333478D01*
X264595Y333936D01*
X264664Y334367D01*
X264747Y334769D01*
X264803Y334950D01*
X264858Y335116D01*
X264914Y335269D01*
X264969Y335408D01*
X265011Y335519D01*
X265053Y335616D01*
X265094Y335699D01*
X265122Y335769D01*
X265150Y335796D01*
Y335810D01*
X265400Y336199D01*
X265677Y336532D01*
X265969Y336810D01*
X266246Y337046D01*
X266510Y337240D01*
X266607Y337309D01*
X266704Y337365D01*
X266788Y337420D01*
X266843Y337448D01*
X266885Y337476D01*
X266899D01*
X267121Y337587D01*
X267343Y337670D01*
X267787Y337823D01*
X268231Y337934D01*
X268634Y338003D01*
X268814Y338017D01*
X268981Y338045D01*
X269133Y338059D01*
X269258D01*
X269369Y338073D01*
X269439D01*
X269494D01*
X269508D01*
X270036Y338045D01*
D02*
G37*
G36*
X267704Y327510D02*
X267968Y327468D01*
X268203Y327399D01*
X268398Y327330D01*
X268564Y327246D01*
X268689Y327191D01*
X268759Y327135D01*
X268787Y327121D01*
X268995Y326955D01*
X269189Y326761D01*
X269356Y326552D01*
X269508Y326344D01*
X269619Y326164D01*
X269703Y326011D01*
X269730Y325955D01*
X269758Y325914D01*
X269772Y325886D01*
Y325872D01*
X269827Y325761D01*
X269869Y325622D01*
X269925Y325470D01*
X269980Y325303D01*
X270077Y324956D01*
X270174Y324595D01*
X270216Y324429D01*
X270258Y324276D01*
X270299Y324123D01*
X270327Y323998D01*
X270355Y323901D01*
X270369Y323818D01*
X270383Y323762D01*
Y323748D01*
X270452Y323471D01*
X270508Y323221D01*
X270577Y322999D01*
X270633Y322805D01*
X270702Y322624D01*
X270757Y322471D01*
X270813Y322333D01*
X270855Y322208D01*
X270910Y322111D01*
X270952Y322027D01*
X270979Y321972D01*
X271021Y321916D01*
X271063Y321847D01*
X271077Y321833D01*
X271216Y321708D01*
X271354Y321625D01*
X271493Y321555D01*
X271632Y321514D01*
X271743Y321486D01*
X271840Y321472D01*
X271896D01*
X271923D01*
X272145Y321500D01*
X272340Y321555D01*
X272506Y321639D01*
X272659Y321736D01*
X272770Y321819D01*
X272867Y321902D01*
X272923Y321958D01*
X272937Y321986D01*
X273006Y322097D01*
X273075Y322208D01*
X273186Y322471D01*
X273256Y322749D01*
X273311Y323027D01*
X273339Y323277D01*
X273353Y323388D01*
X273367Y323471D01*
Y323665D01*
X273353Y324054D01*
X273297Y324401D01*
X273214Y324678D01*
X273131Y324914D01*
X273048Y325095D01*
X272964Y325234D01*
X272909Y325303D01*
X272895Y325331D01*
X272701Y325525D01*
X272492Y325678D01*
X272270Y325803D01*
X272048Y325886D01*
X271840Y325942D01*
X271687Y325983D01*
X271618Y325997D01*
X271576Y326011D01*
X271549D01*
X271535D01*
X271632Y327232D01*
X271937Y327205D01*
X272215Y327135D01*
X272479Y327066D01*
X272701Y326969D01*
X272881Y326885D01*
X273020Y326816D01*
X273061Y326788D01*
X273103Y326761D01*
X273117Y326747D01*
X273131D01*
X273367Y326566D01*
X273575Y326372D01*
X273756Y326164D01*
X273894Y325955D01*
X274019Y325775D01*
X274089Y325636D01*
X274116Y325581D01*
X274144Y325539D01*
X274158Y325511D01*
Y325497D01*
X274269Y325192D01*
X274352Y324859D01*
X274422Y324553D01*
X274463Y324262D01*
X274491Y323998D01*
Y323901D01*
X274505Y323804D01*
Y323624D01*
X274491Y323263D01*
X274449Y322943D01*
X274394Y322638D01*
X274339Y322374D01*
X274283Y322166D01*
X274255Y322069D01*
X274227Y322000D01*
X274200Y321944D01*
X274186Y321902D01*
X274172Y321875D01*
Y321861D01*
X274033Y321583D01*
X273880Y321333D01*
X273714Y321125D01*
X273561Y320959D01*
X273422Y320834D01*
X273311Y320737D01*
X273228Y320667D01*
X273214Y320653D01*
X273200D01*
X272964Y320514D01*
X272728Y320417D01*
X272492Y320348D01*
X272284Y320306D01*
X272104Y320279D01*
X271965Y320251D01*
X271909D01*
X271868D01*
X271854D01*
X271840D01*
X271604Y320265D01*
X271382Y320306D01*
X271174Y320362D01*
X270993Y320417D01*
X270855Y320473D01*
X270743Y320528D01*
X270674Y320570D01*
X270646Y320584D01*
X270452Y320723D01*
X270272Y320889D01*
X270119Y321056D01*
X269994Y321222D01*
X269883Y321361D01*
X269814Y321486D01*
X269758Y321569D01*
X269744Y321583D01*
Y321597D01*
X269689Y321708D01*
X269633Y321833D01*
X269536Y322111D01*
X269439Y322430D01*
X269342Y322735D01*
X269258Y323013D01*
X269231Y323138D01*
X269203Y323249D01*
X269175Y323332D01*
X269161Y323401D01*
X269147Y323443D01*
Y323457D01*
X269092Y323693D01*
X269036Y323915D01*
X268981Y324109D01*
X268939Y324276D01*
X268898Y324443D01*
X268856Y324581D01*
X268828Y324706D01*
X268787Y324803D01*
X268759Y324901D01*
X268745Y324970D01*
X268703Y325081D01*
X268689Y325150D01*
X268675Y325164D01*
X268592Y325373D01*
X268495Y325553D01*
X268398Y325706D01*
X268315Y325817D01*
X268231Y325914D01*
X268176Y325969D01*
X268134Y326011D01*
X268120Y326025D01*
X267995Y326122D01*
X267857Y326191D01*
X267718Y326233D01*
X267607Y326275D01*
X267496Y326289D01*
X267412Y326302D01*
X267343D01*
X267329D01*
X267162Y326289D01*
X267010Y326261D01*
X266871Y326219D01*
X266760Y326164D01*
X266649Y326108D01*
X266580Y326066D01*
X266524Y326039D01*
X266510Y326025D01*
X266371Y325914D01*
X266260Y325775D01*
X266163Y325636D01*
X266066Y325511D01*
X266010Y325386D01*
X265955Y325289D01*
X265927Y325220D01*
X265913Y325192D01*
X265844Y324984D01*
X265788Y324762D01*
X265761Y324540D01*
X265733Y324345D01*
X265719Y324179D01*
X265705Y324040D01*
Y323915D01*
X265719Y323610D01*
X265747Y323332D01*
X265788Y323082D01*
X265844Y322860D01*
X265899Y322680D01*
X265941Y322541D01*
X265955Y322499D01*
X265969Y322458D01*
X265983Y322444D01*
Y322430D01*
X266094Y322208D01*
X266219Y322000D01*
X266344Y321847D01*
X266469Y321708D01*
X266566Y321597D01*
X266663Y321528D01*
X266718Y321486D01*
X266732Y321472D01*
X266913Y321375D01*
X267107Y321278D01*
X267315Y321222D01*
X267496Y321167D01*
X267676Y321125D01*
X267801Y321097D01*
X267857D01*
X267898Y321084D01*
X267912D01*
X267926D01*
X267815Y319890D01*
X267468Y319918D01*
X267135Y319973D01*
X266843Y320056D01*
X266580Y320154D01*
X266371Y320251D01*
X266288Y320292D01*
X266219Y320320D01*
X266163Y320362D01*
X266122Y320376D01*
X266094Y320403D01*
X266080D01*
X265816Y320612D01*
X265580Y320834D01*
X265386Y321070D01*
X265219Y321292D01*
X265094Y321486D01*
X265011Y321653D01*
X264983Y321708D01*
X264956Y321750D01*
X264942Y321778D01*
Y321791D01*
X264817Y322138D01*
X264720Y322499D01*
X264664Y322860D01*
X264609Y323207D01*
X264595Y323374D01*
X264581Y323513D01*
Y323638D01*
X264567Y323748D01*
Y323971D01*
X264581Y324345D01*
X264622Y324692D01*
X264692Y325012D01*
X264761Y325275D01*
X264817Y325497D01*
X264858Y325594D01*
X264886Y325678D01*
X264914Y325733D01*
X264928Y325775D01*
X264942Y325803D01*
Y325817D01*
X265094Y326108D01*
X265261Y326358D01*
X265441Y326580D01*
X265608Y326761D01*
X265747Y326899D01*
X265872Y326996D01*
X265955Y327066D01*
X265969Y327080D01*
X265983D01*
X266246Y327232D01*
X266496Y327343D01*
X266732Y327413D01*
X266954Y327468D01*
X267149Y327496D01*
X267301Y327524D01*
X267357D01*
X267399D01*
X267412D01*
X267426D01*
X267704Y327510D01*
D02*
G37*
G36*
X274339Y316795D02*
X264734D01*
Y318072D01*
X274339D01*
Y316795D01*
D02*
G37*
G36*
X268092Y313741D02*
X267870Y313685D01*
X267662Y313616D01*
X267468Y313547D01*
X267287Y313477D01*
X267121Y313394D01*
X266982Y313311D01*
X266843Y313214D01*
X266718Y313130D01*
X266607Y313061D01*
X266524Y312978D01*
X266441Y312908D01*
X266371Y312853D01*
X266330Y312797D01*
X266288Y312755D01*
X266274Y312742D01*
X266260Y312728D01*
X266149Y312589D01*
X266066Y312436D01*
X265913Y312131D01*
X265802Y311840D01*
X265733Y311548D01*
X265677Y311298D01*
X265664Y311201D01*
Y311104D01*
X265650Y311021D01*
Y310923D01*
X265664Y310604D01*
X265719Y310299D01*
X265788Y310021D01*
X265872Y309771D01*
X265955Y309577D01*
X265997Y309494D01*
X266024Y309424D01*
X266052Y309369D01*
X266080Y309327D01*
X266094Y309299D01*
Y309286D01*
X266288Y309022D01*
X266496Y308800D01*
X266732Y308605D01*
X266954Y308453D01*
X267149Y308328D01*
X267315Y308244D01*
X267385Y308217D01*
X267426Y308189D01*
X267454Y308175D01*
X267468D01*
X267829Y308064D01*
X268190Y307981D01*
X268550Y307911D01*
X268884Y307870D01*
X269036Y307856D01*
X269175Y307842D01*
X269300D01*
X269397Y307828D01*
X269480D01*
X269550D01*
X269591D01*
X269605D01*
X269966Y307842D01*
X270299Y307870D01*
X270605Y307925D01*
X270882Y307981D01*
X271118Y308022D01*
X271216Y308050D01*
X271299Y308078D01*
X271368Y308092D01*
X271410Y308106D01*
X271438Y308120D01*
X271451D01*
X271771Y308258D01*
X272062Y308411D01*
X272298Y308578D01*
X272506Y308758D01*
X272673Y308911D01*
X272784Y309036D01*
X272853Y309133D01*
X272881Y309147D01*
Y309161D01*
X273061Y309452D01*
X273200Y309771D01*
X273297Y310077D01*
X273353Y310368D01*
X273395Y310632D01*
X273409Y310743D01*
Y310840D01*
X273422Y310910D01*
Y311021D01*
X273409Y311368D01*
X273353Y311687D01*
X273270Y311950D01*
X273186Y312187D01*
X273089Y312367D01*
X273020Y312506D01*
X272964Y312589D01*
X272937Y312617D01*
X272728Y312839D01*
X272492Y313047D01*
X272243Y313214D01*
X271993Y313352D01*
X271771Y313463D01*
X271660Y313505D01*
X271576Y313533D01*
X271507Y313561D01*
X271451Y313588D01*
X271424Y313602D01*
X271410D01*
X271701Y314851D01*
X271951Y314768D01*
X272173Y314685D01*
X272381Y314574D01*
X272590Y314477D01*
X272770Y314366D01*
X272937Y314241D01*
X273103Y314130D01*
X273242Y314019D01*
X273353Y313908D01*
X273464Y313810D01*
X273561Y313713D01*
X273631Y313644D01*
X273700Y313575D01*
X273742Y313519D01*
X273756Y313491D01*
X273769Y313477D01*
X273894Y313283D01*
X274019Y313089D01*
X274116Y312894D01*
X274200Y312686D01*
X274325Y312270D01*
X274408Y311895D01*
X274449Y311715D01*
X274463Y311562D01*
X274477Y311409D01*
X274491Y311284D01*
X274505Y311187D01*
Y311048D01*
X274477Y310590D01*
X274408Y310146D01*
X274325Y309757D01*
X274269Y309577D01*
X274214Y309411D01*
X274158Y309258D01*
X274102Y309119D01*
X274061Y309008D01*
X274019Y308897D01*
X273978Y308827D01*
X273950Y308772D01*
X273936Y308730D01*
X273922Y308717D01*
X273686Y308342D01*
X273409Y308022D01*
X273131Y307745D01*
X272853Y307509D01*
X272604Y307329D01*
X272492Y307259D01*
X272395Y307204D01*
X272326Y307148D01*
X272270Y307120D01*
X272229Y307106D01*
X272215Y307092D01*
X271784Y306898D01*
X271340Y306759D01*
X270896Y306662D01*
X270494Y306593D01*
X270313Y306565D01*
X270133Y306551D01*
X269994Y306537D01*
X269855D01*
X269758Y306523D01*
X269675D01*
X269619D01*
X269605D01*
X269106Y306551D01*
X268620Y306607D01*
X268190Y306676D01*
X267981Y306732D01*
X267801Y306773D01*
X267634Y306815D01*
X267482Y306870D01*
X267343Y306912D01*
X267232Y306940D01*
X267149Y306981D01*
X267079Y306995D01*
X267038Y307023D01*
X267024D01*
X266607Y307231D01*
X266232Y307467D01*
X265913Y307717D01*
X265788Y307842D01*
X265664Y307953D01*
X265552Y308064D01*
X265455Y308175D01*
X265372Y308272D01*
X265316Y308356D01*
X265261Y308411D01*
X265219Y308467D01*
X265205Y308494D01*
X265192Y308508D01*
X265080Y308703D01*
X264983Y308897D01*
X264831Y309313D01*
X264720Y309730D01*
X264650Y310132D01*
X264622Y310327D01*
X264595Y310493D01*
X264581Y310646D01*
Y310771D01*
X264567Y310882D01*
Y311034D01*
X264581Y311312D01*
X264609Y311576D01*
X264636Y311826D01*
X264692Y312062D01*
X264761Y312284D01*
X264831Y312492D01*
X264900Y312686D01*
X264983Y312867D01*
X265053Y313019D01*
X265122Y313172D01*
X265192Y313283D01*
X265261Y313394D01*
X265316Y313463D01*
X265344Y313533D01*
X265372Y313561D01*
X265386Y313575D01*
X265552Y313769D01*
X265719Y313935D01*
X265913Y314088D01*
X266108Y314241D01*
X266496Y314491D01*
X266885Y314685D01*
X267065Y314768D01*
X267232Y314838D01*
X267385Y314893D01*
X267510Y314935D01*
X267620Y314976D01*
X267704Y315004D01*
X267759Y315018D01*
X267773D01*
X268092Y313741D01*
D02*
G37*
G36*
X274339Y303123D02*
X267648Y300819D01*
X267287Y300694D01*
X266982Y300597D01*
X266718Y300500D01*
X266496Y300430D01*
X266330Y300375D01*
X266205Y300333D01*
X266135Y300319D01*
X266108Y300305D01*
X266302Y300250D01*
X266524Y300180D01*
X266760Y300097D01*
X266996Y300028D01*
X267204Y299958D01*
X267371Y299903D01*
X267440Y299875D01*
X267482Y299861D01*
X267510Y299847D01*
X267523D01*
X274339Y297571D01*
Y295669D01*
X264734D01*
Y296891D01*
X272909D01*
X264734Y299667D01*
Y300805D01*
X272770Y303609D01*
X264734D01*
Y304830D01*
X274339D01*
Y303123D01*
D02*
G37*
G36*
X252778Y251826D02*
X244337D01*
X252778Y246532D01*
Y244477D01*
X240931D01*
Y246532D01*
X249335D01*
X240931Y251807D01*
Y253862D01*
X252778D01*
Y251826D01*
D02*
G37*
G36*
Y241349D02*
X239913Y236685D01*
Y238239D01*
X252778Y242904D01*
Y241349D01*
D02*
G37*
G36*
X249686Y236055D02*
X250038Y235981D01*
X250353Y235907D01*
X250630Y235796D01*
X250852Y235703D01*
X251019Y235611D01*
X251130Y235537D01*
X251167Y235518D01*
X251463Y235296D01*
X251741Y235037D01*
X251963Y234797D01*
X252148Y234537D01*
X252296Y234315D01*
X252389Y234149D01*
X252426Y234075D01*
X252463Y234019D01*
X252481Y234001D01*
Y233982D01*
X252629Y233612D01*
X252740Y233242D01*
X252833Y232872D01*
X252888Y232520D01*
X252925Y232224D01*
Y232094D01*
X252944Y231983D01*
Y231779D01*
X252925Y231446D01*
X252907Y231113D01*
X252852Y230817D01*
X252796Y230521D01*
X252722Y230262D01*
X252648Y230021D01*
X252555Y229780D01*
X252481Y229577D01*
X252389Y229392D01*
X252296Y229225D01*
X252222Y229096D01*
X252148Y228966D01*
X252093Y228892D01*
X252037Y228818D01*
X252019Y228781D01*
X252000Y228762D01*
X251815Y228559D01*
X251630Y228374D01*
X251445Y228225D01*
X251241Y228096D01*
X251038Y227985D01*
X250852Y227874D01*
X250482Y227744D01*
X250149Y227652D01*
X250001Y227633D01*
X249890Y227615D01*
X249779Y227596D01*
X249705D01*
X249668D01*
X249649D01*
X249353Y227615D01*
X249057Y227670D01*
X248798Y227744D01*
X248539Y227855D01*
X248298Y227966D01*
X248076Y228114D01*
X247891Y228244D01*
X247706Y228411D01*
X247539Y228559D01*
X247391Y228707D01*
X247280Y228836D01*
X247169Y228947D01*
X247095Y229059D01*
X247039Y229133D01*
X247002Y229188D01*
X246984Y229206D01*
X246799Y229558D01*
X246614Y229928D01*
X246447Y230299D01*
X246318Y230669D01*
X246188Y230983D01*
X246132Y231132D01*
X246095Y231243D01*
X246058Y231354D01*
X246040Y231428D01*
X246021Y231465D01*
Y231483D01*
X245947Y231742D01*
X245855Y231983D01*
X245781Y232205D01*
X245707Y232409D01*
X245633Y232575D01*
X245559Y232742D01*
X245429Y233020D01*
X245336Y233223D01*
X245244Y233353D01*
X245188Y233445D01*
X245170Y233464D01*
X245003Y233649D01*
X244800Y233779D01*
X244596Y233890D01*
X244411Y233945D01*
X244244Y233982D01*
X244096Y234019D01*
X244004D01*
X243967D01*
X243708Y234001D01*
X243485Y233927D01*
X243300Y233853D01*
X243134Y233741D01*
X243004Y233649D01*
X242893Y233556D01*
X242838Y233482D01*
X242819Y233464D01*
X242671Y233242D01*
X242579Y232983D01*
X242504Y232723D01*
X242449Y232464D01*
X242412Y232224D01*
X242393Y232039D01*
Y231854D01*
X242412Y231409D01*
X242486Y231039D01*
X242560Y230706D01*
X242671Y230428D01*
X242763Y230225D01*
X242856Y230077D01*
X242912Y229984D01*
X242930Y229947D01*
X243152Y229725D01*
X243411Y229558D01*
X243671Y229447D01*
X243930Y229373D01*
X244152Y229318D01*
X244337Y229299D01*
X244411Y229281D01*
X244466D01*
X244485D01*
X244503D01*
Y227226D01*
X244096Y227244D01*
X243726Y227319D01*
X243393Y227411D01*
X243115Y227522D01*
X242875Y227633D01*
X242689Y227726D01*
X242579Y227800D01*
X242560Y227818D01*
X242541D01*
X242245Y228059D01*
X241986Y228337D01*
X241764Y228614D01*
X241579Y228892D01*
X241431Y229133D01*
X241320Y229318D01*
X241283Y229392D01*
X241246Y229447D01*
X241227Y229484D01*
Y229503D01*
X241079Y229910D01*
X240968Y230317D01*
X240876Y230724D01*
X240820Y231076D01*
X240783Y231391D01*
Y231520D01*
X240764Y231631D01*
Y231854D01*
X240783Y232205D01*
X240802Y232538D01*
X240839Y232853D01*
X240894Y233149D01*
X240968Y233427D01*
X241042Y233686D01*
X241116Y233908D01*
X241209Y234112D01*
X241283Y234297D01*
X241357Y234463D01*
X241431Y234612D01*
X241505Y234722D01*
X241560Y234815D01*
X241597Y234871D01*
X241634Y234908D01*
Y234926D01*
X241801Y235130D01*
X241986Y235296D01*
X242171Y235463D01*
X242375Y235593D01*
X242560Y235703D01*
X242763Y235796D01*
X243134Y235926D01*
X243467Y236018D01*
X243615Y236037D01*
X243745Y236055D01*
X243837Y236074D01*
X243930D01*
X243967D01*
X243985D01*
X244318Y236055D01*
X244615Y236018D01*
X244892Y235944D01*
X245114Y235889D01*
X245318Y235815D01*
X245447Y235741D01*
X245540Y235703D01*
X245577Y235685D01*
X245818Y235518D01*
X246058Y235333D01*
X246262Y235130D01*
X246428Y234926D01*
X246577Y234741D01*
X246688Y234593D01*
X246762Y234482D01*
X246780Y234463D01*
Y234445D01*
X246965Y234112D01*
X247150Y233741D01*
X247299Y233371D01*
X247447Y233020D01*
X247558Y232705D01*
X247595Y232575D01*
X247632Y232446D01*
X247669Y232353D01*
X247687Y232279D01*
X247706Y232242D01*
Y232224D01*
X247872Y231742D01*
X248020Y231335D01*
X248168Y231002D01*
X248298Y230724D01*
X248409Y230502D01*
X248483Y230354D01*
X248539Y230280D01*
X248557Y230243D01*
X248724Y230040D01*
X248909Y229910D01*
X249094Y229799D01*
X249279Y229725D01*
X249427Y229688D01*
X249538Y229669D01*
X249612Y229651D01*
X249649D01*
X249927Y229669D01*
X250167Y229743D01*
X250371Y229836D01*
X250538Y229928D01*
X250686Y230040D01*
X250778Y230114D01*
X250834Y230188D01*
X250852Y230206D01*
X251000Y230428D01*
X251112Y230687D01*
X251186Y230946D01*
X251241Y231206D01*
X251278Y231428D01*
X251297Y231613D01*
Y231779D01*
X251278Y232168D01*
X251223Y232483D01*
X251130Y232779D01*
X251038Y233001D01*
X250926Y233186D01*
X250852Y233316D01*
X250778Y233408D01*
X250760Y233427D01*
X250556Y233630D01*
X250316Y233779D01*
X250075Y233871D01*
X249853Y233945D01*
X249631Y233982D01*
X249464Y234019D01*
X249353D01*
X249335D01*
X249316D01*
Y236074D01*
X249686Y236055D01*
D02*
G37*
G36*
X212505Y256102D02*
X212672Y256065D01*
X212801Y256028D01*
X212912Y255972D01*
X213005Y255898D01*
X213079Y255861D01*
X213116Y255824D01*
X213134Y255805D01*
X213245Y255694D01*
X213319Y255546D01*
X213375Y255417D01*
X213412Y255287D01*
X213431Y255158D01*
X213449Y255065D01*
Y254973D01*
X213431Y254769D01*
X213393Y254602D01*
X213356Y254454D01*
X213301Y254343D01*
X213227Y254251D01*
X213190Y254176D01*
X213153Y254139D01*
X213134Y254121D01*
X213005Y254029D01*
X212875Y253954D01*
X212746Y253899D01*
X212616Y253862D01*
X212505Y253843D01*
X212413Y253825D01*
X212357D01*
X212338D01*
X212172Y253843D01*
X212024Y253880D01*
X211894Y253917D01*
X211783Y253973D01*
X211691Y254029D01*
X211635Y254084D01*
X211598Y254102D01*
X211580Y254121D01*
X211487Y254251D01*
X211413Y254380D01*
X211357Y254528D01*
X211320Y254658D01*
X211302Y254787D01*
X211283Y254880D01*
Y254973D01*
X211302Y255158D01*
X211339Y255324D01*
X211376Y255472D01*
X211432Y255583D01*
X211487Y255676D01*
X211543Y255750D01*
X211561Y255787D01*
X211580Y255805D01*
X211691Y255917D01*
X211820Y255991D01*
X211950Y256046D01*
X212079Y256083D01*
X212172Y256102D01*
X212264Y256120D01*
X212320D01*
X212338D01*
X212505Y256102D01*
D02*
G37*
G36*
X220279Y252270D02*
X220316Y252048D01*
X220335Y251955D01*
Y251807D01*
X220316Y251567D01*
X220279Y251363D01*
X220224Y251141D01*
X220150Y250956D01*
X219965Y250623D01*
X219761Y250326D01*
X219557Y250104D01*
X219372Y249938D01*
X219298Y249882D01*
X219243Y249845D01*
X219206Y249808D01*
X219187D01*
X220168Y249771D01*
Y247883D01*
X211376D01*
Y249864D01*
X217373D01*
X217558Y249956D01*
X217725Y250067D01*
X217854Y250197D01*
X217984Y250345D01*
X218095Y250493D01*
X218169Y250641D01*
X218299Y250937D01*
X218373Y251233D01*
X218391Y251344D01*
X218410Y251456D01*
X218428Y251548D01*
Y251678D01*
X218410Y251992D01*
Y252122D01*
X218391Y252252D01*
X218373Y252344D01*
Y252418D01*
X218354Y252474D01*
Y252492D01*
X220205D01*
X220279Y252270D01*
D02*
G37*
G36*
X211783Y246032D02*
X212098Y245958D01*
X212413Y245884D01*
X212709Y245847D01*
X212986Y245829D01*
X213190Y245810D01*
X213282D01*
X213338D01*
X213375D01*
X213393D01*
X217373D01*
X217632Y245792D01*
X217873Y245773D01*
X218317Y245662D01*
X218687Y245495D01*
X219002Y245329D01*
X219243Y245162D01*
X219409Y245014D01*
X219520Y244903D01*
X219557Y244884D01*
Y244866D01*
X219816Y244496D01*
X220002Y244107D01*
X220150Y243681D01*
X220242Y243293D01*
X220298Y242941D01*
X220316Y242793D01*
Y242663D01*
X220335Y242552D01*
Y242404D01*
X220316Y242034D01*
X220279Y241682D01*
X220224Y241368D01*
X220150Y241090D01*
X220076Y240868D01*
X220020Y240701D01*
X219983Y240590D01*
X219965Y240572D01*
Y240553D01*
X219816Y240257D01*
X219668Y240016D01*
X219502Y239794D01*
X219335Y239609D01*
X219206Y239461D01*
X219095Y239350D01*
X219021Y239276D01*
X218984Y239258D01*
X218743Y239091D01*
X218502Y238980D01*
X218280Y238887D01*
X218077Y238832D01*
X217892Y238795D01*
X217762Y238776D01*
X217669D01*
X217632D01*
Y240757D01*
X217817Y240775D01*
X217984Y240831D01*
X218132Y240886D01*
X218262Y240979D01*
X218354Y241053D01*
X218428Y241108D01*
X218465Y241164D01*
X218484Y241182D01*
X218595Y241368D01*
X218687Y241553D01*
X218743Y241738D01*
X218798Y241904D01*
X218817Y242053D01*
X218835Y242182D01*
Y242293D01*
X218817Y242571D01*
X218761Y242811D01*
X218706Y242997D01*
X218632Y243163D01*
X218539Y243293D01*
X218484Y243385D01*
X218428Y243441D01*
X218410Y243459D01*
X218243Y243589D01*
X218077Y243681D01*
X217892Y243755D01*
X217706Y243792D01*
X217558Y243829D01*
X217429Y243848D01*
X217355D01*
X217318D01*
X216744D01*
Y242275D01*
X216707Y241941D01*
X216670Y241627D01*
X216633Y241331D01*
X216577Y241072D01*
X216503Y240831D01*
X216429Y240609D01*
X216374Y240405D01*
X216300Y240220D01*
X216226Y240072D01*
X216170Y239924D01*
X216096Y239831D01*
X216059Y239739D01*
X216022Y239683D01*
X215985Y239646D01*
Y239628D01*
X215837Y239443D01*
X215670Y239295D01*
X215504Y239146D01*
X215319Y239035D01*
X214967Y238850D01*
X214615Y238721D01*
X214300Y238647D01*
X214171Y238628D01*
X214060Y238610D01*
X213949Y238591D01*
X213875D01*
X213838D01*
X213819D01*
X213616Y238610D01*
X213412Y238628D01*
X213060Y238721D01*
X212746Y238850D01*
X212468Y239017D01*
X212246Y239165D01*
X212079Y239295D01*
X211987Y239387D01*
X211968Y239424D01*
X211950D01*
X211709Y239757D01*
X211524Y240127D01*
X211395Y240479D01*
X211302Y240831D01*
X211246Y241127D01*
X211228Y241257D01*
Y241368D01*
X211209Y241460D01*
Y241590D01*
X211228Y241849D01*
X211246Y242090D01*
X211357Y242534D01*
X211524Y242922D01*
X211709Y243256D01*
X211876Y243533D01*
X211968Y243644D01*
X212042Y243737D01*
X212098Y243811D01*
X212153Y243866D01*
X212172Y243885D01*
X212190Y243903D01*
X211987Y243940D01*
X211820Y243977D01*
X211672Y244015D01*
X211561Y244052D01*
X211487Y244089D01*
X211432Y244107D01*
X211395Y244126D01*
X211376D01*
Y246143D01*
X211506D01*
X211783Y246032D01*
D02*
G37*
G36*
X223222Y235463D02*
X213949Y232464D01*
X223222Y229484D01*
Y227226D01*
X211376Y231483D01*
Y233464D01*
X223222Y237740D01*
Y235463D01*
D02*
G37*
%LPC*%
G36*
X234946Y513573D02*
D01*
Y509955D01*
X230628D01*
X232869Y512152D01*
Y513365D01*
X230825Y511255D01*
X227382Y513573D01*
Y512425D01*
X230180Y510600D01*
X229557Y509955D01*
X227382D01*
Y509026D01*
X234946D01*
Y513573D01*
D02*
G37*
G36*
Y507605D02*
X233490D01*
X233885D01*
Y506676D01*
X234946D01*
Y507605D01*
D02*
G37*
G36*
X232869D02*
X227382D01*
Y506676D01*
X233490D01*
X232869D01*
Y507605D01*
D02*
G37*
G36*
X232989Y505528D02*
D01*
Y503233D01*
X232978Y503353D01*
X232967Y503517D01*
X232945Y503703D01*
X232913Y503889D01*
X232869Y504074D01*
X232814Y504249D01*
X232803Y504271D01*
X232782Y504326D01*
X232749Y504402D01*
X232705Y504501D01*
X232639Y504610D01*
X232574Y504719D01*
X232486Y504817D01*
X232399Y504905D01*
X232388Y504916D01*
X232355Y504938D01*
X232301Y504971D01*
X232235Y505014D01*
X232137Y505069D01*
X232038Y505113D01*
X231918Y505156D01*
X231776Y505189D01*
X231765D01*
X231732Y505200D01*
X231667Y505211D01*
X231579Y505222D01*
X231459D01*
X231317Y505233D01*
X231131Y505244D01*
X230923D01*
X229677D01*
X229666D01*
X229623D01*
X229557D01*
X229470D01*
X229371D01*
X229251D01*
X228989Y505255D01*
X228715D01*
X228442Y505266D01*
X228322Y505277D01*
X228213D01*
X228114Y505288D01*
X228038Y505298D01*
X228027D01*
X227983Y505309D01*
X227918Y505320D01*
X227830Y505353D01*
X227732Y505375D01*
X227623Y505419D01*
X227502Y505473D01*
X227382Y505528D01*
Y504555D01*
X227393Y504544D01*
X227437Y504533D01*
X227491Y504511D01*
X227579Y504479D01*
X227677Y504446D01*
X227797Y504424D01*
X227929Y504402D01*
X228071Y504380D01*
Y504369D01*
X228049Y504358D01*
X227994Y504293D01*
X227918Y504194D01*
X227819Y504063D01*
X227721Y503899D01*
X227612Y503735D01*
X227513Y503561D01*
X227437Y503375D01*
X227426Y503353D01*
X227415Y503287D01*
X227382Y503189D01*
X227349Y503069D01*
X227316Y502916D01*
X227295Y502741D01*
X227273Y502544D01*
X227262Y502347D01*
Y502260D01*
X227273Y502194D01*
Y502118D01*
X227284Y502030D01*
X227316Y501834D01*
X227371Y501615D01*
X227448Y501375D01*
X227557Y501156D01*
X227699Y500959D01*
X227721Y500937D01*
X227776Y500883D01*
X227874Y500806D01*
X228005Y500719D01*
X228169Y500631D01*
X228355Y500555D01*
X228584Y500500D01*
X228694Y500489D01*
X228825Y500478D01*
X228890D01*
X228967Y500489D01*
X229065Y500500D01*
X229186Y500522D01*
X229306Y500555D01*
X229437Y500598D01*
X229557Y500653D01*
X229568Y500664D01*
X229612Y500686D01*
X229677Y500730D01*
X229754Y500784D01*
X229841Y500850D01*
X229929Y500937D01*
X230016Y501025D01*
X230093Y501134D01*
X230104Y501145D01*
X230125Y501189D01*
X230169Y501243D01*
X230213Y501331D01*
X230257Y501429D01*
X230311Y501549D01*
X230355Y501670D01*
X230399Y501812D01*
Y501823D01*
X230410Y501866D01*
X230432Y501932D01*
X230443Y502019D01*
X230464Y502129D01*
X230486Y502271D01*
X230519Y502435D01*
X230541Y502632D01*
Y502642D01*
X230552Y502686D01*
Y502741D01*
X230563Y502817D01*
X230574Y502905D01*
X230595Y503014D01*
X230606Y503134D01*
X230628Y503265D01*
X230683Y503528D01*
X230738Y503812D01*
X230803Y504063D01*
X230836Y504184D01*
X230869Y504293D01*
X230880D01*
X230902D01*
X230967Y504304D01*
X231044D01*
X231087D01*
X231109D01*
X231120D01*
X231131D01*
X231197D01*
X231306Y504293D01*
X231426Y504271D01*
X231557Y504238D01*
X231688Y504184D01*
X231809Y504118D01*
X231907Y504031D01*
X231918Y504020D01*
X231962Y503965D01*
X232006Y503877D01*
X232071Y503768D01*
X232126Y503615D01*
X232180Y503440D01*
X232213Y503222D01*
X232224Y502970D01*
Y502861D01*
X232213Y502752D01*
X232191Y502599D01*
X232169Y502446D01*
X232126Y502282D01*
X232071Y502129D01*
X231995Y501998D01*
X231984Y501987D01*
X231951Y501943D01*
X231896Y501888D01*
X231809Y501823D01*
X231699Y501757D01*
X231557Y501681D01*
X231382Y501615D01*
X231186Y501549D01*
X231306Y500642D01*
X231317D01*
X231328Y500653D01*
X231361D01*
X231404Y500664D01*
X231503Y500697D01*
X231645Y500741D01*
X231787Y500795D01*
X231940Y500861D01*
X232093Y500948D01*
X232235Y501047D01*
X232246Y501058D01*
X232290Y501101D01*
X232355Y501167D01*
X232443Y501254D01*
X232530Y501375D01*
X232617Y501517D01*
X232716Y501681D01*
X232792Y501866D01*
Y501877D01*
X232803Y501888D01*
X232814Y501921D01*
X232825Y501965D01*
X232858Y502074D01*
X232891Y502227D01*
X232924Y502402D01*
X232956Y502621D01*
X232978Y502850D01*
X232989Y503112D01*
Y500478D01*
D01*
Y505528D01*
D02*
G37*
G36*
X253503Y502533D02*
X252442D01*
Y501473D01*
X253503D01*
Y502533D01*
D02*
G37*
G36*
X249076D02*
X248016D01*
Y501473D01*
X250759D01*
X249076D01*
Y502533D01*
D02*
G37*
G36*
X244153Y502304D02*
X236469D01*
X236590D01*
Y501440D01*
X237278D01*
X237267Y501429D01*
X237245Y501418D01*
X237202Y501385D01*
X237147Y501342D01*
X237092Y501287D01*
X237027Y501222D01*
X236950Y501145D01*
X236874Y501047D01*
X236797Y500948D01*
X236721Y500839D01*
X236655Y500708D01*
X236600Y500566D01*
X236546Y500424D01*
X236502Y500260D01*
X236480Y500085D01*
X236469Y499899D01*
Y499833D01*
X236480Y499790D01*
X236491Y499659D01*
X236513Y499506D01*
X236557Y499320D01*
X236622Y499112D01*
X236710Y498904D01*
X236830Y498697D01*
Y498686D01*
X236852Y498675D01*
X236895Y498609D01*
X236983Y498511D01*
X237092Y498391D01*
X237234Y498249D01*
X237409Y498106D01*
X237606Y497964D01*
X237836Y497844D01*
X237846D01*
X237868Y497833D01*
X237901Y497822D01*
X237945Y497800D01*
X238010Y497779D01*
X238087Y497746D01*
X238163Y497724D01*
X238262Y497702D01*
X238480Y497647D01*
X238732Y497593D01*
X239016Y497560D01*
X239322Y497549D01*
X239464D01*
X239530Y497560D01*
X239617D01*
X239814Y497582D01*
X240043Y497615D01*
X240295Y497669D01*
X240557Y497735D01*
X240809Y497822D01*
X240819D01*
X240841Y497833D01*
X240874Y497855D01*
X240918Y497877D01*
X241038Y497943D01*
X241191Y498030D01*
X241355Y498139D01*
X241519Y498281D01*
X241694Y498445D01*
X241836Y498642D01*
Y498653D01*
X241847Y498664D01*
X241869Y498697D01*
X241891Y498740D01*
X241945Y498850D01*
X242022Y499003D01*
X242087Y499178D01*
X242142Y499385D01*
X242186Y499615D01*
X242197Y499855D01*
Y499943D01*
X242186Y500030D01*
X242175Y500150D01*
X242142Y500292D01*
X242109Y500446D01*
X242055Y500598D01*
X241978Y500741D01*
X241967Y500763D01*
X241945Y500806D01*
X241891Y500872D01*
X241836Y500959D01*
X241759Y501068D01*
X241661Y501167D01*
X241563Y501276D01*
X241442Y501375D01*
X244153D01*
Y497877D01*
Y502304D01*
D02*
G37*
G36*
X232989Y499364D02*
D01*
Y497571D01*
X232978Y497658D01*
X232967Y497779D01*
X232945Y497921D01*
X232913Y498074D01*
X232869Y498238D01*
X232803Y498391D01*
X232792Y498413D01*
X232771Y498456D01*
X232738Y498533D01*
X232683Y498620D01*
X232617Y498730D01*
X232530Y498828D01*
X232443Y498926D01*
X232333Y499014D01*
X232322Y499025D01*
X232279Y499047D01*
X232224Y499079D01*
X232148Y499134D01*
X232038Y499178D01*
X231929Y499221D01*
X231798Y499276D01*
X231656Y499309D01*
X231645D01*
X231601Y499320D01*
X231536Y499331D01*
X231448Y499342D01*
X231317D01*
X231164Y499353D01*
X230978Y499364D01*
X232989D01*
X227382D01*
Y498434D01*
X230705D01*
X230716D01*
X230727D01*
X230803D01*
X230902D01*
X231022Y498423D01*
X231164Y498413D01*
X231306Y498391D01*
X231437Y498358D01*
X231557Y498325D01*
X231568D01*
X231601Y498303D01*
X231656Y498270D01*
X231721Y498238D01*
X231787Y498183D01*
X231863Y498117D01*
X231940Y498030D01*
X232006Y497932D01*
X232016Y497921D01*
X232038Y497888D01*
X232060Y497822D01*
X232093Y497746D01*
X232126Y497658D01*
X232158Y497549D01*
X232169Y497418D01*
X232180Y497287D01*
Y497232D01*
X232169Y497188D01*
X232158Y497079D01*
X232137Y496937D01*
X232082Y496784D01*
X232016Y496609D01*
X231929Y496434D01*
X231798Y496270D01*
X231776Y496248D01*
X231721Y496205D01*
X231678Y496172D01*
X231623Y496139D01*
X231557Y496095D01*
X231481Y496063D01*
X231393Y496019D01*
X231284Y495975D01*
X231164Y495942D01*
X231033Y495910D01*
X230891Y495888D01*
X230738Y495866D01*
X230552Y495844D01*
X230366D01*
X227382D01*
Y494915D01*
X232989D01*
Y499364D01*
D02*
G37*
G36*
X244153Y496456D02*
X236590D01*
Y495527D01*
X244153D01*
Y496456D01*
D02*
G37*
G36*
X253503Y500424D02*
D01*
X247928Y498336D01*
X247917D01*
X247884Y498325D01*
X247841Y498303D01*
X247786Y498281D01*
X247710Y498249D01*
X247622Y498216D01*
X247436Y498139D01*
X247229Y498063D01*
X247021Y497975D01*
X246835Y497888D01*
X246759Y497844D01*
X246682Y497811D01*
X246660Y497800D01*
X246606Y497768D01*
X246529Y497713D01*
X246431Y497647D01*
X246322Y497560D01*
X246212Y497462D01*
X246103Y497363D01*
X246016Y497243D01*
X246005Y497232D01*
X245983Y497188D01*
X245950Y497123D01*
X245906Y497024D01*
X245863Y496915D01*
X245830Y496784D01*
X245808Y496642D01*
X245797Y496478D01*
Y496434D01*
X245808Y496380D01*
Y496303D01*
X245830Y496216D01*
X245852Y496117D01*
X245873Y496008D01*
X245917Y495888D01*
X246781Y495789D01*
Y495800D01*
X246770Y495844D01*
X246759Y495899D01*
X246737Y495964D01*
X246704Y496139D01*
X246693Y496314D01*
Y496369D01*
X246704Y496423D01*
Y496489D01*
X246737Y496653D01*
X246770Y496729D01*
X246802Y496806D01*
Y496817D01*
X246824Y496839D01*
X246846Y496871D01*
X246879Y496915D01*
X246966Y497014D01*
X247087Y497101D01*
X247098D01*
X247119Y497123D01*
X247163Y497145D01*
X247229Y497166D01*
X247316Y497210D01*
X247447Y497254D01*
X247600Y497320D01*
X247786Y497385D01*
X247797D01*
X247841Y497407D01*
X247917Y497429D01*
X248016Y497473D01*
X253503Y495396D01*
Y500424D01*
D02*
G37*
G36*
X234782Y494117D02*
D01*
Y493057D01*
X232869D01*
Y493997D01*
X232148D01*
Y493057D01*
X228923D01*
X228901D01*
X228858D01*
X228792D01*
X228715Y493068D01*
X228541Y493079D01*
X228464Y493090D01*
X228410Y493101D01*
X228388Y493112D01*
X228344Y493144D01*
X228289Y493188D01*
X228235Y493264D01*
X228224Y493286D01*
X228202Y493341D01*
X228180Y493439D01*
X228169Y493581D01*
Y493691D01*
X228180Y493745D01*
Y493822D01*
X228191Y493909D01*
X228202Y493997D01*
X227382Y494117D01*
D01*
Y494095D01*
X227371Y494052D01*
X227360Y493975D01*
X227349Y493877D01*
X227327Y493767D01*
X227316Y493647D01*
X227306Y493407D01*
Y493319D01*
X227316Y493232D01*
X227327Y493122D01*
X227338Y492991D01*
X227371Y492860D01*
X227404Y492740D01*
X227459Y492620D01*
X227469Y492609D01*
X227491Y492576D01*
X227524Y492532D01*
X227579Y492467D01*
X227633Y492412D01*
X227710Y492346D01*
X227786Y492281D01*
X227885Y492237D01*
X227896D01*
X227940Y492215D01*
X228016Y492204D01*
X228125Y492182D01*
X228267Y492161D01*
X228355Y492150D01*
X228453D01*
X228573Y492139D01*
X228694Y492128D01*
X228825D01*
X228978D01*
X232148D01*
Y491439D01*
X227306D01*
X234782D01*
Y494117D01*
D02*
G37*
G36*
X255579Y494674D02*
D01*
Y491931D01*
X255568Y492008D01*
Y492095D01*
X255546Y492292D01*
X255525Y492510D01*
X255481Y492740D01*
X255426Y492969D01*
X255350Y493177D01*
Y493188D01*
X255339Y493199D01*
X255306Y493264D01*
X255251Y493363D01*
X255175Y493472D01*
X255077Y493603D01*
X254956Y493745D01*
X254803Y493877D01*
X254639Y493997D01*
X254617Y494008D01*
X254552Y494040D01*
X254464Y494095D01*
X254333Y494150D01*
X254180Y494205D01*
X254016Y494259D01*
X253831Y494292D01*
X253645Y494303D01*
X253623D01*
X253568D01*
X253470Y494292D01*
X253349Y494270D01*
X253207Y494237D01*
X253054Y494183D01*
X252901Y494117D01*
X252737Y494030D01*
X252716Y494019D01*
X252672Y493986D01*
X252585Y493920D01*
X252497Y493833D01*
X252388Y493724D01*
X252268Y493592D01*
X252158Y493429D01*
X252049Y493243D01*
Y493254D01*
X252038Y493275D01*
X252027Y493308D01*
X252005Y493352D01*
X251961Y493483D01*
X251885Y493636D01*
X251787Y493800D01*
X251666Y493986D01*
X251524Y494150D01*
X251349Y494303D01*
X251327Y494314D01*
X251262Y494357D01*
X251164Y494423D01*
X251032Y494489D01*
X250857Y494554D01*
X250672Y494620D01*
X250453Y494664D01*
X250213Y494674D01*
X255579D01*
X248016D01*
X250125D01*
X250016Y494664D01*
X249885Y494642D01*
X249732Y494620D01*
X249568Y494576D01*
X249393Y494522D01*
X249218Y494445D01*
X249196Y494434D01*
X249142Y494401D01*
X249065Y494357D01*
X248956Y494292D01*
X248846Y494205D01*
X248726Y494117D01*
X248606Y494008D01*
X248508Y493888D01*
X248497Y493877D01*
X248464Y493833D01*
X248420Y493756D01*
X248376Y493658D01*
X248311Y493538D01*
X248245Y493396D01*
X248191Y493243D01*
X248136Y493057D01*
Y493035D01*
X248114Y492969D01*
X248103Y492860D01*
X248081Y492718D01*
X248059Y492543D01*
X248038Y492336D01*
X248027Y492106D01*
X248016Y491844D01*
Y488958D01*
X255579D01*
Y494674D01*
D02*
G37*
G36*
X242197Y494412D02*
X239202D01*
X239092Y494401D01*
Y490303D01*
X239082D01*
X239049D01*
X239005Y490313D01*
X238939D01*
X238863Y490324D01*
X238775Y490346D01*
X238579Y490379D01*
X238360Y490445D01*
X238120Y490532D01*
X237901Y490652D01*
X237704Y490805D01*
Y490816D01*
X237683Y490827D01*
X237628Y490893D01*
X237551Y490991D01*
X237475Y491122D01*
X237387Y491297D01*
X237311Y491494D01*
X237256Y491712D01*
X237245Y491833D01*
X237234Y491964D01*
Y492051D01*
X237245Y492150D01*
X237267Y492270D01*
X237300Y492401D01*
X237344Y492554D01*
X237409Y492696D01*
X237497Y492838D01*
X237508Y492849D01*
X237551Y492904D01*
X237617Y492969D01*
X237704Y493046D01*
X237825Y493133D01*
X237978Y493232D01*
X238153Y493330D01*
X238360Y493418D01*
X238240Y494379D01*
X238229D01*
X238207Y494368D01*
X238163Y494357D01*
X238098Y494336D01*
X238032Y494303D01*
X237945Y494270D01*
X237759Y494183D01*
X237551Y494073D01*
X237333Y493920D01*
X237125Y493745D01*
X236928Y493527D01*
Y493516D01*
X236907Y493494D01*
X236885Y493461D01*
X236852Y493418D01*
X236819Y493352D01*
X236786Y493286D01*
X236742Y493199D01*
X236699Y493101D01*
X236655Y492991D01*
X236611Y492882D01*
X236546Y492609D01*
X236491Y492303D01*
X236469Y491964D01*
Y491844D01*
X236480Y491767D01*
X236491Y491669D01*
X236513Y491548D01*
X236535Y491417D01*
X236557Y491275D01*
X236644Y490969D01*
X236710Y490805D01*
X236775Y490652D01*
X236863Y490488D01*
X236961Y490335D01*
X237070Y490193D01*
X237202Y490051D01*
X237212Y490040D01*
X237234Y490018D01*
X237278Y489986D01*
X237344Y489942D01*
X237420Y489887D01*
X237508Y489832D01*
X237617Y489767D01*
X237737Y489701D01*
X237879Y489636D01*
X238032Y489570D01*
X238207Y489515D01*
X238393Y489461D01*
X238590Y489417D01*
X238808Y489384D01*
X239038Y489362D01*
X239278Y489352D01*
X239409D01*
X239508Y489362D01*
X239628Y489373D01*
X239759Y489384D01*
X239912Y489406D01*
X240065Y489439D01*
X240415Y489527D01*
X240590Y489581D01*
X240776Y489647D01*
X240951Y489734D01*
X241114Y489832D01*
X241279Y489942D01*
X241431Y490062D01*
X241442Y490073D01*
X241464Y490095D01*
X241497Y490138D01*
X241552Y490193D01*
X241606Y490259D01*
X241672Y490346D01*
X241748Y490445D01*
X241814Y490565D01*
X241891Y490685D01*
X241956Y490827D01*
X242022Y490980D01*
X242076Y491144D01*
X242131Y491319D01*
X242164Y491505D01*
X242186Y491702D01*
X242197Y491909D01*
Y492019D01*
X242186Y492095D01*
X242175Y492182D01*
X242153Y492292D01*
X242131Y492412D01*
X242098Y492554D01*
X242065Y492685D01*
X242011Y492838D01*
X241956Y492980D01*
X241880Y493133D01*
X241792Y493286D01*
X241694Y493439D01*
X241574Y493581D01*
X241442Y493713D01*
X241431Y493724D01*
X241410Y493745D01*
X241366Y493778D01*
X241300Y493822D01*
X241224Y493877D01*
X241136Y493931D01*
X241027Y493997D01*
X240896Y494062D01*
X240754Y494128D01*
X240601Y494194D01*
X240426Y494248D01*
X240240Y494303D01*
X240032Y494347D01*
X239814Y494379D01*
X239584Y494401D01*
X239333Y494412D01*
X242197D01*
D02*
G37*
G36*
X234782Y491177D02*
Y490117D01*
X232869D01*
Y491057D01*
X232148D01*
Y490117D01*
X228923D01*
X228901D01*
X228858D01*
X228792D01*
X228715Y490128D01*
X228541Y490138D01*
X228464Y490149D01*
X228410Y490160D01*
X228388Y490171D01*
X228344Y490204D01*
X228289Y490248D01*
X228235Y490324D01*
X228224Y490346D01*
X228202Y490401D01*
X228180Y490499D01*
X228169Y490641D01*
Y490751D01*
X228180Y490805D01*
Y490882D01*
X228191Y490969D01*
X228202Y491057D01*
X227382Y491177D01*
D01*
Y491155D01*
X227371Y491111D01*
X227360Y491035D01*
X227349Y490936D01*
X227327Y490827D01*
X227316Y490707D01*
X227306Y490466D01*
Y490532D01*
Y490379D01*
X227316Y490292D01*
X227327Y490182D01*
X227338Y490051D01*
X227371Y489920D01*
X227404Y489800D01*
X227459Y489679D01*
X227469Y489669D01*
X227491Y489636D01*
X227524Y489592D01*
X227579Y489527D01*
X227633Y489472D01*
X227710Y489406D01*
X227786Y489341D01*
X227885Y489297D01*
X227896D01*
X227940Y489275D01*
X228016Y489264D01*
X228125Y489242D01*
X228267Y489220D01*
X228355Y489210D01*
X228453D01*
X228573Y489198D01*
X228694Y489188D01*
X228825D01*
X228978D01*
X232148D01*
Y488499D01*
X227306D01*
X234782D01*
Y491177D01*
D02*
G37*
G36*
X244153Y488248D02*
X242697D01*
X243093D01*
Y487319D01*
X244153D01*
Y488248D01*
D02*
G37*
G36*
X242076D02*
X236590D01*
Y487319D01*
X242697D01*
X242076D01*
Y488248D01*
D02*
G37*
G36*
X232989Y487887D02*
Y485592D01*
X232978Y485712D01*
X232967Y485876D01*
X232945Y486062D01*
X232913Y486247D01*
X232869Y486433D01*
X232814Y486608D01*
X232803Y486630D01*
X232782Y486685D01*
X232749Y486761D01*
X232705Y486860D01*
X232639Y486969D01*
X232574Y487078D01*
X232486Y487177D01*
X232399Y487264D01*
X232388Y487275D01*
X232355Y487297D01*
X232301Y487329D01*
X232235Y487373D01*
X232137Y487428D01*
X232038Y487472D01*
X231918Y487515D01*
X231776Y487548D01*
X231765D01*
X231732Y487559D01*
X231667Y487570D01*
X231579Y487581D01*
X231459D01*
X231317Y487592D01*
X231131Y487603D01*
X230923D01*
X229677D01*
X229666D01*
X229623D01*
X229557D01*
X229470D01*
X229371D01*
X229251D01*
X228989Y487614D01*
X228715D01*
X228442Y487625D01*
X228322Y487636D01*
X228213D01*
X228114Y487646D01*
X228038Y487657D01*
X228027D01*
X227983Y487668D01*
X227918Y487679D01*
X227830Y487712D01*
X227732Y487734D01*
X227623Y487778D01*
X227502Y487832D01*
X227382Y487887D01*
Y486914D01*
X227393Y486903D01*
X227437Y486892D01*
X227491Y486870D01*
X227579Y486838D01*
X227677Y486805D01*
X227797Y486783D01*
X227929Y486761D01*
X228071Y486739D01*
Y486728D01*
X228049Y486717D01*
X227994Y486652D01*
X227918Y486553D01*
X227819Y486422D01*
X227721Y486258D01*
X227612Y486094D01*
X227513Y485920D01*
X227437Y485734D01*
X227426Y485712D01*
X227415Y485646D01*
X227382Y485548D01*
X227349Y485428D01*
X227316Y485275D01*
X227295Y485100D01*
X227273Y484903D01*
X227262Y484706D01*
Y484619D01*
X227273Y484553D01*
Y484477D01*
X227284Y484389D01*
X227316Y484193D01*
X227371Y483974D01*
X227448Y483734D01*
X227557Y483515D01*
X227699Y483318D01*
X227721Y483296D01*
X227776Y483242D01*
X227874Y483165D01*
X228005Y483078D01*
X228169Y482990D01*
X228355Y482914D01*
X228584Y482859D01*
X228694Y482848D01*
X228825Y482837D01*
X228890D01*
X228967Y482848D01*
X229065Y482859D01*
X229186Y482881D01*
X229306Y482914D01*
X229437Y482958D01*
X229557Y483012D01*
X229568Y483023D01*
X229612Y483045D01*
X229677Y483089D01*
X229754Y483143D01*
X229841Y483209D01*
X229929Y483296D01*
X230016Y483384D01*
X230093Y483493D01*
X230104Y483504D01*
X230125Y483548D01*
X230169Y483602D01*
X230213Y483690D01*
X230257Y483788D01*
X230311Y483908D01*
X230355Y484029D01*
X230399Y484171D01*
Y484182D01*
X230410Y484225D01*
X230432Y484291D01*
X230443Y484378D01*
X230464Y484488D01*
X230486Y484630D01*
X230519Y484794D01*
X230541Y484991D01*
Y485001D01*
X230552Y485045D01*
Y485100D01*
X230563Y485176D01*
X230574Y485264D01*
X230595Y485373D01*
X230606Y485493D01*
X230628Y485624D01*
X230683Y485887D01*
X230738Y486171D01*
X230803Y486422D01*
X230836Y486543D01*
X230869Y486652D01*
X230880D01*
X230902D01*
X230967Y486663D01*
X231044D01*
X231087D01*
X231109D01*
X231120D01*
X231131D01*
X231197D01*
X231306Y486652D01*
X231426Y486630D01*
X231557Y486597D01*
X231688Y486543D01*
X231809Y486477D01*
X231907Y486389D01*
X231918Y486379D01*
X231962Y486324D01*
X232006Y486236D01*
X232071Y486127D01*
X232126Y485974D01*
X232180Y485799D01*
X232213Y485581D01*
X232224Y485329D01*
Y485220D01*
X232213Y485111D01*
X232191Y484958D01*
X232169Y484805D01*
X232126Y484641D01*
X232071Y484488D01*
X231995Y484357D01*
X231984Y484346D01*
X231951Y484302D01*
X231896Y484247D01*
X231809Y484182D01*
X231699Y484116D01*
X231557Y484040D01*
X231382Y483974D01*
X231186Y483908D01*
X231306Y483001D01*
X231317D01*
X231328Y483012D01*
X231361D01*
X231404Y483023D01*
X231503Y483056D01*
X231645Y483100D01*
X231787Y483154D01*
X231940Y483220D01*
X232093Y483307D01*
X232235Y483406D01*
X232246Y483417D01*
X232290Y483460D01*
X232355Y483526D01*
X232443Y483613D01*
X232530Y483734D01*
X232617Y483876D01*
X232716Y484040D01*
X232792Y484225D01*
Y484236D01*
X232803Y484247D01*
X232814Y484280D01*
X232825Y484324D01*
X232858Y484433D01*
X232891Y484586D01*
X232924Y484761D01*
X232956Y484980D01*
X232978Y485209D01*
X232989Y485471D01*
Y482837D01*
D01*
Y487887D01*
D02*
G37*
G36*
X244186Y486980D02*
D01*
X243377Y486838D01*
Y486827D01*
X243388Y486794D01*
X243399Y486739D01*
X243410Y486663D01*
Y486575D01*
X243421Y486488D01*
X243432Y486291D01*
Y486226D01*
X243421Y486149D01*
X243410Y486062D01*
X243388Y485963D01*
X243355Y485865D01*
X243311Y485778D01*
X243246Y485701D01*
X243235Y485690D01*
X243213Y485679D01*
X243169Y485646D01*
X243093Y485613D01*
X243005Y485581D01*
X242896Y485559D01*
X242754Y485537D01*
X242579Y485526D01*
X242076D01*
Y486586D01*
X241355D01*
Y485526D01*
X236590D01*
Y486980D01*
D01*
Y483777D01*
Y484597D01*
X241355D01*
Y483777D01*
X236590D01*
X244284D01*
X242076D01*
Y484597D01*
X242656D01*
X242667D01*
X242677D01*
X242743D01*
X242841Y484608D01*
X242962D01*
X243093Y484619D01*
X243235Y484641D01*
X243366Y484663D01*
X243475Y484695D01*
X243486Y484706D01*
X243541Y484717D01*
X243607Y484750D01*
X243683Y484805D01*
X243771Y484870D01*
X243869Y484947D01*
X243967Y485045D01*
X244055Y485165D01*
X244066Y485176D01*
X244088Y485231D01*
X244131Y485308D01*
X244175Y485417D01*
X244208Y485548D01*
X244251Y485712D01*
X244273Y485898D01*
X244284Y486116D01*
Y486269D01*
X244273Y486368D01*
X244262Y486499D01*
X244240Y486652D01*
X244219Y486805D01*
X244186Y486980D01*
D02*
G37*
G36*
X236590Y483580D02*
D01*
Y483559D01*
X236579Y483515D01*
X236568Y483438D01*
X236557Y483340D01*
X236535Y483231D01*
X236524Y483111D01*
X236513Y482870D01*
Y483580D01*
D01*
Y480903D01*
D01*
Y482783D01*
X236524Y482695D01*
X236535Y482586D01*
X236546Y482455D01*
X236579Y482324D01*
X236611Y482203D01*
X236666Y482083D01*
X236677Y482072D01*
X236699Y482039D01*
X236732Y481996D01*
X236786Y481930D01*
X236841Y481876D01*
X236917Y481810D01*
X236994Y481744D01*
X237092Y481701D01*
X237103D01*
X237147Y481679D01*
X237223Y481668D01*
X237333Y481646D01*
X237475Y481624D01*
X237562Y481613D01*
X237661D01*
X237781Y481602D01*
X237901Y481591D01*
X238032D01*
X238185D01*
X241355D01*
Y480903D01*
X236513D01*
X243989D01*
X242076D01*
Y481591D01*
X243432D01*
X243989Y482520D01*
X242076D01*
Y483460D01*
X241355D01*
Y482520D01*
X238131D01*
X238109D01*
X238065D01*
X238000D01*
X237923Y482531D01*
X237748Y482542D01*
X237672Y482553D01*
X237617Y482564D01*
X237595Y482575D01*
X237551Y482608D01*
X237497Y482652D01*
X237442Y482728D01*
X237431Y482750D01*
X237409Y482804D01*
X237387Y482903D01*
X237376Y483045D01*
Y483154D01*
X237387Y483209D01*
Y483285D01*
X237398Y483373D01*
X237409Y483460D01*
X236590Y483580D01*
D02*
G37*
G36*
X255579Y484466D02*
X247896D01*
X248016D01*
Y483602D01*
X248704D01*
X248693Y483592D01*
X248672Y483580D01*
X248628Y483548D01*
X248573Y483504D01*
X248518Y483449D01*
X248453Y483384D01*
X248376Y483307D01*
X248300Y483209D01*
X248223Y483111D01*
X248147Y483001D01*
X248081Y482870D01*
X248027Y482728D01*
X247972Y482586D01*
X247928Y482422D01*
X247906Y482247D01*
X247896Y482061D01*
Y479711D01*
D01*
Y481996D01*
X247906Y481952D01*
X247917Y481821D01*
X247939Y481668D01*
X247983Y481482D01*
X248048Y481274D01*
X248136Y481067D01*
X248256Y480859D01*
Y480848D01*
X248278Y480837D01*
X248322Y480771D01*
X248409Y480673D01*
X248518Y480553D01*
X248661Y480411D01*
X248835Y480269D01*
X249032Y480127D01*
X249262Y480006D01*
X249273D01*
X249294Y479995D01*
X249327Y479985D01*
X249371Y479963D01*
X249437Y479941D01*
X249513Y479908D01*
X249590Y479886D01*
X249688Y479864D01*
X249907Y479810D01*
X250158Y479755D01*
X250442Y479722D01*
X250748Y479711D01*
X250890D01*
X250956Y479722D01*
X251043D01*
X251240Y479744D01*
X251470Y479777D01*
X251721Y479832D01*
X251983Y479897D01*
X252235Y479985D01*
X252246D01*
X252268Y479995D01*
X252300Y480017D01*
X252344Y480039D01*
X252464Y480105D01*
X252617Y480192D01*
X252781Y480302D01*
X252945Y480444D01*
X253120Y480608D01*
X253262Y480804D01*
Y480815D01*
X253273Y480826D01*
X253295Y480859D01*
X253317Y480903D01*
X253371Y481012D01*
X253448Y481165D01*
X253514Y481340D01*
X253568Y481547D01*
X253612Y481777D01*
X253623Y482018D01*
Y482105D01*
X253612Y482192D01*
X253601Y482313D01*
X253568Y482455D01*
X253535Y482608D01*
X253481Y482761D01*
X253404Y482903D01*
X253393Y482925D01*
X253371Y482969D01*
X253317Y483034D01*
X253262Y483121D01*
X253186Y483231D01*
X253087Y483329D01*
X252989Y483438D01*
X252869Y483537D01*
X255579D01*
Y484466D01*
D02*
G37*
G36*
X234946Y481996D02*
Y479329D01*
X234935Y479493D01*
X234924Y479678D01*
X234913Y479875D01*
X234891Y480061D01*
X234869Y480225D01*
Y480247D01*
X234847Y480323D01*
X234825Y480422D01*
X234793Y480553D01*
X234738Y480695D01*
X234672Y480848D01*
X234596Y481012D01*
X234508Y481154D01*
X234497Y481176D01*
X234465Y481220D01*
X234399Y481285D01*
X234323Y481373D01*
X234224Y481471D01*
X234093Y481569D01*
X233951Y481679D01*
X233787Y481766D01*
X233765Y481777D01*
X233711Y481799D01*
X233612Y481843D01*
X233481Y481886D01*
X233328Y481919D01*
X233153Y481963D01*
X232956Y481985D01*
X232749Y481996D01*
X234946D01*
X227382D01*
X232661D01*
X232585Y481985D01*
X232508Y481974D01*
X232410Y481963D01*
X232301Y481941D01*
X232180Y481919D01*
X231929Y481843D01*
X231798Y481799D01*
X231656Y481733D01*
X231514Y481657D01*
X231382Y481580D01*
X231251Y481482D01*
X231120Y481373D01*
X231109Y481362D01*
X231087Y481340D01*
X231054Y481307D01*
X231022Y481252D01*
X230967Y481187D01*
X230912Y481099D01*
X230847Y480990D01*
X230792Y480870D01*
X230727Y480728D01*
X230661Y480564D01*
X230606Y480389D01*
X230563Y480181D01*
X230519Y479963D01*
X230486Y479722D01*
X230464Y479449D01*
X230453Y479165D01*
Y477230D01*
X227382D01*
Y476225D01*
X234946D01*
Y481996D01*
D02*
G37*
G36*
X242197Y480291D02*
Y477995D01*
X242186Y478116D01*
X242175Y478279D01*
X242153Y478465D01*
X242120Y478651D01*
X242076Y478837D01*
X242022Y479012D01*
X242011Y479034D01*
X241989Y479088D01*
X241956Y479165D01*
X241912Y479263D01*
X241847Y479373D01*
X241781Y479482D01*
X241694Y479580D01*
X241606Y479668D01*
X241595Y479678D01*
X241563Y479700D01*
X241508Y479733D01*
X241442Y479777D01*
X241344Y479832D01*
X241246Y479875D01*
X241125Y479919D01*
X240983Y479952D01*
X240972D01*
X240940Y479963D01*
X240874Y479974D01*
X240787Y479985D01*
X240666D01*
X240524Y479995D01*
X240338Y480006D01*
X240131D01*
X238885D01*
X238874D01*
X238830D01*
X238765D01*
X238677D01*
X238579D01*
X238458D01*
X238196Y480017D01*
X237923D01*
X237650Y480028D01*
X237529Y480039D01*
X237420D01*
X237322Y480050D01*
X237245Y480061D01*
X237234D01*
X237191Y480072D01*
X237125Y480083D01*
X237038Y480116D01*
X236939Y480138D01*
X236830Y480181D01*
X236710Y480236D01*
X236590Y480291D01*
Y479318D01*
X236600Y479307D01*
X236644Y479296D01*
X236699Y479274D01*
X236786Y479241D01*
X236885Y479209D01*
X237005Y479187D01*
X237136Y479165D01*
X237278Y479143D01*
Y479132D01*
X237256Y479121D01*
X237202Y479056D01*
X237125Y478957D01*
X237027Y478826D01*
X236928Y478662D01*
X236819Y478498D01*
X236721Y478323D01*
X236644Y478137D01*
X236633Y478116D01*
X236622Y478050D01*
X236590Y477952D01*
X236557Y477831D01*
X236524Y477678D01*
X236502Y477503D01*
X236480Y477307D01*
X236469Y477110D01*
Y477023D01*
X236480Y476957D01*
Y476880D01*
X236491Y476793D01*
X236524Y476596D01*
X236579Y476378D01*
X236655Y476137D01*
X236764Y475919D01*
X236907Y475722D01*
X236928Y475700D01*
X236983Y475645D01*
X237081Y475569D01*
X237212Y475481D01*
X237376Y475394D01*
X237562Y475317D01*
X237792Y475263D01*
X237901Y475252D01*
X238032Y475241D01*
X238098D01*
X238174Y475252D01*
X238273Y475263D01*
X238393Y475285D01*
X238513Y475317D01*
X238644Y475361D01*
X238765Y475416D01*
X238775Y475427D01*
X238819Y475449D01*
X238885Y475492D01*
X238961Y475547D01*
X239049Y475613D01*
X239136Y475700D01*
X239224Y475787D01*
X239300Y475897D01*
X239311Y475908D01*
X239333Y475951D01*
X239377Y476006D01*
X239420Y476093D01*
X239464Y476192D01*
X239519Y476312D01*
X239562Y476432D01*
X239606Y476574D01*
Y476585D01*
X239617Y476629D01*
X239639Y476695D01*
X239650Y476782D01*
X239672Y476891D01*
X239694Y477034D01*
X239726Y477197D01*
X239748Y477394D01*
Y477405D01*
X239759Y477449D01*
Y477503D01*
X239770Y477580D01*
X239781Y477667D01*
X239803Y477777D01*
X239814Y477897D01*
X239836Y478028D01*
X239890Y478290D01*
X239945Y478575D01*
X240011Y478826D01*
X240043Y478946D01*
X240076Y479056D01*
X240087D01*
X240109D01*
X240175Y479066D01*
X240251D01*
X240295D01*
X240317D01*
X240328D01*
X240338D01*
X240404D01*
X240513Y479056D01*
X240634Y479034D01*
X240765Y479001D01*
X240896Y478946D01*
X241016Y478881D01*
X241114Y478793D01*
X241125Y478782D01*
X241169Y478728D01*
X241213Y478640D01*
X241279Y478531D01*
X241333Y478378D01*
X241388Y478203D01*
X241421Y477984D01*
X241431Y477733D01*
Y477624D01*
X241421Y477514D01*
X241399Y477361D01*
X241377Y477208D01*
X241333Y477044D01*
X241279Y476891D01*
X241202Y476760D01*
X241191Y476749D01*
X241158Y476706D01*
X241104Y476651D01*
X241016Y476585D01*
X240907Y476520D01*
X240765Y476443D01*
X240590Y476378D01*
X240393Y476312D01*
X240513Y475405D01*
X240524D01*
X240535Y475416D01*
X240568D01*
X240612Y475427D01*
X240710Y475459D01*
X240852Y475503D01*
X240994Y475558D01*
X241147Y475624D01*
X241300Y475711D01*
X241442Y475809D01*
X241453Y475820D01*
X241497Y475864D01*
X241563Y475929D01*
X241650Y476017D01*
X241738Y476137D01*
X241825Y476279D01*
X241923Y476443D01*
X242000Y476629D01*
Y476640D01*
X242011Y476651D01*
X242022Y476684D01*
X242033Y476727D01*
X242065Y476837D01*
X242098Y476990D01*
X242131Y477165D01*
X242164Y477383D01*
X242186Y477613D01*
X242197Y477875D01*
Y475241D01*
D01*
Y480291D01*
D02*
G37*
G36*
X253623Y478924D02*
X250628D01*
X250519Y478913D01*
Y474815D01*
X250508D01*
X250475D01*
X250431Y474826D01*
X250366D01*
X250289Y474836D01*
X250202Y474858D01*
X250005Y474891D01*
X249786Y474957D01*
X249546Y475044D01*
X249327Y475164D01*
X249131Y475317D01*
Y475328D01*
X249109Y475339D01*
X249054Y475405D01*
X248978Y475503D01*
X248901Y475634D01*
X248814Y475809D01*
X248737Y476006D01*
X248682Y476225D01*
X248672Y476345D01*
X248661Y476476D01*
Y476564D01*
X248672Y476662D01*
X248693Y476782D01*
X248726Y476913D01*
X248770Y477066D01*
X248835Y477208D01*
X248923Y477350D01*
X248934Y477361D01*
X248978Y477416D01*
X249043Y477482D01*
X249131Y477558D01*
X249251Y477645D01*
X249404Y477744D01*
X249579Y477842D01*
X249786Y477930D01*
X249666Y478892D01*
X249655D01*
X249633Y478881D01*
X249590Y478870D01*
X249524Y478848D01*
X249459Y478815D01*
X249371Y478782D01*
X249185Y478695D01*
X248978Y478585D01*
X248759Y478433D01*
X248551Y478258D01*
X248355Y478039D01*
Y478028D01*
X248333Y478006D01*
X248311Y477973D01*
X248278Y477930D01*
X248245Y477864D01*
X248212Y477799D01*
X248169Y477711D01*
X248125Y477613D01*
X248081Y477503D01*
X248038Y477394D01*
X247972Y477121D01*
X247917Y476815D01*
X247896Y476476D01*
Y476574D01*
Y476356D01*
X247906Y476279D01*
X247917Y476181D01*
X247939Y476061D01*
X247961Y475929D01*
X247983Y475787D01*
X248070Y475481D01*
X248136Y475317D01*
X248201Y475164D01*
X248289Y475000D01*
X248387Y474848D01*
X248497Y474705D01*
X248628Y474563D01*
X248639Y474552D01*
X248661Y474531D01*
X248704Y474498D01*
X248770Y474454D01*
X248846Y474399D01*
X248934Y474345D01*
X249043Y474279D01*
X249163Y474214D01*
X249306Y474148D01*
X249459Y474082D01*
X249633Y474028D01*
X249819Y473973D01*
X250016Y473929D01*
X250235Y473897D01*
X250464Y473875D01*
X250705Y473864D01*
X250836D01*
X250934Y473875D01*
X251054Y473886D01*
X251185Y473897D01*
X251338Y473918D01*
X251491Y473951D01*
X251841Y474039D01*
X252016Y474093D01*
X252202Y474159D01*
X252377Y474246D01*
X252541Y474345D01*
X252705Y474454D01*
X252858Y474574D01*
X252869Y474585D01*
X252890Y474607D01*
X252923Y474651D01*
X252978Y474705D01*
X253033Y474771D01*
X253098Y474858D01*
X253175Y474957D01*
X253240Y475077D01*
X253317Y475197D01*
X253382Y475339D01*
X253448Y475492D01*
X253503Y475656D01*
X253557Y475831D01*
X253590Y476017D01*
X253612Y476214D01*
X253623Y476421D01*
Y476531D01*
X253612Y476607D01*
X253601Y476695D01*
X253579Y476804D01*
X253557Y476924D01*
X253524Y477066D01*
X253492Y477197D01*
X253437Y477350D01*
X253382Y477493D01*
X253306Y477645D01*
X253218Y477799D01*
X253120Y477952D01*
X253000Y478094D01*
X252869Y478225D01*
X252858Y478236D01*
X252836Y478258D01*
X252792Y478290D01*
X252727Y478334D01*
X252650Y478389D01*
X252563Y478443D01*
X252453Y478509D01*
X252322Y478575D01*
X252180Y478640D01*
X252027Y478706D01*
X251852Y478760D01*
X251666Y478815D01*
X251459Y478859D01*
X251240Y478892D01*
X251010Y478913D01*
X250759Y478924D01*
X253623D01*
D02*
G37*
G36*
Y475897D02*
Y473864D01*
D01*
Y475897D01*
D02*
G37*
G36*
Y472749D02*
D01*
Y470956D01*
X253612Y471044D01*
X253601Y471164D01*
X253579Y471306D01*
X253546Y471459D01*
X253503Y471623D01*
X253437Y471776D01*
X253426Y471798D01*
X253404Y471842D01*
X253371Y471918D01*
X253317Y472006D01*
X253251Y472115D01*
X253164Y472213D01*
X253076Y472312D01*
X252967Y472399D01*
X252956Y472410D01*
X252912Y472432D01*
X252858Y472465D01*
X252781Y472519D01*
X252672Y472563D01*
X252563Y472607D01*
X252431Y472661D01*
X252289Y472694D01*
X252278D01*
X252235Y472705D01*
X252169Y472716D01*
X252082Y472727D01*
X251951D01*
X251798Y472738D01*
X251612Y472749D01*
X253623D01*
X248016D01*
Y471820D01*
X251338D01*
X251349D01*
X251360D01*
X251437D01*
X251535D01*
X251655Y471809D01*
X251798Y471798D01*
X251940Y471776D01*
X252071Y471743D01*
X252191Y471710D01*
X252202D01*
X252235Y471689D01*
X252289Y471656D01*
X252355Y471623D01*
X252420Y471568D01*
X252497Y471503D01*
X252573Y471415D01*
X252639Y471317D01*
X252650Y471306D01*
X252672Y471273D01*
X252694Y471208D01*
X252727Y471131D01*
X252759Y471044D01*
X252792Y470934D01*
X252803Y470803D01*
X252814Y470672D01*
Y470618D01*
X252803Y470574D01*
X252792Y470465D01*
X252770Y470322D01*
X252716Y470169D01*
X252650Y469994D01*
X252563Y469820D01*
X252431Y469656D01*
X252410Y469634D01*
X252355Y469590D01*
X252311Y469557D01*
X252257Y469524D01*
X252191Y469481D01*
X252115Y469448D01*
X252027Y469404D01*
X251918Y469361D01*
X251798Y469328D01*
X251666Y469295D01*
X251524Y469273D01*
X251371Y469251D01*
X251185Y469229D01*
X251000D01*
X248016D01*
Y468300D01*
X253623D01*
Y472749D01*
D02*
G37*
G36*
X232989Y471787D02*
D01*
Y470169D01*
X232978Y470224D01*
Y470301D01*
X232967Y470377D01*
X232934Y470563D01*
X232880Y470760D01*
X232792Y470967D01*
X232683Y471175D01*
X232530Y471350D01*
X232508Y471372D01*
X232443Y471415D01*
X232344Y471492D01*
X232268Y471525D01*
X232191Y471568D01*
X232093Y471612D01*
X231995Y471645D01*
X231885Y471689D01*
X231754Y471722D01*
X231623Y471743D01*
X231470Y471765D01*
X231317Y471787D01*
X227382D01*
Y470858D01*
X230825D01*
X230836D01*
X230847D01*
X230912D01*
X231011D01*
X231131Y470847D01*
X231262Y470836D01*
X231393Y470825D01*
X231524Y470803D01*
X231623Y470771D01*
X231634D01*
X231667Y470749D01*
X231710Y470727D01*
X231765Y470694D01*
X231831Y470650D01*
X231896Y470596D01*
X231962Y470530D01*
X232027Y470443D01*
X232038Y470432D01*
X232049Y470399D01*
X232071Y470355D01*
X232104Y470279D01*
X232137Y470202D01*
X232158Y470104D01*
X232169Y470006D01*
X232180Y469885D01*
Y469831D01*
X232169Y469787D01*
X232158Y469678D01*
X232137Y469546D01*
X232082Y469393D01*
X232016Y469229D01*
X231918Y469066D01*
X231787Y468913D01*
X231765Y468901D01*
X231710Y468858D01*
X231623Y468792D01*
X231492Y468727D01*
X231317Y468650D01*
X231109Y468596D01*
X230858Y468552D01*
X230563Y468530D01*
X227382D01*
Y467601D01*
X230934D01*
X230945D01*
X230967D01*
X230989D01*
X231033D01*
X231153Y467590D01*
X231284Y467568D01*
X231437Y467546D01*
X231590Y467502D01*
X231732Y467448D01*
X231863Y467371D01*
X231874Y467360D01*
X231918Y467328D01*
X231962Y467273D01*
X232027Y467197D01*
X232082Y467098D01*
X232137Y466967D01*
X232169Y466814D01*
X232180Y466628D01*
Y466563D01*
X232169Y466486D01*
X232158Y466399D01*
X232126Y466289D01*
X232093Y466158D01*
X232038Y466038D01*
X231973Y465907D01*
X231962Y465896D01*
X231929Y465852D01*
X231885Y465797D01*
X231820Y465721D01*
X231732Y465644D01*
X231623Y465568D01*
X231503Y465491D01*
X231361Y465426D01*
X231339Y465415D01*
X231284Y465404D01*
X231197Y465382D01*
X231076Y465349D01*
X230912Y465316D01*
X230716Y465295D01*
X230486Y465284D01*
X230224Y465273D01*
X227382D01*
Y464344D01*
X232989D01*
Y471787D01*
D02*
G37*
G36*
X244153Y474006D02*
X236590D01*
Y473000D01*
X240153D01*
Y469087D01*
X236590D01*
Y468082D01*
X244153D01*
Y474006D01*
D02*
G37*
G36*
X253503Y466890D02*
X248551D01*
X248453Y466880D01*
X248333D01*
X248201Y466869D01*
X248059Y466858D01*
X247764Y466825D01*
X247458Y466781D01*
X247316Y466748D01*
X247185Y466715D01*
X247065Y466672D01*
X246955Y466628D01*
X246945D01*
X246934Y466617D01*
X246868Y466573D01*
X246770Y466519D01*
X246650Y466431D01*
X246518Y466311D01*
X246376Y466169D01*
X246234Y465994D01*
X246114Y465797D01*
Y465787D01*
X246103Y465776D01*
X246081Y465743D01*
X246070Y465699D01*
X246037Y465644D01*
X246016Y465579D01*
X245961Y465415D01*
X245895Y465218D01*
X245852Y464978D01*
X245808Y464704D01*
X245797Y464410D01*
Y464311D01*
X245808Y464245D01*
Y464158D01*
X245819Y464071D01*
X245830Y463961D01*
X245852Y463841D01*
X245906Y463590D01*
X245983Y463327D01*
X246092Y463065D01*
X246245Y462824D01*
X246256Y462814D01*
X246267Y462803D01*
X246333Y462726D01*
X246431Y462639D01*
X246573Y462529D01*
X246759Y462420D01*
X246988Y462322D01*
X247119Y462289D01*
X247262Y462267D01*
X247404Y462245D01*
X247568D01*
X247447Y463152D01*
X247426D01*
X247382Y463163D01*
X247305Y463185D01*
X247207Y463207D01*
X247109Y463251D01*
X247010Y463305D01*
X246912Y463371D01*
X246835Y463458D01*
X246824Y463480D01*
X246792Y463524D01*
X246748Y463600D01*
X246704Y463710D01*
X246650Y463841D01*
X246606Y464005D01*
X246573Y464202D01*
X246562Y464409D01*
Y464519D01*
X246573Y464628D01*
X246595Y464781D01*
X246628Y464934D01*
X246671Y465098D01*
X246737Y465262D01*
X246824Y465404D01*
X246835Y465415D01*
X246868Y465459D01*
X246934Y465524D01*
X247010Y465601D01*
X247119Y465677D01*
X247240Y465754D01*
X247382Y465830D01*
X247546Y465885D01*
X247557D01*
X247600Y465896D01*
X247688Y465907D01*
X247797Y465918D01*
X247874Y465929D01*
X247961D01*
X248059Y465940D01*
X248169D01*
X248289D01*
X248431Y465950D01*
X248573D01*
X248737D01*
X248726Y465940D01*
X248704Y465918D01*
X248672Y465885D01*
X248628Y465841D01*
X248573Y465787D01*
X248508Y465710D01*
X248442Y465623D01*
X248376Y465535D01*
X248245Y465306D01*
X248125Y465054D01*
X248081Y464912D01*
X248048Y464759D01*
X248027Y464595D01*
X248016Y464431D01*
Y464376D01*
X248027Y464322D01*
Y464245D01*
X248038Y464147D01*
X248059Y464038D01*
X248081Y463917D01*
X248114Y463786D01*
X248158Y463644D01*
X248212Y463502D01*
X248278Y463360D01*
X248355Y463207D01*
X248453Y463065D01*
X248562Y462923D01*
X248682Y462792D01*
X248825Y462671D01*
X248835Y462661D01*
X248857Y462650D01*
X248912Y462617D01*
X248967Y462573D01*
X249054Y462529D01*
X249142Y462475D01*
X249251Y462420D01*
X249382Y462365D01*
X249513Y462311D01*
X249666Y462256D01*
X249819Y462201D01*
X249994Y462158D01*
X250366Y462081D01*
X250573Y462070D01*
X250781Y462059D01*
X253623D01*
X250912D01*
X250989Y462070D01*
X251065D01*
X251262Y462092D01*
X251481Y462125D01*
X251721Y462180D01*
X251972Y462245D01*
X252224Y462344D01*
X252235D01*
X252257Y462355D01*
X252289Y462376D01*
X252333Y462398D01*
X252453Y462464D01*
X252606Y462551D01*
X252770Y462671D01*
X252934Y462814D01*
X253109Y462978D01*
X253251Y463163D01*
Y463174D01*
X253262Y463185D01*
X253284Y463218D01*
X253306Y463262D01*
X253371Y463371D01*
X253437Y463524D01*
X253503Y463710D01*
X253568Y463928D01*
X253612Y464169D01*
X253623Y464431D01*
Y464530D01*
X253612Y464595D01*
X253601Y464672D01*
X253579Y464770D01*
X253557Y464879D01*
X253524Y464999D01*
X253481Y465120D01*
X253426Y465251D01*
X253361Y465382D01*
X253284Y465524D01*
X253197Y465655D01*
X253087Y465787D01*
X252967Y465918D01*
X252825Y466038D01*
X253503D01*
Y466890D01*
D02*
G37*
G36*
X232989Y463207D02*
D01*
Y460912D01*
X232978Y461032D01*
X232967Y461196D01*
X232945Y461382D01*
X232913Y461567D01*
X232869Y461753D01*
X232814Y461928D01*
X232803Y461950D01*
X232782Y462005D01*
X232749Y462081D01*
X232705Y462180D01*
X232639Y462289D01*
X232574Y462398D01*
X232486Y462497D01*
X232399Y462584D01*
X232388Y462595D01*
X232355Y462617D01*
X232301Y462650D01*
X232235Y462693D01*
X232137Y462748D01*
X232038Y462792D01*
X231918Y462835D01*
X231776Y462868D01*
X231765D01*
X231732Y462879D01*
X231667Y462890D01*
X231579Y462901D01*
X231459D01*
X231317Y462912D01*
X231131Y462923D01*
X230923D01*
X229677D01*
X229666D01*
X229623D01*
X229557D01*
X229470D01*
X229371D01*
X229251D01*
X228989Y462934D01*
X228715D01*
X228442Y462945D01*
X228322Y462956D01*
X228213D01*
X228114Y462967D01*
X228038Y462978D01*
X228027D01*
X227983Y462988D01*
X227918Y462999D01*
X227830Y463032D01*
X227732Y463054D01*
X227623Y463098D01*
X227502Y463152D01*
X227382Y463207D01*
Y462234D01*
X227393Y462223D01*
X227437Y462212D01*
X227491Y462190D01*
X227579Y462158D01*
X227677Y462125D01*
X227797Y462103D01*
X227929Y462081D01*
X228071Y462059D01*
Y462048D01*
X228049Y462038D01*
X227994Y461972D01*
X227918Y461873D01*
X227819Y461742D01*
X227721Y461578D01*
X227612Y461414D01*
X227513Y461240D01*
X227437Y461054D01*
X227426Y461032D01*
X227415Y460966D01*
X227382Y460868D01*
X227349Y460748D01*
X227316Y460595D01*
X227295Y460420D01*
X227273Y460223D01*
X227262Y460026D01*
Y459939D01*
X227273Y459873D01*
Y459797D01*
X227284Y459709D01*
X227316Y459513D01*
X227371Y459294D01*
X227448Y459054D01*
X227557Y458835D01*
X227699Y458638D01*
X227721Y458616D01*
X227776Y458562D01*
X227874Y458485D01*
X228005Y458398D01*
X228169Y458310D01*
X228355Y458234D01*
X228584Y458179D01*
X228694Y458168D01*
X228825Y458157D01*
X228890D01*
X228967Y458168D01*
X229065Y458179D01*
X229186Y458201D01*
X229306Y458234D01*
X229437Y458278D01*
X229557Y458332D01*
X229568Y458343D01*
X229612Y458365D01*
X229677Y458409D01*
X229754Y458463D01*
X229841Y458529D01*
X229929Y458616D01*
X230016Y458704D01*
X230093Y458813D01*
X230104Y458824D01*
X230125Y458868D01*
X230169Y458922D01*
X230213Y459010D01*
X230257Y459108D01*
X230311Y459229D01*
X230355Y459349D01*
X230399Y459491D01*
Y459502D01*
X230410Y459546D01*
X230432Y459611D01*
X230443Y459698D01*
X230464Y459808D01*
X230486Y459950D01*
X230519Y460114D01*
X230541Y460311D01*
Y460322D01*
X230552Y460365D01*
Y460420D01*
X230563Y460496D01*
X230574Y460584D01*
X230595Y460693D01*
X230606Y460813D01*
X230628Y460945D01*
X230683Y461207D01*
X230738Y461491D01*
X230803Y461742D01*
X230836Y461863D01*
X230869Y461972D01*
X230880D01*
X230902D01*
X230967Y461983D01*
X231044D01*
X231087D01*
X231109D01*
X231120D01*
X231131D01*
X231197D01*
X231306Y461972D01*
X231426Y461950D01*
X231557Y461917D01*
X231688Y461863D01*
X231809Y461797D01*
X231907Y461710D01*
X231918Y461699D01*
X231962Y461644D01*
X232006Y461557D01*
X232071Y461447D01*
X232126Y461294D01*
X232180Y461119D01*
X232213Y460901D01*
X232224Y460649D01*
Y460540D01*
X232213Y460431D01*
X232191Y460278D01*
X232169Y460125D01*
X232126Y459961D01*
X232071Y459808D01*
X231995Y459677D01*
X231984Y459666D01*
X231951Y459622D01*
X231896Y459567D01*
X231809Y459502D01*
X231699Y459436D01*
X231557Y459360D01*
X231382Y459294D01*
X231186Y459229D01*
X231306Y458321D01*
X231317D01*
X231328Y458332D01*
X231361D01*
X231404Y458343D01*
X231503Y458376D01*
X231645Y458420D01*
X231787Y458474D01*
X231940Y458540D01*
X232093Y458627D01*
X232235Y458726D01*
X232246Y458737D01*
X232290Y458780D01*
X232355Y458846D01*
X232443Y458933D01*
X232530Y459054D01*
X232617Y459196D01*
X232716Y459360D01*
X232792Y459546D01*
Y459556D01*
X232803Y459567D01*
X232814Y459600D01*
X232825Y459644D01*
X232858Y459753D01*
X232891Y459906D01*
X232924Y460081D01*
X232956Y460300D01*
X232978Y460529D01*
X232989Y460791D01*
Y458157D01*
D01*
Y463207D01*
D02*
G37*
G36*
X255579Y460999D02*
X254123D01*
X254519D01*
Y460070D01*
X255579D01*
Y460999D01*
D02*
G37*
G36*
X253503D02*
X248016D01*
Y460070D01*
X254123D01*
X253503D01*
Y460999D01*
D02*
G37*
G36*
X242197Y463557D02*
X236590D01*
Y459108D01*
X242197D01*
X242076D01*
Y459939D01*
X241289D01*
X241300Y459950D01*
X241333Y459972D01*
X241377Y460005D01*
X241431Y460048D01*
X241497Y460114D01*
X241574Y460190D01*
X241661Y460278D01*
X241748Y460387D01*
X241825Y460496D01*
X241912Y460628D01*
X241989Y460770D01*
X242055Y460923D01*
X242109Y461097D01*
X242153Y461272D01*
X242186Y461469D01*
X242197Y461677D01*
Y461764D01*
X242186Y461852D01*
X242175Y461972D01*
X242153Y462114D01*
X242120Y462267D01*
X242076Y462431D01*
X242011Y462584D01*
X242000Y462606D01*
X241978Y462650D01*
X241945Y462726D01*
X241891Y462814D01*
X241825Y462923D01*
X241738Y463021D01*
X241650Y463120D01*
X241541Y463207D01*
X241530Y463218D01*
X241486Y463240D01*
X241431Y463273D01*
X241355Y463327D01*
X241246Y463371D01*
X241136Y463415D01*
X241005Y463469D01*
X240863Y463502D01*
X240852D01*
X240809Y463513D01*
X240743Y463524D01*
X240655Y463535D01*
X240524D01*
X240371Y463546D01*
X240185Y463557D01*
X242197D01*
D02*
G37*
G36*
X253623Y458966D02*
X247896D01*
X249546D01*
X249459Y458955D01*
X249338Y458933D01*
X249207Y458901D01*
X249065Y458846D01*
X248901Y458780D01*
X248748Y458693D01*
X248726Y458682D01*
X248682Y458638D01*
X248606Y458584D01*
X248518Y458496D01*
X248420Y458376D01*
X248311Y458245D01*
X248212Y458092D01*
X248114Y457906D01*
Y457895D01*
X248103Y457884D01*
X248081Y457819D01*
X248048Y457709D01*
X248005Y457567D01*
X247961Y457392D01*
X247928Y457196D01*
X247906Y456988D01*
X247896Y456747D01*
Y454408D01*
Y456649D01*
X247906Y456572D01*
Y456485D01*
X247917Y456376D01*
X247928Y456266D01*
X247950Y456146D01*
X248005Y455884D01*
X248081Y455611D01*
X248191Y455348D01*
X248256Y455228D01*
X248333Y455119D01*
X248344Y455108D01*
X248355Y455097D01*
X248420Y455031D01*
X248518Y454933D01*
X248672Y454824D01*
X248857Y454704D01*
X249076Y454583D01*
X249349Y454485D01*
X249655Y454408D01*
D01*
X249797Y455327D01*
X249786D01*
X249775D01*
X249710Y455348D01*
X249601Y455370D01*
X249480Y455414D01*
X249349Y455469D01*
X249207Y455534D01*
X249065Y455632D01*
X248945Y455753D01*
X248934Y455775D01*
X248901Y455818D01*
X248857Y455906D01*
X248803Y456015D01*
X248748Y456157D01*
X248704Y456321D01*
X248672Y456518D01*
X248661Y456747D01*
Y456857D01*
X248672Y456966D01*
X248693Y457108D01*
X248726Y457261D01*
X248770Y457425D01*
X248825Y457567D01*
X248912Y457698D01*
X248923Y457709D01*
X248956Y457753D01*
X249010Y457797D01*
X249087Y457862D01*
X249174Y457917D01*
X249284Y457971D01*
X249393Y458004D01*
X249524Y458015D01*
X249535D01*
X249579D01*
X249633Y458004D01*
X249710Y457982D01*
X249786Y457950D01*
X249863Y457895D01*
X249950Y457829D01*
X250016Y457731D01*
X250027Y457720D01*
X250038Y457687D01*
X250071Y457633D01*
X250103Y457545D01*
X250147Y457414D01*
X250180Y457338D01*
X250202Y457250D01*
X250235Y457152D01*
X250267Y457043D01*
X250300Y456922D01*
X250333Y456780D01*
Y456769D01*
X250344Y456736D01*
X250355Y456682D01*
X250377Y456616D01*
X250398Y456529D01*
X250431Y456430D01*
X250486Y456223D01*
X250562Y455982D01*
X250628Y455753D01*
X250705Y455534D01*
X250748Y455436D01*
X250781Y455359D01*
X250792Y455337D01*
X250814Y455294D01*
X250857Y455228D01*
X250912Y455141D01*
X250989Y455042D01*
X251076Y454944D01*
X251174Y454846D01*
X251295Y454758D01*
X251306Y454747D01*
X251349Y454725D01*
X251426Y454693D01*
X251513Y454660D01*
X251623Y454627D01*
X251754Y454594D01*
X251885Y454572D01*
X252038Y454561D01*
X252060D01*
X252103D01*
X252169Y454572D01*
X252268Y454583D01*
X252366Y454605D01*
X252486Y454627D01*
X252595Y454671D01*
X252716Y454725D01*
X252727Y454736D01*
X252770Y454758D01*
X252825Y454791D01*
X252901Y454846D01*
X252978Y454911D01*
X253076Y454988D01*
X253164Y455075D01*
X253240Y455184D01*
X253251Y455195D01*
X253262Y455228D01*
X253295Y455272D01*
X253328Y455337D01*
X253371Y455425D01*
X253415Y455523D01*
X253459Y455644D01*
X253503Y455775D01*
X253514Y455796D01*
X253524Y455840D01*
X253546Y455917D01*
X253568Y456015D01*
X253590Y456135D01*
X253601Y456266D01*
X253623Y456420D01*
Y454693D01*
Y456682D01*
X253612Y456802D01*
X253601Y456966D01*
X253579Y457141D01*
X253535Y457327D01*
X253492Y457523D01*
X253426Y457709D01*
Y457720D01*
X253415Y457731D01*
X253393Y457786D01*
X253349Y457873D01*
X253295Y457982D01*
X253218Y458103D01*
X253131Y458223D01*
X253033Y458332D01*
X252923Y458431D01*
X252912Y458441D01*
X252869Y458463D01*
X252792Y458507D01*
X252705Y458562D01*
X252573Y458616D01*
X252431Y458671D01*
X252268Y458715D01*
X252082Y458758D01*
X251961Y457851D01*
X251983D01*
X252027Y457840D01*
X252103Y457819D01*
X252202Y457786D01*
X252300Y457731D01*
X252410Y457665D01*
X252519Y457589D01*
X252617Y457480D01*
X252628Y457469D01*
X252650Y457425D01*
X252694Y457360D01*
X252737Y457261D01*
X252781Y457152D01*
X252825Y457010D01*
X252847Y456835D01*
X252858Y456649D01*
Y456540D01*
X252847Y456430D01*
X252836Y456288D01*
X252803Y456146D01*
X252770Y455993D01*
X252716Y455851D01*
X252639Y455731D01*
X252628Y455720D01*
X252606Y455687D01*
X252563Y455644D01*
X252497Y455600D01*
X252431Y455545D01*
X252344Y455501D01*
X252246Y455469D01*
X252147Y455458D01*
X252136D01*
X252115D01*
X252082Y455469D01*
X252038D01*
X251929Y455501D01*
X251819Y455567D01*
X251808Y455578D01*
X251798Y455589D01*
X251765Y455611D01*
X251732Y455654D01*
X251699Y455698D01*
X251655Y455764D01*
X251623Y455840D01*
X251579Y455928D01*
Y455939D01*
X251568Y455960D01*
X251557Y456004D01*
X251524Y456081D01*
X251491Y456190D01*
X251459Y456332D01*
X251426Y456420D01*
X251404Y456518D01*
X251371Y456627D01*
X251338Y456747D01*
Y456758D01*
X251327Y456791D01*
X251317Y456846D01*
X251295Y456911D01*
X251273Y456988D01*
X251251Y457086D01*
X251185Y457294D01*
X251120Y457523D01*
X251043Y457753D01*
X250967Y457961D01*
X250934Y458048D01*
X250901Y458125D01*
X250890Y458146D01*
X250868Y458190D01*
X250836Y458256D01*
X250781Y458354D01*
X250715Y458453D01*
X250628Y458551D01*
X250530Y458649D01*
X250420Y458737D01*
X250409Y458748D01*
X250366Y458769D01*
X250300Y458813D01*
X250202Y458857D01*
X250081Y458890D01*
X249950Y458933D01*
X249797Y458955D01*
X249622Y458966D01*
X253623D01*
D02*
G37*
G36*
X244153Y457676D02*
X236590D01*
Y453228D01*
X244153D01*
Y454157D01*
X241442D01*
X241453Y454168D01*
X241475Y454190D01*
X241508Y454222D01*
X241563Y454277D01*
X241617Y454332D01*
X241683Y454408D01*
X241748Y454507D01*
X241825Y454605D01*
X241891Y454714D01*
X241956Y454835D01*
X242076Y455119D01*
X242131Y455272D01*
X242164Y455436D01*
X242186Y455611D01*
X242197Y455786D01*
Y455884D01*
X242186Y456004D01*
X242164Y456146D01*
X242142Y456310D01*
X242098Y456485D01*
X242033Y456660D01*
X241956Y456835D01*
X241945Y456857D01*
X241912Y456911D01*
X241858Y456988D01*
X241781Y457086D01*
X241683Y457185D01*
X241574Y457294D01*
X241442Y457392D01*
X241289Y457480D01*
X241267Y457491D01*
X241213Y457513D01*
X241114Y457545D01*
X240972Y457578D01*
X240797Y457611D01*
X240590Y457644D01*
X240338Y457665D01*
X240054Y457676D01*
X244153D01*
D02*
G37*
G36*
X232869Y457687D02*
D01*
X227382Y455960D01*
Y455010D01*
X230661Y454135D01*
X231601Y453917D01*
X227382Y452813D01*
Y451829D01*
X232869Y450168D01*
X227382D01*
X232869D01*
Y457687D01*
D02*
G37*
G36*
X253623Y453643D02*
X250628D01*
X250519Y453632D01*
Y449534D01*
X250508D01*
X250475D01*
X250431Y449544D01*
X250366D01*
X250289Y449555D01*
X250202Y449577D01*
X250005Y449610D01*
X249786Y449676D01*
X249546Y449763D01*
X249327Y449883D01*
X249131Y450036D01*
Y450047D01*
X249109Y450058D01*
X249054Y450124D01*
X248978Y450222D01*
X248901Y450353D01*
X248814Y450528D01*
X248737Y450725D01*
X248682Y450944D01*
X248672Y451064D01*
X248661Y451195D01*
Y451282D01*
X248672Y451381D01*
X248693Y451501D01*
X248726Y451632D01*
X248770Y451785D01*
X248835Y451927D01*
X248923Y452069D01*
X248934Y452080D01*
X248978Y452135D01*
X249043Y452201D01*
X249131Y452277D01*
X249251Y452364D01*
X249404Y452463D01*
X249579Y452561D01*
X249786Y452649D01*
X249666Y453611D01*
X249655D01*
X249633Y453600D01*
X249590Y453589D01*
X249524Y453567D01*
X249459Y453534D01*
X249371Y453501D01*
X249185Y453414D01*
X248978Y453304D01*
X248759Y453151D01*
X248551Y452977D01*
X248355Y452758D01*
Y452747D01*
X248333Y452725D01*
X248311Y452692D01*
X248278Y452649D01*
X248245Y452583D01*
X248212Y452518D01*
X248169Y452430D01*
X248125Y452332D01*
X248081Y452222D01*
X248038Y452113D01*
X247972Y451840D01*
X247917Y451534D01*
X247896Y451195D01*
Y451446D01*
Y451195D01*
D01*
Y451075D01*
X247906Y450998D01*
X247917Y450900D01*
X247939Y450780D01*
X247961Y450648D01*
X247983Y450506D01*
X248070Y450200D01*
X248136Y450036D01*
X248201Y449883D01*
X248289Y449719D01*
X248387Y449566D01*
X248497Y449424D01*
X248628Y449282D01*
X248639Y449271D01*
X248661Y449249D01*
X248704Y449217D01*
X248770Y449173D01*
X248846Y449118D01*
X248934Y449064D01*
X249043Y448998D01*
X249163Y448932D01*
X249306Y448867D01*
X249459Y448801D01*
X249633Y448747D01*
X249819Y448692D01*
X250016Y448648D01*
X250235Y448616D01*
X250464Y448594D01*
X250705Y448583D01*
X250836D01*
X250934Y448594D01*
X251054Y448604D01*
X251185Y448616D01*
X251338Y448637D01*
X251491Y448670D01*
X251841Y448758D01*
X252016Y448812D01*
X252202Y448878D01*
X252377Y448965D01*
X252541Y449064D01*
X252705Y449173D01*
X252858Y449293D01*
X252869Y449304D01*
X252890Y449326D01*
X252923Y449370D01*
X252978Y449424D01*
X253033Y449490D01*
X253098Y449577D01*
X253175Y449676D01*
X253240Y449796D01*
X253317Y449916D01*
X253382Y450058D01*
X253448Y450211D01*
X253503Y450375D01*
X253557Y450550D01*
X253590Y450736D01*
X253612Y450933D01*
X253623Y451140D01*
Y450605D01*
Y451140D01*
Y451250D01*
X253612Y451326D01*
X253601Y451413D01*
X253579Y451523D01*
X253557Y451643D01*
X253524Y451785D01*
X253492Y451916D01*
X253437Y452069D01*
X253382Y452211D01*
X253306Y452364D01*
X253218Y452518D01*
X253120Y452670D01*
X253000Y452813D01*
X252869Y452944D01*
X252858Y452955D01*
X252836Y452977D01*
X252792Y453009D01*
X252727Y453053D01*
X252650Y453108D01*
X252563Y453162D01*
X252453Y453228D01*
X252322Y453294D01*
X252180Y453359D01*
X252027Y453425D01*
X251852Y453479D01*
X251666Y453534D01*
X251459Y453578D01*
X251240Y453611D01*
X251010Y453632D01*
X250759Y453643D01*
X253623D01*
D02*
G37*
G36*
Y450605D02*
Y448583D01*
D01*
Y450605D01*
D02*
G37*
G36*
X242197Y452135D02*
X236469D01*
X239234D01*
X239147Y452124D01*
X239038Y452113D01*
X238929D01*
X238808Y452091D01*
X238535Y452058D01*
X238262Y451993D01*
X237988Y451916D01*
X237737Y451807D01*
X237726D01*
X237715Y451796D01*
X237683Y451774D01*
X237639Y451752D01*
X237529Y451676D01*
X237398Y451578D01*
X237245Y451446D01*
X237092Y451282D01*
X236939Y451097D01*
X236797Y450878D01*
Y450867D01*
X236786Y450856D01*
X236764Y450823D01*
X236742Y450769D01*
X236721Y450714D01*
X236699Y450648D01*
X236633Y450485D01*
X236579Y450299D01*
X236524Y450069D01*
X236480Y449829D01*
X236469Y449566D01*
Y449457D01*
X236480Y449370D01*
X236491Y449271D01*
X236513Y449162D01*
X236535Y449031D01*
X236557Y448900D01*
X236644Y448604D01*
X236710Y448441D01*
X236775Y448288D01*
X236863Y448135D01*
X236961Y447982D01*
X237070Y447839D01*
X237202Y447697D01*
X237212Y447686D01*
X237234Y447664D01*
X237278Y447632D01*
X237344Y447588D01*
X237420Y447533D01*
X237508Y447479D01*
X237617Y447413D01*
X237748Y447348D01*
X237890Y447282D01*
X238054Y447216D01*
X238229Y447162D01*
X238415Y447107D01*
X238622Y447063D01*
X238841Y447031D01*
X239082Y447009D01*
X239333Y446998D01*
X242197D01*
Y449676D01*
X242186Y449752D01*
X242175Y449851D01*
X242153Y449960D01*
X242131Y450080D01*
X242109Y450222D01*
X242011Y450517D01*
X241956Y450670D01*
X241880Y450823D01*
X241803Y450976D01*
X241694Y451129D01*
X241584Y451271D01*
X241453Y451413D01*
X241442Y451425D01*
X241421Y451446D01*
X241377Y451479D01*
X241322Y451523D01*
X241246Y451578D01*
X241147Y451643D01*
X241038Y451709D01*
X240918Y451774D01*
X240787Y451840D01*
X240623Y451905D01*
X240459Y451971D01*
X240273Y452026D01*
X240076Y452069D01*
X239868Y452102D01*
X239650Y452124D01*
X239409Y452135D01*
X242197D01*
D02*
G37*
G36*
X234946Y449413D02*
Y445894D01*
X232235D01*
X232246Y445905D01*
X232268Y445927D01*
X232301Y445960D01*
X232355Y446014D01*
X232410Y446069D01*
X232475Y446145D01*
X232541Y446244D01*
X232617Y446342D01*
X232683Y446451D01*
X232749Y446572D01*
X232869Y446856D01*
X232924Y447009D01*
X232956Y447173D01*
X232978Y447348D01*
X232989Y447522D01*
Y447621D01*
X232978Y447741D01*
X232956Y447883D01*
X232934Y448047D01*
X232891Y448222D01*
X232825Y448397D01*
X232749Y448572D01*
X232738Y448594D01*
X232705Y448648D01*
X232650Y448725D01*
X232574Y448823D01*
X232475Y448921D01*
X232366Y449031D01*
X232235Y449129D01*
X232082Y449217D01*
X232060Y449228D01*
X232006Y449249D01*
X231907Y449282D01*
X231765Y449315D01*
X231590Y449348D01*
X231382Y449381D01*
X231131Y449402D01*
X230847Y449413D01*
X234946D01*
X227382D01*
Y447402D01*
Y448484D01*
X230858D01*
X230869D01*
X230891D01*
X230923D01*
X230967D01*
X231087Y448473D01*
X231240Y448452D01*
X231404Y448408D01*
X231568Y448353D01*
X231732Y448277D01*
X231863Y448178D01*
X231874Y448167D01*
X231918Y448124D01*
X231973Y448058D01*
X232027Y447960D01*
X232093Y447839D01*
X232137Y447697D01*
X232180Y447522D01*
X232191Y447326D01*
Y447260D01*
X232180Y447184D01*
X232169Y447074D01*
X232137Y446965D01*
X232104Y446834D01*
X232049Y446703D01*
X231973Y446561D01*
X231962Y446550D01*
X231929Y446506D01*
X231885Y446440D01*
X231820Y446364D01*
X231732Y446276D01*
X231634Y446189D01*
X231514Y446112D01*
X231382Y446047D01*
X231361Y446036D01*
X231317Y446025D01*
X231229Y446003D01*
X231120Y445970D01*
X230978Y445938D01*
X230803Y445916D01*
X230606Y445905D01*
X230377Y445894D01*
X227382D01*
D01*
Y444965D01*
X234946D01*
Y449413D01*
D02*
G37*
G36*
X255579Y447643D02*
Y444298D01*
X255568Y444495D01*
X255557Y444713D01*
X255536Y444932D01*
X255503Y445151D01*
X255470Y445336D01*
Y445347D01*
X255459Y445369D01*
Y445402D01*
X255437Y445446D01*
X255404Y445566D01*
X255350Y445719D01*
X255273Y445894D01*
X255175Y446080D01*
X255066Y446266D01*
X254924Y446440D01*
X254912Y446451D01*
X254902Y446462D01*
X254869Y446495D01*
X254836Y446539D01*
X254727Y446648D01*
X254574Y446779D01*
X254388Y446921D01*
X254169Y447074D01*
X253918Y447216D01*
X253634Y447337D01*
X253623D01*
X253601Y447348D01*
X253557Y447369D01*
X253492Y447380D01*
X253415Y447413D01*
X253328Y447435D01*
X253229Y447457D01*
X253109Y447490D01*
X252989Y447522D01*
X252847Y447544D01*
X252541Y447599D01*
X252202Y447632D01*
X251830Y447643D01*
X251688D01*
X251612Y447632D01*
X251524D01*
X251317Y447621D01*
X251076Y447588D01*
X250825Y447555D01*
X250562Y447501D01*
X250300Y447435D01*
X250289D01*
X250267Y447424D01*
X250235Y447413D01*
X250191Y447402D01*
X250071Y447359D01*
X249918Y447293D01*
X249743Y447227D01*
X249568Y447140D01*
X249382Y447031D01*
X249207Y446921D01*
X249185Y446910D01*
X249131Y446867D01*
X249054Y446801D01*
X248956Y446714D01*
X248846Y446615D01*
X248737Y446495D01*
X248617Y446375D01*
X248518Y446233D01*
X248508Y446211D01*
X248475Y446167D01*
X248431Y446091D01*
X248376Y445981D01*
X248311Y445850D01*
X248256Y445697D01*
X248191Y445522D01*
X248136Y445326D01*
Y445304D01*
X248125Y445271D01*
X248114Y445238D01*
X248103Y445129D01*
X248081Y444976D01*
X248059Y444801D01*
X248038Y444593D01*
X248027Y444364D01*
X248016Y444112D01*
Y441391D01*
X255579D01*
Y447643D01*
D02*
G37*
G36*
X244153Y445828D02*
X236458D01*
X238841D01*
X238754Y445817D01*
X238666D01*
X238458Y445795D01*
X238218Y445774D01*
X237967Y445730D01*
X237737Y445664D01*
X237519Y445588D01*
X237508D01*
X237497Y445577D01*
X237431Y445544D01*
X237344Y445490D01*
X237223Y445413D01*
X237103Y445304D01*
X236972Y445183D01*
X236841Y445030D01*
X236732Y444855D01*
X236721Y444834D01*
X236688Y444768D01*
X236644Y444670D01*
X236600Y444528D01*
X236546Y444353D01*
X236502Y444156D01*
X236469Y443937D01*
X236458Y443697D01*
Y443599D01*
X236469Y443533D01*
X236480Y443446D01*
X236491Y443358D01*
X236535Y443129D01*
X236600Y442888D01*
X236699Y442637D01*
X236764Y442506D01*
X236841Y442385D01*
X236928Y442276D01*
X237027Y442167D01*
X237038Y442156D01*
X237049Y442145D01*
X237092Y442123D01*
X237136Y442090D01*
X237191Y442046D01*
X237267Y442003D01*
X237355Y441959D01*
X237453Y441904D01*
X237562Y441861D01*
X237693Y441817D01*
X237825Y441773D01*
X237978Y441730D01*
X238142Y441708D01*
X238327Y441675D01*
X238513Y441664D01*
X237870D01*
X238721D01*
X238852Y442571D01*
X238841D01*
X238819D01*
X238775D01*
X238710Y442582D01*
X238644Y442593D01*
X238568D01*
X238382Y442626D01*
X238185Y442659D01*
X237988Y442724D01*
X237814Y442790D01*
X237737Y442834D01*
X237672Y442888D01*
X237661Y442899D01*
X237628Y442943D01*
X237573Y443008D01*
X237519Y443096D01*
X237453Y443216D01*
X237409Y443347D01*
X237366Y443511D01*
X237355Y443686D01*
Y443752D01*
X237366Y443817D01*
X237376Y443916D01*
X237398Y444014D01*
X237420Y444123D01*
X237464Y444233D01*
X237519Y444342D01*
X237529Y444353D01*
X237551Y444385D01*
X237595Y444429D01*
X237639Y444495D01*
X237715Y444550D01*
X237792Y444615D01*
X237879Y444670D01*
X237988Y444713D01*
X238000D01*
X238043Y444735D01*
X238120Y444746D01*
X238218Y444768D01*
X238349Y444790D01*
X238513Y444801D01*
X238710Y444823D01*
X238939D01*
X244153D01*
Y442527D01*
Y445828D01*
D02*
G37*
G36*
X232989Y443861D02*
D01*
Y441576D01*
X232978Y441697D01*
X232967Y441861D01*
X232945Y442036D01*
X232902Y442221D01*
X232858Y442418D01*
X232792Y442604D01*
Y442615D01*
X232782Y442626D01*
X232760Y442681D01*
X232716Y442768D01*
X232661Y442877D01*
X232585Y442997D01*
X232497Y443118D01*
X232399Y443227D01*
X232290Y443325D01*
X232279Y443336D01*
X232235Y443358D01*
X232158Y443402D01*
X232071Y443457D01*
X231940Y443511D01*
X231798Y443566D01*
X231634Y443610D01*
X231448Y443653D01*
X231328Y442746D01*
X231350D01*
X231393Y442735D01*
X231470Y442713D01*
X231568Y442681D01*
X231667Y442626D01*
X231776Y442560D01*
X231885Y442484D01*
X231984Y442374D01*
X231995Y442364D01*
X232016Y442320D01*
X232060Y442254D01*
X232104Y442156D01*
X232148Y442046D01*
X232191Y441904D01*
X232213Y441730D01*
X232224Y441544D01*
Y441434D01*
X232213Y441325D01*
X232202Y441183D01*
X232169Y441041D01*
X232137Y440888D01*
X232082Y440746D01*
X232006Y440626D01*
X231995Y440615D01*
X231973Y440582D01*
X231929Y440538D01*
X231863Y440494D01*
X231798Y440440D01*
X231710Y440396D01*
X231612Y440363D01*
X231514Y440352D01*
X231503D01*
X231481D01*
X231448Y440363D01*
X231404D01*
X231295Y440396D01*
X231186Y440462D01*
X231175Y440473D01*
X231164Y440484D01*
X231131Y440505D01*
X231098Y440549D01*
X231066Y440593D01*
X231022Y440658D01*
X230989Y440735D01*
X230945Y440822D01*
Y440833D01*
X230934Y440855D01*
X230923Y440899D01*
X230891Y440975D01*
X230858Y441085D01*
X230825Y441227D01*
X230792Y441314D01*
X230770Y441413D01*
X230738Y441522D01*
X230705Y441642D01*
Y441653D01*
X230694Y441686D01*
X230683Y441741D01*
X230661Y441806D01*
X230639Y441883D01*
X230617Y441981D01*
X230552Y442189D01*
X230486Y442418D01*
X230410Y442648D01*
X230333Y442855D01*
X230300Y442943D01*
X230268Y443019D01*
X230257Y443041D01*
X230235Y443085D01*
X230202Y443151D01*
X230147Y443249D01*
X230082Y443347D01*
X229994Y443446D01*
X229896Y443544D01*
X229787Y443631D01*
X229776Y443642D01*
X229732Y443664D01*
X229666Y443708D01*
X229568Y443752D01*
X229448Y443784D01*
X229317Y443828D01*
X229164Y443850D01*
X228989Y443861D01*
X232989D01*
X227262D01*
X228912D01*
X228825Y443850D01*
X228705Y443828D01*
X228573Y443795D01*
X228431Y443741D01*
X228267Y443675D01*
X228114Y443588D01*
X228093Y443577D01*
X228049Y443533D01*
X227972Y443478D01*
X227885Y443391D01*
X227786Y443271D01*
X227677Y443140D01*
X227579Y442986D01*
X227480Y442801D01*
Y442790D01*
X227469Y442779D01*
X227448Y442713D01*
X227415Y442604D01*
X227371Y442462D01*
X227327Y442287D01*
X227295Y442090D01*
X227273Y441883D01*
X227262Y441642D01*
Y441544D01*
X227273Y441467D01*
Y441380D01*
X227284Y441270D01*
X227295Y441161D01*
X227316Y441041D01*
X227371Y440779D01*
X227448Y440505D01*
X227557Y440243D01*
X227623Y440123D01*
X227699Y440014D01*
X227710Y440003D01*
X227721Y439992D01*
X227786Y439926D01*
X227885Y439828D01*
X228038Y439718D01*
X228224Y439598D01*
X228442Y439478D01*
X228715Y439380D01*
X229022Y439303D01*
D01*
X229164Y440221D01*
X229153D01*
X229142D01*
X229076Y440243D01*
X228967Y440265D01*
X228847Y440309D01*
X228715Y440363D01*
X228573Y440429D01*
X228431Y440527D01*
X228311Y440648D01*
X228300Y440669D01*
X228267Y440713D01*
X228224Y440801D01*
X228169Y440910D01*
X228114Y441052D01*
X228071Y441216D01*
X228038Y441413D01*
X228027Y441642D01*
Y441751D01*
X228038Y441861D01*
X228060Y442003D01*
X228093Y442156D01*
X228136Y442320D01*
X228191Y442462D01*
X228278Y442593D01*
X228289Y442604D01*
X228322Y442648D01*
X228377Y442691D01*
X228453Y442757D01*
X228541Y442812D01*
X228650Y442866D01*
X228759Y442899D01*
X228890Y442910D01*
X228901D01*
X228945D01*
X229000Y442899D01*
X229076Y442877D01*
X229153Y442844D01*
X229229Y442790D01*
X229317Y442724D01*
X229382Y442626D01*
X229393Y442615D01*
X229404Y442582D01*
X229437Y442527D01*
X229470Y442440D01*
X229513Y442309D01*
X229546Y442232D01*
X229568Y442145D01*
X229601Y442046D01*
X229634Y441937D01*
X229666Y441817D01*
X229699Y441675D01*
Y441664D01*
X229710Y441631D01*
X229721Y441576D01*
X229743Y441511D01*
X229765Y441424D01*
X229798Y441325D01*
X229852Y441117D01*
X229929Y440877D01*
X229994Y440648D01*
X230071Y440429D01*
X230115Y440331D01*
X230147Y440254D01*
X230158Y440232D01*
X230180Y440188D01*
X230224Y440123D01*
X230278Y440035D01*
X230355Y439937D01*
X230443Y439839D01*
X230541Y439740D01*
X230661Y439653D01*
X230672Y439642D01*
X230716Y439620D01*
X230792Y439587D01*
X230880Y439555D01*
X230989Y439522D01*
X231120Y439489D01*
X231251Y439467D01*
X231404Y439456D01*
X231426D01*
X231470D01*
X231536Y439467D01*
X231634Y439478D01*
X231732Y439500D01*
X231852Y439522D01*
X231962Y439565D01*
X232082Y439620D01*
X232093Y439631D01*
X232137Y439653D01*
X232191Y439686D01*
X232268Y439740D01*
X232344Y439806D01*
X232443Y439882D01*
X232530Y439970D01*
X232607Y440079D01*
X232617Y440090D01*
X232628Y440123D01*
X232661Y440167D01*
X232694Y440232D01*
X232738Y440320D01*
X232782Y440418D01*
X232825Y440538D01*
X232869Y440669D01*
X232880Y440691D01*
X232891Y440735D01*
X232913Y440811D01*
X232934Y440910D01*
X232956Y441030D01*
X232967Y441161D01*
X232989Y441314D01*
Y439303D01*
D01*
Y443861D01*
D02*
G37*
G36*
X234946Y438254D02*
X233490D01*
X233885D01*
Y437325D01*
X234946D01*
Y438254D01*
D02*
G37*
G36*
X232869D02*
X227382D01*
Y437325D01*
X233490D01*
X232869D01*
Y438254D01*
D02*
G37*
G36*
X234946Y436068D02*
D01*
Y433324D01*
X234935Y433401D01*
Y433488D01*
X234913Y433685D01*
X234891Y433904D01*
X234847Y434133D01*
X234793Y434363D01*
X234716Y434570D01*
Y434581D01*
X234705Y434592D01*
X234672Y434658D01*
X234618Y434756D01*
X234541Y434866D01*
X234443Y434997D01*
X234323Y435139D01*
X234170Y435270D01*
X234006Y435390D01*
X233984Y435401D01*
X233918Y435434D01*
X233831Y435489D01*
X233700Y435543D01*
X233547Y435598D01*
X233383Y435652D01*
X233197Y435685D01*
X233011Y435696D01*
X232989D01*
X232934D01*
X232836Y435685D01*
X232716Y435663D01*
X232574Y435631D01*
X232421Y435576D01*
X232268Y435510D01*
X232104Y435423D01*
X232082Y435412D01*
X232038Y435379D01*
X231951Y435314D01*
X231863Y435226D01*
X231754Y435117D01*
X231634Y434986D01*
X231524Y434822D01*
X231415Y434636D01*
Y434647D01*
X231404Y434669D01*
X231393Y434702D01*
X231371Y434745D01*
X231328Y434876D01*
X231251Y435030D01*
X231153Y435193D01*
X231033Y435379D01*
X230891Y435543D01*
X230716Y435696D01*
X230694Y435707D01*
X230628Y435751D01*
X230530Y435816D01*
X230399Y435882D01*
X230224Y435948D01*
X230038Y436013D01*
X229819Y436057D01*
X229579Y436068D01*
X234946D01*
X227382D01*
X229492D01*
X229382Y436057D01*
X229251Y436035D01*
X229098Y436013D01*
X228934Y435969D01*
X228759Y435915D01*
X228584Y435838D01*
X228562Y435827D01*
X228508Y435795D01*
X228431Y435751D01*
X228322Y435685D01*
X228213Y435598D01*
X228093Y435510D01*
X227972Y435401D01*
X227874Y435281D01*
X227863Y435270D01*
X227830Y435226D01*
X227786Y435150D01*
X227743Y435051D01*
X227677Y434931D01*
X227612Y434789D01*
X227557Y434636D01*
X227502Y434450D01*
Y434428D01*
X227480Y434363D01*
X227469Y434253D01*
X227448Y434111D01*
X227426Y433937D01*
X227404Y433729D01*
X227393Y433499D01*
X227382Y433237D01*
Y430351D01*
X234946D01*
Y436068D01*
D02*
G37*
%LPD*%
G36*
X230136Y504293D02*
X230125Y504282D01*
X230115Y504249D01*
X230104Y504205D01*
X230082Y504151D01*
X230060Y504085D01*
X230038Y504009D01*
X230016Y503921D01*
X229983Y503823D01*
X229961Y503703D01*
X229929Y503582D01*
X229896Y503440D01*
X229863Y503287D01*
X229830Y503134D01*
X229808Y502959D01*
X229776Y502774D01*
Y502752D01*
X229765Y502686D01*
X229743Y502577D01*
X229721Y502457D01*
X229699Y502325D01*
X229666Y502194D01*
X229634Y502074D01*
X229590Y501965D01*
Y501954D01*
X229568Y501921D01*
X229546Y501877D01*
X229513Y501834D01*
X229426Y501702D01*
X229295Y501593D01*
X229284D01*
X229262Y501571D01*
X229218Y501560D01*
X229164Y501539D01*
X229098Y501517D01*
X229032Y501495D01*
X228945Y501484D01*
X228858Y501473D01*
X228847D01*
X228792D01*
X228727Y501484D01*
X228639Y501506D01*
X228541Y501539D01*
X228442Y501593D01*
X228333Y501659D01*
X228235Y501746D01*
X228224Y501757D01*
X228202Y501801D01*
X228158Y501866D01*
X228114Y501954D01*
X228071Y502074D01*
X228027Y502216D01*
X228005Y502380D01*
X227994Y502577D01*
Y502664D01*
X228005Y502774D01*
X228027Y502894D01*
X228049Y503047D01*
X228093Y503200D01*
X228147Y503364D01*
X228224Y503528D01*
X228235Y503550D01*
X228267Y503593D01*
X228322Y503670D01*
X228398Y503757D01*
X228486Y503856D01*
X228595Y503965D01*
X228727Y504052D01*
X228869Y504140D01*
X228879Y504151D01*
X228923Y504162D01*
X229000Y504184D01*
X229098Y504216D01*
X229229Y504249D01*
X229382Y504271D01*
X229568Y504282D01*
X229787Y504293D01*
X230136Y504304D01*
Y504293D01*
D02*
G37*
G36*
X239431Y501451D02*
X239519D01*
X239628Y501440D01*
X239748Y501429D01*
X239879Y501407D01*
X240142Y501353D01*
X240415Y501276D01*
X240677Y501167D01*
X240787Y501101D01*
X240896Y501025D01*
X240907D01*
X240918Y501003D01*
X240983Y500948D01*
X241071Y500850D01*
X241169Y500730D01*
X241267Y500577D01*
X241344Y500391D01*
X241410Y500183D01*
X241421Y500074D01*
X241431Y499954D01*
Y499899D01*
X241421Y499855D01*
X241410Y499735D01*
X241366Y499593D01*
X241311Y499429D01*
X241213Y499254D01*
X241093Y499079D01*
X241005Y498992D01*
X240918Y498915D01*
X240907D01*
X240896Y498893D01*
X240863Y498882D01*
X240819Y498850D01*
X240765Y498817D01*
X240699Y498784D01*
X240623Y498751D01*
X240535Y498708D01*
X240426Y498664D01*
X240306Y498631D01*
X240175Y498598D01*
X240032Y498566D01*
X239879Y498544D01*
X239704Y498522D01*
X239519Y498500D01*
X239322D01*
X239311D01*
X239278D01*
X239224D01*
X239147Y498511D01*
X239060D01*
X238961Y498522D01*
X238732Y498555D01*
X238480Y498609D01*
X238218Y498686D01*
X237967Y498795D01*
X237857Y498861D01*
X237748Y498937D01*
Y498948D01*
X237726Y498959D01*
X237672Y499014D01*
X237584Y499112D01*
X237497Y499232D01*
X237398Y499385D01*
X237311Y499571D01*
X237256Y499768D01*
X237245Y499877D01*
X237234Y499987D01*
Y500041D01*
X237245Y500085D01*
X237256Y500205D01*
X237300Y500347D01*
X237355Y500511D01*
X237442Y500686D01*
X237562Y500861D01*
X237639Y500948D01*
X237726Y501025D01*
X237737D01*
X237748Y501047D01*
X237781Y501068D01*
X237825Y501090D01*
X237879Y501123D01*
X237934Y501167D01*
X238021Y501200D01*
X238109Y501243D01*
X238207Y501287D01*
X238316Y501320D01*
X238448Y501364D01*
X238579Y501396D01*
X238732Y501418D01*
X238885Y501440D01*
X239060Y501462D01*
X239246D01*
X239256D01*
X239300D01*
X239355D01*
X239431Y501451D01*
D02*
G37*
G36*
X232989Y494915D02*
X232869D01*
Y495746D01*
X232082D01*
X232093Y495756D01*
X232126Y495778D01*
X232169Y495811D01*
X232224Y495855D01*
X232290Y495921D01*
X232366Y495997D01*
X232454Y496084D01*
X232541Y496194D01*
X232617Y496303D01*
X232705Y496434D01*
X232782Y496576D01*
X232847Y496729D01*
X232902Y496904D01*
X232945Y497079D01*
X232978Y497276D01*
X232989Y497483D01*
Y494915D01*
D02*
G37*
G36*
X253503Y496380D02*
X250322Y497527D01*
X250311D01*
X250300Y497538D01*
X250267Y497549D01*
X250213Y497560D01*
X250158Y497582D01*
X250092Y497604D01*
X249939Y497658D01*
X249754Y497724D01*
X249535Y497789D01*
X249306Y497855D01*
X249054Y497921D01*
X249065D01*
X249087Y497932D01*
X249120Y497943D01*
X249163Y497954D01*
X249218Y497964D01*
X249284Y497986D01*
X249447Y498030D01*
X249633Y498085D01*
X249852Y498161D01*
X250071Y498227D01*
X250300Y498314D01*
X253503Y499495D01*
Y496380D01*
D02*
G37*
G36*
X234782Y491439D02*
X232869D01*
Y492128D01*
X234224D01*
X234782Y493057D01*
Y491439D01*
D02*
G37*
G36*
X253656Y493308D02*
X253743Y493297D01*
X253852Y493275D01*
X253962Y493243D01*
X254071Y493199D01*
X254180Y493133D01*
X254191Y493122D01*
X254224Y493101D01*
X254279Y493057D01*
X254333Y493002D01*
X254399Y492926D01*
X254464Y492838D01*
X254530Y492729D01*
X254574Y492609D01*
Y492598D01*
X254596Y492543D01*
X254607Y492467D01*
X254628Y492346D01*
X254650Y492182D01*
X254661Y491997D01*
X254683Y491756D01*
Y489964D01*
X252410D01*
Y491822D01*
X252420Y491964D01*
X252431Y492117D01*
X252442Y492270D01*
X252464Y492423D01*
X252486Y492543D01*
X252497Y492565D01*
X252508Y492609D01*
X252541Y492674D01*
X252585Y492762D01*
X252628Y492849D01*
X252694Y492947D01*
X252781Y493046D01*
X252869Y493122D01*
X252880Y493133D01*
X252912Y493155D01*
X252978Y493188D01*
X253054Y493221D01*
X253142Y493254D01*
X253251Y493286D01*
X253382Y493308D01*
X253524Y493319D01*
X253546D01*
X253590D01*
X253656Y493308D01*
D02*
G37*
G36*
X250366Y493636D02*
X250464Y493614D01*
X250573Y493592D01*
X250694Y493549D01*
X250814Y493494D01*
X250934Y493418D01*
X250945Y493407D01*
X250989Y493374D01*
X251043Y493330D01*
X251109Y493264D01*
X251185Y493177D01*
X251262Y493068D01*
X251327Y492947D01*
X251382Y492805D01*
X251393Y492784D01*
X251404Y492740D01*
X251426Y492641D01*
X251448Y492521D01*
X251470Y492368D01*
X251491Y492182D01*
X251513Y491953D01*
Y489964D01*
X248912D01*
Y492117D01*
X248923Y492346D01*
X248934Y492445D01*
X248945Y492532D01*
Y492543D01*
X248956Y492587D01*
X248967Y492652D01*
X248989Y492729D01*
X249054Y492915D01*
X249142Y493101D01*
X249152Y493112D01*
X249174Y493144D01*
X249207Y493188D01*
X249251Y493243D01*
X249316Y493297D01*
X249382Y493374D01*
X249469Y493429D01*
X249568Y493494D01*
X249579Y493505D01*
X249611Y493516D01*
X249677Y493538D01*
X249754Y493571D01*
X249841Y493603D01*
X249950Y493625D01*
X250081Y493636D01*
X250213Y493647D01*
X250235D01*
X250278D01*
X250366Y493636D01*
D02*
G37*
G36*
X239923Y493418D02*
X239967D01*
X240098Y493396D01*
X240240Y493363D01*
X240415Y493308D01*
X240579Y493254D01*
X240743Y493166D01*
X240885Y493068D01*
X240896D01*
X240907Y493046D01*
X240972Y492991D01*
X241060Y492893D01*
X241158Y492762D01*
X241257Y492598D01*
X241344Y492401D01*
X241410Y492171D01*
X241421Y492051D01*
X241431Y491920D01*
Y491854D01*
X241421Y491811D01*
X241410Y491691D01*
X241377Y491548D01*
X241322Y491374D01*
X241246Y491188D01*
X241136Y491013D01*
X240994Y490838D01*
X240972Y490816D01*
X240918Y490772D01*
X240819Y490696D01*
X240688Y490619D01*
X240535Y490532D01*
X240338Y490455D01*
X240109Y490390D01*
X239858Y490357D01*
Y493429D01*
X239868D01*
X239890D01*
X239923Y493418D01*
D02*
G37*
G36*
X234782Y488499D02*
X232869D01*
Y489188D01*
X234224D01*
X234782Y490117D01*
Y488499D01*
D02*
G37*
G36*
X230136Y486652D02*
X230125Y486641D01*
X230115Y486608D01*
X230104Y486564D01*
X230082Y486510D01*
X230060Y486444D01*
X230038Y486368D01*
X230016Y486280D01*
X229983Y486182D01*
X229961Y486062D01*
X229929Y485941D01*
X229896Y485799D01*
X229863Y485646D01*
X229830Y485493D01*
X229808Y485318D01*
X229776Y485133D01*
Y485111D01*
X229765Y485045D01*
X229743Y484936D01*
X229721Y484816D01*
X229699Y484685D01*
X229666Y484553D01*
X229634Y484433D01*
X229590Y484324D01*
Y484313D01*
X229568Y484280D01*
X229546Y484236D01*
X229513Y484193D01*
X229426Y484061D01*
X229295Y483952D01*
X229284D01*
X229262Y483930D01*
X229218Y483919D01*
X229164Y483897D01*
X229098Y483876D01*
X229032Y483854D01*
X228945Y483843D01*
X228858Y483832D01*
X228847D01*
X228792D01*
X228727Y483843D01*
X228639Y483865D01*
X228541Y483897D01*
X228442Y483952D01*
X228333Y484018D01*
X228235Y484105D01*
X228224Y484116D01*
X228202Y484160D01*
X228158Y484225D01*
X228114Y484313D01*
X228071Y484433D01*
X228027Y484575D01*
X228005Y484739D01*
X227994Y484936D01*
Y485023D01*
X228005Y485133D01*
X228027Y485253D01*
X228049Y485406D01*
X228093Y485559D01*
X228147Y485723D01*
X228224Y485887D01*
X228235Y485909D01*
X228267Y485952D01*
X228322Y486029D01*
X228398Y486116D01*
X228486Y486215D01*
X228595Y486324D01*
X228727Y486411D01*
X228869Y486499D01*
X228879Y486510D01*
X228923Y486521D01*
X229000Y486543D01*
X229098Y486575D01*
X229229Y486608D01*
X229382Y486630D01*
X229568Y486641D01*
X229787Y486652D01*
X230136Y486663D01*
Y486652D01*
D02*
G37*
G36*
X250857Y483613D02*
X250945D01*
X251054Y483602D01*
X251174Y483592D01*
X251306Y483570D01*
X251568Y483515D01*
X251841Y483438D01*
X252103Y483329D01*
X252213Y483264D01*
X252322Y483187D01*
X252333D01*
X252344Y483165D01*
X252410Y483111D01*
X252497Y483012D01*
X252595Y482892D01*
X252694Y482739D01*
X252770Y482553D01*
X252836Y482345D01*
X252847Y482236D01*
X252858Y482116D01*
Y482061D01*
X252847Y482018D01*
X252836Y481897D01*
X252792Y481755D01*
X252737Y481591D01*
X252639Y481416D01*
X252519Y481242D01*
X252431Y481154D01*
X252344Y481078D01*
X252333D01*
X252322Y481056D01*
X252289Y481045D01*
X252246Y481012D01*
X252191Y480979D01*
X252125Y480946D01*
X252049Y480914D01*
X251961Y480870D01*
X251852Y480826D01*
X251732Y480793D01*
X251601Y480761D01*
X251459Y480728D01*
X251306Y480706D01*
X251131Y480684D01*
X250945Y480662D01*
X250748D01*
X250737D01*
X250705D01*
X250650D01*
X250573Y480673D01*
X250486D01*
X250388Y480684D01*
X250158Y480717D01*
X249907Y480771D01*
X249644Y480848D01*
X249393Y480957D01*
X249284Y481023D01*
X249174Y481099D01*
Y481110D01*
X249152Y481121D01*
X249098Y481176D01*
X249010Y481274D01*
X248923Y481394D01*
X248825Y481547D01*
X248737Y481733D01*
X248682Y481930D01*
X248672Y482039D01*
X248661Y482149D01*
Y482203D01*
X248672Y482247D01*
X248682Y482367D01*
X248726Y482509D01*
X248781Y482673D01*
X248868Y482848D01*
X248989Y483023D01*
X249065Y483111D01*
X249152Y483187D01*
X249163D01*
X249174Y483209D01*
X249207Y483231D01*
X249251Y483253D01*
X249306Y483285D01*
X249360Y483329D01*
X249447Y483362D01*
X249535Y483406D01*
X249633Y483449D01*
X249743Y483482D01*
X249874Y483526D01*
X250005Y483559D01*
X250158Y483580D01*
X250311Y483602D01*
X250486Y483624D01*
X250672D01*
X250683D01*
X250726D01*
X250781D01*
X250857Y483613D01*
D02*
G37*
G36*
X232891Y480957D02*
X233000Y480935D01*
X233120Y480914D01*
X233262Y480870D01*
X233394Y480804D01*
X233525Y480728D01*
X233536Y480717D01*
X233579Y480684D01*
X233634Y480629D01*
X233711Y480564D01*
X233787Y480466D01*
X233853Y480356D01*
X233918Y480236D01*
X233973Y480094D01*
Y480083D01*
X233984Y480039D01*
X233995Y479974D01*
X234017Y479886D01*
X234028Y479755D01*
X234038Y479591D01*
X234049Y479394D01*
Y477230D01*
X231350D01*
Y479263D01*
X231361Y479340D01*
Y479416D01*
X231371Y479504D01*
X231393Y479711D01*
X231437Y479941D01*
X231503Y480170D01*
X231590Y480378D01*
X231645Y480476D01*
X231710Y480553D01*
X231732Y480575D01*
X231776Y480618D01*
X231863Y480684D01*
X231973Y480761D01*
X232115Y480837D01*
X232290Y480903D01*
X232486Y480946D01*
X232716Y480968D01*
X232727D01*
X232738D01*
X232792D01*
X232891Y480957D01*
D02*
G37*
G36*
X239344Y479056D02*
X239333Y479045D01*
X239322Y479012D01*
X239311Y478968D01*
X239289Y478913D01*
X239267Y478848D01*
X239246Y478771D01*
X239224Y478684D01*
X239191Y478585D01*
X239169Y478465D01*
X239136Y478345D01*
X239103Y478203D01*
X239071Y478050D01*
X239038Y477897D01*
X239016Y477722D01*
X238983Y477536D01*
Y477514D01*
X238972Y477449D01*
X238950Y477340D01*
X238929Y477219D01*
X238907Y477088D01*
X238874Y476957D01*
X238841Y476837D01*
X238797Y476727D01*
Y476717D01*
X238775Y476684D01*
X238754Y476640D01*
X238721Y476596D01*
X238633Y476465D01*
X238502Y476356D01*
X238491D01*
X238470Y476334D01*
X238426Y476323D01*
X238371Y476301D01*
X238305Y476279D01*
X238240Y476257D01*
X238153Y476247D01*
X238065Y476236D01*
X238054D01*
X238000D01*
X237934Y476247D01*
X237846Y476268D01*
X237748Y476301D01*
X237650Y476356D01*
X237540Y476421D01*
X237442Y476509D01*
X237431Y476520D01*
X237409Y476564D01*
X237366Y476629D01*
X237322Y476717D01*
X237278Y476837D01*
X237234Y476979D01*
X237212Y477143D01*
X237202Y477340D01*
Y477427D01*
X237212Y477536D01*
X237234Y477657D01*
X237256Y477809D01*
X237300Y477962D01*
X237355Y478126D01*
X237431Y478290D01*
X237442Y478312D01*
X237475Y478356D01*
X237529Y478433D01*
X237606Y478520D01*
X237693Y478618D01*
X237803Y478728D01*
X237934Y478815D01*
X238076Y478902D01*
X238087Y478913D01*
X238131Y478924D01*
X238207Y478946D01*
X238305Y478979D01*
X238437Y479012D01*
X238590Y479034D01*
X238775Y479045D01*
X238994Y479056D01*
X239344Y479066D01*
Y479056D01*
D02*
G37*
G36*
X251349Y477930D02*
X251393D01*
X251524Y477908D01*
X251666Y477875D01*
X251841Y477820D01*
X252005Y477766D01*
X252169Y477678D01*
X252311Y477580D01*
X252322D01*
X252333Y477558D01*
X252399Y477503D01*
X252486Y477405D01*
X252585Y477274D01*
X252683Y477110D01*
X252770Y476913D01*
X252836Y476684D01*
X252847Y476564D01*
X252858Y476432D01*
Y476367D01*
X252847Y476323D01*
X252836Y476203D01*
X252803Y476061D01*
X252748Y475886D01*
X252672Y475700D01*
X252563Y475525D01*
X252420Y475350D01*
X252399Y475328D01*
X252344Y475285D01*
X252246Y475208D01*
X252115Y475132D01*
X251961Y475044D01*
X251765Y474968D01*
X251535Y474902D01*
X251284Y474869D01*
Y477941D01*
X251295D01*
X251317D01*
X251349Y477930D01*
D02*
G37*
G36*
X253623Y468300D02*
X253503D01*
Y469131D01*
X252716D01*
X252727Y469142D01*
X252759Y469164D01*
X252803Y469197D01*
X252858Y469240D01*
X252923Y469306D01*
X253000Y469382D01*
X253087Y469470D01*
X253175Y469579D01*
X253251Y469689D01*
X253339Y469820D01*
X253415Y469962D01*
X253481Y470115D01*
X253535Y470290D01*
X253579Y470465D01*
X253612Y470661D01*
X253623Y470869D01*
Y468300D01*
D02*
G37*
G36*
X232989Y466934D02*
X232978Y467054D01*
X232956Y467185D01*
X232924Y467349D01*
X232880Y467513D01*
X232814Y467677D01*
X232727Y467830D01*
X232716Y467852D01*
X232683Y467896D01*
X232628Y467962D01*
X232541Y468049D01*
X232443Y468136D01*
X232322Y468235D01*
X232180Y468322D01*
X232016Y468388D01*
X232027Y468399D01*
X232060Y468421D01*
X232104Y468453D01*
X232169Y468508D01*
X232246Y468574D01*
X232322Y468650D01*
X232410Y468738D01*
X232508Y468847D01*
X232596Y468967D01*
X232683Y469087D01*
X232760Y469229D01*
X232836Y469382D01*
X232902Y469546D01*
X232945Y469721D01*
X232978Y469896D01*
X232989Y470093D01*
Y466934D01*
D02*
G37*
G36*
Y464344D02*
X232869D01*
Y465174D01*
X232082D01*
X232104Y465185D01*
X232148Y465218D01*
X232224Y465284D01*
X232312Y465360D01*
X232421Y465459D01*
X232530Y465579D01*
X232639Y465710D01*
X232738Y465863D01*
X232749Y465885D01*
X232782Y465940D01*
X232814Y466027D01*
X232869Y466147D01*
X232913Y466289D01*
X232945Y466453D01*
X232978Y466639D01*
X232989Y466836D01*
Y464344D01*
D02*
G37*
G36*
X244153Y469087D02*
X241049D01*
Y473000D01*
X244153D01*
Y469087D01*
D02*
G37*
G36*
X250978Y466016D02*
X251065D01*
X251164Y466005D01*
X251382Y465972D01*
X251634Y465918D01*
X251885Y465841D01*
X252136Y465732D01*
X252246Y465655D01*
X252344Y465579D01*
X252355D01*
X252366Y465557D01*
X252420Y465502D01*
X252508Y465404D01*
X252606Y465273D01*
X252694Y465120D01*
X252781Y464934D01*
X252836Y464726D01*
X252858Y464617D01*
Y464442D01*
X252847Y464398D01*
X252836Y464278D01*
X252792Y464136D01*
X252737Y463961D01*
X252639Y463786D01*
X252519Y463611D01*
X252431Y463524D01*
X252344Y463437D01*
X252333D01*
X252322Y463415D01*
X252289Y463393D01*
X252246Y463371D01*
X252202Y463338D01*
X252136Y463305D01*
X252060Y463262D01*
X251972Y463229D01*
X251874Y463185D01*
X251754Y463141D01*
X251634Y463109D01*
X251502Y463076D01*
X251349Y463054D01*
X251196Y463032D01*
X251032Y463010D01*
X250847D01*
X250836D01*
X250803D01*
X250748D01*
X250672Y463021D01*
X250584D01*
X250475Y463032D01*
X250245Y463065D01*
X249983Y463120D01*
X249732Y463185D01*
X249480Y463294D01*
X249371Y463360D01*
X249273Y463437D01*
X249251Y463458D01*
X249196Y463513D01*
X249120Y463600D01*
X249032Y463732D01*
X248934Y463885D01*
X248857Y464071D01*
X248803Y464278D01*
X248792Y464387D01*
X248781Y464508D01*
Y464573D01*
X248792Y464617D01*
X248803Y464737D01*
X248846Y464890D01*
X248901Y465054D01*
X248989Y465240D01*
X249109Y465415D01*
X249185Y465502D01*
X249273Y465590D01*
X249284D01*
X249294Y465612D01*
X249327Y465633D01*
X249371Y465655D01*
X249415Y465688D01*
X249480Y465732D01*
X249557Y465765D01*
X249655Y465808D01*
X249754Y465852D01*
X249863Y465885D01*
X249994Y465929D01*
X250136Y465961D01*
X250278Y465983D01*
X250442Y466005D01*
X250628Y466027D01*
X250814D01*
X250825D01*
X250857D01*
X250912D01*
X250978Y466016D01*
D02*
G37*
G36*
X230136Y461972D02*
X230125Y461961D01*
X230115Y461928D01*
X230104Y461884D01*
X230082Y461830D01*
X230060Y461764D01*
X230038Y461688D01*
X230016Y461600D01*
X229983Y461502D01*
X229961Y461382D01*
X229929Y461262D01*
X229896Y461119D01*
X229863Y460966D01*
X229830Y460813D01*
X229808Y460639D01*
X229776Y460453D01*
Y460431D01*
X229765Y460365D01*
X229743Y460256D01*
X229721Y460136D01*
X229699Y460005D01*
X229666Y459873D01*
X229634Y459753D01*
X229590Y459644D01*
Y459633D01*
X229568Y459600D01*
X229546Y459556D01*
X229513Y459513D01*
X229426Y459381D01*
X229295Y459272D01*
X229284D01*
X229262Y459250D01*
X229218Y459239D01*
X229164Y459218D01*
X229098Y459196D01*
X229032Y459174D01*
X228945Y459163D01*
X228858Y459152D01*
X228847D01*
X228792D01*
X228727Y459163D01*
X228639Y459185D01*
X228541Y459218D01*
X228442Y459272D01*
X228333Y459338D01*
X228235Y459425D01*
X228224Y459436D01*
X228202Y459480D01*
X228158Y459546D01*
X228114Y459633D01*
X228071Y459753D01*
X228027Y459895D01*
X228005Y460059D01*
X227994Y460256D01*
Y460343D01*
X228005Y460453D01*
X228027Y460573D01*
X228049Y460726D01*
X228093Y460879D01*
X228147Y461043D01*
X228224Y461207D01*
X228235Y461229D01*
X228267Y461272D01*
X228322Y461349D01*
X228398Y461436D01*
X228486Y461535D01*
X228595Y461644D01*
X228727Y461731D01*
X228869Y461819D01*
X228879Y461830D01*
X228923Y461841D01*
X229000Y461863D01*
X229098Y461895D01*
X229229Y461928D01*
X229382Y461950D01*
X229568Y461961D01*
X229787Y461972D01*
X230136Y461983D01*
Y461972D01*
D02*
G37*
G36*
X240229Y462617D02*
X240371Y462606D01*
X240513Y462584D01*
X240645Y462551D01*
X240765Y462518D01*
X240776D01*
X240809Y462497D01*
X240863Y462464D01*
X240929Y462431D01*
X240994Y462376D01*
X241071Y462311D01*
X241147Y462223D01*
X241213Y462125D01*
X241224Y462114D01*
X241246Y462081D01*
X241267Y462016D01*
X241300Y461939D01*
X241333Y461852D01*
X241366Y461742D01*
X241377Y461611D01*
X241388Y461480D01*
Y461425D01*
X241377Y461382D01*
X241366Y461272D01*
X241344Y461130D01*
X241289Y460977D01*
X241224Y460802D01*
X241136Y460628D01*
X241005Y460464D01*
X240983Y460442D01*
X240929Y460398D01*
X240885Y460365D01*
X240830Y460332D01*
X240765Y460289D01*
X240688Y460256D01*
X240601Y460212D01*
X240492Y460169D01*
X240371Y460136D01*
X240240Y460103D01*
X240098Y460081D01*
X239945Y460059D01*
X239759Y460037D01*
X239573D01*
X236590D01*
Y462628D01*
X239912D01*
X239923D01*
X239934D01*
X240011D01*
X240109D01*
X240229Y462617D01*
D02*
G37*
G36*
X240295Y456736D02*
X240448Y456715D01*
X240612Y456671D01*
X240776Y456616D01*
X240940Y456540D01*
X241071Y456441D01*
X241082Y456430D01*
X241125Y456387D01*
X241180Y456321D01*
X241235Y456223D01*
X241300Y456103D01*
X241344Y455960D01*
X241388Y455786D01*
X241399Y455589D01*
Y455523D01*
X241388Y455447D01*
X241377Y455337D01*
X241344Y455228D01*
X241311Y455097D01*
X241257Y454966D01*
X241180Y454824D01*
X241169Y454813D01*
X241136Y454769D01*
X241093Y454704D01*
X241027Y454627D01*
X240940Y454539D01*
X240841Y454452D01*
X240721Y454376D01*
X240590Y454310D01*
X240568Y454299D01*
X240524Y454288D01*
X240437Y454266D01*
X240328Y454234D01*
X240185Y454201D01*
X240011Y454179D01*
X239814Y454168D01*
X239584Y454157D01*
X236590D01*
Y456747D01*
X240065D01*
X240076D01*
X240098D01*
X240131D01*
X240175D01*
X240295Y456736D01*
D02*
G37*
G36*
X232869Y454430D02*
X229677Y455250D01*
X228628Y455523D01*
X229688Y455840D01*
X232869Y456780D01*
Y454430D01*
D02*
G37*
G36*
Y451140D02*
X229699Y452015D01*
X228519Y452321D01*
X228530D01*
X228552Y452332D01*
X228606Y452343D01*
X228639Y452353D01*
X228694Y452364D01*
X228759Y452375D01*
X228836Y452397D01*
X228923Y452419D01*
X229032Y452452D01*
X229153Y452485D01*
X229295Y452518D01*
X229459Y452561D01*
X229645Y452605D01*
X232869Y453479D01*
Y451140D01*
D02*
G37*
G36*
X251349Y452649D02*
X251393D01*
X251524Y452627D01*
X251666Y452594D01*
X251841Y452539D01*
X252005Y452485D01*
X252169Y452397D01*
X252311Y452299D01*
X252322D01*
X252333Y452277D01*
X252399Y452222D01*
X252486Y452124D01*
X252585Y451993D01*
X252683Y451829D01*
X252770Y451632D01*
X252836Y451403D01*
X252847Y451282D01*
X252858Y451151D01*
Y451086D01*
X252847Y451042D01*
X252836Y450922D01*
X252803Y450780D01*
X252748Y450605D01*
X252672Y450419D01*
X252563Y450244D01*
X252420Y450069D01*
X252399Y450047D01*
X252344Y450004D01*
X252246Y449927D01*
X252115Y449851D01*
X251961Y449763D01*
X251765Y449687D01*
X251535Y449621D01*
X251284Y449588D01*
Y452660D01*
X251295D01*
X251317D01*
X251349Y452649D01*
D02*
G37*
G36*
X239530Y451173D02*
X239617D01*
X239716Y451162D01*
X239945Y451129D01*
X240185Y451075D01*
X240448Y450987D01*
X240688Y450867D01*
X240809Y450802D01*
X240907Y450714D01*
X240918D01*
X240929Y450692D01*
X240994Y450627D01*
X241071Y450528D01*
X241169Y450397D01*
X241267Y450233D01*
X241355Y450036D01*
X241410Y449818D01*
X241421Y449697D01*
X241431Y449566D01*
Y449501D01*
X241421Y449446D01*
X241410Y449326D01*
X241366Y449162D01*
X241300Y448976D01*
X241213Y448779D01*
X241082Y448594D01*
X240994Y448495D01*
X240907Y448408D01*
X240896D01*
X240885Y448386D01*
X240852Y448364D01*
X240809Y448331D01*
X240754Y448299D01*
X240688Y448266D01*
X240601Y448222D01*
X240513Y448178D01*
X240404Y448135D01*
X240295Y448091D01*
X240164Y448058D01*
X240021Y448025D01*
X239868Y447993D01*
X239704Y447971D01*
X239519Y447960D01*
X239333Y447949D01*
X239322D01*
X239289D01*
X239234D01*
X239158Y447960D01*
X239071D01*
X238972Y447971D01*
X238743Y448003D01*
X238480Y448058D01*
X238218Y448145D01*
X237967Y448255D01*
X237857Y448331D01*
X237748Y448408D01*
Y448419D01*
X237726Y448430D01*
X237672Y448495D01*
X237584Y448594D01*
X237497Y448725D01*
X237398Y448889D01*
X237311Y449086D01*
X237256Y449315D01*
X237245Y449435D01*
X237234Y449566D01*
Y449632D01*
X237245Y449687D01*
X237267Y449807D01*
X237300Y449971D01*
X237366Y450146D01*
X237453Y450342D01*
X237584Y450528D01*
X237672Y450627D01*
X237759Y450714D01*
X237770Y450725D01*
X237781Y450736D01*
X237814Y450758D01*
X237857Y450791D01*
X237912Y450823D01*
X237978Y450867D01*
X238065Y450911D01*
X238153Y450954D01*
X238262Y450998D01*
X238382Y451031D01*
X238513Y451075D01*
X238655Y451108D01*
X238819Y451140D01*
X238983Y451162D01*
X239169Y451184D01*
X239366D01*
X239377D01*
X239409D01*
X239464D01*
X239530Y451173D01*
D02*
G37*
G36*
X242197Y446998D02*
X239399D01*
X239475Y447009D01*
X239584D01*
X239704Y447020D01*
X239858Y447042D01*
X240011Y447063D01*
X240185Y447107D01*
X240360Y447151D01*
X240546Y447205D01*
X240743Y447271D01*
X240929Y447359D01*
X241104Y447446D01*
X241279Y447566D01*
X241442Y447686D01*
X241584Y447839D01*
X241595Y447850D01*
X241606Y447872D01*
X241639Y447916D01*
X241683Y447971D01*
X241727Y448036D01*
X241781Y448124D01*
X241836Y448211D01*
X241891Y448320D01*
X241945Y448441D01*
X242000Y448572D01*
X242098Y448867D01*
X242175Y449206D01*
X242186Y449381D01*
X242197Y449566D01*
Y446998D01*
D02*
G37*
G36*
X252049Y446604D02*
X252147D01*
X252257Y446593D01*
X252388Y446583D01*
X252519Y446572D01*
X252814Y446517D01*
X253120Y446451D01*
X253404Y446353D01*
X253546Y446287D01*
X253666Y446222D01*
X253677D01*
X253699Y446200D01*
X253732Y446178D01*
X253776Y446156D01*
X253885Y446069D01*
X254016Y445960D01*
X254158Y445817D01*
X254300Y445653D01*
X254421Y445468D01*
X254519Y445271D01*
X254530Y445249D01*
X254541Y445194D01*
X254574Y445096D01*
X254607Y444954D01*
X254628Y444779D01*
X254661Y444560D01*
X254672Y444429D01*
Y444287D01*
X254683Y444145D01*
Y442396D01*
X248912D01*
Y444189D01*
X248923Y444265D01*
X248934Y444429D01*
X248945Y444615D01*
X248967Y444812D01*
X248999Y445009D01*
X249043Y445173D01*
X249054Y445194D01*
X249065Y445249D01*
X249098Y445326D01*
X249142Y445424D01*
X249207Y445533D01*
X249273Y445643D01*
X249349Y445752D01*
X249437Y445861D01*
X249459Y445872D01*
X249502Y445916D01*
X249579Y445981D01*
X249688Y446058D01*
X249830Y446145D01*
X249994Y446244D01*
X250180Y446331D01*
X250388Y446408D01*
X250398D01*
X250420Y446419D01*
X250453Y446429D01*
X250497Y446440D01*
X250552Y446451D01*
X250628Y446473D01*
X250705Y446495D01*
X250792Y446517D01*
X251010Y446550D01*
X251262Y446583D01*
X251546Y446604D01*
X251852Y446615D01*
X251863D01*
X251907D01*
X251961D01*
X252049Y446604D01*
D02*
G37*
G36*
X233022Y434702D02*
X233109Y434691D01*
X233219Y434669D01*
X233328Y434636D01*
X233437Y434592D01*
X233547Y434527D01*
X233558Y434516D01*
X233590Y434494D01*
X233645Y434450D01*
X233700Y434396D01*
X233765Y434319D01*
X233831Y434232D01*
X233896Y434122D01*
X233940Y434002D01*
Y433991D01*
X233962Y433937D01*
X233973Y433860D01*
X233995Y433740D01*
X234017Y433576D01*
X234028Y433390D01*
X234049Y433149D01*
Y431357D01*
X231776D01*
Y433215D01*
X231787Y433357D01*
X231798Y433510D01*
X231809Y433663D01*
X231831Y433816D01*
X231852Y433937D01*
X231863Y433958D01*
X231874Y434002D01*
X231907Y434068D01*
X231951Y434155D01*
X231995Y434242D01*
X232060Y434341D01*
X232148Y434439D01*
X232235Y434516D01*
X232246Y434527D01*
X232279Y434549D01*
X232344Y434581D01*
X232421Y434614D01*
X232508Y434647D01*
X232617Y434680D01*
X232749Y434702D01*
X232891Y434713D01*
X232913D01*
X232956D01*
X233022Y434702D01*
D02*
G37*
G36*
X229732Y435030D02*
X229830Y435008D01*
X229940Y434986D01*
X230060Y434942D01*
X230180Y434887D01*
X230300Y434811D01*
X230311Y434800D01*
X230355Y434767D01*
X230410Y434723D01*
X230475Y434658D01*
X230552Y434570D01*
X230628Y434461D01*
X230694Y434341D01*
X230749Y434199D01*
X230759Y434177D01*
X230770Y434133D01*
X230792Y434035D01*
X230814Y433915D01*
X230836Y433762D01*
X230858Y433576D01*
X230880Y433346D01*
Y431357D01*
X228278D01*
Y433510D01*
X228289Y433740D01*
X228300Y433838D01*
X228311Y433925D01*
Y433937D01*
X228322Y433980D01*
X228333Y434046D01*
X228355Y434122D01*
X228420Y434308D01*
X228508Y434494D01*
X228519Y434505D01*
X228541Y434538D01*
X228573Y434581D01*
X228617Y434636D01*
X228683Y434691D01*
X228748Y434767D01*
X228836Y434822D01*
X228934Y434887D01*
X228945Y434898D01*
X228978Y434909D01*
X229043Y434931D01*
X229120Y434964D01*
X229207Y434997D01*
X229317Y435018D01*
X229448Y435030D01*
X229579Y435040D01*
X229601D01*
X229645D01*
X229732Y435030D01*
D02*
G37*
%LPC*%
G36*
X269689Y364445D02*
X269564D01*
X269494D01*
X269480D01*
X269467D01*
X269036D01*
X268648Y364417D01*
X268301Y364389D01*
X267968Y364361D01*
X267690Y364320D01*
X267426Y364264D01*
X267204Y364209D01*
X266996Y364167D01*
X266829Y364111D01*
X266691Y364056D01*
X266566Y364014D01*
X266469Y363959D01*
X266399Y363931D01*
X266357Y363903D01*
X266330Y363876D01*
X266316D01*
X266177Y363765D01*
X266066Y363653D01*
X265955Y363543D01*
X265872Y363431D01*
X265733Y363195D01*
X265636Y362987D01*
X265580Y362793D01*
X265552Y362654D01*
X265539Y362599D01*
Y362515D01*
X265552Y362363D01*
X265566Y362224D01*
X265664Y361960D01*
X265788Y361724D01*
X265927Y361516D01*
X266066Y361363D01*
X266191Y361238D01*
X266288Y361169D01*
X266302Y361141D01*
X266316D01*
X266482Y361044D01*
X266677Y360961D01*
X266899Y360877D01*
X267135Y360822D01*
X267385Y360767D01*
X267648Y360725D01*
X268190Y360655D01*
X268439Y360628D01*
X268675Y360614D01*
X268898Y360600D01*
X269078D01*
X269245Y360586D01*
X269369D01*
X269439D01*
X269467D01*
X269897Y360600D01*
X270286Y360614D01*
X270646Y360642D01*
X270979Y360683D01*
X271271Y360725D01*
X271535Y360780D01*
X271771Y360836D01*
X271979Y360891D01*
X272159Y360947D01*
X272312Y360988D01*
X272437Y361044D01*
X272548Y361086D01*
X272617Y361127D01*
X272673Y361155D01*
X272701Y361183D01*
X272714D01*
X272839Y361280D01*
X272951Y361377D01*
X273034Y361488D01*
X273117Y361599D01*
X273242Y361821D01*
X273325Y362030D01*
X273367Y362210D01*
X273395Y362363D01*
X273409Y362418D01*
Y362502D01*
X273395Y362654D01*
X273381Y362807D01*
X273339Y362946D01*
X273284Y363071D01*
X273159Y363306D01*
X273020Y363515D01*
X272867Y363667D01*
X272742Y363792D01*
X272687Y363834D01*
X272645Y363862D01*
X272631Y363890D01*
X272617D01*
X272451Y363987D01*
X272256Y364070D01*
X272034Y364153D01*
X271798Y364209D01*
X271549Y364264D01*
X271285Y364306D01*
X270757Y364375D01*
X270494Y364403D01*
X270258Y364417D01*
X270036Y364431D01*
X269855D01*
X269689Y364445D01*
D02*
G37*
G36*
Y356977D02*
X269564D01*
X269494D01*
X269480D01*
X269467D01*
X269036D01*
X268648Y356949D01*
X268301Y356922D01*
X267968Y356894D01*
X267690Y356852D01*
X267426Y356797D01*
X267204Y356741D01*
X266996Y356700D01*
X266829Y356644D01*
X266691Y356589D01*
X266566Y356547D01*
X266469Y356491D01*
X266399Y356464D01*
X266357Y356436D01*
X266330Y356408D01*
X266316D01*
X266177Y356297D01*
X266066Y356186D01*
X265955Y356075D01*
X265872Y355964D01*
X265733Y355728D01*
X265636Y355520D01*
X265580Y355326D01*
X265552Y355187D01*
X265539Y355131D01*
Y355048D01*
X265552Y354895D01*
X265566Y354756D01*
X265664Y354493D01*
X265788Y354257D01*
X265927Y354048D01*
X266066Y353896D01*
X266191Y353771D01*
X266288Y353701D01*
X266302Y353674D01*
X266316D01*
X266482Y353577D01*
X266677Y353493D01*
X266899Y353410D01*
X267135Y353355D01*
X267385Y353299D01*
X267648Y353257D01*
X268190Y353188D01*
X268439Y353160D01*
X268675Y353146D01*
X268898Y353133D01*
X269078D01*
X269245Y353119D01*
X269369D01*
X269439D01*
X269467D01*
X269897Y353133D01*
X270286Y353146D01*
X270646Y353174D01*
X270979Y353216D01*
X271271Y353257D01*
X271535Y353313D01*
X271771Y353368D01*
X271979Y353424D01*
X272159Y353480D01*
X272312Y353521D01*
X272437Y353577D01*
X272548Y353618D01*
X272617Y353660D01*
X272673Y353688D01*
X272701Y353715D01*
X272714D01*
X272839Y353813D01*
X272951Y353910D01*
X273034Y354021D01*
X273117Y354132D01*
X273242Y354354D01*
X273325Y354562D01*
X273367Y354743D01*
X273395Y354895D01*
X273409Y354951D01*
Y355034D01*
X273395Y355187D01*
X273381Y355339D01*
X273339Y355478D01*
X273284Y355603D01*
X273159Y355839D01*
X273020Y356047D01*
X272867Y356200D01*
X272742Y356325D01*
X272687Y356366D01*
X272645Y356394D01*
X272631Y356422D01*
X272617D01*
X272451Y356519D01*
X272256Y356603D01*
X272034Y356686D01*
X271798Y356741D01*
X271549Y356797D01*
X271285Y356838D01*
X270757Y356908D01*
X270494Y356936D01*
X270258Y356949D01*
X270036Y356963D01*
X269855D01*
X269689Y356977D01*
D02*
G37*
G36*
X269716Y336768D02*
X269633D01*
X269578D01*
X269536D01*
X269522D01*
X269189Y336754D01*
X268870Y336726D01*
X268564Y336685D01*
X268287Y336629D01*
X268037Y336546D01*
X267801Y336476D01*
X267579Y336393D01*
X267385Y336310D01*
X267218Y336213D01*
X267065Y336129D01*
X266940Y336060D01*
X266843Y335991D01*
X266760Y335921D01*
X266691Y335880D01*
X266663Y335852D01*
X266649Y335838D01*
X266469Y335658D01*
X266316Y335463D01*
X266191Y335269D01*
X266066Y335075D01*
X265969Y334880D01*
X265899Y334672D01*
X265830Y334492D01*
X265774Y334297D01*
X265733Y334131D01*
X265705Y333964D01*
X265677Y333825D01*
X265664Y333700D01*
Y333603D01*
X265650Y333534D01*
Y333465D01*
X265664Y333201D01*
X265691Y332951D01*
X265747Y332729D01*
X265802Y332507D01*
X265885Y332299D01*
X265969Y332104D01*
X266052Y331924D01*
X266149Y331757D01*
X266246Y331618D01*
X266330Y331494D01*
X266413Y331382D01*
X266496Y331285D01*
X266552Y331216D01*
X266607Y331160D01*
X266635Y331133D01*
X266649Y331119D01*
X266843Y330952D01*
X267052Y330813D01*
X267273Y330689D01*
X267496Y330577D01*
X267732Y330494D01*
X267954Y330411D01*
X268398Y330300D01*
X268592Y330272D01*
X268787Y330244D01*
X268953Y330217D01*
X269092Y330203D01*
X269217Y330189D01*
X269314D01*
X269369D01*
X269383D01*
X269772Y330203D01*
X270133Y330230D01*
X270480Y330272D01*
X270785Y330342D01*
X271063Y330411D01*
X271313Y330494D01*
X271549Y330591D01*
X271743Y330675D01*
X271923Y330772D01*
X272076Y330855D01*
X272201Y330938D01*
X272298Y331008D01*
X272381Y331077D01*
X272437Y331119D01*
X272465Y331147D01*
X272479Y331160D01*
X272645Y331341D01*
X272784Y331535D01*
X272909Y331730D01*
X273020Y331938D01*
X273103Y332132D01*
X273186Y332326D01*
X273297Y332687D01*
X273325Y332854D01*
X273353Y333007D01*
X273381Y333131D01*
X273395Y333256D01*
X273409Y333353D01*
Y333478D01*
X273395Y333825D01*
X273339Y334158D01*
X273256Y334450D01*
X273172Y334700D01*
X273075Y334908D01*
X273034Y334991D01*
X273006Y335061D01*
X272964Y335130D01*
X272951Y335172D01*
X272923Y335186D01*
Y335199D01*
X272728Y335463D01*
X272506Y335699D01*
X272284Y335907D01*
X272062Y336074D01*
X271868Y336199D01*
X271701Y336296D01*
X271646Y336324D01*
X271604Y336351D01*
X271576Y336365D01*
X271562D01*
X271229Y336504D01*
X270868Y336601D01*
X270535Y336671D01*
X270216Y336712D01*
X270063Y336740D01*
X269938Y336754D01*
X269814D01*
X269716Y336768D01*
D02*
G37*
G36*
X215504Y243848D02*
X213838D01*
X213671Y243737D01*
X213523Y243607D01*
X213393Y243478D01*
X213282Y243348D01*
X213190Y243237D01*
X213134Y243145D01*
X213097Y243071D01*
X213079Y243052D01*
X212986Y242867D01*
X212912Y242663D01*
X212875Y242478D01*
X212838Y242312D01*
X212820Y242182D01*
X212801Y242053D01*
Y241960D01*
X212820Y241738D01*
X212857Y241534D01*
X212912Y241368D01*
X212968Y241219D01*
X213023Y241090D01*
X213079Y241016D01*
X213116Y240960D01*
X213134Y240942D01*
X213264Y240812D01*
X213412Y240720D01*
X213560Y240664D01*
X213708Y240627D01*
X213838Y240590D01*
X213949Y240572D01*
X214023D01*
X214041D01*
X214282Y240590D01*
X214504Y240664D01*
X214689Y240757D01*
X214837Y240849D01*
X214948Y240960D01*
X215041Y241034D01*
X215096Y241108D01*
X215115Y241127D01*
X215245Y241349D01*
X215337Y241627D01*
X215411Y241886D01*
X215448Y242163D01*
X215485Y242404D01*
X215504Y242589D01*
Y243848D01*
D02*
G37*
%LPD*%
D12*
X244154Y192896D02*
X247303D01*
Y194470D01*
X246778Y194995D01*
X245729D01*
X245204Y194470D01*
Y192896D01*
Y193945D02*
X244154Y194995D01*
X246778Y196045D02*
X247303Y196569D01*
Y197619D01*
X246778Y198143D01*
X246253D01*
X245729Y197619D01*
Y197094D01*
Y197619D01*
X245204Y198143D01*
X244679D01*
X244154Y197619D01*
Y196569D01*
X244679Y196045D01*
X244154Y200767D02*
X247303D01*
X245729Y199193D01*
Y201292D01*
X238400Y192714D02*
X241548D01*
Y194289D01*
X241023Y194813D01*
X239974D01*
X239449Y194289D01*
Y192714D01*
Y193764D02*
X238400Y194813D01*
X241023Y195863D02*
X241548Y196388D01*
Y197437D01*
X241023Y197962D01*
X240499D01*
X239974Y197437D01*
Y196912D01*
Y197437D01*
X239449Y197962D01*
X238924D01*
X238400Y197437D01*
Y196388D01*
X238924Y195863D01*
X241023Y199012D02*
X241548Y199536D01*
Y200586D01*
X241023Y201111D01*
X240499D01*
X239974Y200586D01*
Y200061D01*
Y200586D01*
X239449Y201111D01*
X238924D01*
X238400Y200586D01*
Y199536D01*
X238924Y199012D01*
X232175Y192967D02*
X235324D01*
Y194541D01*
X234799Y195066D01*
X233749D01*
X233224Y194541D01*
Y192967D01*
Y194017D02*
X232175Y195066D01*
X234799Y196116D02*
X235324Y196640D01*
Y197690D01*
X234799Y198215D01*
X234274D01*
X233749Y197690D01*
Y197165D01*
Y197690D01*
X233224Y198215D01*
X232700D01*
X232175Y197690D01*
Y196640D01*
X232700Y196116D01*
X232175Y201363D02*
Y199264D01*
X234274Y201363D01*
X234799D01*
X235324Y200838D01*
Y199789D01*
X234799Y199264D01*
X226511Y194248D02*
X229660D01*
Y195823D01*
X229135Y196347D01*
X228085D01*
X227561Y195823D01*
Y194248D01*
Y195298D02*
X226511Y196347D01*
X229135Y197397D02*
X229660Y197922D01*
Y198971D01*
X229135Y199496D01*
X228610D01*
X228085Y198971D01*
Y198447D01*
Y198971D01*
X227561Y199496D01*
X227036D01*
X226511Y198971D01*
Y197922D01*
X227036Y197397D01*
X226511Y200546D02*
Y201595D01*
Y201070D01*
X229660D01*
X229135Y200546D01*
X220485Y193053D02*
X223634D01*
Y194628D01*
X223109Y195152D01*
X222060D01*
X221535Y194628D01*
Y193053D01*
Y194103D02*
X220485Y195152D01*
X223109Y196202D02*
X223634Y196727D01*
Y197776D01*
X223109Y198301D01*
X222584D01*
X222060Y197776D01*
Y197251D01*
Y197776D01*
X221535Y198301D01*
X221010D01*
X220485Y197776D01*
Y196727D01*
X221010Y196202D01*
X223109Y199351D02*
X223634Y199875D01*
Y200925D01*
X223109Y201449D01*
X221010D01*
X220485Y200925D01*
Y199875D01*
X221010Y199351D01*
X223109D01*
X309649Y474125D02*
Y470126D01*
X311648D01*
X312314Y470793D01*
Y472126D01*
X311648Y472792D01*
X309649D01*
X310981D02*
X312314Y474125D01*
X316313D02*
X313647D01*
X316313Y471459D01*
Y470793D01*
X315647Y470126D01*
X314314D01*
X313647Y470793D01*
X317646D02*
X318312Y470126D01*
X319645D01*
X320312Y470793D01*
Y471459D01*
X319645Y472126D01*
X318979D01*
X319645D01*
X320312Y472792D01*
Y473459D01*
X319645Y474125D01*
X318312D01*
X317646Y473459D01*
X321645Y474792D02*
X324310D01*
X325643Y470126D02*
Y474125D01*
X327643D01*
X328309Y473459D01*
Y472792D01*
X327643Y472126D01*
X325643D01*
X327643D01*
X328309Y471459D01*
Y470793D01*
X327643Y470126D01*
X325643D01*
X359941Y295048D02*
Y299046D01*
X357942D01*
X357275Y298380D01*
Y297047D01*
X357942Y296381D01*
X359941D01*
X358608D02*
X357275Y295048D01*
X353277D02*
X355942D01*
X353277Y297713D01*
Y298380D01*
X353943Y299046D01*
X355276D01*
X355942Y298380D01*
X351944D02*
X351277Y299046D01*
X349944D01*
X349278Y298380D01*
Y297713D01*
X349944Y297047D01*
X350611D01*
X349944D01*
X349278Y296381D01*
Y295714D01*
X349944Y295048D01*
X351277D01*
X351944Y295714D01*
X347945Y294381D02*
X345279D01*
X343946Y295048D02*
Y297713D01*
X342613Y299046D01*
X341281Y297713D01*
Y295048D01*
Y297047D01*
X343946D01*
X333021Y512717D02*
Y516715D01*
X331022D01*
X330355Y516049D01*
Y514716D01*
X331022Y514049D01*
X333021D01*
X331688D02*
X330355Y512717D01*
X326357D02*
X329022D01*
X326357Y515382D01*
Y516049D01*
X327023Y516715D01*
X328356D01*
X329022Y516049D01*
X325024D02*
X324357Y516715D01*
X323024D01*
X322358Y516049D01*
Y513383D01*
X323024Y512717D01*
X324357D01*
X325024Y513383D01*
Y516049D01*
X321025Y512050D02*
X318359D01*
X317026Y516715D02*
Y512717D01*
X315027D01*
X314360Y513383D01*
Y514049D01*
X315027Y514716D01*
X317026D01*
X315027D01*
X314360Y515382D01*
Y516049D01*
X315027Y516715D01*
X317026D01*
X335023Y246745D02*
Y242746D01*
X337022D01*
X337688Y243413D01*
Y244746D01*
X337022Y245412D01*
X335023D01*
X336355D02*
X337688Y246745D01*
X341687D02*
X339021D01*
X341687Y244079D01*
Y243413D01*
X341021Y242746D01*
X339688D01*
X339021Y243413D01*
X343020D02*
X343687Y242746D01*
X345019D01*
X345686Y243413D01*
Y246078D01*
X345019Y246745D01*
X343687D01*
X343020Y246078D01*
Y243413D01*
X347019Y247411D02*
X349685D01*
X351017Y246745D02*
Y244079D01*
X352350Y242746D01*
X353683Y244079D01*
Y246745D01*
Y244746D01*
X351017D01*
X357933Y512958D02*
Y516957D01*
X355934D01*
X355267Y516291D01*
Y514958D01*
X355934Y514291D01*
X357933D01*
X356600D02*
X355267Y512958D01*
X353934D02*
X352601D01*
X353268D01*
Y516957D01*
X353934Y516291D01*
X350602Y513625D02*
X349936Y512958D01*
X348603D01*
X347936Y513625D01*
Y516291D01*
X348603Y516957D01*
X349936D01*
X350602Y516291D01*
Y515624D01*
X349936Y514958D01*
X347936D01*
X346603Y512292D02*
X343937D01*
X342604Y516957D02*
Y512958D01*
X340605D01*
X339939Y513625D01*
Y514291D01*
X340605Y514958D01*
X342604D01*
X340605D01*
X339939Y515624D01*
Y516291D01*
X340605Y516957D01*
X342604D01*
X309576Y247321D02*
Y243322D01*
X311576D01*
X312242Y243989D01*
Y245321D01*
X311576Y245988D01*
X309576D01*
X310909D02*
X312242Y247321D01*
X313575D02*
X314908D01*
X314241D01*
Y243322D01*
X313575Y243989D01*
X316907Y246654D02*
X317574Y247321D01*
X318907D01*
X319573Y246654D01*
Y243989D01*
X318907Y243322D01*
X317574D01*
X316907Y243989D01*
Y244655D01*
X317574Y245321D01*
X319573D01*
X320906Y247987D02*
X323572D01*
X324905Y247321D02*
Y244655D01*
X326238Y243322D01*
X327570Y244655D01*
Y247321D01*
Y245321D01*
X324905D01*
X324901Y289564D02*
X325401Y290064D01*
X326401D01*
X326900Y289564D01*
Y287564D01*
X326401Y287065D01*
X325401D01*
X324901Y287564D01*
X321902Y287065D02*
X323901D01*
X321902Y289064D01*
Y289564D01*
X322402Y290064D01*
X323401D01*
X323901Y289564D01*
X320902D02*
X320403Y290064D01*
X319403D01*
X318903Y289564D01*
Y287564D01*
X319403Y287065D01*
X320403D01*
X320902Y287564D01*
Y289564D01*
X317903Y286565D02*
X315904D01*
X314904Y287065D02*
Y289064D01*
X313905Y290064D01*
X312905Y289064D01*
Y287065D01*
Y288564D01*
X314904D01*
X343766Y476461D02*
X343266Y475961D01*
X342266D01*
X341766Y476461D01*
Y478460D01*
X342266Y478960D01*
X343266D01*
X343766Y478460D01*
X346765Y478960D02*
X344765D01*
X346765Y476961D01*
Y476461D01*
X346265Y475961D01*
X345265D01*
X344765Y476461D01*
X347764D02*
X348264Y475961D01*
X349264D01*
X349764Y476461D01*
Y478460D01*
X349264Y478960D01*
X348264D01*
X347764Y478460D01*
Y476461D01*
X350764Y479460D02*
X352763D01*
X353763Y475961D02*
Y478960D01*
X355262D01*
X355762Y478460D01*
Y477960D01*
X355262Y477460D01*
X353763D01*
X355262D01*
X355762Y476961D01*
Y476461D01*
X355262Y475961D01*
X353763D01*
D13*
X218930Y210047D02*
Y215047D01*
Y203047D02*
Y208047D01*
X224929Y210047D02*
Y215047D01*
Y203047D02*
Y208047D01*
X218930Y215047D02*
X224929D01*
X218930Y203047D02*
X224929D01*
X224972Y210047D02*
Y215047D01*
Y203047D02*
Y208047D01*
X230972Y210047D02*
Y215047D01*
Y203047D02*
Y208047D01*
X224972Y215047D02*
X230972D01*
X224972Y203047D02*
X230972D01*
X230947Y210047D02*
Y215047D01*
Y203047D02*
Y208047D01*
X236947Y210047D02*
Y215047D01*
Y203047D02*
Y208047D01*
X230947Y215047D02*
X236947D01*
X230947Y203047D02*
X236947D01*
X236955Y210047D02*
Y215047D01*
Y203047D02*
Y208047D01*
X242955Y210047D02*
Y215047D01*
Y203047D02*
Y208047D01*
X236955Y215047D02*
X242955D01*
X236955Y203047D02*
X242955D01*
X242960Y210047D02*
Y215047D01*
Y203047D02*
Y208047D01*
X248960Y210047D02*
Y215047D01*
Y203047D02*
Y208047D01*
X242960Y215047D02*
X248960D01*
X242960Y203047D02*
X248960D01*
X334269Y249694D02*
X341269D01*
X347269D02*
X354269D01*
X334269Y262694D02*
X341269D01*
X347269D02*
X354269D01*
X334269Y249694D02*
Y262694D01*
X354269Y249694D02*
Y262694D01*
X339685Y279693D02*
X346685D01*
X352685D02*
X359685D01*
X339685Y292693D02*
X346685D01*
X352685D02*
X359685D01*
X339685Y279693D02*
Y292693D01*
X359685Y279693D02*
Y292693D01*
X326781Y510778D02*
X333781D01*
X313781D02*
X320781D01*
X326781Y497778D02*
X333781D01*
X313781D02*
X320781D01*
X333781D02*
Y510778D01*
X313781Y497778D02*
Y510778D01*
X309034Y250085D02*
Y263085D01*
X329034Y250085D02*
Y263085D01*
X309034Y250085D02*
X316034D01*
X322034D02*
X329034D01*
X309034Y263085D02*
X316034D01*
X322034D02*
X329034D01*
X313235Y278101D02*
Y284102D01*
X325235Y278101D02*
Y284102D01*
X313235Y278101D02*
X318235D01*
X320235D02*
X325235D01*
X313235Y284102D02*
X318235D01*
X320235D02*
X325235D01*
X342580Y481025D02*
X347580D01*
X349580D02*
X354580D01*
X342580Y487025D02*
X347580D01*
X349580D02*
X354580D01*
X342580Y481025D02*
Y487025D01*
X354580Y481025D02*
Y487025D01*
X358640Y497816D02*
Y510816D01*
X338640Y497816D02*
Y510816D01*
X351640D02*
X358640D01*
X338640D02*
X345640D01*
X351640Y497816D02*
X358640D01*
X338640D02*
X345640D01*
X308553Y476609D02*
Y489609D01*
X328553Y476609D02*
Y489609D01*
X308553Y476609D02*
X315553D01*
X321553D02*
X328553D01*
X308553Y489609D02*
X315553D01*
X321553D02*
X328553D01*
M02*
