M48
;Layer_Color=9474304
;FILE_FORMAT=2:4
INCH,TZ
;TYPE=PLATED
T1F00S00C0.0110
T2F00S00C0.0220
T3F00S00C0.0250
T4F00S00C0.0300
T5F00S00C0.0354
T6F00S00C0.0400
;TYPE=NON_PLATED
T7F00S00C0.1260
%
T01
X31697Y25364
X32141Y25314
X33171Y25289
X34302Y24714
X34706Y24320
X35191Y24843
X35598Y25808
X35952Y25835
X35166Y26625
X34671Y26308
X34153Y26318
X34463Y27362
X35580Y27547
X35867Y27848
X35184Y28571
X34773Y28549
X33698Y28506
X33174Y28510
X32682Y28518
X32169Y28522
X31697
X23990Y28541
X23393Y28992
X24580Y29375
X24207Y30176
X24630Y30596
X23240Y31134
X23031Y26732
X22047
X21813Y22670
X22677Y22743
X22118Y21623
X20697Y21873
X19438Y22191
X20712Y23705
X24841Y22689
X24508Y21634
X23984Y21632
X25260Y20594
X26468Y20431
X26454Y23639
X19055Y28150
X18307Y29055
X17283Y33898
X17798Y35279
X18201Y36126
X18197Y37605
X17598Y37605
X19680Y37621
X20236Y37633
X21220Y37874
X21518Y35654
X22163Y35605
X19170Y35376
X25466Y35387
X26354Y36000
X26777Y34676
X25827Y34016
X25157Y33856
X26712Y31925
X25229Y38305
X24471Y38307
X24386Y37856
X24094Y39513
X24152Y39861
X26063Y39646
X26111Y40128
X25000Y43819
X24387Y44488
X24896Y46105
X20945Y46024
X31957Y35445
X32826Y34842
X33268Y34449
X33099Y33441
X33460Y35490
X33858Y35118
X31655Y31933
X31909Y47942
X33347Y47942
X34365
X35099Y47942
X35083Y51394
X34676Y51353
X33622Y51268
X32087Y51287
X32207Y50063
X32565Y50113
X31277Y49157
X34562Y53342
X35329Y53327
X25404Y54544
X23525Y56078
X22613Y56074
X20524Y55247
X19576Y56104
X19173Y54055
X17876Y55241
X17087Y52362
X17987Y51226
X20709Y52126
X22280Y50057
X24176Y47125
T02
X26142Y32638
Y34567
X26703Y51592
X25391Y51581
X21671Y53605
T03
X23906Y27531
X24406
X24906
Y28031
X24406
X23906
X25406
Y27531
X25906
Y28031
T04
X32520Y21303
X33307
X34094
X34882
X35669
X36457
X37244
X38031
X38740Y25315
Y26102
Y26890
Y27677
Y28465
X17835Y25866
Y25079
Y24291
Y23504
X17795Y40079
Y40866
Y44055
Y44843
Y45630
Y46417
X27669Y44850
Y41850
X30669
Y44850
X32669
X34669
Y41850
X32669
X38733Y42570
Y43357
Y44145
Y44932
X38744Y39459
Y38672
Y37885
Y37097
X38740Y33976
Y33189
Y32402
Y31614
X38714Y48065
Y48852
Y49640
Y50427
Y51215
X38071Y56535
X37283
X36496
X35709
X34921
X34134
X33346
X32559
T05
X17205Y30614
Y31614
Y32614
T06
X33606Y40709
X34606
X34646Y45984
X33646
T07
X38032Y18347
X18495
X38030Y59593
X18499
M30
