M48
;Layer_Color=9474304
;FILE_FORMAT=2:4
INCH,TZ
;TYPE=PLATED
T1F00S00C0.0110
T2F00S00C0.0220
T3F00S00C0.0250
T4F00S00C0.0300
T5F00S00C0.0354
T6F00S00C0.0400
;TYPE=NON_PLATED
T7F00S00C0.1260
%
T01
X32900Y23993
X33160Y24650
X33769Y25660
X33743Y26094
X32723Y26243
X32649Y26588
X33236Y26857
X33375Y27247
X34874Y26932
X35021Y27604
X34884Y28348
X34869Y29095
X32683Y29131
X32699Y28713
X31642Y27599
X31630Y25598
X26454Y23639
X26468Y20431
X22679Y21558
X20697Y21873
X19438Y22191
X20712Y23705
X22047Y26732
X23031
X23393Y28992
X23990Y28541
X24580Y29375
X24630Y30596
X24173Y30276
X23282Y31164
X18307Y29055
X19055Y28150
X19191Y35486
X17798Y35279
X18201Y36126
X18197Y37605
X17598Y37605
X19680Y37621
X20236Y37633
X21220Y37874
X21518Y35654
X22163Y35605
X25466Y35387
X26354Y36000
X26777Y34676
X25827Y34016
X25157Y33856
X26712Y31925
X25229Y38305
X24471Y38307
X24386Y37856
X24094Y39513
X24152Y39861
X26063Y39646
X26111Y40128
X25000Y43819
X24387Y44488
X24896Y46105
X20945Y46024
X17283Y33898
X31679Y35277
X32756Y34803
X33268Y34449
X33099Y33441
X33460Y35490
X33858Y35118
X31655Y31933
X31741Y48734
X32876Y49290
X32876Y49646
X33661Y50224
X33706Y50741
X33386Y50906
X32926Y51844
X32946Y52179
X35025Y52246
X35034Y51706
X35012Y51228
X35392Y50787
X35763Y50817
X36417Y52205
X33891Y49145
X33890Y48821
X31772Y50709
X25187Y48707
X23904Y48748
X22713Y48740
X24176Y47125
X21860Y51936
X20709Y52126
X20551Y55236
X22039Y55385
X22951Y55389
X24548Y56241
X25934Y54092
X19173Y54055
X17953Y55236
X19606Y56102
X17087Y52362
X17987Y51226
T02
X26142Y32638
Y34567
T03
X23906Y27531
X24406
X24906
Y28031
X24406
X23906
X25406
Y27531
X25906
Y28031
T04
X32520Y21303
X33307
X34094
X34882
X35669
X36457
X37244
X38031
X38740Y25315
Y26102
Y26890
Y27677
Y28465
X17835Y25866
Y25079
Y24291
Y23504
X17795Y40079
Y40866
Y44055
Y44843
Y45630
Y46417
X27669Y44850
Y41850
X30669
Y44850
X32669
X34669
Y41850
X32669
X38740Y42638
Y43425
Y44213
Y45000
Y39252
Y38465
Y37677
Y36890
X38732Y33976
Y33189
Y32402
Y31614
Y48032
Y48819
Y49606
Y50394
Y51181
X38071Y56535
X37283
X36496
X35709
X34921
X34134
X33346
X32559
T05
X17205Y30614
Y31614
Y32614
T06
X33606Y40709
X34606
X34646Y45984
X33646
T07
X38032Y18347
X18495
X38030Y59593
X18499
M30
