G04*
G04 #@! TF.GenerationSoftware,Altium Limited,Altium Designer,21.2.2 (38)*
G04*
G04 Layer_Physical_Order=1*
G04 Layer_Color=255*
%FSLAX25Y25*%
%MOIN*%
G70*
G04*
G04 #@! TF.SameCoordinates,2AD91DA3-6C52-4226-ACA0-88A5DAF987E7*
G04*
G04*
G04 #@! TF.FilePolarity,Positive*
G04*
G01*
G75*
%ADD12C,0.01000*%
%ADD17C,0.00600*%
%ADD20R,0.03937X0.03347*%
%ADD21R,0.02362X0.03347*%
%ADD46R,0.04331X0.02362*%
%ADD58R,0.05906X0.02559*%
%ADD59O,0.01181X0.07087*%
%ADD60O,0.07087X0.01181*%
%ADD61R,0.04331X0.13780*%
%ADD62R,0.05906X0.13386*%
%ADD63C,0.04500*%
%ADD64R,0.03000X0.04000*%
%ADD65R,0.03000X0.05000*%
%ADD66R,0.13386X0.05906*%
%ADD67R,0.13780X0.04331*%
%ADD68R,0.05709X0.07874*%
%ADD69R,0.03150X0.05906*%
%ADD70R,0.04000X0.03000*%
G04:AMPARAMS|DCode=71|XSize=21.65mil|YSize=49.21mil|CornerRadius=1.95mil|HoleSize=0mil|Usage=FLASHONLY|Rotation=270.000|XOffset=0mil|YOffset=0mil|HoleType=Round|Shape=RoundedRectangle|*
%AMROUNDEDRECTD71*
21,1,0.02165,0.04532,0,0,270.0*
21,1,0.01776,0.04921,0,0,270.0*
1,1,0.00390,-0.02266,-0.00888*
1,1,0.00390,-0.02266,0.00888*
1,1,0.00390,0.02266,0.00888*
1,1,0.00390,0.02266,-0.00888*
%
%ADD71ROUNDEDRECTD71*%
%ADD72R,0.11024X0.05118*%
%ADD73R,0.03543X0.03150*%
%ADD74C,0.03937*%
%ADD75R,0.07000X0.03500*%
G04:AMPARAMS|DCode=76|XSize=23.62mil|YSize=78.74mil|CornerRadius=2.01mil|HoleSize=0mil|Usage=FLASHONLY|Rotation=90.000|XOffset=0mil|YOffset=0mil|HoleType=Round|Shape=RoundedRectangle|*
%AMROUNDEDRECTD76*
21,1,0.02362,0.07472,0,0,90.0*
21,1,0.01961,0.07874,0,0,90.0*
1,1,0.00402,0.03736,0.00980*
1,1,0.00402,0.03736,-0.00980*
1,1,0.00402,-0.03736,-0.00980*
1,1,0.00402,-0.03736,0.00980*
%
%ADD76ROUNDEDRECTD76*%
%ADD77R,0.06693X0.09843*%
%ADD78R,0.22441X0.07087*%
%ADD79R,0.06299X0.09449*%
%ADD80R,0.02953X0.01181*%
%ADD81R,0.09843X0.06693*%
%ADD82R,0.07100X0.04700*%
%ADD83C,0.01968*%
%ADD84C,0.06000*%
%ADD85C,0.04000*%
%ADD86C,0.07000*%
%ADD87C,0.05906*%
%ADD88R,0.05906X0.05906*%
%ADD89C,0.02165*%
%ADD90C,0.02165*%
%ADD91C,0.02000*%
%ADD92C,0.04300*%
G36*
X275122Y293563D02*
X270622D01*
X272122Y296063D01*
X270622Y298563D01*
X275122D01*
Y293563D01*
D02*
G37*
G36*
X271122Y296063D02*
X269622Y293563D01*
X266622D01*
Y296063D01*
Y298563D01*
X269622D01*
X271122Y296063D01*
D02*
G37*
G36*
X273670Y379516D02*
Y377016D01*
X270670D01*
X269170Y379516D01*
X270670Y382016D01*
X273670D01*
Y379516D01*
D02*
G37*
G36*
X268170D02*
X269670Y377016D01*
X265170D01*
Y382016D01*
X269670D01*
X268170Y379516D01*
D02*
G37*
G36*
X241646Y440158D02*
Y437657D01*
X238646D01*
X237146Y440158D01*
X238646Y442658D01*
X241646D01*
Y440158D01*
D02*
G37*
G36*
X236146D02*
X237646Y437657D01*
X233146D01*
Y442658D01*
X237646D01*
X236146Y440158D01*
D02*
G37*
G36*
X216067Y470079D02*
Y467579D01*
X213067D01*
X211567Y470079D01*
X213067Y472579D01*
X216067D01*
Y470079D01*
D02*
G37*
G36*
X210567D02*
X212067Y467579D01*
X207567D01*
Y472579D01*
X212067D01*
X210567Y470079D01*
D02*
G37*
D12*
X241732Y302756D02*
X248819Y295669D01*
Y293910D02*
Y295669D01*
X243949Y291894D02*
X245801Y293746D01*
X243949Y280421D02*
Y291894D01*
X212598Y331865D02*
Y359441D01*
Y331865D02*
X232820Y311643D01*
X341139Y499786D02*
X358876D01*
X329867Y499661D02*
X341014D01*
X341139Y499786D01*
X327222Y502306D02*
X329867Y499661D01*
X336614Y502244D02*
X336645Y502275D01*
X344557D01*
X166929Y302871D02*
X169406Y300394D01*
X182651D01*
X166929Y302871D02*
Y343701D01*
X171365Y348136D01*
X212205Y378740D02*
X216732D01*
X225000Y372441D02*
Y378740D01*
X224606Y372441D02*
X224632Y372467D01*
X312795Y346752D02*
X316788Y350744D01*
Y359029D01*
X316374Y359443D02*
Y365352D01*
Y359443D02*
X316788Y359029D01*
X314666Y321100D02*
X316436Y319330D01*
X314652Y317433D02*
X316549Y319330D01*
X310720Y317433D02*
X314652D01*
X310692Y321100D02*
X314666D01*
X316436Y319330D02*
X316549D01*
X310039Y316752D02*
X310720Y317433D01*
X310039Y321752D02*
X310692Y321100D01*
X326378Y334252D02*
X326537Y334411D01*
X330993D01*
X348593Y291046D02*
X348686Y290954D01*
X343155Y291046D02*
X348593D01*
X343062Y291139D02*
X343155Y291046D01*
X348686Y290954D02*
X348871Y291139D01*
X359140D01*
X344735Y286139D02*
X347172Y283702D01*
X348617D02*
X348840Y283479D01*
X347172Y283702D02*
X348617D01*
X343110Y276091D02*
X350159D01*
X350207Y276043D01*
X343062Y276139D02*
X343110Y276091D01*
X336898Y273619D02*
X348441D01*
X352747Y269313D02*
X369943D01*
X348441Y273619D02*
X352747Y269313D01*
X347380Y270359D02*
X348421Y269318D01*
X348736D01*
X343841Y270359D02*
X347380D01*
X343062Y271139D02*
X343841Y270359D01*
X337632Y261139D02*
X343062D01*
X337433Y260941D02*
X337632Y261139D01*
X342820Y256381D02*
X343062Y256139D01*
X337916Y256381D02*
X342820D01*
X337693Y256604D02*
X337916Y256381D01*
X328288Y253922D02*
Y261053D01*
X327451Y261890D02*
X328288Y261053D01*
X327451Y262651D02*
X327572Y262772D01*
X321802Y261139D02*
X322433Y261770D01*
X326255D02*
X326913Y262428D01*
X327451Y261890D02*
Y262651D01*
X326913Y262428D02*
X327228D01*
X322433Y261770D02*
X326255D01*
X328288Y253922D02*
X340945Y241265D01*
X330462Y254427D02*
Y262847D01*
X326714Y265659D02*
X327650D01*
X326492Y265882D02*
X326714Y265659D01*
X327650D02*
X330462Y262847D01*
Y254427D02*
X342732Y242156D01*
X329777Y266410D02*
X332249Y263938D01*
X332360Y266429D02*
X334037Y264752D01*
X332249Y255214D02*
X343816Y243648D01*
X334037Y255955D02*
Y264752D01*
Y255955D02*
X344556Y245435D01*
X332249Y255214D02*
Y263938D01*
X329777Y266410D02*
Y269635D01*
X332360Y266429D02*
Y268565D01*
X333431Y272474D02*
X333747D01*
X332105Y271148D02*
X333431Y272474D01*
X331290Y271148D02*
X332105D01*
X329777Y269635D02*
X331290Y271148D01*
X321931Y266010D02*
X326492D01*
X323475Y271139D02*
X327393Y275056D01*
X335460D01*
X336898Y273619D01*
X355709Y510088D02*
X357625Y508171D01*
X355709Y510088D02*
Y517520D01*
X323435Y492413D02*
X327955D01*
X328442Y492900D01*
X328757D01*
X323329Y492306D02*
X323435Y492413D01*
X327600Y497306D02*
X328449Y496457D01*
X328765D01*
X323329Y497306D02*
X327600D01*
X323312Y487323D02*
X323329Y487306D01*
X317429Y487323D02*
X323312D01*
X317412Y487340D02*
X317429Y487323D01*
X339127Y487989D02*
X343906D01*
X344588Y487306D01*
X338904Y488211D02*
X339127Y487989D01*
X338911Y491446D02*
X339134Y491669D01*
X343952D01*
X344588Y492306D01*
X349893Y512054D02*
X350116Y512277D01*
X346262Y507306D02*
X349893Y510937D01*
Y512054D01*
X349458Y512277D02*
X350116D01*
X344648Y512366D02*
X349383D01*
X344588Y512306D02*
X344648Y512366D01*
X350220Y517184D02*
X350342Y517063D01*
X344710Y517184D02*
X350220D01*
X344588Y517306D02*
X344710Y517184D01*
X344664Y522381D02*
X350170D01*
X344588Y522306D02*
X344664Y522381D01*
X350170D02*
X350245Y522456D01*
X325101Y522276D02*
X328654D01*
X329141Y521788D01*
X329457D01*
X328945Y518437D02*
X329261D01*
X327815Y517306D02*
X328945Y518437D01*
X321656Y517306D02*
X327815D01*
X336838Y507632D02*
Y508354D01*
Y507632D02*
X337061Y507409D01*
X336614Y508578D02*
X336838Y508354D01*
X336614Y508578D02*
Y520261D01*
X317826Y507196D02*
X323219D01*
X323329Y522306D02*
X325002D01*
X323219Y507196D02*
X323329Y507306D01*
X344588D02*
X346262D01*
X317717Y507087D02*
X317826Y507196D01*
X344557Y502275D02*
X344588Y502306D01*
X241311Y398819D02*
X241521Y398609D01*
X208661Y398819D02*
X241311D01*
X240736Y395125D02*
X240938D01*
X239011Y396850D02*
X240736Y395125D01*
X207480Y396850D02*
X239011D01*
X203543Y400787D02*
X207480Y396850D01*
X261333Y401507D02*
X262137D01*
X272047Y411417D01*
X261110Y401284D02*
X261333Y401507D01*
X273421Y346756D02*
X273425Y346752D01*
X267770Y346756D02*
X273421D01*
X267766Y346760D02*
X267770Y346756D01*
X265183Y350207D02*
X269363Y354387D01*
X265183Y341869D02*
Y350207D01*
Y341869D02*
X265300Y341752D01*
X267120Y319249D02*
X268166D01*
X268172D01*
X268166D02*
X270669Y321752D01*
X268172Y319249D02*
X270669Y316752D01*
X273425D01*
X270669Y321752D02*
X273425D01*
X264365Y323774D02*
X267342Y326752D01*
X264365Y317531D02*
Y323774D01*
Y317531D02*
X267742Y314154D01*
X262874Y244094D02*
X264539Y242429D01*
Y236386D02*
Y242429D01*
X262874Y211417D02*
X264677Y209614D01*
Y204311D02*
Y209614D01*
X194377Y216229D02*
Y221913D01*
Y216229D02*
X194463Y216142D01*
X226772Y221654D02*
X226788Y221637D01*
Y215581D02*
Y221637D01*
X206967Y213190D02*
Y218732D01*
Y213190D02*
X208740Y211417D01*
X207115Y242470D02*
X208740Y244094D01*
X207115Y237049D02*
Y242470D01*
X212598Y359441D02*
Y361165D01*
X244291Y309646D02*
X246214D01*
X246298Y309562D01*
Y305963D02*
Y309562D01*
X220472Y357527D02*
X221631Y356369D01*
X220472Y357527D02*
Y362992D01*
X221631Y356054D02*
Y356369D01*
X219090Y353462D02*
X223147D01*
X228346Y358661D01*
X218504Y354047D02*
X219090Y353462D01*
X218504Y354047D02*
Y362992D01*
X184843Y354921D02*
X184872Y354892D01*
X191882D01*
X191911Y354862D01*
X182014Y361263D02*
Y364756D01*
X181390Y365380D02*
X182014Y364756D01*
X173319Y348136D02*
X178101Y352918D01*
X184808D01*
X183071Y299974D02*
Y300394D01*
X171365Y348136D02*
X173319D01*
X184808Y352918D02*
X184843Y352953D01*
X183071Y300394D02*
Y309562D01*
X181971Y371708D02*
Y376046D01*
X181890Y371628D02*
X181971Y371708D01*
X175982Y371630D02*
Y376055D01*
Y371630D02*
X175984Y371628D01*
X202363Y371678D02*
X202388Y371654D01*
X202363Y371678D02*
Y376334D01*
X196801Y371703D02*
Y376212D01*
Y371703D02*
X196850Y371654D01*
X227129Y491328D02*
X227165Y491365D01*
X227129Y487396D02*
Y491328D01*
X250645Y339173D02*
X251259Y338559D01*
X244291Y339173D02*
X250645D01*
X228346Y358661D02*
Y362992D01*
X251259Y338559D02*
X251575D01*
X214567Y357466D02*
X215181Y356852D01*
X214567Y357466D02*
Y362992D01*
X215181Y356537D02*
Y356852D01*
X243949Y280421D02*
X244055Y280315D01*
X244094Y412205D02*
Y440551D01*
X247296Y360185D02*
Y384429D01*
X246063Y388189D02*
X249083Y385169D01*
X244094Y412205D02*
X244276Y412024D01*
X224803Y383071D02*
X244712D01*
X244713Y383072D01*
X244276Y387449D02*
X247296Y384429D01*
X249083Y361153D02*
Y385169D01*
X244276Y387449D02*
Y412024D01*
X249083Y361153D02*
X250822Y359414D01*
X246063Y388189D02*
Y412205D01*
X247296Y360185D02*
X249035Y358446D01*
X252287Y383053D02*
X252304Y383071D01*
X256693D01*
X321723Y256060D02*
X321802Y256139D01*
X326771Y286906D02*
X326994Y287129D01*
X322569Y286906D02*
X326771D01*
X321802Y291139D02*
X321889Y291226D01*
X326743D02*
X326830Y291313D01*
X321802Y286139D02*
X322569Y286906D01*
X344735Y281139D02*
X346853Y283257D01*
X316501Y276063D02*
X321726D01*
X316296Y255982D02*
X316374Y256060D01*
X343062Y286139D02*
X344735D01*
X321726Y276063D02*
X321802Y276139D01*
X321889Y291226D02*
X326743D01*
X316374Y256060D02*
X321723D01*
X321802Y266139D02*
X321931Y266010D01*
X316425Y275987D02*
X316501Y276063D01*
X343062Y281139D02*
X344735D01*
X370276Y339764D02*
X387319D01*
X370276Y331890D02*
X387319D01*
X370276Y316142D02*
X387319D01*
X370276Y324016D02*
X387319D01*
X207193Y496063D02*
X210913Y499784D01*
Y549537D01*
X206693Y496063D02*
X207193D01*
X177953Y456299D02*
X194996D01*
X177953Y464173D02*
X194996D01*
X249028Y460918D02*
X254461D01*
X254823Y461279D01*
X234646Y440779D02*
X242648Y448782D01*
Y460793D01*
X234646Y440158D02*
Y440779D01*
X248031Y466176D02*
Y476953D01*
X242648Y460793D02*
X248031Y466176D01*
X333071Y213032D02*
Y230118D01*
X380315Y213032D02*
Y230118D01*
X353333Y243648D02*
X356693Y240288D01*
X325197Y213032D02*
Y230118D01*
X329000Y239754D02*
Y239932D01*
X331630Y231558D02*
X333071Y230118D01*
X331630Y231558D02*
Y246470D01*
X331596Y246504D02*
X331630Y246470D01*
X340945Y213032D02*
Y230118D01*
X364567D02*
Y234842D01*
X356693Y230118D02*
Y240288D01*
X348819Y213032D02*
Y230118D01*
X344556Y245435D02*
X354074D01*
X358488Y241021D01*
X326862Y237616D02*
X329000Y239754D01*
X343816Y243648D02*
X353333D01*
X364567Y213032D02*
Y230118D01*
X325197D02*
X326862Y231784D01*
X358488Y240922D02*
Y241021D01*
X356693Y213032D02*
Y230118D01*
X358488Y240922D02*
X364567Y234842D01*
X372441Y213032D02*
Y230118D01*
X326862Y231784D02*
Y237616D01*
X372835Y548268D02*
Y565354D01*
X364961Y548268D02*
Y565354D01*
X353921Y507874D02*
Y518260D01*
X325590Y548268D02*
Y565354D01*
X333858Y509055D02*
Y509371D01*
X334646Y510158D01*
X355709Y517520D02*
X379043Y540854D01*
X372835Y537173D02*
Y548268D01*
X379043Y540854D02*
Y546602D01*
X353921Y518260D02*
X372835Y537173D01*
X349213Y548268D02*
Y565354D01*
X380709Y548268D02*
Y565354D01*
X336614Y520261D02*
X356117Y539764D01*
X361024D01*
X341339Y548268D02*
Y565354D01*
X361024Y539764D02*
X364961Y543701D01*
X357087Y548268D02*
Y565354D01*
X334646Y521102D02*
X357087Y543543D01*
X379043Y546602D02*
X380709Y548268D01*
X334646Y510158D02*
Y521102D01*
X357087Y543543D02*
Y548268D01*
X333465D02*
Y565354D01*
X240158Y285469D02*
Y294488D01*
X231210Y288160D02*
Y296985D01*
Y288160D02*
X239055Y280315D01*
X233931Y289918D02*
Y294467D01*
X233910Y294488D02*
X233931Y294467D01*
X370276Y503937D02*
X387319D01*
X334602Y354896D02*
Y355212D01*
X333211Y356602D02*
X334602Y355212D01*
X333211Y356602D02*
Y367163D01*
X327707Y348031D02*
X334571Y354896D01*
X334602D02*
X354812Y375106D01*
X334571Y354896D02*
X334602D01*
X354812Y375106D02*
X368693D01*
X334729Y351098D02*
X353709Y370079D01*
X369177D01*
X327559Y348031D02*
X327707D01*
X316309Y365417D02*
X316374Y365352D01*
X310039Y346752D02*
X312795D01*
X310062Y365917D02*
X336665Y392520D01*
X310062Y365417D02*
Y365917D01*
Y365417D02*
X310127Y365352D01*
Y359443D02*
Y365352D01*
X310039Y359355D02*
X310127Y359443D01*
X310039Y351752D02*
Y359355D01*
X272538Y352433D02*
X273219Y351752D01*
X272538Y352433D02*
Y360225D01*
X273219Y351752D02*
X273425D01*
X274952Y363139D02*
X275485D01*
X276444Y364098D01*
X272538Y360225D02*
Y360725D01*
X274952Y363139D01*
X272170Y378516D02*
X276444Y374243D01*
Y364098D02*
Y374243D01*
X272170Y378516D02*
Y379516D01*
X266655Y365926D02*
X269363Y363218D01*
Y354387D02*
Y363218D01*
X256693Y385683D02*
X268124D01*
X271170Y380516D02*
X272170Y379516D01*
X271170Y380516D02*
Y382637D01*
X268124Y385683D02*
X271170Y382637D01*
X272538Y371383D02*
X272809Y371654D01*
X272538Y366130D02*
Y371383D01*
X266291Y372036D02*
X266670Y372415D01*
Y379516D01*
X387402Y284646D02*
X388023D01*
X392882Y248336D02*
Y279786D01*
X388023Y284646D02*
X392882Y279786D01*
X391986Y247440D02*
X392882Y248336D01*
X388148Y247440D02*
X391986D01*
X381980Y231784D02*
Y241272D01*
X388148Y247440D01*
X380315Y230118D02*
X381980Y231784D01*
X363383Y278625D02*
X363571Y278437D01*
X368693D01*
X370358Y276772D01*
X325955Y278625D02*
X363383D01*
X324255Y280326D02*
X325955Y278625D01*
X365634Y284646D02*
X370358D01*
X359140Y291139D02*
X365634Y284646D01*
X387402D02*
Y291102D01*
X370358Y284646D02*
X387402D01*
X370358Y276772D02*
X387402D01*
X370358Y268898D02*
X387402D01*
X370358Y261024D02*
X387402D01*
X370358Y253150D02*
X387402D01*
X342732Y240662D02*
Y242156D01*
X340945Y230118D02*
Y241265D01*
X348819Y230118D02*
Y234842D01*
X343000Y240662D02*
X348819Y234842D01*
X342732Y240662D02*
X343000D01*
X321802Y271139D02*
X323475D01*
X369943Y269313D02*
X370358Y268898D01*
X323475Y281139D02*
X324255Y280360D01*
X321802Y281139D02*
X323475D01*
X324255Y280326D02*
Y280360D01*
X365634Y261024D02*
X370358D01*
X343062Y266139D02*
X360519D01*
X365634Y261024D01*
X370276Y480315D02*
X387319D01*
X370276Y511811D02*
X387319D01*
X359932Y503937D02*
X370276D01*
X359043Y504826D02*
X359932Y503937D01*
X387371Y512009D02*
Y516172D01*
X177953Y400787D02*
X194996D01*
X177953Y408661D02*
X199721D01*
X254331Y248425D02*
X267917Y262012D01*
X254331Y217717D02*
Y248425D01*
X250787Y214173D02*
X254331Y217717D01*
X248425Y221654D02*
Y248031D01*
X264342Y263949D01*
X246063Y248425D02*
X262555Y264917D01*
X246063Y241339D02*
Y248425D01*
X231102Y226378D02*
X246063Y241339D01*
X251575Y218087D02*
Y248197D01*
X250024Y216535D02*
X251575Y218087D01*
Y248197D02*
X266130Y262752D01*
X239370Y455118D02*
Y465556D01*
X217597Y433345D02*
X239370Y455118D01*
X215354Y432283D02*
X216301D01*
X217362Y433345D01*
X217597D01*
X234154Y466280D02*
X238647D01*
X239370Y465556D01*
X223228Y456005D02*
X223522Y456299D01*
X214961Y444488D02*
X223228Y452756D01*
Y456005D01*
X336665Y392520D02*
X370358D01*
X328346Y320866D02*
X333071D01*
X318701Y330512D02*
X328346Y320866D01*
X318504Y330512D02*
X318701D01*
X340158Y348425D02*
Y349606D01*
Y348425D02*
X350000Y338583D01*
X369094D01*
X334729Y351098D02*
X352362Y333465D01*
X334729Y351098D02*
X334729D01*
X352362Y333465D02*
X368701D01*
X338583Y351181D02*
X340158Y349606D01*
X368701Y333465D02*
X370276Y331890D01*
X369094Y338583D02*
X370276Y339764D01*
X368693Y375106D02*
X370358Y376772D01*
X328232Y344602D02*
X334729Y351098D01*
X370358Y368898D02*
X387402D01*
X370358Y376772D02*
X387402D01*
X370358Y384646D02*
X387402D01*
X370358Y392520D02*
X387402D01*
X392126Y345669D02*
X393408Y344387D01*
X385433Y311024D02*
X392822D01*
X393408Y311609D01*
Y344387D01*
X387795Y345669D02*
X392126D01*
X383071Y350394D02*
X387795Y345669D01*
X387402Y392520D02*
X391732D01*
X393307Y390945D01*
Y366142D02*
Y390945D01*
X390551Y363386D02*
X393307Y366142D01*
X385827Y363386D02*
X390551D01*
X383071Y360630D02*
X385827Y363386D01*
X383071Y350394D02*
Y360630D01*
X383858Y309449D02*
X385433Y311024D01*
X383858Y294646D02*
Y309449D01*
Y294646D02*
X387402Y291102D01*
X346693Y418504D02*
X362441Y434252D01*
X387402D01*
X370358Y442126D02*
X387402D01*
X370358Y450000D02*
X387402D01*
X370358Y426378D02*
X387402D01*
X366535Y420488D02*
Y424713D01*
X368201Y426378D02*
X370358D01*
X366535Y424713D02*
X368201Y426378D01*
X348134Y402087D02*
X366535Y420488D01*
X341063Y402087D02*
X348134D01*
X336063Y407087D02*
X341063Y402087D01*
X326951Y407087D02*
X336063D01*
X336063Y407087D01*
X306693Y418504D02*
X315534D01*
X326951Y407087D01*
X346378Y418189D02*
X346693Y418504D01*
X346063Y407087D02*
X346378Y407402D01*
Y418189D01*
X346693Y448504D02*
X359256D01*
X365634Y442126D01*
X370358D01*
X341457Y464843D02*
X350791D01*
X365634Y450000D01*
X370358D01*
X336457Y459842D02*
X341457Y464843D01*
X346575Y448622D02*
Y459724D01*
Y448622D02*
X346693Y448504D01*
X346457Y459842D02*
X346575Y459724D01*
X315770Y448504D02*
X327109Y459842D01*
X336457D01*
X306693Y448504D02*
X315770D01*
X194996Y400787D02*
X203543D01*
X199721Y408661D02*
X201386Y406996D01*
Y406095D02*
Y406996D01*
Y406095D02*
X208661Y398819D01*
X276693Y412410D02*
Y418504D01*
X272047Y443858D02*
X276693Y448504D01*
X260630Y396457D02*
X260739D01*
X272047Y411417D02*
Y443858D01*
X260739Y396457D02*
X276693Y412410D01*
X250394Y418872D02*
Y427191D01*
X250000Y433832D02*
X250394Y433439D01*
X250000Y433832D02*
Y438189D01*
X240146Y441157D02*
X243870Y444882D01*
X244094D01*
X240146Y440158D02*
Y441157D01*
X239764Y418872D02*
Y427191D01*
Y433439D02*
X240146Y433820D01*
Y440158D01*
X248031Y466176D02*
X253589D01*
X248006Y476772D02*
Y476953D01*
X249006Y477953D01*
X262992D01*
X213189Y463779D02*
X216142D01*
X194996Y464173D02*
X212598D01*
X213189D01*
X209283Y467488D02*
X212598Y464173D01*
X209067Y470079D02*
X209283Y469862D01*
Y467488D02*
Y469862D01*
X181193Y538098D02*
Y542035D01*
Y538098D02*
X183465Y535827D01*
X180371Y542858D02*
X181193Y542035D01*
X174854Y542858D02*
X180371D01*
X171653Y528398D02*
X177559D01*
X170866Y527611D02*
X171653Y528398D01*
X170866Y523622D02*
Y527611D01*
X355512Y317323D02*
X369094D01*
X328232Y344602D02*
X355512Y317323D01*
X369094D02*
X370276Y316142D01*
X352528Y322835D02*
X369094D01*
X332900Y342462D02*
X352528Y322835D01*
X369094D02*
X370276Y324016D01*
X369177Y370079D02*
X370358Y368898D01*
X332677Y344488D02*
X332900Y344265D01*
Y342462D02*
Y344265D01*
X320169Y339461D02*
Y339461D01*
X327336Y346627D01*
Y347809D01*
X318701Y337992D02*
X320169Y339461D01*
X318307Y337992D02*
X318701D01*
X321476Y337845D02*
X328232Y344602D01*
X321476Y335738D02*
Y337845D01*
X318701Y330512D02*
X319776Y331587D01*
Y334038D01*
X321476Y335738D01*
X318307Y330512D02*
X318504D01*
X310039Y331752D02*
X317067D01*
X318307Y330512D01*
X310039Y336752D02*
X317067D01*
X318307Y337992D01*
X258914Y280456D02*
Y283815D01*
X266130Y262752D02*
Y284201D01*
X254362Y295969D02*
X266130Y284201D01*
X267917Y262012D02*
Y284942D01*
X250787Y294488D02*
X262555Y282720D01*
X256150Y296709D02*
X267917Y284942D01*
X252575Y295229D02*
X264342Y283461D01*
X256150Y296709D02*
Y315504D01*
X254362Y295969D02*
Y312173D01*
X258914Y280456D02*
X259055Y280315D01*
X262555Y264917D02*
Y282720D01*
X250787Y294488D02*
Y297665D01*
X264342Y263949D02*
Y283461D01*
X252575Y295229D02*
Y311205D01*
X248819Y293910D02*
X258914Y283815D01*
X256693Y392913D02*
X256693Y392913D01*
X256201Y471279D02*
X259055Y468425D01*
X254823Y471279D02*
X256201D01*
X259055Y452756D02*
Y468425D01*
X246063Y439764D02*
X259055Y452756D01*
X254656Y351617D02*
Y353869D01*
Y351617D02*
X255118Y351155D01*
X216535Y372244D02*
X216732Y372441D01*
X216535Y362992D02*
Y372244D01*
X230538Y267546D02*
X231286D01*
X230315Y267323D02*
X230538Y267546D01*
X231286D02*
X239055Y275315D01*
X214173Y262992D02*
Y272119D01*
Y230105D02*
Y262992D01*
X218504Y267323D01*
X220472D01*
X267732Y289173D02*
X273622Y295063D01*
Y296063D01*
X267126Y289173D02*
X267732D01*
X235433Y204331D02*
Y221654D01*
X194463Y210237D02*
Y216142D01*
Y204331D02*
Y210237D01*
X214173Y272119D02*
X220079D01*
X200710Y216142D02*
Y216642D01*
X214173Y230105D01*
X243701Y214173D02*
X250787D01*
X240158Y217717D02*
X243701Y214173D01*
X190603Y371153D02*
X191339Y371889D01*
X181390Y365380D02*
X182390Y366380D01*
X238189Y310263D02*
Y316929D01*
Y310263D02*
X250787Y297665D01*
X231210Y296985D02*
X232283Y298059D01*
Y303543D01*
X224523Y236334D02*
Y292777D01*
X214173Y225984D02*
X224523Y236334D01*
X214173Y218110D02*
Y225984D01*
X218110Y221654D02*
Y226772D01*
X218110Y221654D02*
X218110Y221654D01*
Y226772D02*
X226378Y235039D01*
X215748Y216535D02*
X220866D01*
X214173Y218110D02*
X215748Y216535D01*
X220866D02*
X222117Y217787D01*
Y221330D01*
X222441Y221654D01*
X231102D02*
Y226378D01*
X244326Y313548D02*
X250232D01*
X252575Y311205D01*
X244326Y315517D02*
X251019D01*
X254362Y312173D01*
X248228Y323425D02*
X256150Y315504D01*
X244291Y323425D02*
X248228D01*
X238189Y316929D02*
X238779Y317520D01*
X244291D01*
X240158Y217717D02*
Y221260D01*
X239764Y221654D02*
X240158Y221260D01*
X244094Y221654D02*
X244488Y221260D01*
Y217717D02*
Y221260D01*
Y217717D02*
X245669Y216535D01*
X250024D01*
X244291Y313583D02*
X244326Y313548D01*
X218504Y298797D02*
X224523Y292777D01*
X218504Y298797D02*
Y303543D01*
X220507Y299572D02*
Y303509D01*
Y299572D02*
X226378Y293701D01*
Y235039D02*
Y293701D01*
X220472Y303543D02*
X220507Y303509D01*
X234910Y297902D02*
X236186Y299178D01*
X238189Y299606D02*
X240158Y297638D01*
X238189Y299606D02*
Y303543D01*
X234910Y295488D02*
Y297902D01*
X236186Y299178D02*
Y303509D01*
X233910Y294488D02*
X234910Y295488D01*
X240158Y294488D02*
Y297638D01*
X244291Y315551D02*
X244326Y315517D01*
X252953Y341142D02*
X267342Y326752D01*
X244291Y341142D02*
X252953D01*
X258268Y340158D02*
X258583D01*
X260178Y341752D01*
X265300D01*
X273425D01*
X267742Y309055D02*
Y314154D01*
X273990Y303150D02*
Y309055D01*
X267742Y296443D02*
X268122Y296063D01*
X267742Y296443D02*
Y303150D01*
X267342Y326752D02*
X273425D01*
X190551Y281496D02*
Y285039D01*
X182651Y300394D02*
X183071Y299974D01*
X181390Y365380D02*
X181890D01*
X175591Y359274D02*
Y364987D01*
X175984Y365380D01*
X174997Y358680D02*
X175591Y359274D01*
X173228Y358268D02*
X174585D01*
X172835Y357874D02*
X173228Y358268D01*
X174997Y358680D02*
X189772D01*
X174585Y358268D02*
X174997Y358680D01*
X170079Y359518D02*
X171329Y358268D01*
X170079Y359518D02*
Y365380D01*
X171329Y358268D02*
X172835D01*
X211372Y358249D02*
X212564Y359441D01*
X190203Y358249D02*
X211372D01*
X189772Y358680D02*
X190203Y358249D01*
X189103Y370153D02*
X189603D01*
X185330Y366380D02*
X189103Y370153D01*
X182390Y366380D02*
X185330D01*
X190603Y371153D02*
Y371654D01*
X189603Y370153D02*
X190603Y371153D01*
X197638Y383071D02*
X208635D01*
Y371654D02*
Y383071D01*
X224803D01*
X191339Y371889D02*
Y376772D01*
X197638Y383071D01*
X224803Y378937D02*
Y383071D01*
X224606Y378740D02*
X224803Y378937D01*
X239370Y372467D02*
X239870D01*
X233465D02*
X239370D01*
X224632D02*
X232965D01*
X196850Y371153D02*
Y371654D01*
X228381Y367883D02*
X232965Y372467D01*
X240870Y364083D02*
Y371467D01*
X204667Y368420D02*
X205902D01*
X202791Y366543D02*
X204667Y368420D01*
X202791Y363027D02*
Y366543D01*
X202756Y362992D02*
X202791Y363027D01*
X200787Y362992D02*
X200822Y363027D01*
Y367103D01*
X202388Y368669D01*
Y371654D01*
X198819Y362992D02*
Y369185D01*
X196850Y371153D02*
X198819Y369185D01*
X227165Y497612D02*
Y503176D01*
X236024Y505612D02*
X238976D01*
X227165Y509423D02*
X232213D01*
X236024Y505612D01*
X254947Y345079D02*
X255118Y344908D01*
X244291Y345079D02*
X254947D01*
X244326Y347082D02*
X248402D01*
X250822Y349502D01*
X244291Y347047D02*
X244326Y347082D01*
X240183Y412205D02*
X244094D01*
X239870Y372467D02*
X240870Y371467D01*
X244291Y356890D02*
Y360661D01*
X240870Y364083D02*
X244291Y360661D01*
X249035Y350243D02*
Y358446D01*
X232965Y372467D02*
X233465D01*
X228381Y363027D02*
Y367883D01*
X228346Y362992D02*
X228381Y363027D01*
X236186Y303509D02*
X236221Y303543D01*
X205902Y368420D02*
X208635Y371153D01*
Y371654D01*
X190603Y371153D02*
X193337Y368420D01*
X194939D01*
X196816Y366543D01*
Y363027D02*
Y366543D01*
Y363027D02*
X196850Y362992D01*
X178266Y368504D02*
X181390Y365380D01*
X170079Y371628D02*
X170579D01*
X173702Y368504D01*
X178266D01*
X179690Y315586D02*
X184808D01*
X174405Y320871D02*
Y323784D01*
Y320871D02*
X179690Y315586D01*
X173228Y316142D02*
X175787Y313583D01*
X172047Y316142D02*
X173228D01*
X175787Y313583D02*
X184843D01*
X172047Y326142D02*
X174405Y323784D01*
X184808Y315586D02*
X184843Y315551D01*
X214567Y291732D02*
Y303543D01*
X214173Y291339D02*
X214567Y291732D01*
X218579Y292339D02*
X219579Y291339D01*
X218579Y292339D02*
Y292839D01*
X216535Y294882D02*
X218579Y292839D01*
X216535Y294882D02*
Y303543D01*
X219579Y291339D02*
X220079D01*
X201969Y294488D02*
X204592D01*
X196885Y299572D02*
Y303509D01*
Y299572D02*
X201969Y294488D01*
X194882Y298267D02*
X201862Y291287D01*
X194882Y298267D02*
Y303543D01*
X204592Y294488D02*
X207768Y291313D01*
X196850Y303543D02*
X196885Y303509D01*
X207768Y291313D02*
X208268D01*
X201862Y291287D02*
X202362D01*
X183071Y309562D02*
X183154Y309646D01*
X184843D01*
X200114Y242913D02*
X203543Y246342D01*
Y251575D02*
X205906Y253937D01*
X203543Y246342D02*
Y251575D01*
X205906Y253937D02*
Y275590D01*
X207874Y284672D02*
X208268Y285065D01*
X207874Y277559D02*
Y284672D01*
X205906Y275590D02*
X207874Y277559D01*
X195390Y242913D02*
X200114D01*
X195390Y250787D02*
X200114D01*
X203937Y254610D02*
Y275984D01*
X178347Y250787D02*
X195390D01*
X200114D02*
X203937Y254610D01*
X202362Y285039D02*
X202362Y285039D01*
X202362Y277559D02*
Y285039D01*
Y277559D02*
X203937Y275984D01*
X178347Y235039D02*
X195390D01*
X178347Y242913D02*
X195390D01*
X195972Y284581D02*
X196457Y285065D01*
X195972Y282651D02*
Y284581D01*
X173846Y260525D02*
X195972Y282651D01*
X173846Y239539D02*
X178347Y235039D01*
X173846Y239539D02*
Y260525D01*
X190551Y295233D02*
X192913Y297595D01*
X196457Y291313D02*
Y294052D01*
X192913Y297595D02*
Y303543D01*
Y297595D02*
X196457Y294052D01*
X190551Y291287D02*
Y295233D01*
X384252Y519291D02*
Y522047D01*
Y519291D02*
X387371Y516172D01*
X384252Y522047D02*
Y539370D01*
X387008Y542126D01*
X364173Y522047D02*
X384252D01*
X370276Y496063D02*
X387319D01*
X370276Y488189D02*
X387319D01*
X387008Y542126D02*
Y565419D01*
X330090Y569854D02*
X382573D01*
X387008Y565419D01*
X325590Y565354D02*
X330090Y569854D01*
X323329Y502306D02*
X327222D01*
X358876Y499786D02*
X362598Y496063D01*
X323329Y512306D02*
X324031Y511603D01*
X326979D02*
X333756Y504826D01*
X324031Y511603D02*
X326979D01*
X333756Y504826D02*
X359043D01*
X362598Y496063D02*
X370752D01*
X356910Y497306D02*
X366028Y488189D01*
X370752D01*
X344588Y497306D02*
X356910D01*
X345433Y539764D02*
X349213Y543543D01*
X342410Y539764D02*
X345433D01*
X349213Y543543D02*
Y548268D01*
X325781Y523135D02*
X342410Y539764D01*
X340464Y547393D02*
X341339Y548268D01*
X324786Y524786D02*
X340464Y540464D01*
Y547393D01*
X319176Y519785D02*
X321656Y517306D01*
X319176Y519785D02*
Y524083D01*
X319879Y524786D01*
X324786D01*
X325781Y523085D02*
Y523135D01*
X325002Y522306D02*
X325781Y523085D01*
X246063Y415354D02*
Y439764D01*
Y412205D02*
Y415354D01*
X239370Y403937D02*
Y412231D01*
X239764Y412624D01*
X250394D02*
X250787Y412231D01*
Y403937D02*
Y412231D01*
X239764Y412624D02*
X240183Y412205D01*
X246063D02*
X249974D01*
X250394Y412624D01*
X250822Y349502D02*
Y359414D01*
X247843Y349050D02*
X249035Y350243D01*
X244326Y349050D02*
X247843D01*
X244291Y349016D02*
X244326Y349050D01*
X244094Y440551D02*
X254823Y451279D01*
Y456280D01*
X225681Y459339D02*
X230836D01*
X223622Y457280D02*
X225681Y459339D01*
X218110Y461811D02*
X228307D01*
X232776Y466280D01*
X234154D01*
X232776Y461279D02*
X234154D01*
X230836Y459339D02*
X232776Y461279D01*
X216142Y463779D02*
X218110Y461811D01*
X214567Y470079D02*
X223622D01*
X212205Y456299D02*
X213189D01*
X223522D01*
X205315Y460039D02*
X209199D01*
X209396Y460236D01*
X209449D01*
X212205Y456299D02*
X212205Y456299D01*
X194996Y456299D02*
X212205D01*
X170079Y365380D02*
X170579D01*
X220079Y291339D02*
X220079Y291339D01*
X220079Y278367D02*
X220079Y278367D01*
Y285091D01*
X214173Y278367D02*
Y285091D01*
X214173Y285091D01*
X183071Y290551D02*
Y293727D01*
X183439Y552362D02*
X183465Y552336D01*
X179528Y552362D02*
X183439D01*
X172835Y338976D02*
Y342126D01*
X207087Y520944D02*
Y527191D01*
X206693Y520551D02*
X207087Y520944D01*
X206693Y515302D02*
Y520551D01*
X193701Y535827D02*
X197638D01*
X191732Y533858D02*
X193701Y535827D01*
X197638Y537795D02*
X198008D01*
X176378Y508713D02*
Y508975D01*
X179662Y512259D02*
X179921D01*
X182965Y515302D02*
X183465D01*
X176378Y508975D02*
X179662Y512259D01*
X179921D02*
X182965Y515302D01*
X175932Y509029D02*
X175984Y509081D01*
X171653Y546405D02*
X171835D01*
X176378Y522020D02*
X182283Y527926D01*
X176378Y514961D02*
Y522020D01*
X185827Y535827D02*
X185827Y535827D01*
X178346Y533858D02*
X185827D01*
X183465Y535827D02*
X185827D01*
X197728Y533768D02*
X200091D01*
X197638Y533858D02*
X197728Y533768D01*
X171653Y540158D02*
X172153D01*
X177559Y534646D02*
X178346Y533858D01*
X171653Y534646D02*
Y540158D01*
X177559Y534646D02*
Y540158D01*
X171835Y546405D02*
X172835Y547405D01*
X172153Y540158D02*
X174854Y542858D01*
X206325Y532677D02*
X207087Y533439D01*
X200314Y524587D02*
Y531009D01*
X199611Y531712D02*
X200314Y531009D01*
X201181Y532677D02*
X206325D01*
X206693Y502310D02*
Y509055D01*
X197638Y531890D02*
X198524D01*
X198702Y531712D01*
X200091Y533768D02*
X201181Y532677D01*
X198702Y531712D02*
X199611D01*
X198425Y502310D02*
Y509029D01*
X185736Y531799D02*
X185827Y531890D01*
X183941Y531799D02*
X185736D01*
X182283Y530142D02*
X183941Y531799D01*
X190945Y502284D02*
Y509055D01*
X183465Y502310D02*
Y509055D01*
X182283Y527926D02*
Y530142D01*
X198425Y522698D02*
X200314Y524587D01*
X197638Y526901D02*
Y529921D01*
X190945Y520208D02*
X197638Y526901D01*
X198425Y515276D02*
Y522698D01*
X190945Y515302D02*
Y520208D01*
X151701Y167741D02*
X153701Y161741D01*
X149701D02*
X151701Y167741D01*
X149701Y189470D02*
X151701Y183470D01*
X153701Y189470D01*
X151701Y157741D02*
Y167741D01*
Y183470D02*
Y193470D01*
X150701Y183470D02*
X173711D01*
X150701Y167741D02*
X166717D01*
X461729Y611656D02*
X463729Y605656D01*
X459729D02*
X461729Y611656D01*
X459729Y180365D02*
X461729Y174365D01*
X463729Y180365D01*
X461729Y408006D02*
Y611656D01*
Y174365D02*
Y374815D01*
X175479Y611656D02*
X462729D01*
X394293Y174365D02*
X462729D01*
X158637Y152920D02*
X164637Y154920D01*
X158637Y156920D02*
X164637Y154920D01*
X184947D02*
X190947Y156920D01*
X184947Y154920D02*
X190947Y152920D01*
X154637Y154920D02*
X164637D01*
X184947D02*
X194947D01*
X184947Y153920D02*
Y171470D01*
X164637Y153920D02*
Y179554D01*
X415700Y617656D02*
X417700Y611656D01*
X419700Y617656D01*
X417700Y595926D02*
X419700Y589926D01*
X415700D02*
X417700Y595926D01*
Y611656D02*
Y621656D01*
Y585926D02*
Y595926D01*
X391533D02*
X418700D01*
X175479Y611656D02*
X418700D01*
X374296Y628419D02*
X380296Y630419D01*
X374296Y632419D02*
X380296Y630419D01*
X174479D02*
X180479Y632419D01*
X174479Y630419D02*
X180479Y628419D01*
X290883Y630419D02*
X380296D01*
X174479D02*
X260692D01*
X380296Y607163D02*
Y631419D01*
X174479Y612656D02*
Y631419D01*
D17*
X144503Y166508D02*
X138505D01*
X141504Y163509D01*
Y167508D01*
X144503Y169507D02*
X143503D01*
Y170507D01*
X144503D01*
Y169507D01*
X139504Y174505D02*
X138505Y175505D01*
Y177505D01*
X139504Y178504D01*
X143503D01*
X144503Y177505D01*
Y175505D01*
X143503Y174505D01*
X139504D01*
Y180503D02*
X138505Y181503D01*
Y183502D01*
X139504Y184502D01*
X143503D01*
X144503Y183502D01*
Y181503D01*
X143503Y180503D01*
X139504D01*
X465328Y376415D02*
Y378415D01*
Y377415D01*
X459330D01*
X460330Y376415D01*
X465328Y381414D02*
Y383413D01*
Y382414D01*
X459330D01*
X460330Y381414D01*
X465328Y386412D02*
Y388411D01*
Y387412D01*
X459330D01*
X460330Y386412D01*
X465328Y391411D02*
X464329D01*
Y392410D01*
X465328D01*
Y391411D01*
X460330Y396409D02*
X459330Y397409D01*
Y399408D01*
X460330Y400408D01*
X464329D01*
X465328Y399408D01*
Y397409D01*
X464329Y396409D01*
X460330D01*
X459330Y402407D02*
Y406406D01*
X460330D01*
X464329Y402407D01*
X465328D01*
X167194Y146522D02*
X163195D01*
Y143523D01*
X165194Y144523D01*
X166194D01*
X167194Y143523D01*
Y141524D01*
X166194Y140524D01*
X164195D01*
X163195Y141524D01*
X169193Y140524D02*
Y141524D01*
X170193D01*
Y140524D01*
X169193D01*
X174191D02*
X176191D01*
X175191D01*
Y146522D01*
X174191Y145522D01*
X183189Y146522D02*
X181189Y145522D01*
X179190Y143523D01*
Y141524D01*
X180190Y140524D01*
X182189D01*
X183189Y141524D01*
Y142523D01*
X182189Y143523D01*
X179190D01*
X432096Y594694D02*
X426098D01*
X429097Y591695D01*
Y595693D01*
X432096Y597693D02*
X431097D01*
Y598692D01*
X432096D01*
Y597693D01*
X427098Y602691D02*
X426098Y603691D01*
Y605690D01*
X427098Y606690D01*
X431097D01*
X432096Y605690D01*
Y603691D01*
X431097Y602691D01*
X427098D01*
Y608689D02*
X426098Y609689D01*
Y611688D01*
X427098Y612688D01*
X431097D01*
X432096Y611688D01*
Y609689D01*
X431097Y608689D01*
X427098D01*
X266291Y632818D02*
X262292D01*
Y629819D01*
X264292Y630818D01*
X265291D01*
X266291Y629819D01*
Y627819D01*
X265291Y626820D01*
X263292D01*
X262292Y627819D01*
X272289Y626820D02*
X268290D01*
X272289Y630818D01*
Y631818D01*
X271289Y632818D01*
X269290D01*
X268290Y631818D01*
X274288Y626820D02*
Y627819D01*
X275288D01*
Y626820D01*
X274288D01*
X283285D02*
X279287D01*
X283285Y630818D01*
Y631818D01*
X282286Y632818D01*
X280286D01*
X279287Y631818D01*
X285285D02*
X286284Y632818D01*
X288284D01*
X289283Y631818D01*
Y630818D01*
X288284Y629819D01*
X289283Y628819D01*
Y627819D01*
X288284Y626820D01*
X286284D01*
X285285Y627819D01*
Y628819D01*
X286284Y629819D01*
X285285Y630818D01*
Y631818D01*
X286284Y629819D02*
X288284D01*
D20*
X225000Y378740D02*
D03*
X216732D02*
D03*
Y372441D02*
D03*
X225000D02*
D03*
D21*
X220866Y378740D02*
D03*
Y372441D02*
D03*
D46*
X250197Y558858D02*
D03*
Y562598D02*
D03*
Y566339D02*
D03*
X239567D02*
D03*
Y562598D02*
D03*
Y558858D02*
D03*
D58*
X323329Y522306D02*
D03*
Y517306D02*
D03*
Y512306D02*
D03*
Y507306D02*
D03*
Y502306D02*
D03*
Y497306D02*
D03*
Y492306D02*
D03*
Y487306D02*
D03*
X344588D02*
D03*
Y492306D02*
D03*
Y497306D02*
D03*
Y502306D02*
D03*
Y507306D02*
D03*
Y512306D02*
D03*
Y517306D02*
D03*
Y522306D02*
D03*
X343062Y291139D02*
D03*
Y286139D02*
D03*
Y281139D02*
D03*
Y276139D02*
D03*
Y271139D02*
D03*
Y266139D02*
D03*
Y261139D02*
D03*
Y256139D02*
D03*
X321802D02*
D03*
Y261139D02*
D03*
Y266139D02*
D03*
Y271139D02*
D03*
Y276139D02*
D03*
Y281139D02*
D03*
Y286139D02*
D03*
Y291139D02*
D03*
D59*
X238189Y362992D02*
D03*
X236221D02*
D03*
X234252D02*
D03*
X232283D02*
D03*
X230315D02*
D03*
X228346D02*
D03*
X226378D02*
D03*
X224410D02*
D03*
X222441D02*
D03*
X220472D02*
D03*
X218504D02*
D03*
X216535D02*
D03*
X214567D02*
D03*
X212598D02*
D03*
X210630D02*
D03*
X208661D02*
D03*
X206693D02*
D03*
X204724D02*
D03*
X202756D02*
D03*
X200787D02*
D03*
X198819D02*
D03*
X196850D02*
D03*
X194882D02*
D03*
X192913D02*
D03*
X190945D02*
D03*
Y303543D02*
D03*
X192913D02*
D03*
X194882D02*
D03*
X196850D02*
D03*
X198819D02*
D03*
X200787D02*
D03*
X202756D02*
D03*
X204724D02*
D03*
X206693D02*
D03*
X208661D02*
D03*
X210630D02*
D03*
X212598D02*
D03*
X214567D02*
D03*
X216535D02*
D03*
X218504D02*
D03*
X220472D02*
D03*
X222441D02*
D03*
X224410D02*
D03*
X226378D02*
D03*
X228346D02*
D03*
X230315D02*
D03*
X232283D02*
D03*
X234252D02*
D03*
X236221D02*
D03*
X238189D02*
D03*
D60*
X184843Y356890D02*
D03*
Y354921D02*
D03*
Y352953D02*
D03*
Y350984D02*
D03*
Y349016D02*
D03*
Y347047D02*
D03*
Y345079D02*
D03*
Y343110D02*
D03*
Y341142D02*
D03*
Y339173D02*
D03*
Y337205D02*
D03*
Y335236D02*
D03*
Y333268D02*
D03*
Y331299D02*
D03*
Y329331D02*
D03*
Y327362D02*
D03*
Y325394D02*
D03*
Y323425D02*
D03*
Y321457D02*
D03*
Y319488D02*
D03*
Y317520D02*
D03*
Y315551D02*
D03*
Y313583D02*
D03*
Y311614D02*
D03*
Y309646D02*
D03*
X244291D02*
D03*
Y311614D02*
D03*
Y313583D02*
D03*
Y315551D02*
D03*
Y317520D02*
D03*
Y319488D02*
D03*
Y321457D02*
D03*
Y323425D02*
D03*
Y325394D02*
D03*
Y327362D02*
D03*
Y329331D02*
D03*
Y331299D02*
D03*
Y333268D02*
D03*
Y335236D02*
D03*
Y337205D02*
D03*
Y339173D02*
D03*
Y341142D02*
D03*
Y343110D02*
D03*
Y345079D02*
D03*
Y347047D02*
D03*
Y349016D02*
D03*
Y350984D02*
D03*
Y352953D02*
D03*
Y354921D02*
D03*
Y356890D02*
D03*
D61*
X325197Y230118D02*
D03*
X372441D02*
D03*
X364567D02*
D03*
X356693D02*
D03*
X380315D02*
D03*
X348819D02*
D03*
X340945D02*
D03*
X333071D02*
D03*
X380709Y548268D02*
D03*
X333465D02*
D03*
X341339D02*
D03*
X349213D02*
D03*
X325590D02*
D03*
X357087D02*
D03*
X364961D02*
D03*
X372835D02*
D03*
D62*
X312992Y207480D02*
D03*
X392520D02*
D03*
X392913Y570905D02*
D03*
X313386D02*
D03*
D63*
X333211Y367163D02*
D03*
X250787Y403937D02*
D03*
X215354Y432283D02*
D03*
X333071Y320866D02*
D03*
X206693Y572047D02*
D03*
X172441Y566535D02*
D03*
X214961Y444488D02*
D03*
X239370Y403937D02*
D03*
D64*
X266291Y372036D02*
D03*
X272538D02*
D03*
X272538Y360225D02*
D03*
X266291D02*
D03*
X266291Y366130D02*
D03*
X272538D02*
D03*
X208635Y371654D02*
D03*
X202388D02*
D03*
X233910Y294488D02*
D03*
X240158D02*
D03*
X310062Y365417D02*
D03*
X316309D02*
D03*
X248006Y552362D02*
D03*
X241758D02*
D03*
X248006Y546063D02*
D03*
X241758D02*
D03*
X190603Y371654D02*
D03*
X196850D02*
D03*
X267742Y309055D02*
D03*
X273990D02*
D03*
Y303150D02*
D03*
X267742D02*
D03*
X310127Y359443D02*
D03*
X316374D02*
D03*
X200710Y204331D02*
D03*
X194463D02*
D03*
X200710Y210237D02*
D03*
X194463D02*
D03*
X200710Y216142D02*
D03*
X194463D02*
D03*
X241758Y476772D02*
D03*
X248006D02*
D03*
D65*
X272170Y379516D02*
D03*
X266670D02*
D03*
X214567Y470079D02*
D03*
X209067D02*
D03*
X234646Y440158D02*
D03*
X240146D02*
D03*
X268122Y296063D02*
D03*
X273622D02*
D03*
D66*
X172358Y420866D02*
D03*
Y388583D02*
D03*
X172752Y270866D02*
D03*
Y222835D02*
D03*
X172358Y476378D02*
D03*
Y428346D02*
D03*
X392996Y414173D02*
D03*
Y462205D02*
D03*
X392913Y303937D02*
D03*
Y351969D02*
D03*
X392996Y356693D02*
D03*
Y404724D02*
D03*
Y296850D02*
D03*
Y240945D02*
D03*
X392913Y524016D02*
D03*
Y468110D02*
D03*
D67*
X194996Y400787D02*
D03*
Y408661D02*
D03*
X195390Y235039D02*
D03*
Y242913D02*
D03*
Y250787D02*
D03*
Y258661D02*
D03*
X194996Y440551D02*
D03*
Y448425D02*
D03*
Y456299D02*
D03*
Y464173D02*
D03*
X370358Y450000D02*
D03*
Y442126D02*
D03*
Y434252D02*
D03*
Y426378D02*
D03*
X370276Y339764D02*
D03*
Y331890D02*
D03*
Y324016D02*
D03*
Y316142D02*
D03*
X370358Y392520D02*
D03*
Y384646D02*
D03*
Y376772D02*
D03*
Y368898D02*
D03*
Y253150D02*
D03*
Y261024D02*
D03*
Y268898D02*
D03*
Y276772D02*
D03*
Y284646D02*
D03*
X370276Y480315D02*
D03*
Y488189D02*
D03*
Y496063D02*
D03*
Y503937D02*
D03*
Y511811D02*
D03*
D68*
X208740Y244094D02*
D03*
X262874D02*
D03*
X208740Y211417D02*
D03*
X262874D02*
D03*
D69*
X248425Y221654D02*
D03*
X244094D02*
D03*
X239764D02*
D03*
X235433D02*
D03*
X231102D02*
D03*
X226772D02*
D03*
X222441D02*
D03*
X218110D02*
D03*
D70*
X255118Y344908D02*
D03*
Y351155D02*
D03*
X181890Y371628D02*
D03*
Y365380D02*
D03*
X196457Y285065D02*
D03*
Y291313D02*
D03*
X190551Y291287D02*
D03*
Y285039D02*
D03*
X208268Y291313D02*
D03*
Y285065D02*
D03*
X202362Y291287D02*
D03*
Y285039D02*
D03*
X170079Y371628D02*
D03*
Y365380D02*
D03*
X175984D02*
D03*
Y371628D02*
D03*
X239764Y433439D02*
D03*
Y427191D02*
D03*
X220079Y278367D02*
D03*
Y272119D02*
D03*
X214173Y278367D02*
D03*
Y272119D02*
D03*
X214173Y291339D02*
D03*
Y285091D02*
D03*
X220079Y291339D02*
D03*
Y285091D02*
D03*
X250394Y412624D02*
D03*
Y418872D02*
D03*
X239764Y412624D02*
D03*
Y418872D02*
D03*
X233465Y378714D02*
D03*
Y372467D02*
D03*
X227165Y503176D02*
D03*
Y509423D02*
D03*
X171653Y540158D02*
D03*
Y546405D02*
D03*
X261024Y552336D02*
D03*
Y546089D02*
D03*
X171653Y528398D02*
D03*
Y534646D02*
D03*
X175984Y509081D02*
D03*
Y515328D02*
D03*
X183465Y552336D02*
D03*
Y546089D02*
D03*
X177559Y528398D02*
D03*
Y534646D02*
D03*
Y540158D02*
D03*
Y546405D02*
D03*
X201181Y552336D02*
D03*
Y546089D02*
D03*
X206693Y502310D02*
D03*
Y496063D02*
D03*
Y515302D02*
D03*
Y509055D02*
D03*
X255118Y546089D02*
D03*
Y552336D02*
D03*
X207087Y527191D02*
D03*
Y533439D02*
D03*
X198425Y502310D02*
D03*
Y496063D02*
D03*
X183465Y502310D02*
D03*
Y496063D02*
D03*
X190945Y502284D02*
D03*
Y496037D02*
D03*
Y509055D02*
D03*
Y515302D02*
D03*
X198425Y509029D02*
D03*
Y515276D02*
D03*
X183465Y515302D02*
D03*
Y509055D02*
D03*
X227165Y491365D02*
D03*
Y497612D02*
D03*
X183071Y299974D02*
D03*
Y293727D02*
D03*
X239370Y372467D02*
D03*
X239370Y378714D02*
D03*
X250394Y427191D02*
D03*
Y433439D02*
D03*
D71*
X254823Y456280D02*
D03*
Y461279D02*
D03*
Y466280D02*
D03*
Y471279D02*
D03*
X234154Y456280D02*
D03*
Y461279D02*
D03*
Y466280D02*
D03*
Y471279D02*
D03*
D72*
X223622Y457280D02*
D03*
Y470079D02*
D03*
X238976Y505612D02*
D03*
Y492813D02*
D03*
X251969Y505612D02*
D03*
Y492813D02*
D03*
D73*
X326378Y334252D02*
D03*
X318504Y337992D02*
D03*
Y330512D02*
D03*
X205315Y460039D02*
D03*
X213189Y456299D02*
D03*
Y463779D02*
D03*
D74*
X356528Y184576D02*
D03*
X204269Y587675D02*
D03*
X210236Y189764D02*
D03*
X356367Y595170D02*
D03*
D75*
X172835Y358268D02*
D03*
Y341732D02*
D03*
D76*
X310039Y316752D02*
D03*
Y321752D02*
D03*
Y326752D02*
D03*
Y331752D02*
D03*
Y336752D02*
D03*
Y341752D02*
D03*
Y346752D02*
D03*
Y351752D02*
D03*
X273425Y316752D02*
D03*
Y321752D02*
D03*
Y326752D02*
D03*
Y331752D02*
D03*
Y336752D02*
D03*
Y341752D02*
D03*
Y346752D02*
D03*
Y351752D02*
D03*
D77*
X224016Y535433D02*
D03*
Y519685D02*
D03*
D78*
X245276Y536878D02*
D03*
Y515378D02*
D03*
D79*
X191732Y533858D02*
D03*
D80*
X197638Y537795D02*
D03*
Y535827D02*
D03*
Y533858D02*
D03*
Y531890D02*
D03*
Y529921D02*
D03*
X185827D02*
D03*
Y531890D02*
D03*
Y533858D02*
D03*
Y535827D02*
D03*
Y537795D02*
D03*
D81*
X187402Y561024D02*
D03*
X203150D02*
D03*
D82*
X229528Y548904D02*
D03*
Y562120D02*
D03*
X220472Y548904D02*
D03*
Y562120D02*
D03*
D83*
X256693Y356170D02*
X261417Y351445D01*
Y345669D02*
Y351445D01*
X251969Y487217D02*
Y492813D01*
X251872Y487120D02*
X251969Y487217D01*
X251872Y487067D02*
Y487120D01*
X238976Y487588D02*
Y492813D01*
Y487588D02*
X239036Y487528D01*
Y487475D02*
Y487528D01*
X243648Y378714D02*
X243804Y378558D01*
X233465Y378714D02*
X243648D01*
X243804Y378558D02*
X243857D01*
X210913Y549537D02*
Y557934D01*
X215033Y562054D02*
X220406D01*
X210913Y557934D02*
X215033Y562054D01*
X207699Y546322D02*
X210913Y549537D01*
X201415Y546322D02*
X207699D01*
X201181Y546089D02*
X201415Y546322D01*
X198408Y538102D02*
X201181Y540874D01*
Y545589D01*
X220406Y562054D02*
X220472Y562120D01*
X229528D01*
X229528Y562120D01*
X231206Y562598D02*
X234946Y566339D01*
X231206Y562598D02*
X239567D01*
X230006D02*
X231206D01*
X191823Y554947D02*
X201181Y545589D01*
X241760Y471253D02*
Y476770D01*
X241758Y476772D02*
X241760Y476770D01*
Y471253D02*
X241761Y471252D01*
X255512Y525984D02*
X262532Y533005D01*
Y545081D01*
X261524Y546089D02*
X262532Y545081D01*
X261024Y546089D02*
X261524D01*
X256134Y544165D02*
Y545573D01*
X259340Y540919D02*
Y540959D01*
X256134Y544165D02*
X259340Y540959D01*
X255618Y546089D02*
X256134Y545573D01*
X255118Y546089D02*
X255618D01*
X229507Y548924D02*
X229528Y548904D01*
X229507Y548924D02*
Y553892D01*
X220390Y553800D02*
Y553853D01*
X220472Y548904D02*
Y553717D01*
X220390Y553800D02*
X220472Y553717D01*
X234946Y566339D02*
X239567D01*
X245531Y562408D02*
X245722Y562598D01*
X250197D01*
X245478Y562408D02*
X245531D01*
X218598Y519361D02*
X223692D01*
X224016Y519685D01*
X256693Y385683D02*
Y392913D01*
Y383071D02*
Y385683D01*
Y356170D02*
Y383071D01*
X266100Y360034D02*
X266291Y360225D01*
X263579Y360034D02*
X266100D01*
X263542Y359996D02*
X263579Y360034D01*
X262992Y477953D02*
Y492242D01*
Y450394D02*
Y477953D01*
X180315Y566535D02*
X185827Y561024D01*
X172441Y566535D02*
X180315D01*
X185827Y561024D02*
X187402D01*
X203150D02*
Y568233D01*
X206693Y571776D01*
Y572047D01*
X196063Y561024D02*
X203150D01*
X201194Y552349D02*
X205499D01*
X205512Y552362D01*
X201181Y552336D02*
X201194Y552349D01*
X191732Y533858D02*
Y540551D01*
Y533858D02*
X191732Y533858D01*
X171811Y546247D02*
X183307D01*
X183465Y540551D02*
X185433Y538583D01*
X183465Y540551D02*
Y546089D01*
X183307Y546247D02*
X183465Y546089D01*
X171653Y546405D02*
X171811Y546247D01*
X183465Y496063D02*
X198425D01*
X198425Y496063D01*
X261417Y294882D02*
Y326378D01*
X272441Y230315D02*
Y283858D01*
X261417Y294882D02*
X267126Y289173D01*
X272441Y283858D01*
X256693Y392913D02*
Y444095D01*
X262992Y450394D01*
X256693Y498542D02*
X262992Y492242D01*
X249016Y505612D02*
X254921D01*
X256496Y503081D02*
X256693Y502884D01*
Y498542D02*
Y502884D01*
X256496Y503081D02*
Y504037D01*
X254921Y505612D02*
X256496Y504037D01*
X235433Y204331D02*
X246457D01*
X200710D02*
X235433D01*
X200710Y210237D02*
Y216142D01*
Y204331D02*
Y210237D01*
X246457Y204331D02*
X272441Y230315D01*
X251969Y492813D02*
X251969Y492813D01*
X178347Y258661D02*
X195390D01*
X243831Y535433D02*
X245276Y536878D01*
X224016Y535433D02*
X243831D01*
X247441Y507187D02*
X249016Y505612D01*
X245276Y515378D02*
X247441Y513213D01*
Y507187D02*
Y513213D01*
X241142Y505612D02*
X242717Y507187D01*
X238976Y505612D02*
X241142D01*
X242717Y507187D02*
Y512819D01*
X245276Y515378D01*
X255512Y517937D02*
Y525984D01*
X245276Y515378D02*
X252953D01*
X255512Y517937D01*
X255118Y552336D02*
X261024D01*
X250197Y566339D02*
X250394Y566142D01*
X255118Y552336D02*
Y563406D01*
X252382Y566142D02*
X255118Y563406D01*
X250394Y566142D02*
X252382D01*
X241758Y539437D02*
X244317Y536878D01*
X241758Y539437D02*
Y546063D01*
X244317Y536878D02*
X245276D01*
X249016Y557677D02*
Y558661D01*
X249213Y558858D02*
X250197D01*
X248006Y556667D02*
X249016Y557677D01*
Y558661D02*
X249213Y558858D01*
X248006Y546063D02*
Y556667D01*
X239567Y558858D02*
X240551D01*
X241758Y552362D02*
Y557651D01*
X240551Y558858D02*
X241758Y557651D01*
Y546063D02*
Y552362D01*
X177953Y448425D02*
X194996D01*
X177953Y440551D02*
X194996D01*
X198130Y538102D02*
X198408D01*
X187402Y561024D02*
X188976D01*
X191823Y558177D01*
Y554947D02*
Y558177D01*
X180709Y490551D02*
Y493307D01*
X182449Y495047D01*
X167717Y503543D02*
X180709Y490551D01*
X167717Y503543D02*
Y542968D01*
X171153Y546405D01*
X171653D01*
X180709Y481890D02*
Y490551D01*
X177490Y469483D02*
X180735Y472728D01*
X176213Y469483D02*
X177490D01*
X172968Y466238D02*
X176213Y469483D01*
X180735Y472728D02*
Y481863D01*
X172968Y445535D02*
Y466238D01*
X180709Y481890D02*
X180735Y481863D01*
X172968Y445535D02*
X177953Y440551D01*
D84*
X325197Y213032D02*
D03*
X340945D02*
D03*
X348819D02*
D03*
X356693D02*
D03*
X364567D02*
D03*
X372441D02*
D03*
X380315D02*
D03*
X333071D02*
D03*
X380709Y565354D02*
D03*
X364961D02*
D03*
X357087D02*
D03*
X349213D02*
D03*
X341339D02*
D03*
X333465D02*
D03*
X325590D02*
D03*
X372835D02*
D03*
X177953Y400787D02*
D03*
Y408661D02*
D03*
X178347Y258661D02*
D03*
Y250787D02*
D03*
Y235039D02*
D03*
Y242913D02*
D03*
X177953Y464173D02*
D03*
Y456299D02*
D03*
Y440551D02*
D03*
Y448425D02*
D03*
X387402Y426378D02*
D03*
Y434252D02*
D03*
Y450000D02*
D03*
Y442126D02*
D03*
X387319Y316142D02*
D03*
Y324016D02*
D03*
Y339764D02*
D03*
Y331890D02*
D03*
X387402Y368898D02*
D03*
Y376772D02*
D03*
Y392520D02*
D03*
Y384646D02*
D03*
X276693Y448504D02*
D03*
Y418504D02*
D03*
X306693Y448504D02*
D03*
Y418504D02*
D03*
X326693Y448504D02*
D03*
Y418504D02*
D03*
X346693Y448504D02*
D03*
Y418504D02*
D03*
X387402Y276772D02*
D03*
Y284646D02*
D03*
Y268898D02*
D03*
Y261024D02*
D03*
Y253150D02*
D03*
X387319Y503937D02*
D03*
Y511811D02*
D03*
Y496063D02*
D03*
Y488189D02*
D03*
Y480315D02*
D03*
D85*
X249055Y280315D02*
D03*
Y275315D02*
D03*
X244055D02*
D03*
Y280315D02*
D03*
X239055D02*
D03*
Y275315D02*
D03*
X254055D02*
D03*
Y280315D02*
D03*
X259055D02*
D03*
Y275315D02*
D03*
D86*
X336063Y407087D02*
D03*
X346063D02*
D03*
X336457Y459842D02*
D03*
X346457D02*
D03*
D87*
X172047Y306142D02*
D03*
Y316142D02*
D03*
D88*
Y326142D02*
D03*
D89*
X245801Y293746D02*
D03*
X316788Y352774D02*
D03*
X316549Y319330D02*
D03*
X330993Y334411D02*
D03*
X348686Y290954D02*
D03*
X348840Y283479D02*
D03*
X350207Y276043D02*
D03*
X348736Y269318D02*
D03*
X337433Y260941D02*
D03*
X337693Y256604D02*
D03*
X327228Y262428D02*
D03*
X326492Y265882D02*
D03*
X332360Y268565D02*
D03*
X333747Y272474D02*
D03*
X241521Y398609D02*
D03*
X240938Y395125D02*
D03*
X261110Y401284D02*
D03*
X264539Y236386D02*
D03*
X264677Y204311D02*
D03*
X194377Y221913D02*
D03*
X226788Y215581D02*
D03*
X206967Y218732D02*
D03*
X207115Y237049D02*
D03*
X232820Y311643D02*
D03*
X246298Y305963D02*
D03*
X215181Y356537D02*
D03*
X243857Y378558D02*
D03*
X326830Y291313D02*
D03*
X326994Y287129D02*
D03*
X316425Y275987D02*
D03*
X316296Y255982D02*
D03*
X241761Y471252D02*
D03*
X259340Y540919D02*
D03*
X229507Y553892D02*
D03*
X220390Y553853D02*
D03*
X248956Y461047D02*
D03*
X331596Y246504D02*
D03*
X329000Y239932D02*
D03*
X239900Y285413D02*
D03*
X233931Y289918D02*
D03*
X245478Y562408D02*
D03*
X218598Y519361D02*
D03*
X334602Y354896D02*
D03*
X338583Y351181D02*
D03*
X260630Y396457D02*
D03*
X250000Y438189D02*
D03*
X243870Y444882D02*
D03*
X332677Y344488D02*
D03*
X327559Y348031D02*
D03*
X241732Y302756D02*
D03*
X230315Y267323D02*
D03*
X220472D02*
D03*
D90*
X336614Y502244D02*
D03*
X357625Y508171D02*
D03*
X328757Y492900D02*
D03*
X328765Y496457D02*
D03*
X317412Y487340D02*
D03*
X338904Y488211D02*
D03*
X338911Y491446D02*
D03*
X350116Y512277D02*
D03*
X350342Y517063D02*
D03*
X350245Y522456D02*
D03*
X329457Y521788D02*
D03*
X329261Y518437D02*
D03*
X317717Y507087D02*
D03*
X337061Y507409D02*
D03*
X267766Y346760D02*
D03*
X267120Y319249D02*
D03*
X221631Y356054D02*
D03*
X191911Y354862D02*
D03*
X182014Y361263D02*
D03*
X177978Y352795D02*
D03*
X181971Y376046D02*
D03*
X175982Y376055D02*
D03*
X202363Y376334D02*
D03*
X196801Y376212D02*
D03*
X227129Y487396D02*
D03*
X251872Y487067D02*
D03*
X239036Y487475D02*
D03*
X251575Y338559D02*
D03*
X244713Y383072D02*
D03*
X252287Y383053D02*
D03*
X353921Y507874D02*
D03*
X333858Y509055D02*
D03*
X263542Y359996D02*
D03*
X254656Y353869D02*
D03*
X258268Y340158D02*
D03*
X190551Y281496D02*
D03*
X364173Y522047D02*
D03*
X209449Y460236D02*
D03*
X179528Y552362D02*
D03*
X207087Y521260D02*
D03*
X191732Y540551D02*
D03*
X170866Y523622D02*
D03*
X179867Y512259D02*
D03*
X196063Y561024D02*
D03*
X205512Y552362D02*
D03*
D91*
X212205Y378740D02*
D03*
X183071Y290551D02*
D03*
X172835Y338976D02*
D03*
D92*
X261417Y345669D02*
D03*
Y326378D02*
D03*
M02*
